<svg width="1441" height="245" viewBox="0 0 1441 245" fill="none" xmlns="http://www.w3.org/2000/svg">
<path d="M1441 244.713H1012.59L1012.58 244.712C995.693 243.838 983.687 241.683 974.891 235.779C966.07 229.859 960.562 220.231 956.508 204.638L956.496 204.593L956.492 204.546L956.991 204.513L956.492 204.545V204.538C956.492 204.533 956.491 204.525 956.49 204.515C956.489 204.494 956.487 204.463 956.484 204.423C956.479 204.342 956.47 204.22 956.459 204.062C956.437 203.743 956.404 203.27 956.359 202.659C956.27 201.437 956.137 199.655 955.959 197.425C955.603 192.963 955.07 186.7 954.359 179.499C952.939 165.093 950.811 146.942 947.982 131.934C946.568 124.431 945.008 118.696 943.144 114.561C941.277 110.421 939.136 107.954 936.604 106.872C934.08 105.793 931.044 106.04 927.263 107.608C923.487 109.175 919.035 112.031 913.732 116.065L837.09 190.74L836.83 190.993L836.509 190.824L694.527 116.299L573.033 230.446L572.706 230.754L572.365 230.461L398.549 81.1191C398.532 81.1105 398.51 81.0997 398.485 81.0869C398.408 81.0477 398.293 80.9891 398.143 80.9131C397.841 80.761 397.394 80.5373 396.817 80.2529C395.663 79.6839 393.987 78.8706 391.9 77.8945C387.726 75.942 381.911 73.3391 375.347 70.7363C362.195 65.5216 346.115 60.3418 334.194 60.3418H0V0H1441V244.713Z" fill="#F4F2E9"/>
</svg>
