<svg width="322" height="289" viewBox="0 0 322 289" fill="none" xmlns="http://www.w3.org/2000/svg">
<circle cx="164.5" cy="144.5" r="144.5" fill="#FFDE00"/>
<g clip-path="url(#clip0_202_10)">
<path d="M216.082 147.374C215.668 142.917 215.253 138.46 214.839 134.003C214.626 133.912 214.412 133.82 214.198 133.729C208.156 145.086 202.113 156.444 195.874 168.171C186.145 157.691 176.687 147.501 166.985 137.05C158.135 153.231 149.322 169.343 140.289 185.858C135.271 177.8 130.464 170.203 125.781 162.535C116.77 147.783 107.802 133.006 98.8786 118.203C96.5397 114.323 92.9315 112.543 88.2051 111.579C83.7152 111.506 79.6495 111.551 75.5837 111.597C75.1498 111.562 74.7158 111.528 73.8562 111.466C72.8328 111.492 72.2351 111.546 71.6373 111.601C70.6565 111.566 69.6757 111.532 68.2039 111.469C56.9673 111.496 46.2217 111.552 35.4761 111.608C35.2472 111.571 35.0184 111.535 34.3739 111.469C32.3957 111.491 30.833 111.542 29.2702 111.594C28.8717 111.559 28.4731 111.525 27.6239 111.464C23.3836 111.303 19.594 111.169 15.8043 111.035C15.8043 111.035 15.6905 110.832 15.5181 110.633C12.8873 108.275 10.4289 106.116 7.97046 103.957C8.18919 103.675 8.40793 103.392 8.62666 103.11C10.8459 103.11 13.0652 103.118 15.2844 103.109C28.048 103.055 40.8115 102.997 53.575 102.941C53.8231 102.972 54.0711 103.002 54.7614 103.066C66.3233 103.09 77.4428 103.08 88.5624 103.07C92.1678 104.299 95.912 105.243 99.342 106.83C103.277 108.652 105.616 112.151 107.785 115.771C117.847 132.567 128.008 149.308 138.14 166.065C138.603 166.832 139.131 167.561 139.773 168.522C148.225 153.028 156.561 137.748 165.055 122.178C174.597 132.669 184.02 143.029 193.647 153.613C198.183 145.119 202.537 136.971 206.885 128.821C207.836 127.038 208.709 125.213 209.719 123.463C211.335 120.663 214.189 119.429 217.342 120.06C220.434 120.679 222.406 122.994 222.728 126.28C223.227 131.378 223.767 136.473 224.318 142.02C224.551 143.802 224.755 145.131 224.96 146.46C224.96 146.46 225.004 146.435 224.928 146.686C225.64 154.298 226.338 161.669 227.249 169.014C227.795 173.407 230.297 176.846 234.41 178.531C237.158 179.657 240.372 180.129 243.384 180.152C263.197 180.302 283.011 180.246 302.825 180.28C303.737 180.282 304.985 180.177 305.502 180.68C308.046 183.159 310.396 185.826 312.91 188.529C308.603 188.529 304.16 188.526 299.716 188.529C280.841 188.544 261.966 188.543 243.091 188.582C234.035 188.601 226.677 185.37 221.38 178.069C221.38 178.069 221.335 178.02 221.268 177.803C220.204 174.112 218.828 170.692 218.29 167.151C217.295 160.596 216.791 153.97 216.082 147.374Z" fill="#FDFCF5"/>
<path d="M228.304 193.152C226.96 192.663 225.411 191.288 224.057 190.35C219.673 187.227 218.098 184.923 216.059 181.929L216.576 182.556C216.448 182.418 216.449 182.416 216.413 182.375C216.379 182.336 216.362 182.316 216.345 182.296C216.311 182.255 216.276 182.213 216.257 182.189C216.209 182.129 216.175 182.084 216.144 182.043C216.082 181.962 216.037 181.899 216 181.847C215.924 181.738 215.874 181.661 215.827 181.587C215.738 181.447 215.679 181.344 215.629 181.254C215.529 181.073 215.469 180.95 215.416 180.838C215.313 180.619 215.253 180.468 215.202 180.334C215.102 180.07 215.047 179.889 215 179.725L214.968 179.62C214.819 178.93 214.629 178.165 214.379 177.255C213.908 175.395 212.724 172.412 212.064 168.096C210.816 158.862 210.35 147.992 212.699 147.738C212.7 147.738 212.7 147.738 212.7 147.738C212.733 147.734 212.766 147.733 212.8 147.733C213.449 147.736 214.335 149.446 215.085 149.639C215.836 149.83 220.497 149.157 221.013 151.692C221.7 155.389 221.446 164.218 221.838 166.106C221.867 166.266 221.902 166.43 221.942 166.596C222.204 167.621 222.82 168.782 223.276 170.107C224.104 172.497 224.817 174.536 225.497 176.584L225.475 176.513C225.468 176.482 225.457 176.437 225.42 176.336C225.4 176.283 225.376 176.219 225.325 176.108C225.298 176.051 225.267 175.985 225.21 175.882C225.181 175.831 225.146 175.77 225.092 175.684C225.064 175.639 225.032 175.59 224.984 175.521C224.961 175.488 224.932 175.448 224.892 175.395C224.872 175.368 224.85 175.34 224.818 175.3C224.805 175.284 224.782 175.256 224.76 175.229C224.748 175.216 224.738 175.203 224.715 175.177C224.69 175.149 224.692 175.149 224.606 175.055L224.953 175.476C226.039 176.794 227.301 177.917 229.134 178.732C229.938 180.213 230.971 181.628 232.259 182.919C234.332 183.672 237.522 185.245 239.006 185.348C240.188 185.459 240.914 185.029 242.139 185.045C242.424 185.047 242.736 185.069 243.084 185.099C244.555 185.215 246.493 185.528 248.703 185.462C253.266 185.328 254.076 184.065 256.813 183.901C259.652 183.731 264.067 184.413 267.689 183.966C268.143 183.827 268.597 183.688 269.052 183.548C268.726 183.235 268.4 182.921 268.074 182.607C269.899 182.459 270.684 183.103 272.36 183.113C274.332 183.126 275.338 182.515 276.666 182.517C277.753 182.519 279.227 183.008 280.637 182.976C282.692 182.933 282.242 182.227 283.348 182.094C283.789 182.042 291.946 181.648 292.406 181.642C295.906 181.612 296.212 182.579 299.002 182.661C299.239 182.668 299.475 182.674 299.712 182.679C304.119 182.772 308.579 182.56 312.91 182.308L308.355 192.766C306.076 190.575 303.963 188.503 302.014 186.686C301.599 186.298 301.187 185.912 300.777 185.53C302.013 186.686 302.874 186.837 303.266 186.961C303.68 187.062 303.797 187.056 303.818 187.061C303.828 187.06 303.513 187.064 302.814 187.065C301.099 187.048 299.384 186.992 297.709 186.909C302.73 184.44 291.624 182.503 295.775 186.379C292.23 185.825 289.716 186.869 286.353 186.692C284.179 186.575 282.674 186.038 279.567 186.051C274.056 186.077 268.02 187.596 266.439 184.834C259.964 185.31 254.359 184.286 252.012 186.709C250.34 186.851 246.066 185.375 244.194 185.164C244.019 185.144 243.729 185.119 243.347 185.09C241.273 184.954 236.846 184.523 232.726 182.642C228.442 180.846 225.757 176.921 225.209 175.777C224.29 174.205 223.442 171.731 223.167 169.521C223.001 168.351 222.827 167.271 222.654 166.525C222.12 164.206 219.419 162.81 221.927 158.317C221.2 153.475 221.127 151.736 221.045 147.196C221.044 147.144 221.045 147.096 221.047 147.049L221.197 145.557C221.199 145.576 221.197 145.604 221.178 145.723C221.169 145.789 221.154 145.861 221.133 146.082C221.125 146.204 221.104 146.334 221.126 146.725C221.155 146.95 221.126 147.187 221.407 147.925C221.585 148.298 221.798 148.932 222.838 149.667C223.332 150.007 224.098 150.281 224.783 150.302C225.122 150.318 225.454 150.288 225.757 150.223C225.919 150.188 226.044 150.154 226.212 150.097C226.296 150.067 226.335 150.054 226.451 150.006C226.558 149.958 226.589 149.951 226.836 149.818L221.905 152.472L221.158 147.045C221.224 146.547 221.492 146.369 221.433 145.979C221.31 145.173 220.903 143.914 220.619 142.503L220.606 142.389C220.553 142.084 220.506 141.773 220.467 141.459C220.115 138.593 220.863 136.857 219.495 137.321C219.066 135.449 218.636 133.575 218.208 131.697C218.411 131.002 218.614 130.308 218.817 129.613C218.438 128.668 218.059 127.722 217.682 126.774C217.666 126.754 217.651 126.735 217.636 126.717C217.784 126.738 217.913 126.748 218.025 126.74C218.049 126.739 218.072 126.737 218.094 126.733C218.791 126.666 218.735 125.741 218.291 125.411C217.84 125.045 217.335 125.362 217.009 125.801C217.027 125.508 217.011 125.169 216.388 124.83C215.544 124.443 214.905 124.324 214.164 124.581C213.686 123.702 212.851 124.011 212.493 125.064C211.718 126.969 211.414 129.799 212.231 129.755C212.032 130.138 211.827 130.529 211.616 130.926C211.542 131.025 211.468 131.126 211.395 131.226C209.245 134.129 208.082 137.284 205.668 140.955C203.176 144.744 203.177 144.263 201.59 144.972C201.143 145.938 200.696 146.904 200.249 147.87C200.214 152.384 198.148 151.988 196.052 154.898L194.156 158.317L191.629 155.448C190.825 154.284 189.538 152.943 187.252 151.372C186.558 147.879 180.785 142.966 177.018 139.652C176.58 139.267 176.31 139.499 175.708 139.002C174.242 137.782 171.338 133.908 170.598 134.804C169.721 133.345 168.845 131.887 167.968 130.429C166.896 129.561 165.824 128.693 164.751 127.824C164.49 128.071 164.229 128.317 163.969 128.564C163.574 127.371 162.777 126.173 161.893 125.054L168.808 124.225C167.739 125.897 166.868 127.677 166.126 128.682C165.871 129.026 165.392 128.869 164.643 129.96C163.766 131.234 162.521 133.822 161.507 135.358C161.647 136.247 161.787 137.135 161.927 138.024C160.617 141.045 158.794 141.364 157.773 143C157.59 143.295 154.652 148.898 154.516 149.212C153.395 151.779 154.856 151.676 150.759 158.634C150.029 159.873 149.098 160.688 148.461 161.821C147.335 163.82 144.873 170.354 145.397 171.259C145.321 171.322 145.243 171.39 145.165 171.464L140.123 180.386L134.663 171.931C134.498 171.212 134.06 170.365 133.326 168.976C131.865 165.98 129.501 162.402 128.884 160.934C128.627 160.316 129.159 159.819 128.236 158C127.488 156.525 124.8 153.186 123.798 151.346C122.738 149.392 122.84 148.403 122.361 147.53C121.908 146.705 121.046 146.213 120.385 145.115C118.33 141.684 117.123 138.181 115.502 135.466C113.159 131.539 109.849 128.818 107.332 125.864C106.922 125.002 106.705 124.044 106.194 123.188C105.264 121.627 104.321 120.033 103.371 118.415C101.397 114.995 99.5172 112.43 97.246 111.359C94.3787 109.952 90.8055 108.954 87.0224 107.589L88.5667 107.844C85.4779 107.781 82.4343 107.713 79.4785 107.642C73.7443 107.508 59.4836 105.557 63.2877 108.801C62.3538 109.066 58.6785 108.917 54.7498 108.678L54.2394 108.653C53.8377 108.592 53.3521 108.52 52.9015 108.439L53.5995 108.48C49.512 108.244 45.4231 107.95 44.0883 107.946C41.3337 107.939 39.1527 108.53 36.9877 108.548C30.4538 108.602 25.851 108.204 17.8995 108.744C17.0338 108.803 16.1424 108.962 15.3097 109.125C14.1509 109.349 13.1089 109.577 12.4015 109.572C11.2396 109.563 10.0151 109.144 8.62666 108.948L13.241 106.686C12.9906 106.93 12.7444 107.19 12.509 107.474L11.7597 99.6425C11.7819 99.6633 11.8043 99.6841 11.8268 99.7048C13.7137 101.434 16.6251 103.927 19.3638 106.342L19.8699 106.857C20.065 107.081 20.2223 107.284 20.3662 107.485C20.4381 107.586 20.506 107.685 20.5742 107.789C20.6531 107.912 20.6752 107.939 20.8314 108.211L16.0087 105.272C18.5995 105.344 21.0555 105.423 22.8273 105.534C23.6194 105.586 23.8771 106.18 25.0045 106.405C25.9305 106.59 26.8816 106.742 27.799 106.848L27.9534 106.857C28.5265 106.942 29.1266 107.017 29.66 107.072L29.1208 107.058C31.7853 107.006 33.8119 106.532 33.1914 105.312C33.5652 105.373 33.937 105.427 34.3072 105.475L34.9847 105.506C35.3696 105.599 35.9215 105.707 36.3995 105.825L35.4458 105.752C40.2811 106.234 44.8326 105.472 49.3962 105.399C54.4037 105.321 61.2712 105.351 68.1891 105.344L68.4651 105.349C69.5969 105.399 70.7115 105.441 71.8514 105.478L71.0828 105.5C71.8444 105.424 72.8733 105.356 73.6974 105.335L74.2999 105.349C74.8862 105.388 75.4942 105.431 76.071 105.473L75.5148 105.454C80.2258 105.362 84.7311 105.251 88.311 105.117L89.4958 105.247C90.3928 105.385 91.2627 105.545 92.0942 105.724C98.1829 107.385 100.965 107.799 105.275 114.347C105.819 115.325 106.436 116.503 107.165 117.965C108.055 119.75 108.893 121.557 109.977 123.72C112.517 128.791 113.883 134.031 117.712 136.748C120.557 142.368 123.449 146.462 124.512 151.271C125.125 151.541 125.737 151.812 126.349 152.082C126.758 152.734 127.167 153.387 127.576 154.039C127.39 154.434 127.204 154.829 127.017 155.224C127.905 156.739 129.009 158.298 130.181 159.848C132.678 163.148 135.51 166.39 137.185 169.089C139.045 172.089 142.163 177.285 145.336 182.715L135.074 183.005C138.909 176.443 142.959 169.657 145.149 166.215C147.27 162.881 146.687 162.32 149.179 161.11C149.504 160.282 149.829 159.455 150.155 158.627C150.111 157.974 150.067 157.322 150.024 156.668C152.439 152.223 155.798 147.221 158.106 142.99C159.448 140.528 160.92 137.626 162.458 134.574L166.036 128.276L170.767 133.54C175.904 138.712 181.593 144.385 185.361 149.08C186.748 150.81 188.097 153.329 189.577 154.91C191.729 157.213 193.132 156.955 195.869 159.871C197.047 161.127 198.412 162.715 199.867 164.465L191.064 165.612C194.599 159.761 199.243 152.665 201.468 148.311C202.35 146.588 202.379 145.581 202.964 144.379C205.277 139.619 207.361 135.749 209.196 131.067L211.762 126.43L216.428 128.519C216.651 128.586 216.875 128.651 217.102 128.716L220.312 130.154L220.565 133.471C220.58 133.536 220.594 133.602 220.609 133.668C219.995 139.518 218.467 139.16 217.137 141.079C216.134 142.533 213.904 146.913 212.97 147.592C212.314 148.069 211.277 146.612 210.567 147.261C209.526 141.578 209.631 138.579 210.016 134.452L212.933 138.456C212.74 138.327 212.544 138.195 212.345 138.06L218.357 135.942C217.968 136.425 217.558 136.93 217.125 137.467C212.295 146.637 207.465 155.807 202.635 164.977C201.822 165.612 201.009 166.249 200.197 166.884C200.196 166.883 200.195 166.883 200.194 166.883C199.47 167.919 198.991 168.826 198.648 169.647L196.66 173.532L193.571 170.309C192.131 169.022 190.867 168.483 189.744 167.52C182.438 161.254 172.864 151.213 163.184 140.579L171.536 139.54C163.467 153.957 154.7 168.756 148.771 179.301C147.799 181.03 146.045 184.403 144.157 187.973L140.664 194.588L136.547 188.188C133.371 183.248 129.945 177.853 129.237 175.952C128.928 175.122 129.348 174.575 128.884 173.777C126.761 170.702 124.644 167.617 122.544 164.512C120.015 160.776 117.489 157.037 114.966 153.296C109.048 142.137 102.121 131.223 95.2862 120.369C93.686 117.818 91.0915 116.616 87.326 115.892L88.1331 115.981C88.0741 115.98 88.0152 115.98 87.9563 115.979C83.8733 115.951 79.7781 116.028 75.6344 116.115L75.2253 116.101C74.653 116.06 74.1001 116.024 73.5282 115.988L73.9736 115.998C73.2973 116.023 72.772 116.062 72.0497 116.137L71.4782 116.153C70.3323 116.124 69.1642 116.091 68.0084 116.052L68.215 116.057C57.2895 116.185 46.387 116.341 35.5014 116.488L34.7065 116.427C34.5337 116.401 34.4818 116.395 34.336 116.379C34.2008 116.364 34.0417 116.348 33.8757 116.332L34.4284 116.358C32.7732 116.389 31.1332 116.451 29.4326 116.521L28.8468 116.506C28.3095 116.463 27.8127 116.429 27.2712 116.395L27.4366 116.404C23.4991 116.285 19.5643 116.173 15.6261 116.06L12.886 116.008L11.4202 113.497C11.5179 113.668 11.4961 113.626 11.5226 113.67C11.5397 113.697 11.5552 113.72 11.5728 113.745C11.608 113.795 11.6498 113.852 11.7178 113.931L12.1597 114.38C9.66432 112.173 7.14419 109.985 4.60913 107.784L1.02301 104.738L3.94448 100.837C4.16165 100.553 4.37882 100.27 4.59601 99.9862L6.0433 98.0535L8.62666 98.0106C10.859 97.9985 13.0712 97.9952 15.2629 97.9757C28.0515 97.8628 40.8133 97.7778 53.5521 97.7428L54.2072 97.7813C54.547 97.8247 54.8577 97.8555 55.2449 97.8927L54.7722 97.8702C57.1703 97.8797 59.5657 97.8896 61.9624 97.9001C70.0989 97.9375 80.2697 97.5145 88.5574 97.6963L90.2956 97.9835C90.8514 98.1884 91.4125 98.3903 91.9733 98.5927C95.2307 99.7994 96.4086 100.979 101.394 102.398C101.504 102.435 101.615 102.473 101.727 102.512C101.666 102.793 101.602 103.073 101.535 103.352C106.488 105.598 109.115 108.339 111.772 112.46C111.901 112.667 112.041 112.892 112.188 113.132C114.445 116.808 119.249 124.737 120.829 127.549C121.7 129.099 120.911 128.801 121.769 130.219C123.241 132.644 126.993 137.459 129.02 140.81C130.855 143.845 133.436 149.273 134.923 151.562C137.396 155.372 140.073 159.279 142.751 163.277C143.116 163.799 143.727 164.58 144.362 165.46L134.929 165.88C136.984 161.718 139.127 157.546 141.444 153.521C142.888 151.014 145.264 148.073 145.681 147.269C146.494 145.697 146.168 144.92 146.663 143.836C149.179 138.333 154.371 130.447 157.232 125.268C158.266 123.395 159.304 121.507 160.343 119.607L163.806 113.01L169.025 118.566C178.434 128.937 188.263 139.54 197.703 149.924L188.81 151.03C190.386 148.081 191.958 145.157 193.523 142.271C195.937 137.818 198.982 132.115 202.121 126.279C203.004 124.645 203.914 122.756 205.069 120.778C207.391 116.165 213.986 113.634 218.377 114.888C224.042 115.736 227.835 121.932 227.76 125.787C227.789 126.276 227.817 126.75 227.842 127.211C227.974 129.614 227.193 129.048 227.397 131.061C227.625 133.295 228.234 134.456 228.38 135.498C228.609 137.13 228.895 139.21 229.197 141.536L229.18 141.386C229.4 142.749 229.652 144.167 229.927 145.696L222.508 142.073C222.883 141.871 222.885 141.884 223.056 141.809C223.197 141.752 223.272 141.725 223.395 141.684C223.644 141.604 223.813 141.562 224.068 141.514C224.497 141.436 224.989 141.406 225.517 141.464C226.543 141.568 227.536 142.05 228.17 142.588C229.383 143.657 229.555 144.43 229.731 144.856C230.013 145.766 229.971 146.033 229.996 146.307C230.007 146.804 229.975 146.974 229.958 147.14C229.919 147.443 229.887 147.575 229.861 147.695C229.809 147.919 229.775 148.035 229.744 148.144L229.938 146.218C230.76 153.29 231.622 161.129 231.817 165.401C231.872 166.695 231.425 167.694 231.522 168.463C231.523 168.47 231.524 168.477 231.525 168.484C231.575 168.768 232.024 169.31 232.29 170.006C233.1 172.068 234.432 173.225 236.274 173.984C238.332 174.808 240.85 175.223 243.421 175.282C246.766 175.348 250.204 175.426 253.982 175.489C269.204 175.743 286.227 175.369 302.834 175.362C303.122 175.364 303.689 175.331 304.49 175.372C305.307 175.549 306.426 175.088 308.936 177.155C311.721 179.874 314.133 182.65 316.469 185.219L324.12 193.262L312.91 193.389C311.657 193.373 310.411 193.355 309.172 193.332C304.454 193.246 301.221 192.131 300.558 192.142C300.264 192.147 299.991 192.182 299.719 192.235C298.644 192.447 297.575 192.956 295.222 193.106C285.416 193.722 272.212 192.925 262.888 193.311C258.282 193.501 251.954 194.463 247.422 194.682C246.325 194.735 244.776 194.74 243.104 194.732C238.625 194.825 233.235 193.481 231.832 193.249C230.598 193.107 229.76 193.674 228.304 193.152ZM276.258 185.422C276.905 184.124 270.121 185.197 272.665 185.897C273.238 186.055 276.091 185.759 276.258 185.422ZM99.1864 110.039C99.032 110.38 98.8735 110.719 98.71 111.055C99.3145 111.258 99.925 111.54 100.536 111.903C100.405 111.473 100.253 111.049 100.073 110.63C99.7845 110.416 99.4891 110.219 99.1864 110.039Z" fill="#FDFCF5"/>
</g>
<defs>
<clipPath id="clip0_202_10">
<rect width="322" height="140" fill="white" transform="translate(0 98)"/>
</clipPath>
</defs>
</svg>
