<svg width="130" height="81" viewBox="0 0 130 81" fill="none" xmlns="http://www.w3.org/2000/svg">
<path d="M105 32C105 14.328 90.672 0 73 0C61.016 0 50.56 6.592 45.088 16.344C43.76 16.12 42.392 16 41 16C30.168 16 21 23.176 18.024 33.048C8.168 36.064 1 45.208 1 56C1 69.256 11.696 80 25.08 80H104.92C118.216 80 129 69.224 129 56C129 42.776 118.344 32.04 105 32ZM65 72L41 40H57V16H73V40H89L65 72Z" fill="#7A5FFF"/>
<g clip-path="url(#clip0_92_7602)">
<circle cx="1.5" cy="3.75" r="1.5" fill="#F4F2E9"/>
<circle cx="10.5" cy="3.75" r="1.5" fill="#F4F2E9"/>
<circle cx="19.5" cy="3.75" r="1.5" fill="#F4F2E9"/>
<circle cx="28.5" cy="3.75" r="1.5" fill="#F4F2E9"/>
<circle cx="37.5" cy="3.75" r="1.5" fill="#F4F2E9"/>
<circle cx="46.5" cy="3.75" r="1.5" fill="#F4F2E9"/>
<circle cx="55.5" cy="3.75" r="1.5" fill="#F4F2E9"/>
<circle cx="64.5" cy="3.75" r="1.5" fill="#F4F2E9"/>
<circle cx="73.5" cy="3.75" r="1.5" fill="#F4F2E9"/>
<circle cx="82.5" cy="3.75" r="1.5" fill="#F4F2E9"/>
<circle cx="91.5" cy="3.75" r="1.5" fill="#F4F2E9"/>
<circle cx="100.5" cy="3.75" r="1.5" fill="#F4F2E9"/>
<circle cx="109.5" cy="3.75" r="1.5" fill="#F4F2E9"/>
<circle cx="118.5" cy="3.75" r="1.5" fill="#F4F2E9"/>
<circle cx="127.5" cy="3.75" r="1.5" fill="#F4F2E9"/>
<circle cx="1.5" cy="12.75" r="1.5" fill="#F4F2E9"/>
<circle cx="10.5" cy="12.75" r="1.5" fill="#F4F2E9"/>
<circle cx="19.5" cy="12.75" r="1.5" fill="#F4F2E9"/>
<circle cx="28.5" cy="12.75" r="1.5" fill="#F4F2E9"/>
<circle cx="37.5" cy="12.75" r="1.5" fill="#F4F2E9"/>
<circle cx="46.5" cy="12.75" r="1.5" fill="#F4F2E9"/>
<circle cx="55.5" cy="12.75" r="1.5" fill="#F4F2E9"/>
<circle cx="64.5" cy="12.75" r="1.5" fill="#F4F2E9"/>
<circle cx="73.5" cy="12.75" r="1.5" fill="#F4F2E9"/>
<circle cx="82.5" cy="12.75" r="1.5" fill="#F4F2E9"/>
<circle cx="91.5" cy="12.75" r="1.5" fill="#F4F2E9"/>
<circle cx="100.5" cy="12.75" r="1.5" fill="#F4F2E9"/>
<circle cx="109.5" cy="12.75" r="1.5" fill="#F4F2E9"/>
<circle cx="118.5" cy="12.75" r="1.5" fill="#F4F2E9"/>
<circle cx="127.5" cy="12.75" r="1.5" fill="#F4F2E9"/>
<circle cx="1.5" cy="21.75" r="1.5" fill="#F4F2E9"/>
<circle cx="10.5" cy="21.75" r="1.5" fill="#F4F2E9"/>
<circle cx="19.5" cy="21.75" r="1.5" fill="#F4F2E9"/>
<circle cx="28.5" cy="21.75" r="1.5" fill="#F4F2E9"/>
<circle cx="37.5" cy="21.75" r="1.5" fill="#F4F2E9"/>
<circle cx="46.5" cy="21.75" r="1.5" fill="#F4F2E9"/>
<circle cx="55.5" cy="21.75" r="1.5" fill="#F4F2E9"/>
<circle cx="64.5" cy="21.75" r="1.5" fill="#F4F2E9"/>
<circle cx="73.5" cy="21.75" r="1.5" fill="#F4F2E9"/>
<circle cx="82.5" cy="21.75" r="1.5" fill="#F4F2E9"/>
<circle cx="91.5" cy="21.75" r="1.5" fill="#F4F2E9"/>
<circle cx="100.5" cy="21.75" r="1.5" fill="#F4F2E9"/>
<circle cx="109.5" cy="21.75" r="1.5" fill="#F4F2E9"/>
<circle cx="118.5" cy="21.75" r="1.5" fill="#F4F2E9"/>
<circle cx="127.5" cy="21.75" r="1.5" fill="#F4F2E9"/>
<circle cx="1.5" cy="30.75" r="1.5" fill="#F4F2E9"/>
<circle cx="10.5" cy="30.75" r="1.5" fill="#F4F2E9"/>
<circle cx="19.5" cy="30.75" r="1.5" fill="#F4F2E9"/>
<circle cx="28.5" cy="30.75" r="1.5" fill="#F4F2E9"/>
<circle cx="37.5" cy="30.75" r="1.5" fill="#F4F2E9"/>
<circle cx="46.5" cy="30.75" r="1.5" fill="#F4F2E9"/>
<circle cx="55.5" cy="30.75" r="1.5" fill="#F4F2E9"/>
<circle cx="64.5" cy="30.75" r="1.5" fill="#F4F2E9"/>
<circle cx="73.5" cy="30.75" r="1.5" fill="#F4F2E9"/>
<circle cx="82.5" cy="30.75" r="1.5" fill="#F4F2E9"/>
<circle cx="91.5" cy="30.75" r="1.5" fill="#F4F2E9"/>
<circle cx="100.5" cy="30.75" r="1.5" fill="#F4F2E9"/>
<circle cx="109.5" cy="30.75" r="1.5" fill="#F4F2E9"/>
<circle cx="118.5" cy="30.75" r="1.5" fill="#F4F2E9"/>
<circle cx="127.5" cy="30.75" r="1.5" fill="#F4F2E9"/>
<circle cx="1.5" cy="39.75" r="1.5" fill="#F4F2E9"/>
<circle cx="10.5" cy="39.75" r="1.5" fill="#F4F2E9"/>
<circle cx="19.5" cy="39.75" r="1.5" fill="#F4F2E9"/>
<circle cx="28.5" cy="39.75" r="1.5" fill="#F4F2E9"/>
<circle cx="37.5" cy="39.75" r="1.5" fill="#F4F2E9"/>
<circle cx="46.5" cy="39.75" r="1.5" fill="#F4F2E9"/>
<circle cx="55.5" cy="39.75" r="1.5" fill="#F4F2E9"/>
<circle cx="64.5" cy="39.75" r="1.5" fill="#F4F2E9"/>
<circle cx="73.5" cy="39.75" r="1.5" fill="#F4F2E9"/>
<circle cx="82.5" cy="39.75" r="1.5" fill="#F4F2E9"/>
<circle cx="91.5" cy="39.75" r="1.5" fill="#F4F2E9"/>
<circle cx="100.5" cy="39.75" r="1.5" fill="#F4F2E9"/>
<circle cx="109.5" cy="39.75" r="1.5" fill="#F4F2E9"/>
<circle cx="118.5" cy="39.75" r="1.5" fill="#F4F2E9"/>
<circle cx="127.5" cy="39.75" r="1.5" fill="#F4F2E9"/>
<circle cx="1.5" cy="48.75" r="1.5" fill="#F4F2E9"/>
<circle cx="10.5" cy="48.75" r="1.5" fill="#F4F2E9"/>
<circle cx="19.5" cy="48.75" r="1.5" fill="#F4F2E9"/>
<circle cx="28.5" cy="48.75" r="1.5" fill="#F4F2E9"/>
<circle cx="37.5" cy="48.75" r="1.5" fill="#F4F2E9"/>
<circle cx="46.5" cy="48.75" r="1.5" fill="#F4F2E9"/>
<circle cx="55.5" cy="48.75" r="1.5" fill="#F4F2E9"/>
<circle cx="64.5" cy="48.75" r="1.5" fill="#F4F2E9"/>
<circle cx="73.5" cy="48.75" r="1.5" fill="#F4F2E9"/>
<circle cx="82.5" cy="48.75" r="1.5" fill="#F4F2E9"/>
<circle cx="91.5" cy="48.75" r="1.5" fill="#F4F2E9"/>
<circle cx="100.5" cy="48.75" r="1.5" fill="#F4F2E9"/>
<circle cx="109.5" cy="48.75" r="1.5" fill="#F4F2E9"/>
<circle cx="118.5" cy="48.75" r="1.5" fill="#F4F2E9"/>
<circle cx="127.5" cy="48.75" r="1.5" fill="#F4F2E9"/>
<circle cx="1.5" cy="57.75" r="1.5" fill="#F4F2E9"/>
<circle cx="10.5" cy="57.75" r="1.5" fill="#F4F2E9"/>
<circle cx="19.5" cy="57.75" r="1.5" fill="#F4F2E9"/>
<circle cx="28.5" cy="57.75" r="1.5" fill="#F4F2E9"/>
<circle cx="37.5" cy="57.75" r="1.5" fill="#F4F2E9"/>
<circle cx="46.5" cy="57.75" r="1.5" fill="#F4F2E9"/>
<circle cx="55.5" cy="57.75" r="1.5" fill="#F4F2E9"/>
<circle cx="64.5" cy="57.75" r="1.5" fill="#F4F2E9"/>
<circle cx="73.5" cy="57.75" r="1.5" fill="#F4F2E9"/>
<circle cx="82.5" cy="57.75" r="1.5" fill="#F4F2E9"/>
<circle cx="91.5" cy="57.75" r="1.5" fill="#F4F2E9"/>
<circle cx="100.5" cy="57.75" r="1.5" fill="#F4F2E9"/>
<circle cx="109.5" cy="57.75" r="1.5" fill="#F4F2E9"/>
<circle cx="118.5" cy="57.75" r="1.5" fill="#F4F2E9"/>
<circle cx="127.5" cy="57.75" r="1.5" fill="#F4F2E9"/>
<circle cx="1.5" cy="66.75" r="1.5" fill="#F4F2E9"/>
<circle cx="10.5" cy="66.75" r="1.5" fill="#F4F2E9"/>
<circle cx="19.5" cy="66.75" r="1.5" fill="#F4F2E9"/>
<circle cx="28.5" cy="66.75" r="1.5" fill="#F4F2E9"/>
<circle cx="37.5" cy="66.75" r="1.5" fill="#F4F2E9"/>
<circle cx="46.5" cy="66.75" r="1.5" fill="#F4F2E9"/>
<circle cx="55.5" cy="66.75" r="1.5" fill="#F4F2E9"/>
<circle cx="64.5" cy="66.75" r="1.5" fill="#F4F2E9"/>
<circle cx="73.5" cy="66.75" r="1.5" fill="#F4F2E9"/>
<circle cx="82.5" cy="66.75" r="1.5" fill="#F4F2E9"/>
<circle cx="91.5" cy="66.75" r="1.5" fill="#F4F2E9"/>
<circle cx="100.5" cy="66.75" r="1.5" fill="#F4F2E9"/>
<circle cx="109.5" cy="66.75" r="1.5" fill="#F4F2E9"/>
<circle cx="118.5" cy="66.75" r="1.5" fill="#F4F2E9"/>
<circle cx="127.5" cy="66.75" r="1.5" fill="#F4F2E9"/>
<circle cx="1.5" cy="75.75" r="1.5" fill="#F4F2E9"/>
<circle cx="10.5" cy="75.75" r="1.5" fill="#F4F2E9"/>
<circle cx="19.5" cy="75.75" r="1.5" fill="#F4F2E9"/>
<circle cx="28.5" cy="75.75" r="1.5" fill="#F4F2E9"/>
<circle cx="37.5" cy="75.75" r="1.5" fill="#F4F2E9"/>
<circle cx="46.5" cy="75.75" r="1.5" fill="#F4F2E9"/>
<circle cx="55.5" cy="75.75" r="1.5" fill="#F4F2E9"/>
<circle cx="64.5" cy="75.75" r="1.5" fill="#F4F2E9"/>
<circle cx="73.5" cy="75.75" r="1.5" fill="#F4F2E9"/>
<circle cx="82.5" cy="75.75" r="1.5" fill="#F4F2E9"/>
<circle cx="91.5" cy="75.75" r="1.5" fill="#F4F2E9"/>
<circle cx="100.5" cy="75.75" r="1.5" fill="#F4F2E9"/>
<circle cx="109.5" cy="75.75" r="1.5" fill="#F4F2E9"/>
<circle cx="118.5" cy="75.75" r="1.5" fill="#F4F2E9"/>
<circle cx="127.5" cy="75.75" r="1.5" fill="#F4F2E9"/>
</g>
<defs>
<clipPath id="clip0_92_7602">
<rect width="130" height="78" fill="white" transform="translate(0 2.25)"/>
</clipPath>
</defs>
</svg>
