<svg width="128" height="128" viewBox="0 0 128 128" fill="none" xmlns="http://www.w3.org/2000/svg">
<g clip-path="url(#clip0_35_36)">
<path d="M115.9 0H12.0995C5.41713 0 0 5.41713 0 12.0995V115.9C0 122.583 5.41713 128 12.0995 128H115.9C122.583 128 128 122.583 128 115.9V12.0995C128 5.41713 122.583 0 115.9 0Z" fill="#379AD0"/>
<path fill-rule="evenodd" clip-rule="evenodd" d="M24.8359 64.9553V103.164H43.3036V61.7712V50.9453H24.8359V64.9553Z" fill="#FEFEFE"/>
<path fill-rule="evenodd" clip-rule="evenodd" d="M34.3882 24.8358C29.2936 24.8358 24.8359 29.2935 24.8359 34.3881C24.8359 38.8458 29.2936 43.3035 34.3882 43.3035C38.8459 43.3035 43.3036 38.8458 43.3036 34.3881C43.3036 29.2935 38.8459 24.8358 34.3882 24.8358Z" fill="#FEFEFE"/>
<path fill-rule="evenodd" clip-rule="evenodd" d="M102.528 66.8657C101.254 57.3135 96.7962 50.9453 83.423 50.9453C75.7812 50.9453 70.6867 54.1294 68.1394 57.9503V50.9453H53.4927V61.1344V103.164H68.7763V77.0548C68.7763 70.6866 70.0499 63.6816 78.3285 63.6816C86.6071 63.6816 87.2439 71.9602 87.2439 77.6916V103.164H103.164V74.5075C103.164 71.9602 103.164 69.413 102.528 66.8657Z" fill="#FEFEFE"/>
<g clip-path="url(#clip1_35_36)">
<circle cx="1.5" cy="1.5" r="1.5" fill="#F4F2E9"/>
<circle cx="10.5" cy="1.5" r="1.5" fill="#F4F2E9"/>
<circle cx="19.5" cy="1.5" r="1.5" fill="#F4F2E9"/>
<circle cx="28.5" cy="1.5" r="1.5" fill="#F4F2E9"/>
<circle cx="37.5" cy="1.5" r="1.5" fill="#F4F2E9"/>
<circle cx="46.5" cy="1.5" r="1.5" fill="#F4F2E9"/>
<circle cx="55.5" cy="1.5" r="1.5" fill="#F4F2E9"/>
<circle cx="64.5" cy="1.5" r="1.5" fill="#F4F2E9"/>
<circle cx="73.5" cy="1.5" r="1.5" fill="#F4F2E9"/>
<circle cx="82.5" cy="1.5" r="1.5" fill="#F4F2E9"/>
<circle cx="91.5" cy="1.5" r="1.5" fill="#F4F2E9"/>
<circle cx="100.5" cy="1.5" r="1.5" fill="#F4F2E9"/>
<circle cx="109.5" cy="1.5" r="1.5" fill="#F4F2E9"/>
<circle cx="118.5" cy="1.5" r="1.5" fill="#F4F2E9"/>
<circle cx="127.5" cy="1.5" r="1.5" fill="#F4F2E9"/>
<circle cx="1.5" cy="10.5" r="1.5" fill="#F4F2E9"/>
<circle cx="10.5" cy="10.5" r="1.5" fill="#F4F2E9"/>
<circle cx="19.5" cy="10.5" r="1.5" fill="#F4F2E9"/>
<circle cx="28.5" cy="10.5" r="1.5" fill="#F4F2E9"/>
<circle cx="37.5" cy="10.5" r="1.5" fill="#F4F2E9"/>
<circle cx="46.5" cy="10.5" r="1.5" fill="#F4F2E9"/>
<circle cx="55.5" cy="10.5" r="1.5" fill="#F4F2E9"/>
<circle cx="64.5" cy="10.5" r="1.5" fill="#F4F2E9"/>
<circle cx="73.5" cy="10.5" r="1.5" fill="#F4F2E9"/>
<circle cx="82.5" cy="10.5" r="1.5" fill="#F4F2E9"/>
<circle cx="91.5" cy="10.5" r="1.5" fill="#F4F2E9"/>
<circle cx="100.5" cy="10.5" r="1.5" fill="#F4F2E9"/>
<circle cx="109.5" cy="10.5" r="1.5" fill="#F4F2E9"/>
<circle cx="118.5" cy="10.5" r="1.5" fill="#F4F2E9"/>
<circle cx="127.5" cy="10.5" r="1.5" fill="#F4F2E9"/>
<circle cx="1.5" cy="19.5" r="1.5" fill="#F4F2E9"/>
<circle cx="10.5" cy="19.5" r="1.5" fill="#F4F2E9"/>
<circle cx="19.5" cy="19.5" r="1.5" fill="#F4F2E9"/>
<circle cx="28.5" cy="19.5" r="1.5" fill="#F4F2E9"/>
<circle cx="37.5" cy="19.5" r="1.5" fill="#F4F2E9"/>
<circle cx="46.5" cy="19.5" r="1.5" fill="#F4F2E9"/>
<circle cx="55.5" cy="19.5" r="1.5" fill="#F4F2E9"/>
<circle cx="64.5" cy="19.5" r="1.5" fill="#F4F2E9"/>
<circle cx="73.5" cy="19.5" r="1.5" fill="#F4F2E9"/>
<circle cx="82.5" cy="19.5" r="1.5" fill="#F4F2E9"/>
<circle cx="91.5" cy="19.5" r="1.5" fill="#F4F2E9"/>
<circle cx="100.5" cy="19.5" r="1.5" fill="#F4F2E9"/>
<circle cx="109.5" cy="19.5" r="1.5" fill="#F4F2E9"/>
<circle cx="118.5" cy="19.5" r="1.5" fill="#F4F2E9"/>
<circle cx="127.5" cy="19.5" r="1.5" fill="#F4F2E9"/>
<circle cx="1.5" cy="28.5" r="1.5" fill="#F4F2E9"/>
<circle cx="10.5" cy="28.5" r="1.5" fill="#F4F2E9"/>
<circle cx="19.5" cy="28.5" r="1.5" fill="#F4F2E9"/>
<circle cx="28.5" cy="28.5" r="1.5" fill="#F4F2E9"/>
<circle cx="37.5" cy="28.5" r="1.5" fill="#F4F2E9"/>
<circle cx="46.5" cy="28.5" r="1.5" fill="#F4F2E9"/>
<circle cx="55.5" cy="28.5" r="1.5" fill="#F4F2E9"/>
<circle cx="64.5" cy="28.5" r="1.5" fill="#F4F2E9"/>
<circle cx="73.5" cy="28.5" r="1.5" fill="#F4F2E9"/>
<circle cx="82.5" cy="28.5" r="1.5" fill="#F4F2E9"/>
<circle cx="91.5" cy="28.5" r="1.5" fill="#F4F2E9"/>
<circle cx="100.5" cy="28.5" r="1.5" fill="#F4F2E9"/>
<circle cx="109.5" cy="28.5" r="1.5" fill="#F4F2E9"/>
<circle cx="118.5" cy="28.5" r="1.5" fill="#F4F2E9"/>
<circle cx="127.5" cy="28.5" r="1.5" fill="#F4F2E9"/>
<circle cx="1.5" cy="37.5" r="1.5" fill="#F4F2E9"/>
<circle cx="10.5" cy="37.5" r="1.5" fill="#F4F2E9"/>
<circle cx="19.5" cy="37.5" r="1.5" fill="#F4F2E9"/>
<circle cx="28.5" cy="37.5" r="1.5" fill="#F4F2E9"/>
<circle cx="37.5" cy="37.5" r="1.5" fill="#F4F2E9"/>
<circle cx="46.5" cy="37.5" r="1.5" fill="#F4F2E9"/>
<circle cx="55.5" cy="37.5" r="1.5" fill="#F4F2E9"/>
<circle cx="64.5" cy="37.5" r="1.5" fill="#F4F2E9"/>
<circle cx="73.5" cy="37.5" r="1.5" fill="#F4F2E9"/>
<circle cx="82.5" cy="37.5" r="1.5" fill="#F4F2E9"/>
<circle cx="91.5" cy="37.5" r="1.5" fill="#F4F2E9"/>
<circle cx="100.5" cy="37.5" r="1.5" fill="#F4F2E9"/>
<circle cx="109.5" cy="37.5" r="1.5" fill="#F4F2E9"/>
<circle cx="118.5" cy="37.5" r="1.5" fill="#F4F2E9"/>
<circle cx="127.5" cy="37.5" r="1.5" fill="#F4F2E9"/>
<circle cx="1.5" cy="46.5" r="1.5" fill="#F4F2E9"/>
<circle cx="10.5" cy="46.5" r="1.5" fill="#F4F2E9"/>
<circle cx="19.5" cy="46.5" r="1.5" fill="#F4F2E9"/>
<circle cx="28.5" cy="46.5" r="1.5" fill="#F4F2E9"/>
<circle cx="37.5" cy="46.5" r="1.5" fill="#F4F2E9"/>
<circle cx="46.5" cy="46.5" r="1.5" fill="#F4F2E9"/>
<circle cx="55.5" cy="46.5" r="1.5" fill="#F4F2E9"/>
<circle cx="64.5" cy="46.5" r="1.5" fill="#F4F2E9"/>
<circle cx="73.5" cy="46.5" r="1.5" fill="#F4F2E9"/>
<circle cx="82.5" cy="46.5" r="1.5" fill="#F4F2E9"/>
<circle cx="91.5" cy="46.5" r="1.5" fill="#F4F2E9"/>
<circle cx="100.5" cy="46.5" r="1.5" fill="#F4F2E9"/>
<circle cx="109.5" cy="46.5" r="1.5" fill="#F4F2E9"/>
<circle cx="118.5" cy="46.5" r="1.5" fill="#F4F2E9"/>
<circle cx="127.5" cy="46.5" r="1.5" fill="#F4F2E9"/>
<circle cx="1.5" cy="55.5" r="1.5" fill="#F4F2E9"/>
<circle cx="10.5" cy="55.5" r="1.5" fill="#F4F2E9"/>
<circle cx="19.5" cy="55.5" r="1.5" fill="#F4F2E9"/>
<circle cx="28.5" cy="55.5" r="1.5" fill="#F4F2E9"/>
<circle cx="37.5" cy="55.5" r="1.5" fill="#F4F2E9"/>
<circle cx="46.5" cy="55.5" r="1.5" fill="#F4F2E9"/>
<circle cx="55.5" cy="55.5" r="1.5" fill="#F4F2E9"/>
<circle cx="64.5" cy="55.5" r="1.5" fill="#F4F2E9"/>
<circle cx="73.5" cy="55.5" r="1.5" fill="#F4F2E9"/>
<circle cx="82.5" cy="55.5" r="1.5" fill="#F4F2E9"/>
<circle cx="91.5" cy="55.5" r="1.5" fill="#F4F2E9"/>
<circle cx="100.5" cy="55.5" r="1.5" fill="#F4F2E9"/>
<circle cx="109.5" cy="55.5" r="1.5" fill="#F4F2E9"/>
<circle cx="118.5" cy="55.5" r="1.5" fill="#F4F2E9"/>
<circle cx="127.5" cy="55.5" r="1.5" fill="#F4F2E9"/>
<circle cx="1.5" cy="64.5" r="1.5" fill="#F4F2E9"/>
<circle cx="10.5" cy="64.5" r="1.5" fill="#F4F2E9"/>
<circle cx="19.5" cy="64.5" r="1.5" fill="#F4F2E9"/>
<circle cx="28.5" cy="64.5" r="1.5" fill="#F4F2E9"/>
<circle cx="37.5" cy="64.5" r="1.5" fill="#F4F2E9"/>
<circle cx="46.5" cy="64.5" r="1.5" fill="#F4F2E9"/>
<circle cx="55.5" cy="64.5" r="1.5" fill="#F4F2E9"/>
<circle cx="64.5" cy="64.5" r="1.5" fill="#F4F2E9"/>
<circle cx="73.5" cy="64.5" r="1.5" fill="#F4F2E9"/>
<circle cx="82.5" cy="64.5" r="1.5" fill="#F4F2E9"/>
<circle cx="91.5" cy="64.5" r="1.5" fill="#F4F2E9"/>
<circle cx="100.5" cy="64.5" r="1.5" fill="#F4F2E9"/>
<circle cx="109.5" cy="64.5" r="1.5" fill="#F4F2E9"/>
<circle cx="118.5" cy="64.5" r="1.5" fill="#F4F2E9"/>
<circle cx="127.5" cy="64.5" r="1.5" fill="#F4F2E9"/>
<circle cx="1.5" cy="73.5" r="1.5" fill="#F4F2E9"/>
<circle cx="10.5" cy="73.5" r="1.5" fill="#F4F2E9"/>
<circle cx="19.5" cy="73.5" r="1.5" fill="#F4F2E9"/>
<circle cx="28.5" cy="73.5" r="1.5" fill="#F4F2E9"/>
<circle cx="37.5" cy="73.5" r="1.5" fill="#F4F2E9"/>
<circle cx="46.5" cy="73.5" r="1.5" fill="#F4F2E9"/>
<circle cx="55.5" cy="73.5" r="1.5" fill="#F4F2E9"/>
<circle cx="64.5" cy="73.5" r="1.5" fill="#F4F2E9"/>
<circle cx="73.5" cy="73.5" r="1.5" fill="#F4F2E9"/>
<circle cx="82.5" cy="73.5" r="1.5" fill="#F4F2E9"/>
<circle cx="91.5" cy="73.5" r="1.5" fill="#F4F2E9"/>
<circle cx="100.5" cy="73.5" r="1.5" fill="#F4F2E9"/>
<circle cx="109.5" cy="73.5" r="1.5" fill="#F4F2E9"/>
<circle cx="118.5" cy="73.5" r="1.5" fill="#F4F2E9"/>
<circle cx="127.5" cy="73.5" r="1.5" fill="#F4F2E9"/>
<circle cx="1.5" cy="82.5" r="1.5" fill="#F4F2E9"/>
<circle cx="10.5" cy="82.5" r="1.5" fill="#F4F2E9"/>
<circle cx="19.5" cy="82.5" r="1.5" fill="#F4F2E9"/>
<circle cx="28.5" cy="82.5" r="1.5" fill="#F4F2E9"/>
<circle cx="37.5" cy="82.5" r="1.5" fill="#F4F2E9"/>
<circle cx="46.5" cy="82.5" r="1.5" fill="#F4F2E9"/>
<circle cx="55.5" cy="82.5" r="1.5" fill="#F4F2E9"/>
<circle cx="64.5" cy="82.5" r="1.5" fill="#F4F2E9"/>
<circle cx="73.5" cy="82.5" r="1.5" fill="#F4F2E9"/>
<circle cx="82.5" cy="82.5" r="1.5" fill="#F4F2E9"/>
<circle cx="91.5" cy="82.5" r="1.5" fill="#F4F2E9"/>
<circle cx="100.5" cy="82.5" r="1.5" fill="#F4F2E9"/>
<circle cx="109.5" cy="82.5" r="1.5" fill="#F4F2E9"/>
<circle cx="118.5" cy="82.5" r="1.5" fill="#F4F2E9"/>
<circle cx="127.5" cy="82.5" r="1.5" fill="#F4F2E9"/>
<circle cx="1.5" cy="91.5" r="1.5" fill="#F4F2E9"/>
<circle cx="10.5" cy="91.5" r="1.5" fill="#F4F2E9"/>
<circle cx="19.5" cy="91.5" r="1.5" fill="#F4F2E9"/>
<circle cx="28.5" cy="91.5" r="1.5" fill="#F4F2E9"/>
<circle cx="37.5" cy="91.5" r="1.5" fill="#F4F2E9"/>
<circle cx="46.5" cy="91.5" r="1.5" fill="#F4F2E9"/>
<circle cx="55.5" cy="91.5" r="1.5" fill="#F4F2E9"/>
<circle cx="64.5" cy="91.5" r="1.5" fill="#F4F2E9"/>
<circle cx="73.5" cy="91.5" r="1.5" fill="#F4F2E9"/>
<circle cx="82.5" cy="91.5" r="1.5" fill="#F4F2E9"/>
<circle cx="91.5" cy="91.5" r="1.5" fill="#F4F2E9"/>
<circle cx="100.5" cy="91.5" r="1.5" fill="#F4F2E9"/>
<circle cx="109.5" cy="91.5" r="1.5" fill="#F4F2E9"/>
<circle cx="118.5" cy="91.5" r="1.5" fill="#F4F2E9"/>
<circle cx="127.5" cy="91.5" r="1.5" fill="#F4F2E9"/>
<circle cx="1.5" cy="100.5" r="1.5" fill="#F4F2E9"/>
<circle cx="10.5" cy="100.5" r="1.5" fill="#F4F2E9"/>
<circle cx="19.5" cy="100.5" r="1.5" fill="#F4F2E9"/>
<circle cx="28.5" cy="100.5" r="1.5" fill="#F4F2E9"/>
<circle cx="37.5" cy="100.5" r="1.5" fill="#F4F2E9"/>
<circle cx="46.5" cy="100.5" r="1.5" fill="#F4F2E9"/>
<circle cx="55.5" cy="100.5" r="1.5" fill="#F4F2E9"/>
<circle cx="64.5" cy="100.5" r="1.5" fill="#F4F2E9"/>
<circle cx="73.5" cy="100.5" r="1.5" fill="#F4F2E9"/>
<circle cx="82.5" cy="100.5" r="1.5" fill="#F4F2E9"/>
<circle cx="91.5" cy="100.5" r="1.5" fill="#F4F2E9"/>
<circle cx="100.5" cy="100.5" r="1.5" fill="#F4F2E9"/>
<circle cx="109.5" cy="100.5" r="1.5" fill="#F4F2E9"/>
<circle cx="118.5" cy="100.5" r="1.5" fill="#F4F2E9"/>
<circle cx="127.5" cy="100.5" r="1.5" fill="#F4F2E9"/>
<circle cx="1.5" cy="109.5" r="1.5" fill="#F4F2E9"/>
<circle cx="10.5" cy="109.5" r="1.5" fill="#F4F2E9"/>
<circle cx="19.5" cy="109.5" r="1.5" fill="#F4F2E9"/>
<circle cx="28.5" cy="109.5" r="1.5" fill="#F4F2E9"/>
<circle cx="37.5" cy="109.5" r="1.5" fill="#F4F2E9"/>
<circle cx="46.5" cy="109.5" r="1.5" fill="#F4F2E9"/>
<circle cx="55.5" cy="109.5" r="1.5" fill="#F4F2E9"/>
<circle cx="64.5" cy="109.5" r="1.5" fill="#F4F2E9"/>
<circle cx="73.5" cy="109.5" r="1.5" fill="#F4F2E9"/>
<circle cx="82.5" cy="109.5" r="1.5" fill="#F4F2E9"/>
<circle cx="91.5" cy="109.5" r="1.5" fill="#F4F2E9"/>
<circle cx="100.5" cy="109.5" r="1.5" fill="#F4F2E9"/>
<circle cx="109.5" cy="109.5" r="1.5" fill="#F4F2E9"/>
<circle cx="118.5" cy="109.5" r="1.5" fill="#F4F2E9"/>
<circle cx="127.5" cy="109.5" r="1.5" fill="#F4F2E9"/>
<circle cx="1.5" cy="118.5" r="1.5" fill="#F4F2E9"/>
<circle cx="10.5" cy="118.5" r="1.5" fill="#F4F2E9"/>
<circle cx="19.5" cy="118.5" r="1.5" fill="#F4F2E9"/>
<circle cx="28.5" cy="118.5" r="1.5" fill="#F4F2E9"/>
<circle cx="37.5" cy="118.5" r="1.5" fill="#F4F2E9"/>
<circle cx="46.5" cy="118.5" r="1.5" fill="#F4F2E9"/>
<circle cx="55.5" cy="118.5" r="1.5" fill="#F4F2E9"/>
<circle cx="64.5" cy="118.5" r="1.5" fill="#F4F2E9"/>
<circle cx="73.5" cy="118.5" r="1.5" fill="#F4F2E9"/>
<circle cx="82.5" cy="118.5" r="1.5" fill="#F4F2E9"/>
<circle cx="91.5" cy="118.5" r="1.5" fill="#F4F2E9"/>
<circle cx="100.5" cy="118.5" r="1.5" fill="#F4F2E9"/>
<circle cx="109.5" cy="118.5" r="1.5" fill="#F4F2E9"/>
<circle cx="118.5" cy="118.5" r="1.5" fill="#F4F2E9"/>
<circle cx="127.5" cy="118.5" r="1.5" fill="#F4F2E9"/>
<circle cx="1.5" cy="127.5" r="1.5" fill="#F4F2E9"/>
<circle cx="10.5" cy="127.5" r="1.5" fill="#F4F2E9"/>
<circle cx="19.5" cy="127.5" r="1.5" fill="#F4F2E9"/>
<circle cx="28.5" cy="127.5" r="1.5" fill="#F4F2E9"/>
<circle cx="37.5" cy="127.5" r="1.5" fill="#F4F2E9"/>
<circle cx="46.5" cy="127.5" r="1.5" fill="#F4F2E9"/>
<circle cx="55.5" cy="127.5" r="1.5" fill="#F4F2E9"/>
<circle cx="64.5" cy="127.5" r="1.5" fill="#F4F2E9"/>
<circle cx="73.5" cy="127.5" r="1.5" fill="#F4F2E9"/>
<circle cx="82.5" cy="127.5" r="1.5" fill="#F4F2E9"/>
<circle cx="91.5" cy="127.5" r="1.5" fill="#F4F2E9"/>
<circle cx="100.5" cy="127.5" r="1.5" fill="#F4F2E9"/>
<circle cx="109.5" cy="127.5" r="1.5" fill="#F4F2E9"/>
<circle cx="118.5" cy="127.5" r="1.5" fill="#F4F2E9"/>
<circle cx="127.5" cy="127.5" r="1.5" fill="#F4F2E9"/>
</g>
</g>
<defs>
<clipPath id="clip0_35_36">
<rect width="128" height="128" fill="white"/>
</clipPath>
<clipPath id="clip1_35_36">
<rect width="134" height="134" fill="white"/>
</clipPath>
</defs>
</svg>
