<svg width="430" height="749" viewBox="0 0 430 749" fill="none" xmlns="http://www.w3.org/2000/svg">
<path d="M429.996 748.029H301.116L301.101 748.028C296.023 747.718 292.321 746.952 289.59 744.792C286.851 742.625 285.178 739.129 283.958 733.597L283.95 733.558L283.947 733.518V733.508C283.947 733.5 283.946 733.489 283.945 733.475C283.944 733.447 283.941 733.403 283.938 733.347C283.931 733.235 283.921 733.068 283.907 732.852C283.881 732.42 283.841 731.791 283.788 731.003C283.681 729.426 283.521 727.213 283.309 724.669C282.883 719.577 282.244 713.166 281.397 707.87C280.974 705.223 280.51 703.22 279.962 701.787C279.409 700.34 278.804 699.568 278.165 699.246C277.555 698.939 276.776 698.978 275.69 699.509C274.607 700.038 273.306 701.016 271.728 702.43L248.749 728.821L248.471 729.141L248.109 728.918L205.775 702.724L169.529 742.867L169.175 743.26L168.803 742.883L116.689 690.103C116.668 690.091 116.64 690.074 116.606 690.054C116.517 690.001 116.383 689.923 116.212 689.823C115.868 689.623 115.367 689.336 114.744 688.993C113.497 688.305 111.76 687.388 109.8 686.472C105.852 684.627 101.095 682.831 97.6104 682.831H-2.99609V554.529H429.996V748.029Z" fill="#FDFCF5"/>
<rect x="-2" width="432" height="559.4" fill="#FDFCF5"/>
</svg>
