<svg width="128" height="128" viewBox="0 0 128 128" fill="none" xmlns="http://www.w3.org/2000/svg">
<g clip-path="url(#clip0_43_1140)">
<path fill-rule="evenodd" clip-rule="evenodd" d="M39.5845 115.248L9.2 124.918L0 127.845L12.9245 89.6707C10.7556 85.684 9.03759 81.4606 7.81358 77.0869C6.32873 71.7799 5.57952 66.2952 5.57952 60.7847C5.57952 44.5692 12.0311 29.1964 23.5323 17.7878C35.0709 6.34208 50.5588 0 66.8078 0C83.052 0 98.5315 6.34971 110.06 17.7971C121.557 29.2126 128 44.589 128 60.8042C128 77.0167 121.55 92.3878 110.052 103.796C98.5176 115.24 83.0348 121.584 66.7897 121.584C61.6357 121.584 56.501 120.948 51.5073 119.67C47.3889 118.616 43.3919 117.132 39.5844 115.248L39.5845 115.248Z" fill="#EEEEEE"/>
<path fill-rule="evenodd" clip-rule="evenodd" d="M123.118 60.8041C123.118 45.363 116.814 31.3823 106.621 21.2609C96.4286 11.1409 82.3523 4.88147 66.8077 4.88147C51.2497 4.88147 37.1665 11.1388 26.9698 21.2533C16.7687 31.3724 10.4608 45.3505 10.4608 60.7846C10.4608 65.9655 11.1773 70.993 12.5143 75.7712C13.8428 80.5188 15.7864 85.0137 18.2499 89.1626L8.49094 117.987L7.71948 120.266L10.0117 119.537L40.0277 109.984C44.0016 112.123 48.2534 113.799 52.717 114.941C57.2141 116.091 61.9274 116.702 66.7895 116.702C82.3406 116.702 96.4195 110.445 106.613 100.33C116.812 90.2119 123.118 76.2353 123.118 60.8041L123.118 60.8041Z" fill="#54CC61"/>
<path fill-rule="evenodd" clip-rule="evenodd" d="M57.6478 45.5387C57.4006 45.0406 55.9732 41.5933 54.6576 38.4158C53.8167 36.3845 53.0146 34.4474 52.8573 34.0727C51.3758 30.5402 49.7382 30.6467 48.4822 30.7283C48.3998 30.7336 48.3203 30.7389 48.2141 30.7389C47.7758 30.7389 47.3451 30.7116 46.8988 30.6834C46.3407 30.6479 45.7615 30.6112 45.214 30.6112C44.4863 30.6112 43.4949 30.7622 42.4511 31.2508C41.677 31.6131 40.8784 32.1587 40.1475 32.9617C40.0409 33.0769 39.9606 33.1613 39.8734 33.2529C38.1343 35.081 34.3433 39.0658 34.3433 46.7189C34.3433 54.7467 40.1323 62.3811 40.983 63.5023L40.98 63.5045L40.9879 63.5149L40.9974 63.5244C41.0308 63.5674 41.1536 63.7472 41.3352 64.0128C43.4732 67.1397 53.3019 81.5145 68.2433 87.3502C81.7981 92.6394 84.2509 92.0458 86.4417 91.5158C86.8147 91.4255 87.1788 91.3373 87.5728 91.3009C89.3469 91.1342 92.2493 89.9196 94.6917 88.2141C96.7178 86.7992 98.4864 85.0112 99.1635 83.1286C99.7676 81.4452 100.109 79.8814 100.268 78.5942C100.498 76.7244 100.316 75.2533 99.9754 74.685L99.9705 74.6801C99.4533 73.828 98.5585 73.4055 97.2164 72.7718C96.9797 72.6601 96.7266 72.5407 96.4835 72.423L96.4843 72.4214C95.5588 71.9507 92.3569 70.3851 89.6198 69.0913C87.8512 68.2552 86.2797 67.5369 85.6573 67.3136C84.7819 66.9992 84.0192 66.7615 83.2015 66.8536C82.2745 66.9583 81.4657 67.4357 80.716 68.5713L80.7137 68.5698C80.3372 69.1353 79.674 69.9834 78.9491 70.8714C77.8009 72.2779 76.4312 73.8572 75.8474 74.5203V74.5251C75.5982 74.8089 75.3832 74.9635 75.1725 74.9889C74.88 75.0242 74.4779 74.9043 73.9212 74.6309C73.5653 74.4529 73.2185 74.3031 72.7906 74.1184C70.626 73.1846 66.4103 71.3656 61.6055 67.1115C59.8868 65.5904 58.3743 63.9274 57.111 62.367C55.0665 59.8416 53.6848 57.5917 53.1358 56.644C52.7025 55.9008 53.184 55.419 53.6285 54.9744L53.6263 54.9718C54.1179 54.4808 54.6742 53.8121 55.2326 53.1411C55.4868 52.8355 55.7411 52.5297 56.0505 52.1734L56.0552 52.1686C56.8082 51.2931 57.1203 50.6554 57.5416 49.7949C57.615 49.6451 57.6918 49.4881 57.7692 49.3338L57.7739 49.3291C58.1444 48.5826 58.2392 47.8722 58.1702 47.2069C58.1061 46.5875 57.8988 46.0347 57.6459 45.5396L57.6478 45.5387Z" fill="#FFFFFE"/>
<g clip-path="url(#clip1_43_1140)">
<circle cx="2.5" cy="1.5" r="1.5" fill="#FFDE00"/>
<circle cx="11.5" cy="1.5" r="1.5" fill="#FFDE00"/>
<circle cx="20.5" cy="1.5" r="1.5" fill="#FFDE00"/>
<circle cx="29.5" cy="1.5" r="1.5" fill="#FFDE00"/>
<circle cx="38.5" cy="1.5" r="1.5" fill="#FFDE00"/>
<circle cx="47.5" cy="1.5" r="1.5" fill="#FFDE00"/>
<circle cx="56.5" cy="1.5" r="1.5" fill="#FFDE00"/>
<circle cx="65.5" cy="1.5" r="1.5" fill="#FFDE00"/>
<circle cx="74.5" cy="1.5" r="1.5" fill="#FFDE00"/>
<circle cx="83.5" cy="1.5" r="1.5" fill="#FFDE00"/>
<circle cx="92.5" cy="1.5" r="1.5" fill="#FFDE00"/>
<circle cx="101.5" cy="1.5" r="1.5" fill="#FFDE00"/>
<circle cx="110.5" cy="1.5" r="1.5" fill="#FFDE00"/>
<circle cx="119.5" cy="1.5" r="1.5" fill="#FFDE00"/>
<circle cx="128.5" cy="1.5" r="1.5" fill="#FFDE00"/>
<circle cx="2.5" cy="10.5" r="1.5" fill="#FFDE00"/>
<circle cx="11.5" cy="10.5" r="1.5" fill="#FFDE00"/>
<circle cx="20.5" cy="10.5" r="1.5" fill="#FFDE00"/>
<circle cx="29.5" cy="10.5" r="1.5" fill="#FFDE00"/>
<circle cx="38.5" cy="10.5" r="1.5" fill="#FFDE00"/>
<circle cx="47.5" cy="10.5" r="1.5" fill="#FFDE00"/>
<circle cx="56.5" cy="10.5" r="1.5" fill="#FFDE00"/>
<circle cx="65.5" cy="10.5" r="1.5" fill="#FFDE00"/>
<circle cx="74.5" cy="10.5" r="1.5" fill="#FFDE00"/>
<circle cx="83.5" cy="10.5" r="1.5" fill="#FFDE00"/>
<circle cx="92.5" cy="10.5" r="1.5" fill="#FFDE00"/>
<circle cx="101.5" cy="10.5" r="1.5" fill="#FFDE00"/>
<circle cx="110.5" cy="10.5" r="1.5" fill="#FFDE00"/>
<circle cx="119.5" cy="10.5" r="1.5" fill="#FFDE00"/>
<circle cx="128.5" cy="10.5" r="1.5" fill="#FFDE00"/>
<circle cx="2.5" cy="19.5" r="1.5" fill="#FFDE00"/>
<circle cx="11.5" cy="19.5" r="1.5" fill="#FFDE00"/>
<circle cx="20.5" cy="19.5" r="1.5" fill="#FFDE00"/>
<circle cx="29.5" cy="19.5" r="1.5" fill="#FFDE00"/>
<circle cx="38.5" cy="19.5" r="1.5" fill="#FFDE00"/>
<circle cx="47.5" cy="19.5" r="1.5" fill="#FFDE00"/>
<circle cx="56.5" cy="19.5" r="1.5" fill="#FFDE00"/>
<circle cx="65.5" cy="19.5" r="1.5" fill="#FFDE00"/>
<circle cx="74.5" cy="19.5" r="1.5" fill="#FFDE00"/>
<circle cx="83.5" cy="19.5" r="1.5" fill="#FFDE00"/>
<circle cx="92.5" cy="19.5" r="1.5" fill="#FFDE00"/>
<circle cx="101.5" cy="19.5" r="1.5" fill="#FFDE00"/>
<circle cx="110.5" cy="19.5" r="1.5" fill="#FFDE00"/>
<circle cx="119.5" cy="19.5" r="1.5" fill="#FFDE00"/>
<circle cx="128.5" cy="19.5" r="1.5" fill="#FFDE00"/>
<circle cx="2.5" cy="28.5" r="1.5" fill="#FFDE00"/>
<circle cx="11.5" cy="28.5" r="1.5" fill="#FFDE00"/>
<circle cx="20.5" cy="28.5" r="1.5" fill="#FFDE00"/>
<circle cx="29.5" cy="28.5" r="1.5" fill="#FFDE00"/>
<circle cx="38.5" cy="28.5" r="1.5" fill="#FFDE00"/>
<circle cx="47.5" cy="28.5" r="1.5" fill="#FFDE00"/>
<circle cx="56.5" cy="28.5" r="1.5" fill="#FFDE00"/>
<circle cx="65.5" cy="28.5" r="1.5" fill="#FFDE00"/>
<circle cx="74.5" cy="28.5" r="1.5" fill="#FFDE00"/>
<circle cx="83.5" cy="28.5" r="1.5" fill="#FFDE00"/>
<circle cx="92.5" cy="28.5" r="1.5" fill="#FFDE00"/>
<circle cx="101.5" cy="28.5" r="1.5" fill="#FFDE00"/>
<circle cx="110.5" cy="28.5" r="1.5" fill="#FFDE00"/>
<circle cx="119.5" cy="28.5" r="1.5" fill="#FFDE00"/>
<circle cx="128.5" cy="28.5" r="1.5" fill="#FFDE00"/>
<circle cx="2.5" cy="37.5" r="1.5" fill="#FFDE00"/>
<circle cx="11.5" cy="37.5" r="1.5" fill="#FFDE00"/>
<circle cx="20.5" cy="37.5" r="1.5" fill="#FFDE00"/>
<circle cx="29.5" cy="37.5" r="1.5" fill="#FFDE00"/>
<circle cx="38.5" cy="37.5" r="1.5" fill="#FFDE00"/>
<circle cx="47.5" cy="37.5" r="1.5" fill="#FFDE00"/>
<circle cx="56.5" cy="37.5" r="1.5" fill="#FFDE00"/>
<circle cx="65.5" cy="37.5" r="1.5" fill="#FFDE00"/>
<circle cx="74.5" cy="37.5" r="1.5" fill="#FFDE00"/>
<circle cx="83.5" cy="37.5" r="1.5" fill="#FFDE00"/>
<circle cx="92.5" cy="37.5" r="1.5" fill="#FFDE00"/>
<circle cx="101.5" cy="37.5" r="1.5" fill="#FFDE00"/>
<circle cx="110.5" cy="37.5" r="1.5" fill="#FFDE00"/>
<circle cx="119.5" cy="37.5" r="1.5" fill="#FFDE00"/>
<circle cx="128.5" cy="37.5" r="1.5" fill="#FFDE00"/>
<circle cx="2.5" cy="46.5" r="1.5" fill="#FFDE00"/>
<circle cx="11.5" cy="46.5" r="1.5" fill="#FFDE00"/>
<circle cx="20.5" cy="46.5" r="1.5" fill="#FFDE00"/>
<circle cx="29.5" cy="46.5" r="1.5" fill="#FFDE00"/>
<circle cx="38.5" cy="46.5" r="1.5" fill="#FFDE00"/>
<circle cx="47.5" cy="46.5" r="1.5" fill="#FFDE00"/>
<circle cx="56.5" cy="46.5" r="1.5" fill="#FFDE00"/>
<circle cx="65.5" cy="46.5" r="1.5" fill="#FFDE00"/>
<circle cx="74.5" cy="46.5" r="1.5" fill="#FFDE00"/>
<circle cx="83.5" cy="46.5" r="1.5" fill="#FFDE00"/>
<circle cx="92.5" cy="46.5" r="1.5" fill="#FFDE00"/>
<circle cx="101.5" cy="46.5" r="1.5" fill="#FFDE00"/>
<circle cx="110.5" cy="46.5" r="1.5" fill="#FFDE00"/>
<circle cx="119.5" cy="46.5" r="1.5" fill="#FFDE00"/>
<circle cx="128.5" cy="46.5" r="1.5" fill="#FFDE00"/>
<circle cx="2.5" cy="55.5" r="1.5" fill="#FFDE00"/>
<circle cx="11.5" cy="55.5" r="1.5" fill="#FFDE00"/>
<circle cx="20.5" cy="55.5" r="1.5" fill="#FFDE00"/>
<circle cx="29.5" cy="55.5" r="1.5" fill="#FFDE00"/>
<circle cx="38.5" cy="55.5" r="1.5" fill="#FFDE00"/>
<circle cx="47.5" cy="55.5" r="1.5" fill="#FFDE00"/>
<circle cx="56.5" cy="55.5" r="1.5" fill="#FFDE00"/>
<circle cx="65.5" cy="55.5" r="1.5" fill="#FFDE00"/>
<circle cx="74.5" cy="55.5" r="1.5" fill="#FFDE00"/>
<circle cx="83.5" cy="55.5" r="1.5" fill="#FFDE00"/>
<circle cx="92.5" cy="55.5" r="1.5" fill="#FFDE00"/>
<circle cx="101.5" cy="55.5" r="1.5" fill="#FFDE00"/>
<circle cx="110.5" cy="55.5" r="1.5" fill="#FFDE00"/>
<circle cx="119.5" cy="55.5" r="1.5" fill="#FFDE00"/>
<circle cx="128.5" cy="55.5" r="1.5" fill="#FFDE00"/>
<circle cx="2.5" cy="64.5" r="1.5" fill="#FFDE00"/>
<circle cx="11.5" cy="64.5" r="1.5" fill="#FFDE00"/>
<circle cx="20.5" cy="64.5" r="1.5" fill="#FFDE00"/>
<circle cx="29.5" cy="64.5" r="1.5" fill="#FFDE00"/>
<circle cx="38.5" cy="64.5" r="1.5" fill="#FFDE00"/>
<circle cx="47.5" cy="64.5" r="1.5" fill="#FFDE00"/>
<circle cx="56.5" cy="64.5" r="1.5" fill="#FFDE00"/>
<circle cx="65.5" cy="64.5" r="1.5" fill="#FFDE00"/>
<circle cx="74.5" cy="64.5" r="1.5" fill="#FFDE00"/>
<circle cx="83.5" cy="64.5" r="1.5" fill="#FFDE00"/>
<circle cx="92.5" cy="64.5" r="1.5" fill="#FFDE00"/>
<circle cx="101.5" cy="64.5" r="1.5" fill="#FFDE00"/>
<circle cx="110.5" cy="64.5" r="1.5" fill="#FFDE00"/>
<circle cx="119.5" cy="64.5" r="1.5" fill="#FFDE00"/>
<circle cx="128.5" cy="64.5" r="1.5" fill="#FFDE00"/>
<circle cx="2.5" cy="73.5" r="1.5" fill="#FFDE00"/>
<circle cx="11.5" cy="73.5" r="1.5" fill="#FFDE00"/>
<circle cx="20.5" cy="73.5" r="1.5" fill="#FFDE00"/>
<circle cx="29.5" cy="73.5" r="1.5" fill="#FFDE00"/>
<circle cx="38.5" cy="73.5" r="1.5" fill="#FFDE00"/>
<circle cx="47.5" cy="73.5" r="1.5" fill="#FFDE00"/>
<circle cx="56.5" cy="73.5" r="1.5" fill="#FFDE00"/>
<circle cx="65.5" cy="73.5" r="1.5" fill="#FFDE00"/>
<circle cx="74.5" cy="73.5" r="1.5" fill="#FFDE00"/>
<circle cx="83.5" cy="73.5" r="1.5" fill="#FFDE00"/>
<circle cx="92.5" cy="73.5" r="1.5" fill="#FFDE00"/>
<circle cx="101.5" cy="73.5" r="1.5" fill="#FFDE00"/>
<circle cx="110.5" cy="73.5" r="1.5" fill="#FFDE00"/>
<circle cx="119.5" cy="73.5" r="1.5" fill="#FFDE00"/>
<circle cx="128.5" cy="73.5" r="1.5" fill="#FFDE00"/>
<circle cx="2.5" cy="82.5" r="1.5" fill="#FFDE00"/>
<circle cx="11.5" cy="82.5" r="1.5" fill="#FFDE00"/>
<circle cx="20.5" cy="82.5" r="1.5" fill="#FFDE00"/>
<circle cx="29.5" cy="82.5" r="1.5" fill="#FFDE00"/>
<circle cx="38.5" cy="82.5" r="1.5" fill="#FFDE00"/>
<circle cx="47.5" cy="82.5" r="1.5" fill="#FFDE00"/>
<circle cx="56.5" cy="82.5" r="1.5" fill="#FFDE00"/>
<circle cx="65.5" cy="82.5" r="1.5" fill="#FFDE00"/>
<circle cx="74.5" cy="82.5" r="1.5" fill="#FFDE00"/>
<circle cx="83.5" cy="82.5" r="1.5" fill="#FFDE00"/>
<circle cx="92.5" cy="82.5" r="1.5" fill="#FFDE00"/>
<circle cx="101.5" cy="82.5" r="1.5" fill="#FFDE00"/>
<circle cx="110.5" cy="82.5" r="1.5" fill="#FFDE00"/>
<circle cx="119.5" cy="82.5" r="1.5" fill="#FFDE00"/>
<circle cx="128.5" cy="82.5" r="1.5" fill="#FFDE00"/>
<circle cx="2.5" cy="91.5" r="1.5" fill="#FFDE00"/>
<circle cx="11.5" cy="91.5" r="1.5" fill="#FFDE00"/>
<circle cx="20.5" cy="91.5" r="1.5" fill="#FFDE00"/>
<circle cx="29.5" cy="91.5" r="1.5" fill="#FFDE00"/>
<circle cx="38.5" cy="91.5" r="1.5" fill="#FFDE00"/>
<circle cx="47.5" cy="91.5" r="1.5" fill="#FFDE00"/>
<circle cx="56.5" cy="91.5" r="1.5" fill="#FFDE00"/>
<circle cx="65.5" cy="91.5" r="1.5" fill="#FFDE00"/>
<circle cx="74.5" cy="91.5" r="1.5" fill="#FFDE00"/>
<circle cx="83.5" cy="91.5" r="1.5" fill="#FFDE00"/>
<circle cx="92.5" cy="91.5" r="1.5" fill="#FFDE00"/>
<circle cx="101.5" cy="91.5" r="1.5" fill="#FFDE00"/>
<circle cx="110.5" cy="91.5" r="1.5" fill="#FFDE00"/>
<circle cx="119.5" cy="91.5" r="1.5" fill="#FFDE00"/>
<circle cx="128.5" cy="91.5" r="1.5" fill="#FFDE00"/>
<circle cx="2.5" cy="100.5" r="1.5" fill="#FFDE00"/>
<circle cx="11.5" cy="100.5" r="1.5" fill="#FFDE00"/>
<circle cx="20.5" cy="100.5" r="1.5" fill="#FFDE00"/>
<circle cx="29.5" cy="100.5" r="1.5" fill="#FFDE00"/>
<circle cx="38.5" cy="100.5" r="1.5" fill="#FFDE00"/>
<circle cx="47.5" cy="100.5" r="1.5" fill="#FFDE00"/>
<circle cx="56.5" cy="100.5" r="1.5" fill="#FFDE00"/>
<circle cx="65.5" cy="100.5" r="1.5" fill="#FFDE00"/>
<circle cx="74.5" cy="100.5" r="1.5" fill="#FFDE00"/>
<circle cx="83.5" cy="100.5" r="1.5" fill="#FFDE00"/>
<circle cx="92.5" cy="100.5" r="1.5" fill="#FFDE00"/>
<circle cx="101.5" cy="100.5" r="1.5" fill="#FFDE00"/>
<circle cx="110.5" cy="100.5" r="1.5" fill="#FFDE00"/>
<circle cx="119.5" cy="100.5" r="1.5" fill="#FFDE00"/>
<circle cx="128.5" cy="100.5" r="1.5" fill="#FFDE00"/>
<circle cx="2.5" cy="109.5" r="1.5" fill="#FFDE00"/>
<circle cx="11.5" cy="109.5" r="1.5" fill="#FFDE00"/>
<circle cx="20.5" cy="109.5" r="1.5" fill="#FFDE00"/>
<circle cx="29.5" cy="109.5" r="1.5" fill="#FFDE00"/>
<circle cx="38.5" cy="109.5" r="1.5" fill="#FFDE00"/>
<circle cx="47.5" cy="109.5" r="1.5" fill="#FFDE00"/>
<circle cx="56.5" cy="109.5" r="1.5" fill="#FFDE00"/>
<circle cx="65.5" cy="109.5" r="1.5" fill="#FFDE00"/>
<circle cx="74.5" cy="109.5" r="1.5" fill="#FFDE00"/>
<circle cx="83.5" cy="109.5" r="1.5" fill="#FFDE00"/>
<circle cx="92.5" cy="109.5" r="1.5" fill="#FFDE00"/>
<circle cx="101.5" cy="109.5" r="1.5" fill="#FFDE00"/>
<circle cx="110.5" cy="109.5" r="1.5" fill="#FFDE00"/>
<circle cx="119.5" cy="109.5" r="1.5" fill="#FFDE00"/>
<circle cx="128.5" cy="109.5" r="1.5" fill="#FFDE00"/>
<circle cx="2.5" cy="118.5" r="1.5" fill="#FFDE00"/>
<circle cx="11.5" cy="118.5" r="1.5" fill="#FFDE00"/>
<circle cx="20.5" cy="118.5" r="1.5" fill="#FFDE00"/>
<circle cx="29.5" cy="118.5" r="1.5" fill="#FFDE00"/>
<circle cx="38.5" cy="118.5" r="1.5" fill="#FFDE00"/>
<circle cx="47.5" cy="118.5" r="1.5" fill="#FFDE00"/>
<circle cx="56.5" cy="118.5" r="1.5" fill="#FFDE00"/>
<circle cx="65.5" cy="118.5" r="1.5" fill="#FFDE00"/>
<circle cx="74.5" cy="118.5" r="1.5" fill="#FFDE00"/>
<circle cx="83.5" cy="118.5" r="1.5" fill="#FFDE00"/>
<circle cx="92.5" cy="118.5" r="1.5" fill="#FFDE00"/>
<circle cx="101.5" cy="118.5" r="1.5" fill="#FFDE00"/>
<circle cx="110.5" cy="118.5" r="1.5" fill="#FFDE00"/>
<circle cx="119.5" cy="118.5" r="1.5" fill="#FFDE00"/>
<circle cx="128.5" cy="118.5" r="1.5" fill="#FFDE00"/>
<circle cx="2.5" cy="127.5" r="1.5" fill="#FFDE00"/>
<circle cx="11.5" cy="127.5" r="1.5" fill="#FFDE00"/>
<circle cx="20.5" cy="127.5" r="1.5" fill="#FFDE00"/>
<circle cx="29.5" cy="127.5" r="1.5" fill="#FFDE00"/>
<circle cx="38.5" cy="127.5" r="1.5" fill="#FFDE00"/>
<circle cx="47.5" cy="127.5" r="1.5" fill="#FFDE00"/>
<circle cx="56.5" cy="127.5" r="1.5" fill="#FFDE00"/>
<circle cx="65.5" cy="127.5" r="1.5" fill="#FFDE00"/>
<circle cx="74.5" cy="127.5" r="1.5" fill="#FFDE00"/>
<circle cx="83.5" cy="127.5" r="1.5" fill="#FFDE00"/>
<circle cx="92.5" cy="127.5" r="1.5" fill="#FFDE00"/>
<circle cx="101.5" cy="127.5" r="1.5" fill="#FFDE00"/>
<circle cx="110.5" cy="127.5" r="1.5" fill="#FFDE00"/>
<circle cx="119.5" cy="127.5" r="1.5" fill="#FFDE00"/>
<circle cx="128.5" cy="127.5" r="1.5" fill="#FFDE00"/>
</g>
</g>
<defs>
<clipPath id="clip0_43_1140">
<rect width="128" height="128" fill="white"/>
</clipPath>
<clipPath id="clip1_43_1140">
<rect width="129" height="129" fill="white" transform="translate(1)"/>
</clipPath>
</defs>
</svg>
