<svg width="1440" height="466" viewBox="0 0 1440 466" fill="none" xmlns="http://www.w3.org/2000/svg">
<path d="M0 0H334.194C346.097 0 362.165 6.099 375.319 12.2471C381.883 15.3146 387.697 18.3823 391.871 20.6836C393.958 21.8341 395.633 22.7932 396.787 23.4639C397.364 23.7991 397.81 24.0629 398.112 24.2422C398.263 24.3317 398.378 24.4001 398.455 24.4463C398.479 24.4605 398.499 24.4725 398.516 24.4824L572.336 200.523L572.708 200.9L573.062 200.507L694.536 65.9766L836.478 153.8L836.839 154.023L837.118 153.703L913.755 65.6865C919.064 60.9248 923.516 57.5558 927.291 55.71C931.068 53.8633 934.077 53.5827 936.576 54.8418C939.104 56.1155 941.256 59.0325 943.132 63.9365C945.003 68.8266 946.565 75.6 947.979 84.4482C950.809 102.147 952.938 123.548 954.359 140.53C955.07 149.02 955.602 156.404 955.958 161.664C956.136 164.294 956.269 166.393 956.358 167.835C956.403 168.556 956.437 169.112 956.459 169.488C956.47 169.676 956.478 169.819 956.483 169.915C956.486 169.963 956.489 169.999 956.49 170.023C956.491 170.035 956.491 170.045 956.491 170.051C956.491 170.054 956.492 170.056 956.492 170.058V170.06L956.494 170.1L956.503 170.14C960.552 188.495 966.048 199.82 974.858 206.79C983.661 213.754 995.682 216.298 1012.58 217.328L1012.59 217.329H1440V465.653H0V0Z" fill="#FFDE00"/>
</svg>
