<svg width="1301" height="493" viewBox="0 0 1301 493" fill="none" xmlns="http://www.w3.org/2000/svg">
<path d="M1300.1 492.889H913.56L913.545 492.888C898.302 491.958 887.444 489.664 879.49 483.371C871.528 477.072 866.566 466.841 862.913 450.278L862.904 450.239L862.902 450.199L863.401 450.171L862.901 450.199V450.191C862.901 450.186 862.901 450.178 862.9 450.167C862.899 450.145 862.897 450.112 862.895 450.069C862.89 449.983 862.882 449.853 862.872 449.684C862.852 449.344 862.821 448.842 862.781 448.192C862.701 446.892 862.58 444.998 862.42 442.625C862.099 437.88 861.618 431.219 860.978 423.561C859.696 408.24 857.775 388.934 855.223 372.969C853.946 364.988 852.537 358.881 850.852 354.475C849.16 350.054 847.225 347.437 844.961 346.296C842.725 345.17 840.028 345.416 836.628 347.079C833.23 348.741 829.219 351.774 824.434 356.066L755.294 435.473L755.015 435.793L754.653 435.569L626.636 356.36L517.075 477.697L516.72 478.09L516.348 477.714L359.541 318.902C359.527 318.894 359.51 318.885 359.491 318.873C359.422 318.831 359.318 318.769 359.182 318.688C358.91 318.527 358.507 318.289 357.987 317.986C356.947 317.381 355.435 316.517 353.553 315.479C349.788 313.404 344.543 310.636 338.623 307.869C326.756 302.323 312.269 296.825 301.544 296.825H0V0H1300.1V492.889Z" fill="#F4F2E9"/>
</svg>
