<svg width="1441" height="308" viewBox="0 0 1441 308" fill="none" xmlns="http://www.w3.org/2000/svg">
<path d="M1441 307.752H1012.59L1012.58 307.751C995.693 306.877 983.687 304.722 974.891 298.818C966.07 292.898 960.562 283.27 956.508 267.677L956.495 267.632L956.492 267.585L956.991 267.552L956.492 267.584V267.577C956.492 267.572 956.491 267.564 956.49 267.554C956.489 267.533 956.487 267.502 956.484 267.462C956.479 267.381 956.47 267.259 956.459 267.101C956.437 266.782 956.404 266.309 956.359 265.698C956.27 264.476 956.137 262.694 955.959 260.464C955.603 256.002 955.07 249.739 954.359 242.538C952.939 228.132 950.811 209.981 947.982 194.973C946.568 187.47 945.008 181.735 943.144 177.6C941.277 173.46 939.136 170.993 936.604 169.911C934.08 168.832 931.044 169.079 927.263 170.647C923.485 172.214 919.033 175.072 913.729 179.108L837.09 253.779L836.83 254.032L836.509 253.863L694.527 179.338L573.033 293.485L572.706 293.793L572.365 293.5L398.549 144.158C398.532 144.15 398.51 144.139 398.485 144.126C398.408 144.087 398.293 144.028 398.143 143.952C397.841 143.8 397.394 143.576 396.817 143.292C395.663 142.723 393.987 141.91 391.9 140.934C387.726 138.981 381.911 136.378 375.347 133.775C362.195 128.561 346.115 123.381 334.194 123.381H0V0H1441V307.752Z" fill="#F4F2E9"/>
</svg>
