<svg width="138" height="50" viewBox="0 0 138 50" fill="none" xmlns="http://www.w3.org/2000/svg">
<path d="M127.034 4H8.96552C6.22314 4 4 6.22314 4 8.96552V39.8621C4 42.6045 6.22314 44.8276 8.96552 44.8276H127.034C129.777 44.8276 132 42.6045 132 39.8621V8.96552C132 6.22314 129.777 4 127.034 4Z" fill="black" stroke="url(#paint0_linear_92_7388)" stroke-width="8"/>
<path d="M40.5136 12.8276V19.3924H38.6129V16.0294L32.6325 21.9311L31.2888 20.6049L37.2692 14.7033H33.8612V12.8276H40.5136ZM23.8937 12.8276V14.7033H20.486L26.4664 20.6049L25.1227 21.9311L19.142 16.0294V19.3924H17.2415V12.8276H23.8937ZM32.6325 26.6897L38.6129 32.5912V29.2284H40.5136V35.7932H33.8612V33.9176H37.2692L31.2888 28.0159L32.6325 26.6897ZM31.3599 20.4828L32.7564 21.7847L20.5122 33.8969H23.9478V35.7932H17.2415V29.1564H19.1575V32.5562L31.3599 20.4828Z" fill="white"/>
<path fill-rule="evenodd" clip-rule="evenodd" d="M52.3311 25.2186C52.3311 24.1759 52.5418 23.251 52.9633 22.4442C53.3846 21.6373 53.9603 21.0166 54.6897 20.5821C55.4193 20.1476 56.2306 19.9304 57.1239 19.9304C57.8033 19.9304 58.4511 20.0762 59.0676 20.3679C59.6839 20.6597 60.1744 21.0476 60.5393 21.5317V16.6345H63.2188V30.4138H60.5393V28.8869C60.2122 29.3959 59.7531 29.8055 59.162 30.1159C58.5705 30.4262 57.885 30.5815 57.1051 30.5815C56.2246 30.5815 55.4193 30.3579 54.6897 29.911C53.9603 29.4641 53.3846 28.8341 52.9633 28.021C52.5418 27.2079 52.3311 26.2738 52.3311 25.2186ZM60.5581 25.2559C60.5581 24.6228 60.4323 24.0797 60.1807 23.6266C59.9291 23.1734 59.5895 22.8259 59.162 22.5838C58.7341 22.3417 58.2751 22.2207 57.7843 22.2207C57.2938 22.2207 56.8408 22.3386 56.4257 22.5745C56.0105 22.8104 55.6742 23.1548 55.4163 23.6079C55.1584 24.061 55.0295 24.5979 55.0295 25.2186C55.0295 25.8393 55.1584 26.3824 55.4163 26.8479C55.6742 27.3134 56.0138 27.6704 56.4353 27.9186C56.8566 28.1669 57.3062 28.291 57.7843 28.291C58.2751 28.291 58.7341 28.17 59.162 27.9279C59.5895 27.6859 59.9291 27.3383 60.1807 26.8852C60.4323 26.4321 60.5581 25.889 60.5581 25.2559ZM71.8293 19.949C73.0745 19.949 74.0809 20.3369 74.8483 21.1128C75.6157 21.8886 75.9992 22.9717 75.9992 24.3621V30.4138H73.3575V24.7159C73.3575 23.8966 73.1501 23.2666 72.7349 22.8259C72.3197 22.3852 71.7537 22.1648 71.0367 22.1648C70.3071 22.1648 69.7316 22.3852 69.3101 22.8259C68.8886 23.2666 68.6781 23.8966 68.6781 24.7159V30.4138H66.0362V20.0979H68.6781V21.3828C69.0301 20.9359 69.48 20.5852 70.0271 20.3307C70.5744 20.0762 71.1749 19.949 71.8293 19.949ZM78.0621 25.2186C78.0621 24.1759 78.2728 23.251 78.6941 22.4442C79.1156 21.6373 79.6911 21.0166 80.4207 20.5821C81.1504 20.1476 81.9617 19.9304 82.8549 19.9304C83.5341 19.9304 84.1821 20.0762 84.7984 20.3679C85.4149 20.6597 85.9054 21.0476 86.2704 21.5317V16.6345H88.9498V30.4138H86.2704V28.8869C85.9432 29.3959 85.4842 29.8055 84.8927 30.1159C84.3015 30.4262 83.616 30.5815 82.8362 30.5815C81.9553 30.5815 81.1504 30.3579 80.4207 29.911C79.6911 29.4641 79.1156 28.8341 78.6941 28.021C78.2728 27.2079 78.0621 26.2738 78.0621 25.2186ZM86.2891 25.2559C86.2891 24.6228 86.1633 24.0797 85.9117 23.6266C85.6602 23.1734 85.3206 22.8259 84.8927 22.5838C84.4651 22.3417 84.0058 22.2207 83.5153 22.2207C83.0249 22.2207 82.5719 22.3386 82.1567 22.5745C81.7415 22.8104 81.405 23.1548 81.1473 23.6079C80.8894 24.061 80.7603 24.5979 80.7603 25.2186C80.7603 25.8393 80.8894 26.3824 81.1473 26.8479C81.405 27.3134 81.7448 27.6704 82.1661 27.9186C82.5876 28.1669 83.0373 28.291 83.5153 28.291C84.0058 28.291 84.4651 28.17 84.8927 27.9279C85.3206 27.6859 85.6602 27.3383 85.9117 26.8852C86.1633 26.4321 86.2891 25.889 86.2891 25.2559ZM102.68 30.4138L99.1324 26.0193V30.4138H96.4905V16.6345H99.1324V24.4738L102.642 20.0979H106.076L101.472 25.2745L106.114 30.4138H102.68ZM109.083 18.869C108.617 18.869 108.23 18.7231 107.922 18.4314C107.614 18.1397 107.46 17.7766 107.46 17.3421C107.46 16.9076 107.614 16.5445 107.922 16.2528C108.23 15.961 108.617 15.8152 109.083 15.8152C109.548 15.8152 109.935 15.961 110.243 16.2528C110.551 16.5445 110.705 16.9076 110.705 17.3421C110.705 17.7766 110.551 18.1397 110.243 18.4314C109.935 18.7231 109.548 18.869 109.083 18.869ZM110.385 20.0979V30.4138H107.743V20.0979H110.385ZM116.297 22.2393V27.2297C116.297 27.5773 116.382 27.8286 116.551 27.9838C116.721 28.139 117.007 28.2166 117.41 28.2166H118.636V30.4138H116.976C114.749 30.4138 113.636 29.3462 113.636 27.211V22.2393H112.391V20.0979H113.636V17.5469H116.297V20.0979H118.636V22.2393H116.297Z" fill="white"/>
<g clip-path="url(#clip0_92_7388)">
<circle cx="1.5" cy="1.5" r="1.5" fill="#FDFCF5"/>
<circle cx="10.5" cy="1.5" r="1.5" fill="#FDFCF5"/>
<circle cx="19.5" cy="1.5" r="1.5" fill="#FDFCF5"/>
<circle cx="28.5" cy="1.5" r="1.5" fill="#FDFCF5"/>
<circle cx="37.5" cy="1.5" r="1.5" fill="#FDFCF5"/>
<circle cx="46.5" cy="1.5" r="1.5" fill="#FDFCF5"/>
<circle cx="55.5" cy="1.5" r="1.5" fill="#FDFCF5"/>
<circle cx="64.5" cy="1.5" r="1.5" fill="#FDFCF5"/>
<circle cx="73.5" cy="1.5" r="1.5" fill="#FDFCF5"/>
<circle cx="82.5" cy="1.5" r="1.5" fill="#FDFCF5"/>
<circle cx="91.5" cy="1.5" r="1.5" fill="#FDFCF5"/>
<circle cx="100.5" cy="1.5" r="1.5" fill="#FDFCF5"/>
<circle cx="109.5" cy="1.5" r="1.5" fill="#FDFCF5"/>
<circle cx="118.5" cy="1.5" r="1.5" fill="#FDFCF5"/>
<circle cx="127.5" cy="1.5" r="1.5" fill="#FDFCF5"/>
<circle cx="136.5" cy="1.5" r="1.5" fill="#FDFCF5"/>
<circle cx="1.5" cy="10.5" r="1.5" fill="#FDFCF5"/>
<circle cx="10.5" cy="10.5" r="1.5" fill="#FDFCF5"/>
<circle cx="19.5" cy="10.5" r="1.5" fill="#FDFCF5"/>
<circle cx="28.5" cy="10.5" r="1.5" fill="#FDFCF5"/>
<circle cx="37.5" cy="10.5" r="1.5" fill="#FDFCF5"/>
<circle cx="46.5" cy="10.5" r="1.5" fill="#FDFCF5"/>
<circle cx="55.5" cy="10.5" r="1.5" fill="#FDFCF5"/>
<circle cx="64.5" cy="10.5" r="1.5" fill="#FDFCF5"/>
<circle cx="73.5" cy="10.5" r="1.5" fill="#FDFCF5"/>
<circle cx="82.5" cy="10.5" r="1.5" fill="#FDFCF5"/>
<circle cx="91.5" cy="10.5" r="1.5" fill="#FDFCF5"/>
<circle cx="100.5" cy="10.5" r="1.5" fill="#FDFCF5"/>
<circle cx="109.5" cy="10.5" r="1.5" fill="#FDFCF5"/>
<circle cx="118.5" cy="10.5" r="1.5" fill="#FDFCF5"/>
<circle cx="127.5" cy="10.5" r="1.5" fill="#FDFCF5"/>
<circle cx="136.5" cy="10.5" r="1.5" fill="#FDFCF5"/>
<circle cx="1.5" cy="19.5" r="1.5" fill="#FDFCF5"/>
<circle cx="10.5" cy="19.5" r="1.5" fill="#FDFCF5"/>
<circle cx="19.5" cy="19.5" r="1.5" fill="#FDFCF5"/>
<circle cx="28.5" cy="19.5" r="1.5" fill="#FDFCF5"/>
<circle cx="37.5" cy="19.5" r="1.5" fill="#FDFCF5"/>
<circle cx="46.5" cy="19.5" r="1.5" fill="#FDFCF5"/>
<circle cx="55.5" cy="19.5" r="1.5" fill="#FDFCF5"/>
<circle cx="64.5" cy="19.5" r="1.5" fill="#FDFCF5"/>
<circle cx="73.5" cy="19.5" r="1.5" fill="#FDFCF5"/>
<circle cx="82.5" cy="19.5" r="1.5" fill="#FDFCF5"/>
<circle cx="91.5" cy="19.5" r="1.5" fill="#FDFCF5"/>
<circle cx="100.5" cy="19.5" r="1.5" fill="#FDFCF5"/>
<circle cx="109.5" cy="19.5" r="1.5" fill="#FDFCF5"/>
<circle cx="118.5" cy="19.5" r="1.5" fill="#FDFCF5"/>
<circle cx="127.5" cy="19.5" r="1.5" fill="#FDFCF5"/>
<circle cx="136.5" cy="19.5" r="1.5" fill="#FDFCF5"/>
<circle cx="1.5" cy="28.5" r="1.5" fill="#FDFCF5"/>
<circle cx="10.5" cy="28.5" r="1.5" fill="#FDFCF5"/>
<circle cx="19.5" cy="28.5" r="1.5" fill="#FDFCF5"/>
<circle cx="28.5" cy="28.5" r="1.5" fill="#FDFCF5"/>
<circle cx="37.5" cy="28.5" r="1.5" fill="#FDFCF5"/>
<circle cx="46.5" cy="28.5" r="1.5" fill="#FDFCF5"/>
<circle cx="55.5" cy="28.5" r="1.5" fill="#FDFCF5"/>
<circle cx="64.5" cy="28.5" r="1.5" fill="#FDFCF5"/>
<circle cx="73.5" cy="28.5" r="1.5" fill="#FDFCF5"/>
<circle cx="82.5" cy="28.5" r="1.5" fill="#FDFCF5"/>
<circle cx="91.5" cy="28.5" r="1.5" fill="#FDFCF5"/>
<circle cx="100.5" cy="28.5" r="1.5" fill="#FDFCF5"/>
<circle cx="109.5" cy="28.5" r="1.5" fill="#FDFCF5"/>
<circle cx="118.5" cy="28.5" r="1.5" fill="#FDFCF5"/>
<circle cx="127.5" cy="28.5" r="1.5" fill="#FDFCF5"/>
<circle cx="136.5" cy="28.5" r="1.5" fill="#FDFCF5"/>
<circle cx="1.5" cy="37.5" r="1.5" fill="#FDFCF5"/>
<circle cx="10.5" cy="37.5" r="1.5" fill="#FDFCF5"/>
<circle cx="19.5" cy="37.5" r="1.5" fill="#FDFCF5"/>
<circle cx="28.5" cy="37.5" r="1.5" fill="#FDFCF5"/>
<circle cx="37.5" cy="37.5" r="1.5" fill="#FDFCF5"/>
<circle cx="46.5" cy="37.5" r="1.5" fill="#FDFCF5"/>
<circle cx="55.5" cy="37.5" r="1.5" fill="#FDFCF5"/>
<circle cx="64.5" cy="37.5" r="1.5" fill="#FDFCF5"/>
<circle cx="73.5" cy="37.5" r="1.5" fill="#FDFCF5"/>
<circle cx="82.5" cy="37.5" r="1.5" fill="#FDFCF5"/>
<circle cx="91.5" cy="37.5" r="1.5" fill="#FDFCF5"/>
<circle cx="100.5" cy="37.5" r="1.5" fill="#FDFCF5"/>
<circle cx="109.5" cy="37.5" r="1.5" fill="#FDFCF5"/>
<circle cx="118.5" cy="37.5" r="1.5" fill="#FDFCF5"/>
<circle cx="127.5" cy="37.5" r="1.5" fill="#FDFCF5"/>
<circle cx="136.5" cy="37.5" r="1.5" fill="#FDFCF5"/>
<circle cx="1.5" cy="46.5" r="1.5" fill="#FDFCF5"/>
<circle cx="10.5" cy="46.5" r="1.5" fill="#FDFCF5"/>
<circle cx="19.5" cy="46.5" r="1.5" fill="#FDFCF5"/>
<circle cx="28.5" cy="46.5" r="1.5" fill="#FDFCF5"/>
<circle cx="37.5" cy="46.5" r="1.5" fill="#FDFCF5"/>
<circle cx="46.5" cy="46.5" r="1.5" fill="#FDFCF5"/>
<circle cx="55.5" cy="46.5" r="1.5" fill="#FDFCF5"/>
<circle cx="64.5" cy="46.5" r="1.5" fill="#FDFCF5"/>
<circle cx="73.5" cy="46.5" r="1.5" fill="#FDFCF5"/>
<circle cx="82.5" cy="46.5" r="1.5" fill="#FDFCF5"/>
<circle cx="91.5" cy="46.5" r="1.5" fill="#FDFCF5"/>
<circle cx="100.5" cy="46.5" r="1.5" fill="#FDFCF5"/>
<circle cx="109.5" cy="46.5" r="1.5" fill="#FDFCF5"/>
<circle cx="118.5" cy="46.5" r="1.5" fill="#FDFCF5"/>
<circle cx="127.5" cy="46.5" r="1.5" fill="#FDFCF5"/>
<circle cx="136.5" cy="46.5" r="1.5" fill="#FDFCF5"/>
</g>
<defs>
<linearGradient id="paint0_linear_92_7388" x1="-8.68966" y1="2.89655" x2="-8.41379" y2="2.89655" gradientUnits="userSpaceOnUse">
<stop stop-color="#5F6AF2"/>
<stop offset="1" stop-color="#A65FF2"/>
</linearGradient>
<clipPath id="clip0_92_7388">
<rect width="138" height="50" fill="white"/>
</clipPath>
</defs>
</svg>
