<svg width="128" height="128" viewBox="0 0 128 128" fill="none" xmlns="http://www.w3.org/2000/svg">
<g clip-path="url(#clip0_35_104)">
<path d="M40.3999 78.6217V51.5418H41.8699V55.8017C42.0435 55.613 42.2039 55.4126 42.3499 55.2018C42.9506 53.9549 43.8942 52.905 45.0703 52.1753C46.2463 51.4456 47.606 51.0663 48.9899 51.0817C52.3399 50.9817 55.0599 52.2218 56.6599 55.2018C57.678 57.053 58.2382 59.1209 58.2939 61.2329C58.3496 63.3449 57.899 65.4395 56.9799 67.3418C55.4899 70.6818 51.8099 72.3418 47.8699 71.7318C46.6438 71.6273 45.4634 71.2175 44.4363 70.5398C43.4092 69.8621 42.5682 68.938 41.9899 67.8518V78.6217H40.3999ZM41.8699 61.1217C41.9999 62.4417 42.0499 63.3817 42.1999 64.3017C42.7799 67.9217 44.9199 70.0718 48.2799 70.4618C49.8576 70.7211 51.4764 70.4253 52.8604 69.6248C54.2444 68.8243 55.308 67.5686 55.8699 66.0717C56.5156 64.5321 56.8263 62.8727 56.7815 61.2038C56.7367 59.5348 56.3373 57.8945 55.6099 56.3917C55.0101 55.0501 53.9901 53.9401 52.7038 53.2294C51.4176 52.5186 49.935 52.2456 48.4799 52.4518C47.1138 52.5507 45.8124 53.0729 44.7568 53.9457C43.7012 54.8185 42.9438 55.9986 42.5899 57.3218C42.2767 58.5734 42.0363 59.8422 41.8699 61.1217Z" fill="black"/>
<path d="M88.28 64.8019C88.0573 66.7086 87.1496 68.4694 85.7259 69.757C84.3022 71.0446 82.4593 71.7713 80.54 71.8019C74.38 72.1119 71.49 68.0219 71.03 63.3019C70.7107 60.7387 71.1269 58.1376 72.23 55.8019C72.9982 54.1998 74.2563 52.8838 75.8222 52.0442C77.388 51.2046 79.1805 50.8851 80.94 51.1319C82.6128 51.2737 84.1986 51.9381 85.4728 53.0311C86.7471 54.1241 87.6452 55.5902 88.04 57.2219C88.353 58.708 88.5833 60.2103 88.73 61.7219H72.54C72.24 66.0019 74.54 69.4419 77.8 70.2719C81.86 71.2719 85.33 69.5119 86.59 65.6519C86.87 64.6619 87.38 64.5219 88.28 64.8019ZM72.54 60.3519H87.01C86.92 55.7919 84.08 52.4919 80.23 52.4419C75.87 52.3719 72.73 55.5519 72.54 60.3519Z" fill="black"/>
<path d="M91.2599 64.9018H92.6799C92.7324 65.9466 93.0719 66.9568 93.6611 67.8213C94.2504 68.6857 95.0665 69.371 96.0199 69.8018C97.2171 70.3405 98.5204 70.6023 99.8328 70.5677C101.145 70.5331 102.433 70.2029 103.6 69.6018C104.236 69.315 104.769 68.8401 105.126 68.2411C105.484 67.642 105.649 66.9477 105.6 66.2518C105.637 65.5806 105.453 64.9158 105.078 64.3581C104.703 63.8005 104.156 63.3805 103.52 63.1618C101.96 62.5818 100.3 62.2618 98.7099 61.7518C97.0556 61.2807 95.4379 60.6891 93.8699 59.9818C91.3099 58.7318 91.1499 53.8618 94.0499 52.3218C95.5349 51.4838 97.206 51.0311 98.9108 51.0049C100.616 50.9787 102.3 51.3798 103.81 52.1718C104.725 52.6773 105.464 53.4497 105.928 54.3858C106.393 55.322 106.561 56.3776 106.41 57.4118H105.19C105.19 57.3518 105.08 57.3018 105.08 57.2418C104.93 53.3518 101.67 52.1518 98.1699 52.4918C97.1251 52.6207 96.1103 52.9285 95.1699 53.4018C94.605 53.6601 94.1342 54.0875 93.8225 54.6249C93.5108 55.1622 93.3737 55.7831 93.4299 56.4018C93.4317 57.0207 93.6248 57.624 93.9829 58.1288C94.3409 58.6337 94.8464 59.0155 95.4299 59.2218C96.9699 59.7818 98.5799 60.1418 100.16 60.5818C101.43 60.9318 102.75 61.1618 103.98 61.5818C104.848 61.8664 105.609 62.4079 106.163 63.1347C106.716 63.8615 107.036 64.7392 107.08 65.6518C107.228 66.6516 107.058 67.6728 106.593 68.5704C106.128 69.4679 105.392 70.1962 104.49 70.6518C101.15 72.5418 95.6499 72.0418 93.1999 69.6518C92.579 69.0273 92.0879 68.286 91.7549 67.4708C91.4219 66.6555 91.2537 65.7824 91.2599 64.9018Z" fill="black"/>
<path d="M125.08 57.412H123.75C123.75 57.232 123.68 57.072 123.66 56.922C123.638 55.925 123.275 54.9658 122.63 54.2048C121.986 53.4439 121.1 52.9274 120.12 52.742C118.271 52.2116 116.299 52.3065 114.51 53.012C113.803 53.2148 113.18 53.6408 112.735 54.2266C112.29 54.8123 112.046 55.5263 112.04 56.262C112.015 56.9845 112.24 57.6934 112.678 58.2691C113.115 58.8449 113.737 59.252 114.44 59.422C116.44 60.042 118.49 60.422 120.52 60.982C121.178 61.1399 121.826 61.3369 122.46 61.572C123.407 61.9109 124.23 62.5277 124.821 63.3417C125.412 64.1557 125.744 65.1292 125.773 66.1348C125.803 67.1404 125.528 68.1315 124.985 68.9784C124.442 69.8253 123.656 70.4888 122.73 70.882C121.319 71.5228 119.789 71.8618 118.239 71.8773C116.69 71.8928 115.154 71.5845 113.73 70.972C112.559 70.467 111.571 69.6155 110.899 68.5321C110.227 67.4486 109.902 66.1853 109.97 64.912H110.53H111.27C111.51 66.0723 112.03 67.1565 112.784 68.0706C113.538 68.9848 114.503 69.7014 115.597 70.1584C116.69 70.6155 117.878 70.7991 119.058 70.6934C120.239 70.5877 121.375 70.1959 122.37 69.552C122.976 69.2372 123.479 68.7552 123.819 68.1632C124.159 67.5712 124.323 66.894 124.29 66.212C124.32 65.5404 124.13 64.8773 123.75 64.3233C123.369 63.7693 122.818 63.3545 122.18 63.142C120.62 62.562 118.96 62.252 117.37 61.742C115.706 61.2781 114.078 60.6933 112.5 59.992C110 58.762 109.8 53.932 112.65 52.392C114.153 51.5189 115.857 51.0499 117.595 51.0306C119.334 51.0114 121.048 51.4425 122.57 52.282C123.441 52.8017 124.141 53.5633 124.587 54.4741C125.033 55.3849 125.204 56.4056 125.08 57.412Z" fill="black"/>
<path d="M37.97 71.312C37.4464 71.5102 36.8684 71.5098 36.3451 71.3108C35.8218 71.1118 35.3896 70.728 35.13 70.232C33.5 67.792 31.7 65.462 29.97 63.082L29.22 62.082C27.16 64.842 25.1 67.492 23.22 70.242C22.9751 70.7161 22.5662 71.085 22.0695 71.28C21.5727 71.475 21.0221 71.4828 20.52 71.302L28.25 60.932L21.06 51.562C21.5776 51.3751 22.1438 51.3725 22.663 51.5547C23.1822 51.7369 23.6227 52.0927 23.91 52.562C25.58 55.002 27.43 57.332 29.27 59.802C31.12 57.352 32.95 55.012 34.66 52.592C34.9063 52.1256 35.3154 51.766 35.8096 51.5816C36.3037 51.3972 36.8484 51.4009 37.34 51.592L34.55 55.292C33.3 56.942 32.07 58.602 30.77 60.212C30.6653 60.3058 30.5815 60.4206 30.5241 60.549C30.4667 60.6773 30.4371 60.8164 30.4371 60.957C30.4371 61.0976 30.4667 61.2366 30.5241 61.365C30.5815 61.4934 30.6653 61.6082 30.77 61.702C33.16 64.872 35.53 68.052 37.97 71.312Z" fill="black"/>
<path d="M70.7899 51.4619V52.8619C69.7785 52.7956 68.7644 52.9421 67.8131 53.2919C66.8618 53.6417 65.9944 54.1871 65.267 54.8929C64.5395 55.5987 63.9681 56.4492 63.5897 57.3895C63.2112 58.3298 63.0342 59.339 63.0699 60.3519C63.0699 63.6452 63.0699 66.9386 63.0699 70.2319C63.0699 70.5819 63.0699 70.9319 63.0699 71.3519H61.6399V51.5419H63.0399V55.6019C64.7699 52.6419 67.4399 51.5419 70.7899 51.4619Z" fill="black"/>
<path d="M2 60.8019C2.21 59.8019 2.34 58.7119 2.63 57.6919C4.36 51.5419 11.41 48.9819 16.26 52.7919C19.1 55.0219 19.81 58.1819 19.67 61.7419H3.67C3.41 68.1019 8 71.9419 13.87 69.9819C14.8222 69.6413 15.6746 69.0689 16.3502 68.3164C17.0259 67.564 17.5035 66.6551 17.74 65.6719C18.05 64.6719 18.55 64.5019 19.5 64.7919C19.3435 66.0093 18.9131 67.1754 18.241 68.2025C17.569 69.2296 16.6729 70.091 15.62 70.7219C13.8804 71.6732 11.8845 72.05 9.91784 71.7986C7.95114 71.5471 6.1143 70.6802 4.67 69.3219C3.24116 67.7153 2.3772 65.6854 2.21 63.5419C2.21 63.2019 2.08 62.8619 2.01 62.5419C2.00333 61.9485 2 61.3685 2 60.8019ZM3.69 60.3719H18.16C18.07 55.7619 15.16 52.4919 11.28 52.4619C6.96 52.4019 3.87 55.6019 3.68 60.3519L3.69 60.3719Z" fill="black"/>
<g clip-path="url(#clip1_35_104)">
<circle cx="3.49976" cy="50.5" r="1.5" fill="#FDFCF5"/>
<circle cx="12.4998" cy="50.5" r="1.5" fill="#FDFCF5"/>
<circle cx="21.4998" cy="50.5" r="1.5" fill="#FDFCF5"/>
<circle cx="30.4998" cy="50.5" r="1.5" fill="#FDFCF5"/>
<circle cx="39.4998" cy="50.5" r="1.5" fill="#FDFCF5"/>
<circle cx="48.4998" cy="50.5" r="1.5" fill="#FDFCF5"/>
<circle cx="57.4998" cy="50.5" r="1.5" fill="#FDFCF5"/>
<circle cx="66.4998" cy="50.5" r="1.5" fill="#FDFCF5"/>
<circle cx="75.4998" cy="50.5" r="1.5" fill="#FDFCF5"/>
<circle cx="84.4998" cy="50.5" r="1.5" fill="#FDFCF5"/>
<circle cx="93.4998" cy="50.5" r="1.5" fill="#FDFCF5"/>
<circle cx="102.5" cy="50.5" r="1.5" fill="#FDFCF5"/>
<circle cx="111.5" cy="50.5" r="1.5" fill="#FDFCF5"/>
<circle cx="120.5" cy="50.5" r="1.5" fill="#FDFCF5"/>
<circle cx="3.49976" cy="59.5" r="1.5" fill="#FDFCF5"/>
<circle cx="12.4998" cy="59.5" r="1.5" fill="#FDFCF5"/>
<circle cx="21.4998" cy="59.5" r="1.5" fill="#FDFCF5"/>
<circle cx="30.4998" cy="59.5" r="1.5" fill="#FDFCF5"/>
<circle cx="39.4998" cy="59.5" r="1.5" fill="#FDFCF5"/>
<circle cx="48.4998" cy="59.5" r="1.5" fill="#FDFCF5"/>
<circle cx="57.4998" cy="59.5" r="1.5" fill="#FDFCF5"/>
<circle cx="66.4998" cy="59.5" r="1.5" fill="#FDFCF5"/>
<circle cx="75.4998" cy="59.5" r="1.5" fill="#FDFCF5"/>
<circle cx="84.4998" cy="59.5" r="1.5" fill="#FDFCF5"/>
<circle cx="93.4998" cy="59.5" r="1.5" fill="#FDFCF5"/>
<circle cx="102.5" cy="59.5" r="1.5" fill="#FDFCF5"/>
<circle cx="111.5" cy="59.5" r="1.5" fill="#FDFCF5"/>
<circle cx="120.5" cy="59.5" r="1.5" fill="#FDFCF5"/>
<circle cx="3.49976" cy="68.5" r="1.5" fill="#FDFCF5"/>
<circle cx="12.4998" cy="68.5" r="1.5" fill="#FDFCF5"/>
<circle cx="21.4998" cy="68.5" r="1.5" fill="#FDFCF5"/>
<circle cx="30.4998" cy="68.5" r="1.5" fill="#FDFCF5"/>
<circle cx="39.4998" cy="68.5" r="1.5" fill="#FDFCF5"/>
<circle cx="48.4998" cy="68.5" r="1.5" fill="#FDFCF5"/>
<circle cx="57.4998" cy="68.5" r="1.5" fill="#FDFCF5"/>
<circle cx="66.4998" cy="68.5" r="1.5" fill="#FDFCF5"/>
<circle cx="75.4998" cy="68.5" r="1.5" fill="#FDFCF5"/>
<circle cx="84.4998" cy="68.5" r="1.5" fill="#FDFCF5"/>
<circle cx="93.4998" cy="68.5" r="1.5" fill="#FDFCF5"/>
<circle cx="102.5" cy="68.5" r="1.5" fill="#FDFCF5"/>
<circle cx="111.5" cy="68.5" r="1.5" fill="#FDFCF5"/>
<circle cx="120.5" cy="68.5" r="1.5" fill="#FDFCF5"/>
<circle cx="3.49976" cy="77.5" r="1.5" fill="#FDFCF5"/>
<circle cx="12.4998" cy="77.5" r="1.5" fill="#FDFCF5"/>
<circle cx="21.4998" cy="77.5" r="1.5" fill="#FDFCF5"/>
<circle cx="30.4998" cy="77.5" r="1.5" fill="#FDFCF5"/>
<circle cx="39.4998" cy="77.5" r="1.5" fill="#FDFCF5"/>
<circle cx="48.4998" cy="77.5" r="1.5" fill="#FDFCF5"/>
<circle cx="57.4998" cy="77.5" r="1.5" fill="#FDFCF5"/>
<circle cx="66.4998" cy="77.5" r="1.5" fill="#FDFCF5"/>
<circle cx="75.4998" cy="77.5" r="1.5" fill="#FDFCF5"/>
<circle cx="84.4998" cy="77.5" r="1.5" fill="#FDFCF5"/>
<circle cx="93.4998" cy="77.5" r="1.5" fill="#FDFCF5"/>
<circle cx="102.5" cy="77.5" r="1.5" fill="#FDFCF5"/>
<circle cx="111.5" cy="77.5" r="1.5" fill="#FDFCF5"/>
<circle cx="120.5" cy="77.5" r="1.5" fill="#FDFCF5"/>
</g>
</g>
<defs>
<clipPath id="clip0_35_104">
<rect width="128" height="128" fill="white"/>
</clipPath>
<clipPath id="clip1_35_104">
<rect width="128" height="32" fill="white" transform="translate(1.99976 49)"/>
</clipPath>
</defs>
</svg>
