<svg width="140" height="140" viewBox="0 0 140 140" fill="none" xmlns="http://www.w3.org/2000/svg">
<g clip-path="url(#clip0_35_62)">
<path d="M83.8311 60.4108C80.8375 60.4108 78.6085 61.8808 78.6085 65.4191C78.6085 68.0845 80.0774 69.9352 83.6703 69.9352C86.7153 69.9352 88.7847 68.1403 88.7847 65.3086C88.7847 62.0995 86.933 60.4108 83.8311 60.4108ZM77.8472 85.392C77.1385 86.2616 76.4319 87.1858 76.4319 88.2762C76.4319 90.4517 79.2056 91.1058 83.0174 91.1058C86.1728 91.1058 90.4724 90.8848 90.4724 87.9503C90.4724 86.2058 88.403 86.0986 85.79 85.9345L77.8472 85.392ZM93.9527 60.5748C94.9316 61.8272 95.9674 63.5684 95.9674 66.072C95.9674 72.1117 91.2325 75.6489 84.3769 75.6489C82.6335 75.6489 81.0552 75.4323 80.0763 75.16L78.2803 78.0442L83.6124 78.3691C93.0274 78.9695 98.577 79.2419 98.577 86.477C98.577 92.7366 93.082 96.2716 83.6124 96.2716C73.7621 96.2716 70.0083 93.768 70.0083 89.4706C70.0083 87.0206 71.0977 85.718 73.0019 83.9187C71.2049 83.1597 70.6077 81.8002 70.6077 80.3302C70.6077 79.1325 71.206 78.0442 72.186 77.0095C73.166 75.977 74.2542 74.9412 75.5591 73.7447C72.8925 72.4387 70.88 69.6092 70.88 65.5809C70.88 59.3236 75.0155 55.0262 83.3411 55.0262C85.6817 55.0262 87.0981 55.2417 88.3483 55.5709H98.961V60.1953L93.9527 60.5748ZM108.535 50.6873C105.432 50.6873 103.636 48.8903 103.636 45.7873C103.636 42.6887 105.432 41 108.535 41C111.691 41 113.486 42.6877 113.486 45.7873C113.487 48.8903 111.691 50.6873 108.535 50.6873ZM101.513 83.3905V79.0931L104.29 78.7125C105.051 78.6031 105.159 78.4402 105.159 77.622V61.6237C105.159 61.0266 104.997 60.6438 104.452 60.4819L101.513 59.4472L102.111 55.0416H113.378V77.6231C113.378 78.4959 113.43 78.6031 114.248 78.7136L117.024 79.0942V83.3916L101.513 83.3905ZM138.544 81.2795C136.202 82.4203 132.775 83.4561 129.671 83.4561C123.196 83.4561 120.748 80.8464 120.748 74.6941V60.437C120.748 60.1122 120.748 59.8934 120.312 59.8934H116.504V55.0503C121.294 54.5045 123.197 52.1103 123.796 46.1789H128.967V53.9084C128.967 54.288 128.967 54.4531 129.402 54.4531H137.075V59.8945H128.967V72.8992C128.967 76.1094 129.729 77.3606 132.667 77.3606C134.193 77.3606 135.769 76.9811 137.075 76.4911L138.544 81.2795Z" fill="#31251C"/>
<path d="M57.9128 66.9994L33.0311 42.1188C31.5993 40.686 29.2751 40.686 27.8423 42.1188L22.6754 47.2857L29.2281 53.8394C30.7528 53.3254 32.4984 53.6699 33.7125 54.885C34.9331 56.1068 35.2754 57.8677 34.7482 59.3968L41.0647 65.7132C42.5915 65.1871 44.3557 65.5272 45.5764 66.749C47.2826 68.4541 47.2826 71.218 45.5764 72.9243C43.869 74.6305 41.1062 74.6305 39.4 72.9243C38.117 71.6402 37.7998 69.7557 38.4495 68.1752L32.5586 62.2843L32.5575 77.7871C32.9742 77.9927 33.3657 78.2661 33.7125 78.6118C35.4187 80.3169 35.4187 83.0797 33.7125 84.7882C32.0062 86.4933 29.2412 86.4933 27.5371 84.7882C25.8309 83.0797 25.8309 80.3169 27.5371 78.6118C27.9593 78.1907 28.4461 77.8724 28.9667 77.6591V62.013C28.4461 61.8008 27.9593 61.4836 27.5371 61.0604C26.2443 59.7686 25.9337 57.8732 26.5965 56.2861L20.1368 49.8243L3.07543 66.8846C1.64152 68.3185 1.64152 70.6427 3.07543 72.0766L27.9571 96.9572C29.39 98.39 31.7131 98.39 33.1481 96.9572L57.9128 72.1904C59.3467 70.7575 59.3467 68.4322 57.9128 66.9994Z" fill="#F34F29"/>
<g clip-path="url(#clip1_35_62)">
<circle cx="1.49976" cy="42.5" r="1.5" fill="#FDFCF5"/>
<circle cx="10.4998" cy="42.5" r="1.5" fill="#FDFCF5"/>
<circle cx="19.4998" cy="42.5" r="1.5" fill="#FDFCF5"/>
<circle cx="28.4998" cy="42.5" r="1.5" fill="#FDFCF5"/>
<circle cx="37.4998" cy="42.5" r="1.5" fill="#FDFCF5"/>
<circle cx="46.4998" cy="42.5" r="1.5" fill="#FDFCF5"/>
<circle cx="55.4998" cy="42.5" r="1.5" fill="#FDFCF5"/>
<circle cx="64.4998" cy="42.5" r="1.5" fill="#FDFCF5"/>
<circle cx="73.4998" cy="42.5" r="1.5" fill="#FDFCF5"/>
<circle cx="82.4998" cy="42.5" r="1.5" fill="#FDFCF5"/>
<circle cx="91.4998" cy="42.5" r="1.5" fill="#FDFCF5"/>
<circle cx="100.5" cy="42.5" r="1.5" fill="#FDFCF5"/>
<circle cx="109.5" cy="42.5" r="1.5" fill="#FDFCF5"/>
<circle cx="118.5" cy="42.5" r="1.5" fill="#FDFCF5"/>
<circle cx="127.5" cy="42.5" r="1.5" fill="#FDFCF5"/>
<circle cx="136.5" cy="42.5" r="1.5" fill="#FDFCF5"/>
<circle cx="1.49976" cy="51.5" r="1.5" fill="#FDFCF5"/>
<circle cx="10.4998" cy="51.5" r="1.5" fill="#FDFCF5"/>
<circle cx="19.4998" cy="51.5" r="1.5" fill="#FDFCF5"/>
<circle cx="28.4998" cy="51.5" r="1.5" fill="#FDFCF5"/>
<circle cx="37.4998" cy="51.5" r="1.5" fill="#FDFCF5"/>
<circle cx="46.4998" cy="51.5" r="1.5" fill="#FDFCF5"/>
<circle cx="55.4998" cy="51.5" r="1.5" fill="#FDFCF5"/>
<circle cx="64.4998" cy="51.5" r="1.5" fill="#FDFCF5"/>
<circle cx="73.4998" cy="51.5" r="1.5" fill="#FDFCF5"/>
<circle cx="82.4998" cy="51.5" r="1.5" fill="#FDFCF5"/>
<circle cx="91.4998" cy="51.5" r="1.5" fill="#FDFCF5"/>
<circle cx="100.5" cy="51.5" r="1.5" fill="#FDFCF5"/>
<circle cx="109.5" cy="51.5" r="1.5" fill="#FDFCF5"/>
<circle cx="118.5" cy="51.5" r="1.5" fill="#FDFCF5"/>
<circle cx="127.5" cy="51.5" r="1.5" fill="#FDFCF5"/>
<circle cx="136.5" cy="51.5" r="1.5" fill="#FDFCF5"/>
<circle cx="1.49976" cy="60.5" r="1.5" fill="#FDFCF5"/>
<circle cx="10.4998" cy="60.5" r="1.5" fill="#FDFCF5"/>
<circle cx="19.4998" cy="60.5" r="1.5" fill="#FDFCF5"/>
<circle cx="28.4998" cy="60.5" r="1.5" fill="#FDFCF5"/>
<circle cx="37.4998" cy="60.5" r="1.5" fill="#FDFCF5"/>
<circle cx="46.4998" cy="60.5" r="1.5" fill="#FDFCF5"/>
<circle cx="55.4998" cy="60.5" r="1.5" fill="#FDFCF5"/>
<circle cx="64.4998" cy="60.5" r="1.5" fill="#FDFCF5"/>
<circle cx="73.4998" cy="60.5" r="1.5" fill="#FDFCF5"/>
<circle cx="82.4998" cy="60.5" r="1.5" fill="#FDFCF5"/>
<circle cx="91.4998" cy="60.5" r="1.5" fill="#FDFCF5"/>
<circle cx="100.5" cy="60.5" r="1.5" fill="#FDFCF5"/>
<circle cx="109.5" cy="60.5" r="1.5" fill="#FDFCF5"/>
<circle cx="118.5" cy="60.5" r="1.5" fill="#FDFCF5"/>
<circle cx="127.5" cy="60.5" r="1.5" fill="#FDFCF5"/>
<circle cx="136.5" cy="60.5" r="1.5" fill="#FDFCF5"/>
<circle cx="1.49976" cy="69.5" r="1.5" fill="#FDFCF5"/>
<circle cx="10.4998" cy="69.5" r="1.5" fill="#FDFCF5"/>
<circle cx="19.4998" cy="69.5" r="1.5" fill="#FDFCF5"/>
<circle cx="28.4998" cy="69.5" r="1.5" fill="#FDFCF5"/>
<circle cx="37.4998" cy="69.5" r="1.5" fill="#FDFCF5"/>
<circle cx="46.4998" cy="69.5" r="1.5" fill="#FDFCF5"/>
<circle cx="55.4998" cy="69.5" r="1.5" fill="#FDFCF5"/>
<circle cx="64.4998" cy="69.5" r="1.5" fill="#FDFCF5"/>
<circle cx="73.4998" cy="69.5" r="1.5" fill="#FDFCF5"/>
<circle cx="82.4998" cy="69.5" r="1.5" fill="#FDFCF5"/>
<circle cx="91.4998" cy="69.5" r="1.5" fill="#FDFCF5"/>
<circle cx="100.5" cy="69.5" r="1.5" fill="#FDFCF5"/>
<circle cx="109.5" cy="69.5" r="1.5" fill="#FDFCF5"/>
<circle cx="118.5" cy="69.5" r="1.5" fill="#FDFCF5"/>
<circle cx="127.5" cy="69.5" r="1.5" fill="#FDFCF5"/>
<circle cx="136.5" cy="69.5" r="1.5" fill="#FDFCF5"/>
<circle cx="1.49976" cy="78.5" r="1.5" fill="#FDFCF5"/>
<circle cx="10.4998" cy="78.5" r="1.5" fill="#FDFCF5"/>
<circle cx="19.4998" cy="78.5" r="1.5" fill="#FDFCF5"/>
<circle cx="28.4998" cy="78.5" r="1.5" fill="#FDFCF5"/>
<circle cx="37.4998" cy="78.5" r="1.5" fill="#FDFCF5"/>
<circle cx="46.4998" cy="78.5" r="1.5" fill="#FDFCF5"/>
<circle cx="55.4998" cy="78.5" r="1.5" fill="#FDFCF5"/>
<circle cx="64.4998" cy="78.5" r="1.5" fill="#FDFCF5"/>
<circle cx="73.4998" cy="78.5" r="1.5" fill="#FDFCF5"/>
<circle cx="82.4998" cy="78.5" r="1.5" fill="#FDFCF5"/>
<circle cx="91.4998" cy="78.5" r="1.5" fill="#FDFCF5"/>
<circle cx="100.5" cy="78.5" r="1.5" fill="#FDFCF5"/>
<circle cx="109.5" cy="78.5" r="1.5" fill="#FDFCF5"/>
<circle cx="118.5" cy="78.5" r="1.5" fill="#FDFCF5"/>
<circle cx="127.5" cy="78.5" r="1.5" fill="#FDFCF5"/>
<circle cx="136.5" cy="78.5" r="1.5" fill="#FDFCF5"/>
<circle cx="1.49976" cy="87.5" r="1.5" fill="#FDFCF5"/>
<circle cx="10.4998" cy="87.5" r="1.5" fill="#FDFCF5"/>
<circle cx="19.4998" cy="87.5" r="1.5" fill="#FDFCF5"/>
<circle cx="28.4998" cy="87.5" r="1.5" fill="#FDFCF5"/>
<circle cx="37.4998" cy="87.5" r="1.5" fill="#FDFCF5"/>
<circle cx="46.4998" cy="87.5" r="1.5" fill="#FDFCF5"/>
<circle cx="55.4998" cy="87.5" r="1.5" fill="#FDFCF5"/>
<circle cx="64.4998" cy="87.5" r="1.5" fill="#FDFCF5"/>
<circle cx="73.4998" cy="87.5" r="1.5" fill="#FDFCF5"/>
<circle cx="82.4998" cy="87.5" r="1.5" fill="#FDFCF5"/>
<circle cx="91.4998" cy="87.5" r="1.5" fill="#FDFCF5"/>
<circle cx="100.5" cy="87.5" r="1.5" fill="#FDFCF5"/>
<circle cx="109.5" cy="87.5" r="1.5" fill="#FDFCF5"/>
<circle cx="118.5" cy="87.5" r="1.5" fill="#FDFCF5"/>
<circle cx="127.5" cy="87.5" r="1.5" fill="#FDFCF5"/>
<circle cx="136.5" cy="87.5" r="1.5" fill="#FDFCF5"/>
<circle cx="1.49976" cy="96.5" r="1.5" fill="#FDFCF5"/>
<circle cx="10.4998" cy="96.5" r="1.5" fill="#FDFCF5"/>
<circle cx="19.4998" cy="96.5" r="1.5" fill="#FDFCF5"/>
<circle cx="28.4998" cy="96.5" r="1.5" fill="#FDFCF5"/>
<circle cx="37.4998" cy="96.5" r="1.5" fill="#FDFCF5"/>
<circle cx="46.4998" cy="96.5" r="1.5" fill="#FDFCF5"/>
<circle cx="55.4998" cy="96.5" r="1.5" fill="#FDFCF5"/>
<circle cx="64.4998" cy="96.5" r="1.5" fill="#FDFCF5"/>
<circle cx="73.4998" cy="96.5" r="1.5" fill="#FDFCF5"/>
<circle cx="82.4998" cy="96.5" r="1.5" fill="#FDFCF5"/>
<circle cx="91.4998" cy="96.5" r="1.5" fill="#FDFCF5"/>
<circle cx="100.5" cy="96.5" r="1.5" fill="#FDFCF5"/>
<circle cx="109.5" cy="96.5" r="1.5" fill="#FDFCF5"/>
<circle cx="118.5" cy="96.5" r="1.5" fill="#FDFCF5"/>
<circle cx="127.5" cy="96.5" r="1.5" fill="#FDFCF5"/>
<circle cx="136.5" cy="96.5" r="1.5" fill="#FDFCF5"/>
</g>
</g>
<defs>
<clipPath id="clip0_35_62">
<rect width="140" height="140" fill="white"/>
</clipPath>
<clipPath id="clip1_35_62">
<rect width="140" height="59" fill="white" transform="translate(-0.000244141 41)"/>
</clipPath>
</defs>
</svg>
