<svg width="128" height="70" viewBox="0 0 128 70" fill="none" xmlns="http://www.w3.org/2000/svg">
<path d="M2.001 58.6586H6.109V42.4356L12.469 56.5786C13.219 58.2906 14.246 58.8956 16.261 58.8956C18.276 58.8956 19.264 58.2906 20.014 56.5786L26.374 42.4356V58.6586H30.482V42.4626C30.482 40.8826 29.85 40.1176 28.546 39.7236C25.425 38.7496 23.331 39.5926 22.383 41.6996L16.142 55.6576L10.099 41.6986C9.19 39.5926 7.057 38.7496 3.936 39.7226C2.632 40.1176 2 40.8816 2 42.4616L2.001 58.6586ZM33.899 45.4526H38.006V54.3906C37.968 54.8756 38.162 56.0156 40.412 56.0516C41.56 56.0696 49.274 56.0516 49.346 56.0516V45.4086H53.463C53.482 45.4086 53.459 59.9226 53.459 59.9826C53.481 63.5626 49.018 64.3396 46.96 64.3996H33.988V61.6356C34.01 61.6356 46.951 61.6386 46.983 61.6346C49.628 61.3556 49.315 60.0416 49.314 59.5996V58.5216H40.583C36.521 58.4846 33.933 56.7116 33.9 54.6716C33.898 54.4846 33.989 45.5426 33.899 45.4526Z" fill="#00618A"/>
<path d="M56.6299 58.6586H68.4419C69.8249 58.6586 71.1689 58.3696 72.2349 57.8696C74.0119 57.0536 74.8809 55.9476 74.8809 54.4976V51.4956C74.8809 50.3106 73.8939 49.2036 71.9579 48.4676C70.9309 48.0716 69.6659 47.8626 68.4409 47.8626H63.4629C61.8039 47.8626 61.0139 47.3626 60.8169 46.2566C60.7779 46.1246 60.7779 46.0196 60.7779 45.8876V44.0176C60.7779 43.9126 60.7779 43.8066 60.8169 43.6756C61.0139 42.8326 61.4489 42.5956 62.9109 42.4636L63.3059 42.4376H75.0389V39.6996H63.5039C61.8449 39.6996 60.9759 39.8046 60.1859 40.0416C57.7369 40.8056 56.6689 42.0166 56.6689 44.1236V46.5196C56.6689 48.3636 58.7639 49.9436 62.2789 50.3126C62.6749 50.3376 63.0689 50.3656 63.4639 50.3656H67.7309C67.8889 50.3656 68.0469 50.3656 68.1659 50.3906C69.4699 50.4956 70.0219 50.7336 70.4179 51.2066C70.6549 51.4436 70.7329 51.6816 70.7329 51.9436V54.3406C70.7329 54.6296 70.5359 54.9986 70.1409 55.3146C69.7859 55.6306 69.1929 55.8416 68.4029 55.8946L67.9679 55.9206H56.6299V58.6586ZM100.511 53.8926C100.511 56.7096 102.605 58.2896 106.831 58.6066C107.226 58.6326 107.621 58.6586 108.016 58.6586H118.722V55.9206H107.938C105.528 55.9206 104.62 55.3146 104.62 53.8656V39.6976H100.512L100.511 53.8926ZM77.5029 54.0346V44.2696C77.5029 41.7896 79.2449 40.2846 82.6889 39.8096C83.0449 39.7566 83.4419 39.7306 83.7969 39.7306H91.5959C91.9919 39.7306 92.3479 39.7566 92.7429 39.8096C96.1869 40.2846 97.9299 41.7886 97.9299 44.2696V54.0346C97.9299 56.0486 97.1899 57.1246 95.4849 57.8266L99.5329 61.4796H94.7619L91.4879 58.5236L88.1919 58.7326H83.7969C83.0449 58.7326 82.2539 58.6276 81.3829 58.3896C78.7699 57.6776 77.5029 56.3046 77.5029 54.0346ZM81.9369 53.7976C81.9369 53.9296 81.9759 54.0626 82.0159 54.2206C82.2529 55.3556 83.3229 55.9886 84.9449 55.9886H88.6769L85.2489 52.8936H90.0199L93.0089 55.5936C93.5609 55.2986 93.9229 54.8506 94.0499 54.2736C94.0889 54.1416 94.0889 54.0096 94.0889 53.8776V44.5096C94.0889 44.4046 94.0889 44.2716 94.0499 44.1396C93.8119 43.0836 92.7429 42.4776 91.1599 42.4776H84.9439C83.1239 42.4776 81.9359 43.2696 81.9359 44.5096L81.9369 53.7976Z" fill="#E48E00"/>
<path d="M122.336 35.1528C119.811 35.0838 117.882 35.3188 116.232 36.0138C115.763 36.2118 115.016 36.2168 114.94 36.8038C115.197 37.0748 115.237 37.4778 115.442 37.8098C115.836 38.4468 116.501 39.3008 117.094 39.7478C117.741 40.2368 118.409 40.7608 119.105 41.1848C120.34 41.9388 121.72 42.3688 122.911 43.1228C123.612 43.5688 124.308 44.1288 124.993 44.6318C125.332 44.8788 125.558 45.2658 125.999 45.4208V45.3498C125.768 45.0558 125.708 44.6518 125.496 44.3438L124.562 43.4098C123.649 42.1978 122.491 41.1348 121.258 40.2508C120.276 39.5458 118.078 38.5928 117.668 37.4498L117.596 37.3788C118.292 37.2998 119.108 37.0478 119.75 36.8758C120.83 36.5858 121.795 36.6608 122.91 36.3728L124.418 35.9408V35.6548C123.855 35.0768 123.452 34.3108 122.838 33.7878C121.231 32.4188 119.475 31.0508 117.668 29.9088C116.666 29.2768 115.427 28.8658 114.364 28.3298C114.008 28.1488 113.38 28.0558 113.143 27.7548C112.584 27.0438 112.281 26.1428 111.85 25.3138C110.95 23.5788 110.064 21.6828 109.265 19.8558C108.721 18.6108 108.365 17.3828 107.686 16.2658C104.425 10.9048 100.915 7.66878 95.4779 4.48878C94.3209 3.81178 92.9279 3.54578 91.4569 3.19678L89.0869 3.05278C88.6059 2.85178 88.1039 2.26178 87.6509 1.97578C85.8489 0.83778 81.2289 -1.63722 79.8949 1.61778C79.0529 3.67178 81.1549 5.67578 81.9059 6.71678C82.4329 7.44678 83.1089 8.26478 83.4859 9.08578C83.7339 9.62578 83.7759 10.1668 83.9889 10.7378C84.5099 12.1438 84.9649 13.6748 85.6399 14.9738C85.9809 15.6318 86.3579 16.3248 86.7889 16.9128C87.0529 17.2728 87.5069 17.4328 87.5779 17.9898C87.1349 18.6098 87.1089 19.5738 86.8599 20.3588C85.7379 23.8978 86.1609 28.2968 87.7939 30.9158C88.2949 31.7208 89.4749 33.4448 91.0969 32.7828C92.5159 32.2048 92.1999 30.4138 92.6059 28.8328C92.6979 28.4758 92.6409 28.2118 92.8209 27.9718V28.0438L94.1139 30.6288C95.0709 32.1698 96.7679 33.7788 98.2069 34.8658C98.9529 35.4288 99.5409 36.4038 100.505 36.7328V36.6598H100.434C100.246 36.3688 99.9549 36.2488 99.7149 36.0138C99.1529 35.4628 98.5279 34.7788 98.0639 34.1468C96.7549 32.3708 95.5989 30.4258 94.5449 28.4018C94.0419 27.4358 93.6049 26.3698 93.1809 25.3858C93.0169 25.0068 93.0189 24.4328 92.6789 24.2378C92.2129 24.9578 91.5299 25.5408 91.1699 26.3918C90.5959 27.7518 90.5219 29.4108 90.3089 31.1308L90.1649 31.2018C89.1639 30.9608 88.8129 29.9308 88.4409 29.0478C87.5009 26.8148 87.3259 23.2178 88.1539 20.6468C88.3679 19.9808 89.3349 17.8858 88.9429 17.2708C88.7559 16.6578 88.1389 16.3038 87.7949 15.8338C87.3679 15.2548 86.9409 14.4928 86.6459 13.8228C85.8759 12.0818 85.5169 10.1268 84.7079 8.36578C84.3199 7.52378 83.6659 6.67278 83.1279 5.92478C82.5329 5.09478 81.8659 4.48478 81.4039 3.48278C81.2399 3.12678 81.0169 2.55578 81.2599 2.18978C81.3369 1.94278 81.4479 1.83978 81.6919 1.75878C82.1079 1.43778 83.2679 1.86578 83.7019 2.04578C84.8539 2.52478 85.8149 2.97978 86.7909 3.62578C87.2589 3.93678 87.7319 4.53678 88.2989 4.70278H88.9449C89.9559 4.93478 91.0889 4.77378 92.0329 5.06078C93.7029 5.56878 95.1989 6.35778 96.5569 7.21578C100.696 9.82978 104.079 13.5498 106.395 17.9878C106.767 18.7028 106.929 19.3838 107.256 20.1418C107.918 21.6698 108.752 23.2428 109.41 24.7378C110.067 26.2288 110.708 27.7338 111.637 28.9748C112.125 29.6268 114.011 29.9768 114.868 30.3388C115.469 30.5928 116.453 30.8578 117.022 31.1998C118.109 31.8558 119.163 32.6368 120.182 33.3548C120.691 33.7168 122.258 34.5038 122.336 35.1528ZM90.2369 7.79378C89.7109 7.78378 89.3379 7.85178 88.9439 7.93778V8.00878H89.0159C89.2669 8.52578 89.7099 8.85778 90.0209 9.30178L90.7399 10.8098L90.8109 10.7388C91.2559 10.4258 91.4589 9.92478 91.4569 9.15878C91.2779 8.97078 91.2519 8.73578 91.0979 8.51278C90.8939 8.21278 90.4959 8.04478 90.2369 7.79378Z" fill="#00618A"/>
<g clip-path="url(#clip0_100_2147)">
<circle cx="1.5" cy="1.70068" r="1.5" fill="#FDFCF5"/>
<circle cx="10.5" cy="1.70068" r="1.5" fill="#FDFCF5"/>
<circle cx="19.5" cy="1.70068" r="1.5" fill="#FDFCF5"/>
<circle cx="28.5" cy="1.70068" r="1.5" fill="#FDFCF5"/>
<circle cx="37.5" cy="1.70068" r="1.5" fill="#FDFCF5"/>
<circle cx="46.5" cy="1.70068" r="1.5" fill="#FDFCF5"/>
<circle cx="55.5" cy="1.70068" r="1.5" fill="#FDFCF5"/>
<circle cx="64.5" cy="1.70068" r="1.5" fill="#FDFCF5"/>
<circle cx="73.5" cy="1.70068" r="1.5" fill="#FDFCF5"/>
<circle cx="82.5" cy="1.70068" r="1.5" fill="#FDFCF5"/>
<circle cx="91.5" cy="1.70068" r="1.5" fill="#FDFCF5"/>
<circle cx="100.5" cy="1.70068" r="1.5" fill="#FDFCF5"/>
<circle cx="109.5" cy="1.70068" r="1.5" fill="#FDFCF5"/>
<circle cx="118.5" cy="1.70068" r="1.5" fill="#FDFCF5"/>
<circle cx="1.5" cy="10.7007" r="1.5" fill="#FDFCF5"/>
<circle cx="10.5" cy="10.7007" r="1.5" fill="#FDFCF5"/>
<circle cx="19.5" cy="10.7007" r="1.5" fill="#FDFCF5"/>
<circle cx="28.5" cy="10.7007" r="1.5" fill="#FDFCF5"/>
<circle cx="37.5" cy="10.7007" r="1.5" fill="#FDFCF5"/>
<circle cx="46.5" cy="10.7007" r="1.5" fill="#FDFCF5"/>
<circle cx="55.5" cy="10.7007" r="1.5" fill="#FDFCF5"/>
<circle cx="64.5" cy="10.7007" r="1.5" fill="#FDFCF5"/>
<circle cx="73.5" cy="10.7007" r="1.5" fill="#FDFCF5"/>
<circle cx="82.5" cy="10.7007" r="1.5" fill="#FDFCF5"/>
<circle cx="91.5" cy="10.7007" r="1.5" fill="#FDFCF5"/>
<circle cx="100.5" cy="10.7007" r="1.5" fill="#FDFCF5"/>
<circle cx="109.5" cy="10.7007" r="1.5" fill="#FDFCF5"/>
<circle cx="118.5" cy="10.7007" r="1.5" fill="#FDFCF5"/>
<circle cx="1.5" cy="19.7007" r="1.5" fill="#FDFCF5"/>
<circle cx="10.5" cy="19.7007" r="1.5" fill="#FDFCF5"/>
<circle cx="19.5" cy="19.7007" r="1.5" fill="#FDFCF5"/>
<circle cx="28.5" cy="19.7007" r="1.5" fill="#FDFCF5"/>
<circle cx="37.5" cy="19.7007" r="1.5" fill="#FDFCF5"/>
<circle cx="46.5" cy="19.7007" r="1.5" fill="#FDFCF5"/>
<circle cx="55.5" cy="19.7007" r="1.5" fill="#FDFCF5"/>
<circle cx="64.5" cy="19.7007" r="1.5" fill="#FDFCF5"/>
<circle cx="73.5" cy="19.7007" r="1.5" fill="#FDFCF5"/>
<circle cx="82.5" cy="19.7007" r="1.5" fill="#FDFCF5"/>
<circle cx="91.5" cy="19.7007" r="1.5" fill="#FDFCF5"/>
<circle cx="100.5" cy="19.7007" r="1.5" fill="#FDFCF5"/>
<circle cx="109.5" cy="19.7007" r="1.5" fill="#FDFCF5"/>
<circle cx="118.5" cy="19.7007" r="1.5" fill="#FDFCF5"/>
<circle cx="1.5" cy="28.7007" r="1.5" fill="#FDFCF5"/>
<circle cx="10.5" cy="28.7007" r="1.5" fill="#FDFCF5"/>
<circle cx="19.5" cy="28.7007" r="1.5" fill="#FDFCF5"/>
<circle cx="28.5" cy="28.7007" r="1.5" fill="#FDFCF5"/>
<circle cx="37.5" cy="28.7007" r="1.5" fill="#FDFCF5"/>
<circle cx="46.5" cy="28.7007" r="1.5" fill="#FDFCF5"/>
<circle cx="55.5" cy="28.7007" r="1.5" fill="#FDFCF5"/>
<circle cx="64.5" cy="28.7007" r="1.5" fill="#FDFCF5"/>
<circle cx="73.5" cy="28.7007" r="1.5" fill="#FDFCF5"/>
<circle cx="82.5" cy="28.7007" r="1.5" fill="#FDFCF5"/>
<circle cx="91.5" cy="28.7007" r="1.5" fill="#FDFCF5"/>
<circle cx="100.5" cy="28.7007" r="1.5" fill="#FDFCF5"/>
<circle cx="109.5" cy="28.7007" r="1.5" fill="#FDFCF5"/>
<circle cx="118.5" cy="28.7007" r="1.5" fill="#FDFCF5"/>
<circle cx="1.5" cy="37.7007" r="1.5" fill="#FDFCF5"/>
<circle cx="10.5" cy="37.7007" r="1.5" fill="#FDFCF5"/>
<circle cx="19.5" cy="37.7007" r="1.5" fill="#FDFCF5"/>
<circle cx="28.5" cy="37.7007" r="1.5" fill="#FDFCF5"/>
<circle cx="37.5" cy="37.7007" r="1.5" fill="#FDFCF5"/>
<circle cx="46.5" cy="37.7007" r="1.5" fill="#FDFCF5"/>
<circle cx="55.5" cy="37.7007" r="1.5" fill="#FDFCF5"/>
<circle cx="64.5" cy="37.7007" r="1.5" fill="#FDFCF5"/>
<circle cx="73.5" cy="37.7007" r="1.5" fill="#FDFCF5"/>
<circle cx="82.5" cy="37.7007" r="1.5" fill="#FDFCF5"/>
<circle cx="91.5" cy="37.7007" r="1.5" fill="#FDFCF5"/>
<circle cx="100.5" cy="37.7007" r="1.5" fill="#FDFCF5"/>
<circle cx="109.5" cy="37.7007" r="1.5" fill="#FDFCF5"/>
<circle cx="118.5" cy="37.7007" r="1.5" fill="#FDFCF5"/>
<circle cx="1.5" cy="46.7007" r="1.5" fill="#FDFCF5"/>
<circle cx="10.5" cy="46.7007" r="1.5" fill="#FDFCF5"/>
<circle cx="19.5" cy="46.7007" r="1.5" fill="#FDFCF5"/>
<circle cx="28.5" cy="46.7007" r="1.5" fill="#FDFCF5"/>
<circle cx="37.5" cy="46.7007" r="1.5" fill="#FDFCF5"/>
<circle cx="46.5" cy="46.7007" r="1.5" fill="#FDFCF5"/>
<circle cx="55.5" cy="46.7007" r="1.5" fill="#FDFCF5"/>
<circle cx="64.5" cy="46.7007" r="1.5" fill="#FDFCF5"/>
<circle cx="73.5" cy="46.7007" r="1.5" fill="#FDFCF5"/>
<circle cx="82.5" cy="46.7007" r="1.5" fill="#FDFCF5"/>
<circle cx="91.5" cy="46.7007" r="1.5" fill="#FDFCF5"/>
<circle cx="100.5" cy="46.7007" r="1.5" fill="#FDFCF5"/>
<circle cx="109.5" cy="46.7007" r="1.5" fill="#FDFCF5"/>
<circle cx="118.5" cy="46.7007" r="1.5" fill="#FDFCF5"/>
<circle cx="1.5" cy="55.7007" r="1.5" fill="#FDFCF5"/>
<circle cx="10.5" cy="55.7007" r="1.5" fill="#FDFCF5"/>
<circle cx="19.5" cy="55.7007" r="1.5" fill="#FDFCF5"/>
<circle cx="28.5" cy="55.7007" r="1.5" fill="#FDFCF5"/>
<circle cx="37.5" cy="55.7007" r="1.5" fill="#FDFCF5"/>
<circle cx="46.5" cy="55.7007" r="1.5" fill="#FDFCF5"/>
<circle cx="55.5" cy="55.7007" r="1.5" fill="#FDFCF5"/>
<circle cx="64.5" cy="55.7007" r="1.5" fill="#FDFCF5"/>
<circle cx="73.5" cy="55.7007" r="1.5" fill="#FDFCF5"/>
<circle cx="82.5" cy="55.7007" r="1.5" fill="#FDFCF5"/>
<circle cx="91.5" cy="55.7007" r="1.5" fill="#FDFCF5"/>
<circle cx="100.5" cy="55.7007" r="1.5" fill="#FDFCF5"/>
<circle cx="109.5" cy="55.7007" r="1.5" fill="#FDFCF5"/>
<circle cx="118.5" cy="55.7007" r="1.5" fill="#FDFCF5"/>
<circle cx="1.5" cy="64.7007" r="1.5" fill="#FDFCF5"/>
<circle cx="10.5" cy="64.7007" r="1.5" fill="#FDFCF5"/>
<circle cx="19.5" cy="64.7007" r="1.5" fill="#FDFCF5"/>
<circle cx="28.5" cy="64.7007" r="1.5" fill="#FDFCF5"/>
<circle cx="37.5" cy="64.7007" r="1.5" fill="#FDFCF5"/>
<circle cx="46.5" cy="64.7007" r="1.5" fill="#FDFCF5"/>
<circle cx="55.5" cy="64.7007" r="1.5" fill="#FDFCF5"/>
<circle cx="64.5" cy="64.7007" r="1.5" fill="#FDFCF5"/>
<circle cx="73.5" cy="64.7007" r="1.5" fill="#FDFCF5"/>
<circle cx="82.5" cy="64.7007" r="1.5" fill="#FDFCF5"/>
<circle cx="91.5" cy="64.7007" r="1.5" fill="#FDFCF5"/>
<circle cx="100.5" cy="64.7007" r="1.5" fill="#FDFCF5"/>
<circle cx="109.5" cy="64.7007" r="1.5" fill="#FDFCF5"/>
<circle cx="118.5" cy="64.7007" r="1.5" fill="#FDFCF5"/>
</g>
<defs>
<clipPath id="clip0_100_2147">
<rect width="128" height="69" fill="white" transform="translate(0 0.200684)"/>
</clipPath>
</defs>
</svg>
