<svg width="128" height="128" viewBox="0 0 128 128" fill="none" xmlns="http://www.w3.org/2000/svg">
<path d="M114.258 81.6749C113.968 81.6749 113.68 81.5989 113.426 81.4509L110.776 79.8829C110.38 79.6618 110.573 79.5828 110.704 79.5378C111.232 79.3538 111.339 79.3109 111.902 78.9929C111.961 78.9599 112.038 78.9719 112.099 79.0079L114.134 80.2169C114.208 80.2579 114.313 80.2579 114.38 80.2169L122.317 75.6358C122.392 75.5938 122.439 75.5089 122.439 75.4209V66.2608C122.439 66.1708 122.392 66.0878 122.316 66.0418L114.382 61.4649C114.308 61.4229 114.211 61.4229 114.137 61.4649L106.204 66.0428C106.128 66.0878 106.079 66.1738 106.079 66.2608V75.4209C106.079 75.5089 106.128 75.5919 106.204 75.6329L108.378 76.8898C109.558 77.4788 110.281 76.7849 110.281 76.0869V67.0418C110.281 66.9148 110.384 66.8139 110.511 66.8139H111.518C111.643 66.8139 111.747 66.9148 111.747 67.0418V76.0869C111.747 77.6609 110.89 78.5639 109.397 78.5639C108.938 78.5639 108.577 78.5638 107.569 78.0678L105.488 76.8699C104.973 76.5718 104.656 76.0159 104.656 75.4219V66.2618C104.656 65.6668 104.973 65.1118 105.488 64.8158L113.425 60.2289C113.927 59.9459 114.594 59.9459 115.092 60.2289L123.029 64.8158C123.543 65.1128 123.862 65.6678 123.862 66.2618V75.4219C123.862 76.0169 123.543 76.5699 123.029 76.8699L115.092 81.4519C114.84 81.5989 114.553 81.6749 114.258 81.6749ZM116.711 75.3639C113.236 75.3639 112.509 73.7688 112.509 72.4318C112.509 72.3058 112.612 72.2029 112.739 72.2029H113.765C113.88 72.2029 113.975 72.2849 113.993 72.3969C114.147 73.4419 114.61 73.9688 116.711 73.9688C118.382 73.9688 119.094 73.5909 119.094 72.7029C119.094 72.1909 118.892 71.8118 116.294 71.5568C114.122 71.3418 112.779 70.8628 112.779 69.1238C112.779 67.5228 114.129 66.5668 116.391 66.5668C118.934 66.5668 120.192 67.4498 120.351 69.3438C120.357 69.4078 120.334 69.4709 120.291 69.5199C120.247 69.5649 120.187 69.5928 120.123 69.5928H119.092C118.985 69.5928 118.891 69.5178 118.869 69.4138C118.621 68.3138 118.021 67.9629 116.39 67.9629C114.565 67.9629 114.353 68.5999 114.353 69.0749C114.353 69.6519 114.603 69.8199 117.068 70.1459C119.507 70.4689 120.666 70.9248 120.666 72.6398C120.667 74.3728 119.225 75.3639 116.711 75.3639Z" fill="#83CD29"/>
<path d="M97.9149 69.3559C98.2279 69.1729 98.4209 68.8389 98.4209 68.4759V66.1219C98.4209 65.7599 98.2289 65.4259 97.9149 65.2429L89.5509 60.3869C89.2359 60.2039 88.8479 60.2029 88.5319 60.3849L80.1159 65.2439C79.8019 65.4259 79.6079 65.7609 79.6079 66.1239V75.8399C79.6079 76.2049 79.8039 76.5429 80.1219 76.7239L88.4849 81.4889C88.7929 81.6659 89.1709 81.6669 89.4819 81.4949L94.5399 78.6829C94.7009 78.5929 94.8009 78.4249 94.8019 78.2429C94.8029 78.0589 94.7049 77.8889 94.5459 77.7979L86.0779 72.9379C85.9189 72.8469 85.8219 72.6789 85.8219 72.4979V69.4519C85.8219 69.2699 85.9189 69.1029 86.0759 69.0129L88.7129 67.4929C88.8689 67.4019 89.0629 67.4019 89.2199 67.4929L91.8569 69.0129C92.0149 69.1039 92.1119 69.2709 92.1119 69.4519V71.8479C92.1119 72.0309 92.2089 72.1989 92.3659 72.2889C92.5239 72.3799 92.7179 72.3799 92.8759 72.2879L97.9149 69.3559Z" fill="#404137"/>
<path d="M88.9171 68.8998C88.9781 68.8658 89.0521 68.8658 89.1121 68.8998L90.7271 69.8328C90.7871 69.8678 90.8241 69.9328 90.8241 70.0018V71.8668C90.8241 71.9368 90.7871 72.0008 90.7271 72.0358L89.1121 72.9678C89.0521 73.0028 88.9771 73.0028 88.9171 72.9678L87.3031 72.0358C87.2421 72.0008 87.2051 71.9368 87.2051 71.8668V70.0018C87.2051 69.9328 87.2421 69.8678 87.3031 69.8328L88.9171 68.8998Z" fill="#83CD29"/>
<path d="M67.016 72.7798C67.016 72.8698 66.968 72.9538 66.889 72.9998L63.999 74.6658C63.92 74.7118 63.823 74.7118 63.745 74.6658L60.855 72.9998C60.776 72.9538 60.728 72.8698 60.728 72.7798V69.4418C60.728 69.3518 60.777 69.2668 60.855 69.2208L63.745 67.5528C63.824 67.5058 63.921 67.5058 64 67.5528L66.891 69.2208C66.969 69.2668 67.017 69.3518 67.017 69.4418L67.016 72.7798ZM67.797 48.0638C67.64 47.9768 67.448 47.9788 67.292 48.0698C67.137 48.1618 67.041 48.3278 67.041 48.5078V61.4228C67.041 61.5488 66.973 61.6668 66.864 61.7308C66.754 61.7938 66.618 61.7938 66.508 61.7308L64.4 60.5158C64.086 60.3348 63.699 60.3348 63.385 60.5158L54.967 65.3738C54.652 65.5558 54.458 65.8918 54.458 66.2548V75.9738C54.458 76.3368 54.652 76.6718 54.966 76.8548L63.384 81.7158C63.698 81.8978 64.086 81.8978 64.401 81.7158L72.821 76.8548C73.135 76.6718 73.329 76.3368 73.329 75.9738V51.7468C73.329 51.3788 73.129 51.0388 72.808 50.8588L67.797 48.0638Z" fill="#404137"/>
<path d="M38.171 60.3328C38.485 60.1508 38.873 60.1508 39.187 60.3328L47.605 65.1898C47.919 65.3718 48.113 65.7078 48.113 66.0708V75.7928C48.113 76.1558 47.919 76.4918 47.605 76.6738L39.188 81.5348C38.874 81.7158 38.486 81.7158 38.171 81.5348L29.756 76.6738C29.442 76.4918 29.248 76.1558 29.248 75.7928V66.0698C29.248 65.7078 29.442 65.3718 29.756 65.1898L38.171 60.3328Z" fill="#83CD29"/>
<path d="M22.863 65.9899C22.863 65.6239 22.671 65.2879 22.355 65.1069L13.94 60.2639C13.796 60.1799 13.637 60.1369 13.476 60.1309H13.389C13.229 60.1369 13.069 60.1799 12.925 60.2639L4.509 65.1069C4.196 65.2879 4 65.6239 4 65.9899L4.018 79.0299C4.018 79.2119 4.113 79.3809 4.272 79.4689C4.428 79.5629 4.621 79.5629 4.777 79.4689L9.777 76.6049C10.093 76.4169 10.286 76.0859 10.286 75.7229V69.6309C10.286 69.2669 10.478 68.9319 10.793 68.7499L12.923 67.5239C13.081 67.4309 13.255 67.3869 13.431 67.3869C13.605 67.3869 13.783 67.4309 13.938 67.5239L16.066 68.7499C16.381 68.9319 16.575 69.2669 16.575 69.6309V75.7229C16.575 76.0859 16.77 76.4189 17.084 76.6049L22.084 79.4689C22.241 79.5629 22.437 79.5629 22.592 79.4689C22.747 79.3799 22.844 79.2109 22.844 79.0299L22.863 65.9899Z" fill="#404137"/>
<g clip-path="url(#clip0_35_113)">
<circle cx="4.49976" cy="44.5" r="1.5" fill="#FDFCF5"/>
<circle cx="13.4998" cy="44.5" r="1.5" fill="#FDFCF5"/>
<circle cx="22.4998" cy="44.5" r="1.5" fill="#FDFCF5"/>
<circle cx="31.4998" cy="44.5" r="1.5" fill="#FDFCF5"/>
<circle cx="40.4998" cy="44.5" r="1.5" fill="#FDFCF5"/>
<circle cx="49.4998" cy="44.5" r="1.5" fill="#FDFCF5"/>
<circle cx="58.4998" cy="44.5" r="1.5" fill="#FDFCF5"/>
<circle cx="67.4998" cy="44.5" r="1.5" fill="#FDFCF5"/>
<circle cx="76.4998" cy="44.5" r="1.5" fill="#FDFCF5"/>
<circle cx="85.4998" cy="44.5" r="1.5" fill="#FDFCF5"/>
<circle cx="94.4998" cy="44.5" r="1.5" fill="#FDFCF5"/>
<circle cx="103.5" cy="44.5" r="1.5" fill="#FDFCF5"/>
<circle cx="112.5" cy="44.5" r="1.5" fill="#FDFCF5"/>
<circle cx="121.5" cy="44.5" r="1.5" fill="#FDFCF5"/>
<circle cx="4.49976" cy="53.5" r="1.5" fill="#FDFCF5"/>
<circle cx="13.4998" cy="53.5" r="1.5" fill="#FDFCF5"/>
<circle cx="22.4998" cy="53.5" r="1.5" fill="#FDFCF5"/>
<circle cx="31.4998" cy="53.5" r="1.5" fill="#FDFCF5"/>
<circle cx="40.4998" cy="53.5" r="1.5" fill="#FDFCF5"/>
<circle cx="49.4998" cy="53.5" r="1.5" fill="#FDFCF5"/>
<circle cx="58.4998" cy="53.5" r="1.5" fill="#FDFCF5"/>
<circle cx="67.4998" cy="53.5" r="1.5" fill="#FDFCF5"/>
<circle cx="76.4998" cy="53.5" r="1.5" fill="#FDFCF5"/>
<circle cx="85.4998" cy="53.5" r="1.5" fill="#FDFCF5"/>
<circle cx="94.4998" cy="53.5" r="1.5" fill="#FDFCF5"/>
<circle cx="103.5" cy="53.5" r="1.5" fill="#FDFCF5"/>
<circle cx="112.5" cy="53.5" r="1.5" fill="#FDFCF5"/>
<circle cx="121.5" cy="53.5" r="1.5" fill="#FDFCF5"/>
<circle cx="4.49976" cy="62.5" r="1.5" fill="#FDFCF5"/>
<circle cx="13.4998" cy="62.5" r="1.5" fill="#FDFCF5"/>
<circle cx="22.4998" cy="62.5" r="1.5" fill="#FDFCF5"/>
<circle cx="31.4998" cy="62.5" r="1.5" fill="#FDFCF5"/>
<circle cx="40.4998" cy="62.5" r="1.5" fill="#FDFCF5"/>
<circle cx="49.4998" cy="62.5" r="1.5" fill="#FDFCF5"/>
<circle cx="58.4998" cy="62.5" r="1.5" fill="#FDFCF5"/>
<circle cx="67.4998" cy="62.5" r="1.5" fill="#FDFCF5"/>
<circle cx="76.4998" cy="62.5" r="1.5" fill="#FDFCF5"/>
<circle cx="85.4998" cy="62.5" r="1.5" fill="#FDFCF5"/>
<circle cx="94.4998" cy="62.5" r="1.5" fill="#FDFCF5"/>
<circle cx="103.5" cy="62.5" r="1.5" fill="#FDFCF5"/>
<circle cx="112.5" cy="62.5" r="1.5" fill="#FDFCF5"/>
<circle cx="121.5" cy="62.5" r="1.5" fill="#FDFCF5"/>
<circle cx="4.49976" cy="71.5" r="1.5" fill="#FDFCF5"/>
<circle cx="13.4998" cy="71.5" r="1.5" fill="#FDFCF5"/>
<circle cx="22.4998" cy="71.5" r="1.5" fill="#FDFCF5"/>
<circle cx="31.4998" cy="71.5" r="1.5" fill="#FDFCF5"/>
<circle cx="40.4998" cy="71.5" r="1.5" fill="#FDFCF5"/>
<circle cx="49.4998" cy="71.5" r="1.5" fill="#FDFCF5"/>
<circle cx="58.4998" cy="71.5" r="1.5" fill="#FDFCF5"/>
<circle cx="67.4998" cy="71.5" r="1.5" fill="#FDFCF5"/>
<circle cx="76.4998" cy="71.5" r="1.5" fill="#FDFCF5"/>
<circle cx="85.4998" cy="71.5" r="1.5" fill="#FDFCF5"/>
<circle cx="94.4998" cy="71.5" r="1.5" fill="#FDFCF5"/>
<circle cx="103.5" cy="71.5" r="1.5" fill="#FDFCF5"/>
<circle cx="112.5" cy="71.5" r="1.5" fill="#FDFCF5"/>
<circle cx="121.5" cy="71.5" r="1.5" fill="#FDFCF5"/>
<circle cx="4.49976" cy="80.5" r="1.5" fill="#FDFCF5"/>
<circle cx="13.4998" cy="80.5" r="1.5" fill="#FDFCF5"/>
<circle cx="22.4998" cy="80.5" r="1.5" fill="#FDFCF5"/>
<circle cx="31.4998" cy="80.5" r="1.5" fill="#FDFCF5"/>
<circle cx="40.4998" cy="80.5" r="1.5" fill="#FDFCF5"/>
<circle cx="49.4998" cy="80.5" r="1.5" fill="#FDFCF5"/>
<circle cx="58.4998" cy="80.5" r="1.5" fill="#FDFCF5"/>
<circle cx="67.4998" cy="80.5" r="1.5" fill="#FDFCF5"/>
<circle cx="76.4998" cy="80.5" r="1.5" fill="#FDFCF5"/>
<circle cx="85.4998" cy="80.5" r="1.5" fill="#FDFCF5"/>
<circle cx="94.4998" cy="80.5" r="1.5" fill="#FDFCF5"/>
<circle cx="103.5" cy="80.5" r="1.5" fill="#FDFCF5"/>
<circle cx="112.5" cy="80.5" r="1.5" fill="#FDFCF5"/>
<circle cx="121.5" cy="80.5" r="1.5" fill="#FDFCF5"/>
<circle cx="4.49976" cy="89.5" r="1.5" fill="#FDFCF5"/>
<circle cx="13.4998" cy="89.5" r="1.5" fill="#FDFCF5"/>
<circle cx="22.4998" cy="89.5" r="1.5" fill="#FDFCF5"/>
<circle cx="31.4998" cy="89.5" r="1.5" fill="#FDFCF5"/>
<circle cx="40.4998" cy="89.5" r="1.5" fill="#FDFCF5"/>
<circle cx="49.4998" cy="89.5" r="1.5" fill="#FDFCF5"/>
<circle cx="58.4998" cy="89.5" r="1.5" fill="#FDFCF5"/>
<circle cx="67.4998" cy="89.5" r="1.5" fill="#FDFCF5"/>
<circle cx="76.4998" cy="89.5" r="1.5" fill="#FDFCF5"/>
<circle cx="85.4998" cy="89.5" r="1.5" fill="#FDFCF5"/>
<circle cx="94.4998" cy="89.5" r="1.5" fill="#FDFCF5"/>
<circle cx="103.5" cy="89.5" r="1.5" fill="#FDFCF5"/>
<circle cx="112.5" cy="89.5" r="1.5" fill="#FDFCF5"/>
<circle cx="121.5" cy="89.5" r="1.5" fill="#FDFCF5"/>
</g>
<defs>
<clipPath id="clip0_35_113">
<rect width="123" height="48" fill="white" transform="translate(2.99976 43)"/>
</clipPath>
</defs>
</svg>
