<svg width="1442" height="310" viewBox="0 0 1442 310" fill="none" xmlns="http://www.w3.org/2000/svg">
<path d="M967.671 109.329C965.816 99.4599 963.961 89.5906 962.105 79.7214C961.148 79.5189 960.192 79.3165 959.235 79.114C932.175 104.263 905.115 129.411 877.174 155.379C833.607 132.173 791.248 109.61 747.804 86.4689C708.17 122.297 668.704 157.974 628.252 194.542C605.778 176.699 584.253 159.878 563.28 142.9C522.928 110.233 482.765 77.5124 442.804 44.7351C432.329 36.1439 416.171 32.2014 395.005 30.0683C374.898 29.9055 356.691 30.0065 338.483 30.1075C336.54 30.031 334.597 29.9546 330.747 29.8165C326.164 29.8752 323.487 29.9955 320.81 30.1158C316.418 30.0399 312.026 29.9639 305.434 29.8249C255.114 29.885 206.992 30.0082 158.871 30.1314C157.846 30.0505 156.821 29.9695 153.935 29.8234C145.076 29.8722 138.078 29.9862 131.079 30.1002C129.295 30.0241 127.51 29.9481 123.707 29.8136C104.717 29.4575 87.7464 29.1598 70.7754 28.8621C70.7754 28.8621 70.2658 28.4136 69.4937 27.9737C57.7123 22.7525 46.7028 17.9713 35.6934 13.1901C36.6729 12.5651 37.6524 11.9402 38.632 11.3153C48.5704 11.3153 58.509 11.333 68.4472 11.3124C125.606 11.1937 182.764 11.0659 239.923 10.9412C241.033 11.0084 242.144 11.0757 245.236 11.2186C297.013 11.2716 346.809 11.249 396.605 11.2264C412.751 13.9468 429.519 16.0376 444.879 19.5532C462.502 23.5866 472.977 31.3346 482.687 39.3491C527.75 76.5415 573.251 113.611 618.626 150.716C620.701 152.413 623.067 154.028 625.938 156.156C663.79 121.848 701.12 88.0129 739.158 53.5368C781.89 76.767 824.088 99.7065 867.2 123.143C887.515 104.335 907.014 86.2934 926.486 68.2456C930.745 64.2978 934.652 60.2565 939.176 56.3814C946.414 50.1817 959.194 47.451 973.314 48.8477C987.159 50.2172 995.993 55.343 997.433 62.6196C999.668 73.9086 1002.09 85.1891 1004.56 97.4739C1005.6 101.418 1006.51 104.361 1007.43 107.304C1007.43 107.304 1007.63 107.248 1007.29 107.806C1010.47 124.66 1013.6 140.981 1017.68 157.246C1020.12 166.974 1031.33 174.587 1049.75 178.319C1062.06 180.813 1076.45 181.858 1089.94 181.908C1178.66 182.241 1267.4 182.116 1356.13 182.192C1360.21 182.195 1365.8 181.963 1368.11 183.078C1379.51 188.565 1390.03 194.471 1401.29 200.457C1382.01 200.457 1362.11 200.451 1342.21 200.458C1257.68 200.49 1173.15 200.488 1088.63 200.575C1048.07 200.617 1015.12 193.462 991.396 177.295C991.396 177.295 991.195 177.188 990.897 176.708C986.13 168.533 979.966 160.96 977.559 153.12C973.103 138.605 970.845 123.935 967.671 109.329Z" fill="#55E6C1"/>
</svg>
