<svg width="30" height="24" viewBox="0 0 30 24" fill="none" xmlns="http://www.w3.org/2000/svg">
<mask id="path-1-inside-1_50_39417" fill="white">
<path d="M4.375 7C4.02982 7 3.75 6.77614 3.75 6.5C3.75 6.22386 4.02982 6 4.375 6H25.625C25.9702 6 26.25 6.22386 26.25 6.5C26.25 6.77614 25.9702 7 25.625 7H4.375ZM4.375 12C4.02982 12 3.75 11.7761 3.75 11.5C3.75 11.2239 4.02982 11 4.375 11H25.625C25.9702 11 26.25 11.2239 26.25 11.5C26.25 11.7761 25.9702 12 25.625 12H4.375ZM4.375 17C4.02982 17 3.75 16.7761 3.75 16.5C3.75 16.2239 4.02982 16 4.375 16H25.625C25.9702 16 26.25 16.2239 26.25 16.5C26.25 16.7761 25.9702 17 25.625 17H4.375Z"/>
</mask>
<path d="M4.375 7C4.02982 7 3.75 6.77614 3.75 6.5C3.75 6.22386 4.02982 6 4.375 6H25.625C25.9702 6 26.25 6.22386 26.25 6.5C26.25 6.77614 25.9702 7 25.625 7H4.375ZM4.375 12C4.02982 12 3.75 11.7761 3.75 11.5C3.75 11.2239 4.02982 11 4.375 11H25.625C25.9702 11 26.25 11.2239 26.25 11.5C26.25 11.7761 25.9702 12 25.625 12H4.375ZM4.375 17C4.02982 17 3.75 16.7761 3.75 16.5C3.75 16.2239 4.02982 16 4.375 16H25.625C25.9702 16 26.25 16.2239 26.25 16.5C26.25 16.7761 25.9702 17 25.625 17H4.375Z" fill="#FF007A"/>
<path d="M4.375 7V5C4.62471 5 4.91683 5.07932 5.18245 5.29182C5.45174 5.50725 5.75 5.92167 5.75 6.5H3.75H1.75C1.75 8.27411 3.36478 9 4.375 9V7ZM3.75 6.5H5.75C5.75 7.07833 5.45174 7.49275 5.18245 7.70818C4.91683 7.92068 4.62471 8 4.375 8V6V4C3.36478 4 1.75 4.72589 1.75 6.5H3.75ZM4.375 6V8H25.625V6V4H4.375V6ZM25.625 6V8C25.3753 8 25.0832 7.92068 24.8176 7.70818C24.5483 7.49275 24.25 7.07832 24.25 6.5H26.25H28.25C28.25 4.72589 26.6352 4 25.625 4V6ZM26.25 6.5H24.25C24.25 5.92168 24.5483 5.50725 24.8176 5.29182C25.0832 5.07932 25.3753 5 25.625 5V7V9C26.6352 9 28.25 8.27411 28.25 6.5H26.25ZM25.625 7V5H4.375V7V9H25.625V7ZM4.375 12V10C4.62471 10 4.91683 10.0793 5.18245 10.2918C5.45174 10.5072 5.75 10.9217 5.75 11.5H3.75H1.75C1.75 13.2741 3.36478 14 4.375 14V12ZM3.75 11.5H5.75C5.75 12.0783 5.45174 12.4928 5.18245 12.7082C4.91683 12.9207 4.62471 13 4.375 13V11V9C3.36478 9 1.75 9.72589 1.75 11.5H3.75ZM4.375 11V13H25.625V11V9H4.375V11ZM25.625 11V13C25.3753 13 25.0832 12.9207 24.8176 12.7082C24.5483 12.4928 24.25 12.0783 24.25 11.5H26.25H28.25C28.25 9.72589 26.6352 9 25.625 9V11ZM26.25 11.5H24.25C24.25 10.9217 24.5483 10.5072 24.8176 10.2918C25.0832 10.0793 25.3753 10 25.625 10V12V14C26.6352 14 28.25 13.2741 28.25 11.5H26.25ZM25.625 12V10H4.375V12V14H25.625V12ZM4.375 17V15C4.62471 15 4.91683 15.0793 5.18245 15.2918C5.45174 15.5072 5.75 15.9217 5.75 16.5H3.75H1.75C1.75 18.2741 3.36478 19 4.375 19V17ZM3.75 16.5H5.75C5.75 17.0783 5.45174 17.4928 5.18245 17.7082C4.91683 17.9207 4.62471 18 4.375 18V16V14C3.36478 14 1.75 14.7259 1.75 16.5H3.75ZM4.375 16V18H25.625V16V14H4.375V16ZM25.625 16V18C25.3753 18 25.0832 17.9207 24.8176 17.7082C24.5483 17.4928 24.25 17.0783 24.25 16.5H26.25H28.25C28.25 14.7259 26.6352 14 25.625 14V16ZM26.25 16.5H24.25C24.25 15.9217 24.5483 15.5072 24.8176 15.2918C25.0832 15.0793 25.3753 15 25.625 15V17V19C26.6352 19 28.25 18.2741 28.25 16.5H26.25ZM25.625 17V15H4.375V17V19H25.625V17Z" fill="#FF007A" mask="url(#path-1-inside-1_50_39417)"/>
</svg>
