<svg width="322" height="93" viewBox="0 0 322 93" fill="none" xmlns="http://www.w3.org/2000/svg">
<path d="M216.023 32.6823C215.609 29.7321 215.194 26.7818 214.78 23.8315C214.567 23.771 214.353 23.7105 214.14 23.65C208.099 31.1678 202.058 38.6856 195.82 46.4482C186.094 39.5111 176.638 32.7663 166.94 25.8486C158.092 36.5589 149.281 47.2239 140.251 58.1555C135.234 52.8216 130.429 47.7932 125.747 42.7177C116.738 32.9526 107.773 23.1712 98.8515 13.3729C96.5132 10.8047 92.906 9.62616 88.181 8.98852C83.6922 8.93984 79.6276 8.97003 75.563 9.00022C75.1292 8.97737 74.6954 8.95451 73.836 8.91324C72.8128 8.93079 72.2153 8.96675 71.6177 9.00272C70.6371 8.98002 69.6566 8.95731 68.1852 8.91574C56.9517 8.93371 46.209 8.97054 35.4664 9.00737C35.2376 8.98318 35.0087 8.95899 34.3645 8.91529C32.3868 8.92988 30.8245 8.96397 29.2622 8.99805C28.8638 8.97531 28.4653 8.95258 27.6163 8.91237C23.3772 8.80592 19.5886 8.71693 15.8 8.62795C15.8 8.62795 15.6862 8.49385 15.5139 8.36235C12.8838 6.80158 10.426 5.3723 7.96826 3.94303C8.18694 3.75622 8.40561 3.5694 8.62428 3.38259C10.8429 3.38259 13.0616 3.38789 15.2802 3.38172C28.0403 3.34623 40.8003 3.30803 53.5603 3.27075C53.8083 3.29087 54.0563 3.31098 54.7464 3.35368C66.3051 3.36952 77.4216 3.36277 88.5381 3.35603C92.1425 4.16924 95.8857 4.79425 99.3148 5.8452C103.249 7.05092 105.587 9.36706 107.755 11.7629C117.815 22.881 127.973 33.9623 138.102 45.0543C138.565 45.5615 139.093 46.0442 139.734 46.6804C148.184 36.4246 156.518 26.3101 165.01 16.0041C174.549 22.9484 183.969 29.8058 193.594 36.8118C198.129 31.1892 202.482 25.7961 206.829 20.401C207.779 19.2209 208.652 18.0128 209.661 16.8544C211.277 15.0011 214.13 14.1848 217.283 14.6023C220.373 15.0117 222.345 16.544 222.667 18.7192C223.166 22.0939 223.706 25.466 224.257 29.1384C224.489 30.3173 224.694 31.1971 224.898 32.0769C224.898 32.0769 224.943 32.0603 224.867 32.2269C225.578 37.2653 226.276 42.1442 227.187 47.0064C227.732 49.9142 230.234 52.1902 234.346 53.3059C237.093 54.0513 240.307 54.3636 243.317 54.3787C263.125 54.4781 282.934 54.4408 302.742 54.4635C303.653 54.4645 304.901 54.3951 305.418 54.7283C307.961 56.3688 310.311 58.1342 312.824 59.9236C308.519 59.9236 304.076 59.9217 299.634 59.9239C280.764 59.9333 261.895 59.9329 243.025 59.9589C233.971 59.9714 226.615 57.8326 221.319 52.9995C221.319 52.9995 221.274 52.9677 221.208 52.824C220.143 50.3805 218.768 48.1166 218.23 45.7728C217.235 41.434 216.731 37.0484 216.023 32.6823Z" fill="#4A483F"/>
</svg>
