<svg width="235" height="108" viewBox="0 0 235 108" fill="none" xmlns="http://www.w3.org/2000/svg">
<g filter="url(#filter0_d_35_10900)">
<path d="M9.28519 94V60.4H21.0452L26.8532 89.68H27.7172L33.5252 60.4H45.2852V94H39.1412V65.056H38.2772L32.5172 94H22.0532L16.2932 65.056H15.4292V94H9.28519ZM64.6693 94.672C60.4453 94.672 57.0853 93.52 54.5893 91.216C52.0933 88.88 50.8453 85.552 50.8453 81.232V73.168C50.8453 68.848 52.0933 65.536 54.5893 63.232C57.0853 60.896 60.4453 59.728 64.6693 59.728C68.8933 59.728 72.2533 60.896 74.7493 63.232C77.2453 65.536 78.4933 68.848 78.4933 73.168V81.232C78.4933 85.552 77.2453 88.88 74.7493 91.216C72.2533 93.52 68.8933 94.672 64.6693 94.672ZM64.6693 89.008C67.0373 89.008 68.8773 88.32 70.1893 86.944C71.5013 85.568 72.1573 83.728 72.1573 81.424V72.976C72.1573 70.672 71.5013 68.832 70.1893 67.456C68.8773 66.08 67.0373 65.392 64.6693 65.392C62.3333 65.392 60.4933 66.08 59.1493 67.456C57.8373 68.832 57.1813 70.672 57.1813 72.976V81.424C57.1813 83.728 57.8373 85.568 59.1493 86.944C60.4933 88.32 62.3333 89.008 64.6693 89.008ZM84.0508 94V60.4H96.0988L102.771 89.68H103.635V60.4H109.875V94H97.8268L91.1548 64.72H90.2908V94H84.0508ZM123.983 94V66.16H114.191V60.4H140.111V66.16H130.319V94H123.983ZM156.122 94.672C151.898 94.672 148.538 93.52 146.042 91.216C143.546 88.88 142.298 85.552 142.298 81.232V73.168C142.298 68.848 143.546 65.536 146.042 63.232C148.538 60.896 151.898 59.728 156.122 59.728C160.346 59.728 163.706 60.896 166.202 63.232C168.698 65.536 169.946 68.848 169.946 73.168V81.232C169.946 85.552 168.698 88.88 166.202 91.216C163.706 93.52 160.346 94.672 156.122 94.672ZM156.122 89.008C158.49 89.008 160.33 88.32 161.642 86.944C162.954 85.568 163.61 83.728 163.61 81.424V72.976C163.61 70.672 162.954 68.832 161.642 67.456C160.33 66.08 158.49 65.392 156.122 65.392C153.786 65.392 151.946 66.08 150.602 67.456C149.29 68.832 148.634 70.672 148.634 72.976V81.424C148.634 83.728 149.29 85.568 150.602 86.944C151.946 88.32 153.786 89.008 156.122 89.008ZM182.785 94V82.432L171.361 60.4H178.417L185.521 74.8H186.385L193.489 60.4H200.545L189.121 82.432V94H182.785ZM198.325 94L207.157 60.4H218.197L227.029 94H220.501L218.677 86.608H206.677L204.853 94H198.325ZM208.165 80.752H217.189L213.109 64.384H212.245L208.165 80.752Z" fill="#FFDE00"/>
</g>
<g filter="url(#filter1_d_35_10900)">
<path d="M18.6627 47L4.16675 13.4H12.5667L25.2387 43.16H20.2947L33.1587 13.4H40.8867L26.3427 47H18.6627ZM47.906 47V21.176H55.394V47H47.906ZM51.65 17.576C50.274 17.576 49.154 17.176 48.29 16.376C47.426 15.576 46.994 14.584 46.994 13.4C46.994 12.216 47.426 11.224 48.29 10.424C49.154 9.624 50.274 9.224 51.65 9.224C53.026 9.224 54.146 9.608 55.01 10.376C55.874 11.112 56.306 12.072 56.306 13.256C56.306 14.504 55.874 15.544 55.01 16.376C54.178 17.176 53.058 17.576 51.65 17.576ZM66.6635 47V21.176H73.8155V28.472L72.8075 26.36C73.5755 24.536 74.8075 23.16 76.5035 22.232C78.1995 21.272 80.2635 20.792 82.6955 20.792V27.704C82.3755 27.672 82.0875 27.656 81.8315 27.656C81.5755 27.624 81.3035 27.608 81.0155 27.608C78.9675 27.608 77.3035 28.2 76.0235 29.384C74.7755 30.536 74.1515 32.344 74.1515 34.808V47H66.6635ZM103.424 56.696C100.992 56.696 98.6404 56.392 96.3684 55.784C94.1284 55.208 92.2564 54.328 90.7524 53.144L93.7284 47.768C94.8164 48.664 96.1924 49.368 97.8564 49.88C99.5524 50.424 101.216 50.696 102.848 50.696C105.504 50.696 107.424 50.104 108.608 48.92C109.824 47.736 110.432 45.976 110.432 43.64V39.752L110.912 33.272L110.816 26.744V21.176H117.92V42.68C117.92 47.48 116.672 51.016 114.176 53.288C111.68 55.56 108.096 56.696 103.424 56.696ZM102.272 45.752C99.8724 45.752 97.6964 45.24 95.7444 44.216C93.8244 43.16 92.2724 41.704 91.0884 39.848C89.9364 37.96 89.3604 35.768 89.3604 33.272C89.3604 30.744 89.9364 28.552 91.0884 26.696C92.2724 24.808 93.8244 23.352 95.7444 22.328C97.6964 21.304 99.8724 20.792 102.272 20.792C104.448 20.792 106.368 21.24 108.032 22.136C109.696 23 110.992 24.36 111.92 26.216C112.848 28.04 113.312 30.392 113.312 33.272C113.312 36.12 112.848 38.472 111.92 40.328C110.992 42.152 109.696 43.512 108.032 44.408C106.368 45.304 104.448 45.752 102.272 45.752ZM103.76 39.608C105.072 39.608 106.24 39.352 107.264 38.84C108.288 38.296 109.088 37.544 109.664 36.584C110.24 35.624 110.528 34.52 110.528 33.272C110.528 31.992 110.24 30.888 109.664 29.96C109.088 29 108.288 28.264 107.264 27.752C106.24 27.208 105.072 26.936 103.76 26.936C102.448 26.936 101.28 27.208 100.256 27.752C99.2324 28.264 98.4164 29 97.8084 29.96C97.2324 30.888 96.9444 31.992 96.9444 33.272C96.9444 34.52 97.2324 35.624 97.8084 36.584C98.4164 37.544 99.2324 38.296 100.256 38.84C101.28 39.352 102.448 39.608 103.76 39.608ZM129.21 47V21.176H136.698V47H129.21ZM132.954 17.576C131.578 17.576 130.458 17.176 129.594 16.376C128.73 15.576 128.298 14.584 128.298 13.4C128.298 12.216 128.73 11.224 129.594 10.424C130.458 9.624 131.578 9.224 132.954 9.224C134.33 9.224 135.45 9.608 136.314 10.376C137.178 11.112 137.61 12.072 137.61 13.256C137.61 14.504 137.178 15.544 136.314 16.376C135.482 17.176 134.362 17.576 132.954 17.576ZM163.663 20.792C165.711 20.792 167.535 21.208 169.135 22.04C170.767 22.84 172.047 24.088 172.975 25.784C173.903 27.448 174.367 29.592 174.367 32.216V47H166.879V33.368C166.879 31.288 166.415 29.752 165.487 28.76C164.591 27.768 163.311 27.272 161.647 27.272C160.463 27.272 159.391 27.528 158.431 28.04C157.503 28.52 156.767 29.272 156.223 30.296C155.711 31.32 155.455 32.632 155.455 34.232V47H147.967V21.176H155.119V28.328L153.775 26.168C154.703 24.44 156.031 23.112 157.759 22.184C159.487 21.256 161.455 20.792 163.663 20.792ZM185.475 47V21.176H192.963V47H185.475ZM189.219 17.576C187.843 17.576 186.723 17.176 185.859 16.376C184.995 15.576 184.563 14.584 184.563 13.4C184.563 12.216 184.995 11.224 185.859 10.424C186.723 9.624 187.843 9.224 189.219 9.224C190.595 9.224 191.715 9.608 192.579 10.376C193.443 11.112 193.875 12.072 193.875 13.256C193.875 14.504 193.443 15.544 192.579 16.376C191.747 17.176 190.627 17.576 189.219 17.576ZM220.072 47V41.96L219.592 40.856V31.832C219.592 30.232 219.096 28.984 218.104 28.088C217.144 27.192 215.656 26.744 213.64 26.744C212.264 26.744 210.904 26.968 209.56 27.416C208.248 27.832 207.128 28.408 206.2 29.144L203.512 23.912C204.92 22.92 206.616 22.152 208.6 21.608C210.584 21.064 212.6 20.792 214.648 20.792C218.584 20.792 221.64 21.72 223.816 23.576C225.992 25.432 227.08 28.328 227.08 32.264V47H220.072ZM212.2 47.384C210.184 47.384 208.456 47.048 207.016 46.376C205.576 45.672 204.472 44.728 203.704 43.544C202.936 42.36 202.552 41.032 202.552 39.56C202.552 38.024 202.92 36.68 203.656 35.528C204.424 34.376 205.624 33.48 207.256 32.84C208.888 32.168 211.016 31.832 213.64 31.832H220.504V36.2H214.456C212.696 36.2 211.48 36.488 210.808 37.064C210.168 37.64 209.848 38.36 209.848 39.224C209.848 40.184 210.216 40.952 210.952 41.528C211.72 42.072 212.76 42.344 214.072 42.344C215.32 42.344 216.44 42.056 217.432 41.48C218.424 40.872 219.144 39.992 219.592 38.84L220.744 42.296C220.2 43.96 219.208 45.224 217.768 46.088C216.328 46.952 214.472 47.384 212.2 47.384Z" fill="#FFDE00"/>
</g>
<defs>
<filter id="filter0_d_35_10900" x="5.28516" y="59.728" width="225.744" height="44.944" filterUnits="userSpaceOnUse" color-interpolation-filters="sRGB">
<feFlood flood-opacity="0" result="BackgroundImageFix"/>
<feColorMatrix in="SourceAlpha" type="matrix" values="0 0 0 0 0 0 0 0 0 0 0 0 0 0 0 0 0 0 127 0" result="hardAlpha"/>
<feOffset dy="6"/>
<feGaussianBlur stdDeviation="2"/>
<feComposite in2="hardAlpha" operator="out"/>
<feColorMatrix type="matrix" values="0 0 0 0 0.290196 0 0 0 0 0.282353 0 0 0 0 0.247059 0 0 0 1 0"/>
<feBlend mode="normal" in2="BackgroundImageFix" result="effect1_dropShadow_35_10900"/>
<feBlend mode="normal" in="SourceGraphic" in2="effect1_dropShadow_35_10900" result="shape"/>
</filter>
<filter id="filter1_d_35_10900" x="0.166504" y="9.224" width="230.914" height="57.472" filterUnits="userSpaceOnUse" color-interpolation-filters="sRGB">
<feFlood flood-opacity="0" result="BackgroundImageFix"/>
<feColorMatrix in="SourceAlpha" type="matrix" values="0 0 0 0 0 0 0 0 0 0 0 0 0 0 0 0 0 0 127 0" result="hardAlpha"/>
<feOffset dy="6"/>
<feGaussianBlur stdDeviation="2"/>
<feComposite in2="hardAlpha" operator="out"/>
<feColorMatrix type="matrix" values="0 0 0 0 0.290196 0 0 0 0 0.282353 0 0 0 0 0.247059 0 0 0 1 0"/>
<feBlend mode="normal" in2="BackgroundImageFix" result="effect1_dropShadow_35_10900"/>
<feBlend mode="normal" in="SourceGraphic" in2="effect1_dropShadow_35_10900" result="shape"/>
</filter>
</defs>
</svg>
