<svg width="158" height="70" viewBox="0 0 158 70" fill="none" xmlns="http://www.w3.org/2000/svg">
<path d="M6.93905 62.1311V39.7311H14.779L18.651 59.2511H19.227L23.0991 39.7311H30.9391V62.1311H26.8431V42.8351H26.267L22.427 62.1311H15.451L11.611 42.8351H11.035V62.1311H6.93905ZM43.8618 62.5791C41.0458 62.5791 38.8058 61.8111 37.1418 60.2751C35.4778 58.7178 34.6458 56.4991 34.6458 53.6191V48.2431C34.6458 45.3631 35.4778 43.1551 37.1418 41.6191C38.8058 40.0618 41.0458 39.2831 43.8618 39.2831C46.6778 39.2831 48.9178 40.0618 50.5818 41.6191C52.2458 43.1551 53.0778 45.3631 53.0778 48.2431V53.6191C53.0778 56.4991 52.2458 58.7178 50.5818 60.2751C48.9178 61.8111 46.6778 62.5791 43.8618 62.5791ZM43.8618 58.8031C45.4405 58.8031 46.6671 58.3444 47.5418 57.4271C48.4165 56.5098 48.8538 55.2831 48.8538 53.7471V48.1151C48.8538 46.5791 48.4165 45.3524 47.5418 44.4351C46.6671 43.5178 45.4405 43.0591 43.8618 43.0591C42.3045 43.0591 41.0778 43.5178 40.1818 44.4351C39.3071 45.3524 38.8698 46.5791 38.8698 48.1151V53.7471C38.8698 55.2831 39.3071 56.5098 40.1818 57.4271C41.0778 58.3444 42.3045 58.8031 43.8618 58.8031ZM56.7828 62.1311V39.7311H64.8148L69.2628 59.2511H69.8388V39.7311H73.9988V62.1311H65.9668L61.5188 42.6111H60.9428V62.1311H56.7828ZM83.4043 62.1311V43.5711H76.8763V39.7311H94.1563V43.5711H87.6283V62.1311H83.4043ZM104.831 62.5791C102.015 62.5791 99.7745 61.8111 98.1105 60.2751C96.4465 58.7178 95.6145 56.4991 95.6145 53.6191V48.2431C95.6145 45.3631 96.4465 43.1551 98.1105 41.6191C99.7745 40.0618 102.015 39.2831 104.831 39.2831C107.647 39.2831 109.887 40.0618 111.551 41.6191C113.215 43.1551 114.047 45.3631 114.047 48.2431V53.6191C114.047 56.4991 113.215 58.7178 111.551 60.2751C109.887 61.8111 107.647 62.5791 104.831 62.5791ZM104.831 58.8031C106.409 58.8031 107.636 58.3444 108.511 57.4271C109.385 56.5098 109.823 55.2831 109.823 53.7471V48.1151C109.823 46.5791 109.385 45.3524 108.511 44.4351C107.636 43.5178 106.409 43.0591 104.831 43.0591C103.273 43.0591 102.047 43.5178 101.151 44.4351C100.276 45.3524 99.8385 46.5791 99.8385 48.1151V53.7471C99.8385 55.2831 100.276 56.5098 101.151 57.4271C102.047 58.3444 103.273 58.8031 104.831 58.8031ZM122.605 62.1311V54.4191L114.989 39.7311H119.693L124.429 49.3311H125.005L129.741 39.7311H134.445L126.829 54.4191V62.1311H122.605ZM132.966 62.1311L138.854 39.7311H146.214L152.102 62.1311H147.75L146.534 57.2031H138.534L137.318 62.1311H132.966ZM139.526 53.2991H145.542L142.822 42.3871H142.246L139.526 53.2991Z" fill="#FFDE00"/>
<path d="M13.6085 31L3.9445 8.6H9.5445L17.9925 28.44H14.6965L23.2725 8.6H28.4245L18.7285 31H13.6085ZM33.104 31V13.784H38.096V31H33.104ZM35.6 11.384C34.6827 11.384 33.936 11.1173 33.36 10.584C32.784 10.0507 32.496 9.38933 32.496 8.6C32.496 7.81067 32.784 7.14933 33.36 6.616C33.936 6.08267 34.6827 5.816 35.6 5.816C36.5173 5.816 37.264 6.072 37.84 6.584C38.416 7.07467 38.704 7.71467 38.704 8.504C38.704 9.336 38.416 10.0293 37.84 10.584C37.2853 11.1173 36.5387 11.384 35.6 11.384ZM45.609 31V13.784H50.377V18.648L49.705 17.24C50.217 16.024 51.0383 15.1067 52.169 14.488C53.2997 13.848 54.6757 13.528 56.297 13.528V18.136C56.0837 18.1147 55.8917 18.104 55.721 18.104C55.5503 18.0827 55.369 18.072 55.177 18.072C53.8117 18.072 52.7023 18.4667 51.849 19.256C51.017 20.024 50.601 21.2293 50.601 22.872V31H45.609ZM70.1162 37.464C68.4949 37.464 66.9269 37.2613 65.4122 36.856C63.9189 36.472 62.6709 35.8853 61.6682 35.096L63.6522 31.512C64.3776 32.1093 65.2949 32.5787 66.4042 32.92C67.5349 33.2827 68.6442 33.464 69.7322 33.464C71.5029 33.464 72.7829 33.0693 73.5722 32.28C74.3829 31.4907 74.7882 30.3173 74.7882 28.76V26.168L75.1082 21.848L75.0442 17.496V13.784H79.7802V28.12C79.7802 31.32 78.9482 33.6773 77.2842 35.192C75.6202 36.7067 73.2309 37.464 70.1162 37.464ZM69.3482 30.168C67.7482 30.168 66.2976 29.8267 64.9962 29.144C63.7162 28.44 62.6816 27.4693 61.8922 26.232C61.1242 24.9733 60.7402 23.512 60.7402 21.848C60.7402 20.1627 61.1242 18.7013 61.8922 17.464C62.6816 16.2053 63.7162 15.2347 64.9962 14.552C66.2976 13.8693 67.7482 13.528 69.3482 13.528C70.7989 13.528 72.0789 13.8267 73.1882 14.424C74.2976 15 75.1616 15.9067 75.7802 17.144C76.3989 18.36 76.7082 19.928 76.7082 21.848C76.7082 23.7467 76.3989 25.3147 75.7802 26.552C75.1616 27.768 74.2976 28.6747 73.1882 29.272C72.0789 29.8693 70.7989 30.168 69.3482 30.168ZM70.3402 26.072C71.2149 26.072 71.9936 25.9013 72.6762 25.56C73.3589 25.1973 73.8922 24.696 74.2762 24.056C74.6602 23.416 74.8522 22.68 74.8522 21.848C74.8522 20.9947 74.6602 20.2587 74.2762 19.64C73.8922 19 73.3589 18.5093 72.6762 18.168C71.9936 17.8053 71.2149 17.624 70.3402 17.624C69.4656 17.624 68.6869 17.8053 68.0042 18.168C67.3216 18.5093 66.7776 19 66.3722 19.64C65.9882 20.2587 65.7962 20.9947 65.7962 21.848C65.7962 22.68 65.9882 23.416 66.3722 24.056C66.7776 24.696 67.3216 25.1973 68.0042 25.56C68.6869 25.9013 69.4656 26.072 70.3402 26.072ZM87.3065 31V13.784H92.2985V31H87.3065ZM89.8025 11.384C88.8852 11.384 88.1385 11.1173 87.5625 10.584C86.9865 10.0507 86.6985 9.38933 86.6985 8.6C86.6985 7.81067 86.9865 7.14933 87.5625 6.616C88.1385 6.08267 88.8852 5.816 89.8025 5.816C90.7198 5.816 91.4665 6.072 92.0425 6.584C92.6185 7.07467 92.9065 7.71467 92.9065 8.504C92.9065 9.336 92.6185 10.0293 92.0425 10.584C91.4878 11.1173 90.7412 11.384 89.8025 11.384ZM110.276 13.528C111.641 13.528 112.857 13.8053 113.924 14.36C115.012 14.8933 115.865 15.7253 116.484 16.856C117.102 17.9653 117.412 19.3947 117.412 21.144V31H112.42V21.912C112.42 20.5253 112.11 19.5013 111.491 18.84C110.894 18.1787 110.041 17.848 108.932 17.848C108.142 17.848 107.428 18.0187 106.788 18.36C106.169 18.68 105.678 19.1813 105.316 19.864C104.974 20.5467 104.804 21.4213 104.804 22.488V31H99.8115V13.784H104.58V18.552L103.683 17.112C104.302 15.96 105.188 15.0747 106.34 14.456C107.492 13.8373 108.804 13.528 110.276 13.528ZM124.816 31V13.784H129.808V31H124.816ZM127.312 11.384C126.395 11.384 125.648 11.1173 125.072 10.584C124.496 10.0507 124.208 9.38933 124.208 8.6C124.208 7.81067 124.496 7.14933 125.072 6.616C125.648 6.08267 126.395 5.816 127.312 5.816C128.23 5.816 128.976 6.072 129.552 6.584C130.128 7.07467 130.416 7.71467 130.416 8.504C130.416 9.336 130.128 10.0293 129.552 10.584C128.998 11.1173 128.251 11.384 127.312 11.384ZM147.882 31V27.64L147.562 26.904V20.888C147.562 19.8213 147.231 18.9893 146.57 18.392C145.93 17.7947 144.938 17.496 143.594 17.496C142.676 17.496 141.77 17.6453 140.874 17.944C139.999 18.2213 139.252 18.6053 138.634 19.096L136.842 15.608C137.78 14.9467 138.911 14.4347 140.234 14.072C141.556 13.7093 142.9 13.528 144.266 13.528C146.89 13.528 148.927 14.1467 150.378 15.384C151.828 16.6213 152.554 18.552 152.554 21.176V31H147.882ZM142.634 31.256C141.29 31.256 140.138 31.032 139.178 30.584C138.218 30.1147 137.482 29.4853 136.97 28.696C136.458 27.9067 136.202 27.0213 136.202 26.04C136.202 25.016 136.447 24.12 136.938 23.352C137.45 22.584 138.25 21.9867 139.338 21.56C140.426 21.112 141.844 20.888 143.594 20.888H148.17V23.8H144.138C142.964 23.8 142.154 23.992 141.706 24.376C141.279 24.76 141.066 25.24 141.066 25.816C141.066 26.456 141.311 26.968 141.802 27.352C142.314 27.7147 143.007 27.896 143.882 27.896C144.714 27.896 145.46 27.704 146.122 27.32C146.783 26.9147 147.263 26.328 147.562 25.56L148.33 27.864C147.967 28.9733 147.306 29.816 146.346 30.392C145.386 30.968 144.148 31.256 142.634 31.256Z" fill="#FFDE00"/>
</svg>
