<svg width="128" height="128" viewBox="0 0 128 128" fill="none" xmlns="http://www.w3.org/2000/svg">
<g clip-path="url(#clip0_87_3851)">
<path d="M97.5566 103.261L84.7427 63.8203L118.286 39.451H76.8231L64.0084 0.0114071L64.0046 0.000760472H105.473L118.291 39.4472L118.292 39.4464L118.302 39.4403C125.746 62.3244 118.079 88.3523 97.5566 103.261ZM30.4572 103.261L30.4465 103.269L63.9978 127.644L97.5566 103.262L64.0084 78.886L30.4572 103.261ZM9.71987 39.4411C1.88397 63.564 10.98 89.125 30.4503 103.266L30.4534 103.254L43.2688 63.815L9.73356 39.4502H51.1861L64.0016 0.0106466L64.0046 0H22.5338L9.71987 39.4411Z" fill="#EB5424"/>
<g clip-path="url(#clip1_87_3851)">
<circle cx="9.5" cy="4.5" r="1.5" fill="#FDFCF5"/>
<circle cx="18.5" cy="4.5" r="1.5" fill="#FDFCF5"/>
<circle cx="27.5" cy="4.5" r="1.5" fill="#FDFCF5"/>
<circle cx="36.5" cy="4.5" r="1.5" fill="#FDFCF5"/>
<circle cx="45.5" cy="4.5" r="1.5" fill="#FDFCF5"/>
<circle cx="54.5" cy="4.5" r="1.5" fill="#FDFCF5"/>
<circle cx="63.5" cy="4.5" r="1.5" fill="#FDFCF5"/>
<circle cx="72.5" cy="4.5" r="1.5" fill="#FDFCF5"/>
<circle cx="81.5" cy="4.5" r="1.5" fill="#FDFCF5"/>
<circle cx="90.5" cy="4.5" r="1.5" fill="#FDFCF5"/>
<circle cx="99.5" cy="4.5" r="1.5" fill="#FDFCF5"/>
<circle cx="108.5" cy="4.5" r="1.5" fill="#FDFCF5"/>
<circle cx="117.5" cy="4.5" r="1.5" fill="#FDFCF5"/>
<circle cx="9.5" cy="13.5" r="1.5" fill="#FDFCF5"/>
<circle cx="18.5" cy="13.5" r="1.5" fill="#FDFCF5"/>
<circle cx="27.5" cy="13.5" r="1.5" fill="#FDFCF5"/>
<circle cx="36.5" cy="13.5" r="1.5" fill="#FDFCF5"/>
<circle cx="45.5" cy="13.5" r="1.5" fill="#FDFCF5"/>
<circle cx="54.5" cy="13.5" r="1.5" fill="#FDFCF5"/>
<circle cx="63.5" cy="13.5" r="1.5" fill="#FDFCF5"/>
<circle cx="72.5" cy="13.5" r="1.5" fill="#FDFCF5"/>
<circle cx="81.5" cy="13.5" r="1.5" fill="#FDFCF5"/>
<circle cx="90.5" cy="13.5" r="1.5" fill="#FDFCF5"/>
<circle cx="99.5" cy="13.5" r="1.5" fill="#FDFCF5"/>
<circle cx="108.5" cy="13.5" r="1.5" fill="#FDFCF5"/>
<circle cx="117.5" cy="13.5" r="1.5" fill="#FDFCF5"/>
<circle cx="9.5" cy="22.5" r="1.5" fill="#FDFCF5"/>
<circle cx="18.5" cy="22.5" r="1.5" fill="#FDFCF5"/>
<circle cx="27.5" cy="22.5" r="1.5" fill="#FDFCF5"/>
<circle cx="36.5" cy="22.5" r="1.5" fill="#FDFCF5"/>
<circle cx="45.5" cy="22.5" r="1.5" fill="#FDFCF5"/>
<circle cx="54.5" cy="22.5" r="1.5" fill="#FDFCF5"/>
<circle cx="63.5" cy="22.5" r="1.5" fill="#FDFCF5"/>
<circle cx="72.5" cy="22.5" r="1.5" fill="#FDFCF5"/>
<circle cx="81.5" cy="22.5" r="1.5" fill="#FDFCF5"/>
<circle cx="90.5" cy="22.5" r="1.5" fill="#FDFCF5"/>
<circle cx="99.5" cy="22.5" r="1.5" fill="#FDFCF5"/>
<circle cx="108.5" cy="22.5" r="1.5" fill="#FDFCF5"/>
<circle cx="117.5" cy="22.5" r="1.5" fill="#FDFCF5"/>
<circle cx="9.5" cy="31.5" r="1.5" fill="#FDFCF5"/>
<circle cx="18.5" cy="31.5" r="1.5" fill="#FDFCF5"/>
<circle cx="27.5" cy="31.5" r="1.5" fill="#FDFCF5"/>
<circle cx="36.5" cy="31.5" r="1.5" fill="#FDFCF5"/>
<circle cx="45.5" cy="31.5" r="1.5" fill="#FDFCF5"/>
<circle cx="54.5" cy="31.5" r="1.5" fill="#FDFCF5"/>
<circle cx="63.5" cy="31.5" r="1.5" fill="#FDFCF5"/>
<circle cx="72.5" cy="31.5" r="1.5" fill="#FDFCF5"/>
<circle cx="81.5" cy="31.5" r="1.5" fill="#FDFCF5"/>
<circle cx="90.5" cy="31.5" r="1.5" fill="#FDFCF5"/>
<circle cx="99.5" cy="31.5" r="1.5" fill="#FDFCF5"/>
<circle cx="108.5" cy="31.5" r="1.5" fill="#FDFCF5"/>
<circle cx="117.5" cy="31.5" r="1.5" fill="#FDFCF5"/>
<circle cx="9.5" cy="40.5" r="1.5" fill="#FDFCF5"/>
<circle cx="18.5" cy="40.5" r="1.5" fill="#FDFCF5"/>
<circle cx="27.5" cy="40.5" r="1.5" fill="#FDFCF5"/>
<circle cx="36.5" cy="40.5" r="1.5" fill="#FDFCF5"/>
<circle cx="45.5" cy="40.5" r="1.5" fill="#FDFCF5"/>
<circle cx="54.5" cy="40.5" r="1.5" fill="#FDFCF5"/>
<circle cx="63.5" cy="40.5" r="1.5" fill="#FDFCF5"/>
<circle cx="72.5" cy="40.5" r="1.5" fill="#FDFCF5"/>
<circle cx="81.5" cy="40.5" r="1.5" fill="#FDFCF5"/>
<circle cx="90.5" cy="40.5" r="1.5" fill="#FDFCF5"/>
<circle cx="99.5" cy="40.5" r="1.5" fill="#FDFCF5"/>
<circle cx="108.5" cy="40.5" r="1.5" fill="#FDFCF5"/>
<circle cx="117.5" cy="40.5" r="1.5" fill="#FDFCF5"/>
<circle cx="9.5" cy="49.5" r="1.5" fill="#FDFCF5"/>
<circle cx="18.5" cy="49.5" r="1.5" fill="#FDFCF5"/>
<circle cx="27.5" cy="49.5" r="1.5" fill="#FDFCF5"/>
<circle cx="36.5" cy="49.5" r="1.5" fill="#FDFCF5"/>
<circle cx="45.5" cy="49.5" r="1.5" fill="#FDFCF5"/>
<circle cx="54.5" cy="49.5" r="1.5" fill="#FDFCF5"/>
<circle cx="63.5" cy="49.5" r="1.5" fill="#FDFCF5"/>
<circle cx="72.5" cy="49.5" r="1.5" fill="#FDFCF5"/>
<circle cx="81.5" cy="49.5" r="1.5" fill="#FDFCF5"/>
<circle cx="90.5" cy="49.5" r="1.5" fill="#FDFCF5"/>
<circle cx="99.5" cy="49.5" r="1.5" fill="#FDFCF5"/>
<circle cx="108.5" cy="49.5" r="1.5" fill="#FDFCF5"/>
<circle cx="117.5" cy="49.5" r="1.5" fill="#FDFCF5"/>
<circle cx="9.5" cy="58.5" r="1.5" fill="#FDFCF5"/>
<circle cx="18.5" cy="58.5" r="1.5" fill="#FDFCF5"/>
<circle cx="27.5" cy="58.5" r="1.5" fill="#FDFCF5"/>
<circle cx="36.5" cy="58.5" r="1.5" fill="#FDFCF5"/>
<circle cx="45.5" cy="58.5" r="1.5" fill="#FDFCF5"/>
<circle cx="54.5" cy="58.5" r="1.5" fill="#FDFCF5"/>
<circle cx="63.5" cy="58.5" r="1.5" fill="#FDFCF5"/>
<circle cx="72.5" cy="58.5" r="1.5" fill="#FDFCF5"/>
<circle cx="81.5" cy="58.5" r="1.5" fill="#FDFCF5"/>
<circle cx="90.5" cy="58.5" r="1.5" fill="#FDFCF5"/>
<circle cx="99.5" cy="58.5" r="1.5" fill="#FDFCF5"/>
<circle cx="108.5" cy="58.5" r="1.5" fill="#FDFCF5"/>
<circle cx="117.5" cy="58.5" r="1.5" fill="#FDFCF5"/>
<circle cx="9.5" cy="67.5" r="1.5" fill="#FDFCF5"/>
<circle cx="18.5" cy="67.5" r="1.5" fill="#FDFCF5"/>
<circle cx="27.5" cy="67.5" r="1.5" fill="#FDFCF5"/>
<circle cx="36.5" cy="67.5" r="1.5" fill="#FDFCF5"/>
<circle cx="45.5" cy="67.5" r="1.5" fill="#FDFCF5"/>
<circle cx="54.5" cy="67.5" r="1.5" fill="#FDFCF5"/>
<circle cx="63.5" cy="67.5" r="1.5" fill="#FDFCF5"/>
<circle cx="72.5" cy="67.5" r="1.5" fill="#FDFCF5"/>
<circle cx="81.5" cy="67.5" r="1.5" fill="#FDFCF5"/>
<circle cx="90.5" cy="67.5" r="1.5" fill="#FDFCF5"/>
<circle cx="99.5" cy="67.5" r="1.5" fill="#FDFCF5"/>
<circle cx="108.5" cy="67.5" r="1.5" fill="#FDFCF5"/>
<circle cx="117.5" cy="67.5" r="1.5" fill="#FDFCF5"/>
<circle cx="9.5" cy="76.5" r="1.5" fill="#FDFCF5"/>
<circle cx="18.5" cy="76.5" r="1.5" fill="#FDFCF5"/>
<circle cx="27.5" cy="76.5" r="1.5" fill="#FDFCF5"/>
<circle cx="36.5" cy="76.5" r="1.5" fill="#FDFCF5"/>
<circle cx="45.5" cy="76.5" r="1.5" fill="#FDFCF5"/>
<circle cx="54.5" cy="76.5" r="1.5" fill="#FDFCF5"/>
<circle cx="63.5" cy="76.5" r="1.5" fill="#FDFCF5"/>
<circle cx="72.5" cy="76.5" r="1.5" fill="#FDFCF5"/>
<circle cx="81.5" cy="76.5" r="1.5" fill="#FDFCF5"/>
<circle cx="90.5" cy="76.5" r="1.5" fill="#FDFCF5"/>
<circle cx="99.5" cy="76.5" r="1.5" fill="#FDFCF5"/>
<circle cx="108.5" cy="76.5" r="1.5" fill="#FDFCF5"/>
<circle cx="117.5" cy="76.5" r="1.5" fill="#FDFCF5"/>
<circle cx="9.5" cy="85.5" r="1.5" fill="#FDFCF5"/>
<circle cx="18.5" cy="85.5" r="1.5" fill="#FDFCF5"/>
<circle cx="27.5" cy="85.5" r="1.5" fill="#FDFCF5"/>
<circle cx="36.5" cy="85.5" r="1.5" fill="#FDFCF5"/>
<circle cx="45.5" cy="85.5" r="1.5" fill="#FDFCF5"/>
<circle cx="54.5" cy="85.5" r="1.5" fill="#FDFCF5"/>
<circle cx="63.5" cy="85.5" r="1.5" fill="#FDFCF5"/>
<circle cx="72.5" cy="85.5" r="1.5" fill="#FDFCF5"/>
<circle cx="81.5" cy="85.5" r="1.5" fill="#FDFCF5"/>
<circle cx="90.5" cy="85.5" r="1.5" fill="#FDFCF5"/>
<circle cx="99.5" cy="85.5" r="1.5" fill="#FDFCF5"/>
<circle cx="108.5" cy="85.5" r="1.5" fill="#FDFCF5"/>
<circle cx="117.5" cy="85.5" r="1.5" fill="#FDFCF5"/>
<circle cx="9.5" cy="94.5" r="1.5" fill="#FDFCF5"/>
<circle cx="18.5" cy="94.5" r="1.5" fill="#FDFCF5"/>
<circle cx="27.5" cy="94.5" r="1.5" fill="#FDFCF5"/>
<circle cx="36.5" cy="94.5" r="1.5" fill="#FDFCF5"/>
<circle cx="45.5" cy="94.5" r="1.5" fill="#FDFCF5"/>
<circle cx="54.5" cy="94.5" r="1.5" fill="#FDFCF5"/>
<circle cx="63.5" cy="94.5" r="1.5" fill="#FDFCF5"/>
<circle cx="72.5" cy="94.5" r="1.5" fill="#FDFCF5"/>
<circle cx="81.5" cy="94.5" r="1.5" fill="#FDFCF5"/>
<circle cx="90.5" cy="94.5" r="1.5" fill="#FDFCF5"/>
<circle cx="99.5" cy="94.5" r="1.5" fill="#FDFCF5"/>
<circle cx="108.5" cy="94.5" r="1.5" fill="#FDFCF5"/>
<circle cx="117.5" cy="94.5" r="1.5" fill="#FDFCF5"/>
<circle cx="9.5" cy="103.5" r="1.5" fill="#FDFCF5"/>
<circle cx="18.5" cy="103.5" r="1.5" fill="#FDFCF5"/>
<circle cx="27.5" cy="103.5" r="1.5" fill="#FDFCF5"/>
<circle cx="36.5" cy="103.5" r="1.5" fill="#FDFCF5"/>
<circle cx="45.5" cy="103.5" r="1.5" fill="#FDFCF5"/>
<circle cx="54.5" cy="103.5" r="1.5" fill="#FDFCF5"/>
<circle cx="63.5" cy="103.5" r="1.5" fill="#FDFCF5"/>
<circle cx="72.5" cy="103.5" r="1.5" fill="#FDFCF5"/>
<circle cx="81.5" cy="103.5" r="1.5" fill="#FDFCF5"/>
<circle cx="90.5" cy="103.5" r="1.5" fill="#FDFCF5"/>
<circle cx="99.5" cy="103.5" r="1.5" fill="#FDFCF5"/>
<circle cx="108.5" cy="103.5" r="1.5" fill="#FDFCF5"/>
<circle cx="117.5" cy="103.5" r="1.5" fill="#FDFCF5"/>
<circle cx="9.5" cy="112.5" r="1.5" fill="#FDFCF5"/>
<circle cx="18.5" cy="112.5" r="1.5" fill="#FDFCF5"/>
<circle cx="27.5" cy="112.5" r="1.5" fill="#FDFCF5"/>
<circle cx="36.5" cy="112.5" r="1.5" fill="#FDFCF5"/>
<circle cx="45.5" cy="112.5" r="1.5" fill="#FDFCF5"/>
<circle cx="54.5" cy="112.5" r="1.5" fill="#FDFCF5"/>
<circle cx="63.5" cy="112.5" r="1.5" fill="#FDFCF5"/>
<circle cx="72.5" cy="112.5" r="1.5" fill="#FDFCF5"/>
<circle cx="81.5" cy="112.5" r="1.5" fill="#FDFCF5"/>
<circle cx="90.5" cy="112.5" r="1.5" fill="#FDFCF5"/>
<circle cx="99.5" cy="112.5" r="1.5" fill="#FDFCF5"/>
<circle cx="108.5" cy="112.5" r="1.5" fill="#FDFCF5"/>
<circle cx="117.5" cy="112.5" r="1.5" fill="#FDFCF5"/>
<circle cx="9.5" cy="121.5" r="1.5" fill="#FDFCF5"/>
<circle cx="18.5" cy="121.5" r="1.5" fill="#FDFCF5"/>
<circle cx="27.5" cy="121.5" r="1.5" fill="#FDFCF5"/>
<circle cx="36.5" cy="121.5" r="1.5" fill="#FDFCF5"/>
<circle cx="45.5" cy="121.5" r="1.5" fill="#FDFCF5"/>
<circle cx="54.5" cy="121.5" r="1.5" fill="#FDFCF5"/>
<circle cx="63.5" cy="121.5" r="1.5" fill="#FDFCF5"/>
<circle cx="72.5" cy="121.5" r="1.5" fill="#FDFCF5"/>
<circle cx="81.5" cy="121.5" r="1.5" fill="#FDFCF5"/>
<circle cx="90.5" cy="121.5" r="1.5" fill="#FDFCF5"/>
<circle cx="99.5" cy="121.5" r="1.5" fill="#FDFCF5"/>
<circle cx="108.5" cy="121.5" r="1.5" fill="#FDFCF5"/>
<circle cx="117.5" cy="121.5" r="1.5" fill="#FDFCF5"/>
</g>
</g>
<defs>
<clipPath id="clip0_87_3851">
<rect width="128" height="128" fill="white"/>
</clipPath>
<clipPath id="clip1_87_3851">
<rect width="117" height="126" fill="white" transform="translate(8 3)"/>
</clipPath>
</defs>
</svg>
