<svg width="128" height="128" viewBox="0 0 128 128" fill="none" xmlns="http://www.w3.org/2000/svg">
<path d="M12.0002 1L21.5065 108.661L64.1942 120.624L106.866 108.669L116.389 1H12.0002Z" fill="#2299F8"/>
<path d="M96.0625 36.2067L94.8622 49.7312L91.2372 90.2775L64.1942 97.776L64.1707 97.7827L37.141 90.2775L35.2557 69.0732H48.4977L49.4822 80.0712L64.1785 84.0482L64.1857 84.0415L78.9045 80.0635L80.9102 61.7385L34.6217 61.8665L33.309 49.3352L82.02 48.7587L83.0057 35.3467L32.0045 35.4897L31.147 23.0115H97.2392L96.0625 36.2067Z" fill="#FCFCFC"/>
<g clip-path="url(#clip0_35_136)">
<circle cx="13.4998" cy="2.5" r="1.5" fill="#FDFCF5"/>
<circle cx="22.4998" cy="2.5" r="1.5" fill="#FDFCF5"/>
<circle cx="31.4998" cy="2.5" r="1.5" fill="#FDFCF5"/>
<circle cx="40.4998" cy="2.5" r="1.5" fill="#FDFCF5"/>
<circle cx="49.4998" cy="2.5" r="1.5" fill="#FDFCF5"/>
<circle cx="58.4998" cy="2.5" r="1.5" fill="#FDFCF5"/>
<circle cx="67.4998" cy="2.5" r="1.5" fill="#FDFCF5"/>
<circle cx="76.4998" cy="2.5" r="1.5" fill="#FDFCF5"/>
<circle cx="85.4998" cy="2.5" r="1.5" fill="#FDFCF5"/>
<circle cx="94.4998" cy="2.5" r="1.5" fill="#FDFCF5"/>
<circle cx="103.5" cy="2.5" r="1.5" fill="#FDFCF5"/>
<circle cx="112.5" cy="2.5" r="1.5" fill="#FDFCF5"/>
<circle cx="13.4998" cy="11.5" r="1.5" fill="#FDFCF5"/>
<circle cx="22.4998" cy="11.5" r="1.5" fill="#FDFCF5"/>
<circle cx="31.4998" cy="11.5" r="1.5" fill="#FDFCF5"/>
<circle cx="40.4998" cy="11.5" r="1.5" fill="#FDFCF5"/>
<circle cx="49.4998" cy="11.5" r="1.5" fill="#FDFCF5"/>
<circle cx="58.4998" cy="11.5" r="1.5" fill="#FDFCF5"/>
<circle cx="67.4998" cy="11.5" r="1.5" fill="#FDFCF5"/>
<circle cx="76.4998" cy="11.5" r="1.5" fill="#FDFCF5"/>
<circle cx="85.4998" cy="11.5" r="1.5" fill="#FDFCF5"/>
<circle cx="94.4998" cy="11.5" r="1.5" fill="#FDFCF5"/>
<circle cx="103.5" cy="11.5" r="1.5" fill="#FDFCF5"/>
<circle cx="112.5" cy="11.5" r="1.5" fill="#FDFCF5"/>
<circle cx="13.4998" cy="20.5" r="1.5" fill="#FDFCF5"/>
<circle cx="22.4998" cy="20.5" r="1.5" fill="#FDFCF5"/>
<circle cx="31.4998" cy="20.5" r="1.5" fill="#FDFCF5"/>
<circle cx="40.4998" cy="20.5" r="1.5" fill="#FDFCF5"/>
<circle cx="49.4998" cy="20.5" r="1.5" fill="#FDFCF5"/>
<circle cx="58.4998" cy="20.5" r="1.5" fill="#FDFCF5"/>
<circle cx="67.4998" cy="20.5" r="1.5" fill="#FDFCF5"/>
<circle cx="76.4998" cy="20.5" r="1.5" fill="#FDFCF5"/>
<circle cx="85.4998" cy="20.5" r="1.5" fill="#FDFCF5"/>
<circle cx="94.4998" cy="20.5" r="1.5" fill="#FDFCF5"/>
<circle cx="103.5" cy="20.5" r="1.5" fill="#FDFCF5"/>
<circle cx="112.5" cy="20.5" r="1.5" fill="#FDFCF5"/>
<circle cx="13.4998" cy="29.5" r="1.5" fill="#FDFCF5"/>
<circle cx="22.4998" cy="29.5" r="1.5" fill="#FDFCF5"/>
<circle cx="31.4998" cy="29.5" r="1.5" fill="#FDFCF5"/>
<circle cx="40.4998" cy="29.5" r="1.5" fill="#FDFCF5"/>
<circle cx="49.4998" cy="29.5" r="1.5" fill="#FDFCF5"/>
<circle cx="58.4998" cy="29.5" r="1.5" fill="#FDFCF5"/>
<circle cx="67.4998" cy="29.5" r="1.5" fill="#FDFCF5"/>
<circle cx="76.4998" cy="29.5" r="1.5" fill="#FDFCF5"/>
<circle cx="85.4998" cy="29.5" r="1.5" fill="#FDFCF5"/>
<circle cx="94.4998" cy="29.5" r="1.5" fill="#FDFCF5"/>
<circle cx="103.5" cy="29.5" r="1.5" fill="#FDFCF5"/>
<circle cx="112.5" cy="29.5" r="1.5" fill="#FDFCF5"/>
<circle cx="13.4998" cy="38.5" r="1.5" fill="#FDFCF5"/>
<circle cx="22.4998" cy="38.5" r="1.5" fill="#FDFCF5"/>
<circle cx="31.4998" cy="38.5" r="1.5" fill="#FDFCF5"/>
<circle cx="40.4998" cy="38.5" r="1.5" fill="#FDFCF5"/>
<circle cx="49.4998" cy="38.5" r="1.5" fill="#FDFCF5"/>
<circle cx="58.4998" cy="38.5" r="1.5" fill="#FDFCF5"/>
<circle cx="67.4998" cy="38.5" r="1.5" fill="#FDFCF5"/>
<circle cx="76.4998" cy="38.5" r="1.5" fill="#FDFCF5"/>
<circle cx="85.4998" cy="38.5" r="1.5" fill="#FDFCF5"/>
<circle cx="94.4998" cy="38.5" r="1.5" fill="#FDFCF5"/>
<circle cx="103.5" cy="38.5" r="1.5" fill="#FDFCF5"/>
<circle cx="112.5" cy="38.5" r="1.5" fill="#FDFCF5"/>
<circle cx="13.4998" cy="47.5" r="1.5" fill="#FDFCF5"/>
<circle cx="22.4998" cy="47.5" r="1.5" fill="#FDFCF5"/>
<circle cx="31.4998" cy="47.5" r="1.5" fill="#FDFCF5"/>
<circle cx="40.4998" cy="47.5" r="1.5" fill="#FDFCF5"/>
<circle cx="49.4998" cy="47.5" r="1.5" fill="#FDFCF5"/>
<circle cx="58.4998" cy="47.5" r="1.5" fill="#FDFCF5"/>
<circle cx="67.4998" cy="47.5" r="1.5" fill="#FDFCF5"/>
<circle cx="76.4998" cy="47.5" r="1.5" fill="#FDFCF5"/>
<circle cx="85.4998" cy="47.5" r="1.5" fill="#FDFCF5"/>
<circle cx="94.4998" cy="47.5" r="1.5" fill="#FDFCF5"/>
<circle cx="103.5" cy="47.5" r="1.5" fill="#FDFCF5"/>
<circle cx="112.5" cy="47.5" r="1.5" fill="#FDFCF5"/>
<circle cx="13.4998" cy="56.5" r="1.5" fill="#FDFCF5"/>
<circle cx="22.4998" cy="56.5" r="1.5" fill="#FDFCF5"/>
<circle cx="31.4998" cy="56.5" r="1.5" fill="#FDFCF5"/>
<circle cx="40.4998" cy="56.5" r="1.5" fill="#FDFCF5"/>
<circle cx="49.4998" cy="56.5" r="1.5" fill="#FDFCF5"/>
<circle cx="58.4998" cy="56.5" r="1.5" fill="#FDFCF5"/>
<circle cx="67.4998" cy="56.5" r="1.5" fill="#FDFCF5"/>
<circle cx="76.4998" cy="56.5" r="1.5" fill="#FDFCF5"/>
<circle cx="85.4998" cy="56.5" r="1.5" fill="#FDFCF5"/>
<circle cx="94.4998" cy="56.5" r="1.5" fill="#FDFCF5"/>
<circle cx="103.5" cy="56.5" r="1.5" fill="#FDFCF5"/>
<circle cx="112.5" cy="56.5" r="1.5" fill="#FDFCF5"/>
<circle cx="13.4998" cy="65.5" r="1.5" fill="#FDFCF5"/>
<circle cx="22.4998" cy="65.5" r="1.5" fill="#FDFCF5"/>
<circle cx="31.4998" cy="65.5" r="1.5" fill="#FDFCF5"/>
<circle cx="40.4998" cy="65.5" r="1.5" fill="#FDFCF5"/>
<circle cx="49.4998" cy="65.5" r="1.5" fill="#FDFCF5"/>
<circle cx="58.4998" cy="65.5" r="1.5" fill="#FDFCF5"/>
<circle cx="67.4998" cy="65.5" r="1.5" fill="#FDFCF5"/>
<circle cx="76.4998" cy="65.5" r="1.5" fill="#FDFCF5"/>
<circle cx="85.4998" cy="65.5" r="1.5" fill="#FDFCF5"/>
<circle cx="94.4998" cy="65.5" r="1.5" fill="#FDFCF5"/>
<circle cx="103.5" cy="65.5" r="1.5" fill="#FDFCF5"/>
<circle cx="112.5" cy="65.5" r="1.5" fill="#FDFCF5"/>
<circle cx="13.4998" cy="74.5" r="1.5" fill="#FDFCF5"/>
<circle cx="22.4998" cy="74.5" r="1.5" fill="#FDFCF5"/>
<circle cx="31.4998" cy="74.5" r="1.5" fill="#FDFCF5"/>
<circle cx="40.4998" cy="74.5" r="1.5" fill="#FDFCF5"/>
<circle cx="49.4998" cy="74.5" r="1.5" fill="#FDFCF5"/>
<circle cx="58.4998" cy="74.5" r="1.5" fill="#FDFCF5"/>
<circle cx="67.4998" cy="74.5" r="1.5" fill="#FDFCF5"/>
<circle cx="76.4998" cy="74.5" r="1.5" fill="#FDFCF5"/>
<circle cx="85.4998" cy="74.5" r="1.5" fill="#FDFCF5"/>
<circle cx="94.4998" cy="74.5" r="1.5" fill="#FDFCF5"/>
<circle cx="103.5" cy="74.5" r="1.5" fill="#FDFCF5"/>
<circle cx="112.5" cy="74.5" r="1.5" fill="#FDFCF5"/>
<circle cx="13.4998" cy="83.5" r="1.5" fill="#FDFCF5"/>
<circle cx="22.4998" cy="83.5" r="1.5" fill="#FDFCF5"/>
<circle cx="31.4998" cy="83.5" r="1.5" fill="#FDFCF5"/>
<circle cx="40.4998" cy="83.5" r="1.5" fill="#FDFCF5"/>
<circle cx="49.4998" cy="83.5" r="1.5" fill="#FDFCF5"/>
<circle cx="58.4998" cy="83.5" r="1.5" fill="#FDFCF5"/>
<circle cx="67.4998" cy="83.5" r="1.5" fill="#FDFCF5"/>
<circle cx="76.4998" cy="83.5" r="1.5" fill="#FDFCF5"/>
<circle cx="85.4998" cy="83.5" r="1.5" fill="#FDFCF5"/>
<circle cx="94.4998" cy="83.5" r="1.5" fill="#FDFCF5"/>
<circle cx="103.5" cy="83.5" r="1.5" fill="#FDFCF5"/>
<circle cx="112.5" cy="83.5" r="1.5" fill="#FDFCF5"/>
<circle cx="13.4998" cy="92.5" r="1.5" fill="#FDFCF5"/>
<circle cx="22.4998" cy="92.5" r="1.5" fill="#FDFCF5"/>
<circle cx="31.4998" cy="92.5" r="1.5" fill="#FDFCF5"/>
<circle cx="40.4998" cy="92.5" r="1.5" fill="#FDFCF5"/>
<circle cx="49.4998" cy="92.5" r="1.5" fill="#FDFCF5"/>
<circle cx="58.4998" cy="92.5" r="1.5" fill="#FDFCF5"/>
<circle cx="67.4998" cy="92.5" r="1.5" fill="#FDFCF5"/>
<circle cx="76.4998" cy="92.5" r="1.5" fill="#FDFCF5"/>
<circle cx="85.4998" cy="92.5" r="1.5" fill="#FDFCF5"/>
<circle cx="94.4998" cy="92.5" r="1.5" fill="#FDFCF5"/>
<circle cx="103.5" cy="92.5" r="1.5" fill="#FDFCF5"/>
<circle cx="112.5" cy="92.5" r="1.5" fill="#FDFCF5"/>
<circle cx="13.4998" cy="101.5" r="1.5" fill="#FDFCF5"/>
<circle cx="22.4998" cy="101.5" r="1.5" fill="#FDFCF5"/>
<circle cx="31.4998" cy="101.5" r="1.5" fill="#FDFCF5"/>
<circle cx="40.4998" cy="101.5" r="1.5" fill="#FDFCF5"/>
<circle cx="49.4998" cy="101.5" r="1.5" fill="#FDFCF5"/>
<circle cx="58.4998" cy="101.5" r="1.5" fill="#FDFCF5"/>
<circle cx="67.4998" cy="101.5" r="1.5" fill="#FDFCF5"/>
<circle cx="76.4998" cy="101.5" r="1.5" fill="#FDFCF5"/>
<circle cx="85.4998" cy="101.5" r="1.5" fill="#FDFCF5"/>
<circle cx="94.4998" cy="101.5" r="1.5" fill="#FDFCF5"/>
<circle cx="103.5" cy="101.5" r="1.5" fill="#FDFCF5"/>
<circle cx="112.5" cy="101.5" r="1.5" fill="#FDFCF5"/>
<circle cx="13.4998" cy="110.5" r="1.5" fill="#FDFCF5"/>
<circle cx="22.4998" cy="110.5" r="1.5" fill="#FDFCF5"/>
<circle cx="31.4998" cy="110.5" r="1.5" fill="#FDFCF5"/>
<circle cx="40.4998" cy="110.5" r="1.5" fill="#FDFCF5"/>
<circle cx="49.4998" cy="110.5" r="1.5" fill="#FDFCF5"/>
<circle cx="58.4998" cy="110.5" r="1.5" fill="#FDFCF5"/>
<circle cx="67.4998" cy="110.5" r="1.5" fill="#FDFCF5"/>
<circle cx="76.4998" cy="110.5" r="1.5" fill="#FDFCF5"/>
<circle cx="85.4998" cy="110.5" r="1.5" fill="#FDFCF5"/>
<circle cx="94.4998" cy="110.5" r="1.5" fill="#FDFCF5"/>
<circle cx="103.5" cy="110.5" r="1.5" fill="#FDFCF5"/>
<circle cx="112.5" cy="110.5" r="1.5" fill="#FDFCF5"/>
<circle cx="13.4998" cy="119.5" r="1.5" fill="#FDFCF5"/>
<circle cx="22.4998" cy="119.5" r="1.5" fill="#FDFCF5"/>
<circle cx="31.4998" cy="119.5" r="1.5" fill="#FDFCF5"/>
<circle cx="40.4998" cy="119.5" r="1.5" fill="#FDFCF5"/>
<circle cx="49.4998" cy="119.5" r="1.5" fill="#FDFCF5"/>
<circle cx="58.4998" cy="119.5" r="1.5" fill="#FDFCF5"/>
<circle cx="67.4998" cy="119.5" r="1.5" fill="#FDFCF5"/>
<circle cx="76.4998" cy="119.5" r="1.5" fill="#FDFCF5"/>
<circle cx="85.4998" cy="119.5" r="1.5" fill="#FDFCF5"/>
<circle cx="94.4998" cy="119.5" r="1.5" fill="#FDFCF5"/>
<circle cx="103.5" cy="119.5" r="1.5" fill="#FDFCF5"/>
<circle cx="112.5" cy="119.5" r="1.5" fill="#FDFCF5"/>
</g>
<defs>
<clipPath id="clip0_35_136">
<rect width="104" height="120" fill="white" transform="translate(11.9998 1)"/>
</clipPath>
</defs>
</svg>
