<svg width="128" height="128" viewBox="0 0 128 128" fill="none" xmlns="http://www.w3.org/2000/svg">
<path d="M12.0002 1L21.5065 108.661L64.1942 120.624L106.866 108.669L116.389 1H12.0002Z" fill="#FF5722"/>
<path d="M95.7706 36.2067H45.7393L46.9326 49.7312H94.5786L90.9916 90.2837L64.1946 97.7827L64.1711 97.791L37.3888 90.2837L35.5176 69.073H48.6401L49.6176 80.078L64.1791 84.0482L64.1948 84.0415L78.7721 80.0712L80.2926 62.9432H34.9808L31.4451 23.0115H96.9351L95.7706 36.2067Z" fill="#FCFCFC"/>
<g clip-path="url(#clip0_35_127)">
<circle cx="13.4998" cy="2.5" r="1.5" fill="#FDFCF5"/>
<circle cx="22.4998" cy="2.5" r="1.5" fill="#FDFCF5"/>
<circle cx="31.4998" cy="2.5" r="1.5" fill="#FDFCF5"/>
<circle cx="40.4998" cy="2.5" r="1.5" fill="#FDFCF5"/>
<circle cx="49.4998" cy="2.5" r="1.5" fill="#FDFCF5"/>
<circle cx="58.4998" cy="2.5" r="1.5" fill="#FDFCF5"/>
<circle cx="67.4998" cy="2.5" r="1.5" fill="#FDFCF5"/>
<circle cx="76.4998" cy="2.5" r="1.5" fill="#FDFCF5"/>
<circle cx="85.4998" cy="2.5" r="1.5" fill="#FDFCF5"/>
<circle cx="94.4998" cy="2.5" r="1.5" fill="#FDFCF5"/>
<circle cx="103.5" cy="2.5" r="1.5" fill="#FDFCF5"/>
<circle cx="112.5" cy="2.5" r="1.5" fill="#FDFCF5"/>
<circle cx="13.4998" cy="11.5" r="1.5" fill="#FDFCF5"/>
<circle cx="22.4998" cy="11.5" r="1.5" fill="#FDFCF5"/>
<circle cx="31.4998" cy="11.5" r="1.5" fill="#FDFCF5"/>
<circle cx="40.4998" cy="11.5" r="1.5" fill="#FDFCF5"/>
<circle cx="49.4998" cy="11.5" r="1.5" fill="#FDFCF5"/>
<circle cx="58.4998" cy="11.5" r="1.5" fill="#FDFCF5"/>
<circle cx="67.4998" cy="11.5" r="1.5" fill="#FDFCF5"/>
<circle cx="76.4998" cy="11.5" r="1.5" fill="#FDFCF5"/>
<circle cx="85.4998" cy="11.5" r="1.5" fill="#FDFCF5"/>
<circle cx="94.4998" cy="11.5" r="1.5" fill="#FDFCF5"/>
<circle cx="103.5" cy="11.5" r="1.5" fill="#FDFCF5"/>
<circle cx="112.5" cy="11.5" r="1.5" fill="#FDFCF5"/>
<circle cx="13.4998" cy="20.5" r="1.5" fill="#FDFCF5"/>
<circle cx="22.4998" cy="20.5" r="1.5" fill="#FDFCF5"/>
<circle cx="31.4998" cy="20.5" r="1.5" fill="#FDFCF5"/>
<circle cx="40.4998" cy="20.5" r="1.5" fill="#FDFCF5"/>
<circle cx="49.4998" cy="20.5" r="1.5" fill="#FDFCF5"/>
<circle cx="58.4998" cy="20.5" r="1.5" fill="#FDFCF5"/>
<circle cx="67.4998" cy="20.5" r="1.5" fill="#FDFCF5"/>
<circle cx="76.4998" cy="20.5" r="1.5" fill="#FDFCF5"/>
<circle cx="85.4998" cy="20.5" r="1.5" fill="#FDFCF5"/>
<circle cx="94.4998" cy="20.5" r="1.5" fill="#FDFCF5"/>
<circle cx="103.5" cy="20.5" r="1.5" fill="#FDFCF5"/>
<circle cx="112.5" cy="20.5" r="1.5" fill="#FDFCF5"/>
<circle cx="13.4998" cy="29.5" r="1.5" fill="#FDFCF5"/>
<circle cx="22.4998" cy="29.5" r="1.5" fill="#FDFCF5"/>
<circle cx="31.4998" cy="29.5" r="1.5" fill="#FDFCF5"/>
<circle cx="40.4998" cy="29.5" r="1.5" fill="#FDFCF5"/>
<circle cx="49.4998" cy="29.5" r="1.5" fill="#FDFCF5"/>
<circle cx="58.4998" cy="29.5" r="1.5" fill="#FDFCF5"/>
<circle cx="67.4998" cy="29.5" r="1.5" fill="#FDFCF5"/>
<circle cx="76.4998" cy="29.5" r="1.5" fill="#FDFCF5"/>
<circle cx="85.4998" cy="29.5" r="1.5" fill="#FDFCF5"/>
<circle cx="94.4998" cy="29.5" r="1.5" fill="#FDFCF5"/>
<circle cx="103.5" cy="29.5" r="1.5" fill="#FDFCF5"/>
<circle cx="112.5" cy="29.5" r="1.5" fill="#FDFCF5"/>
<circle cx="13.4998" cy="38.5" r="1.5" fill="#FDFCF5"/>
<circle cx="22.4998" cy="38.5" r="1.5" fill="#FDFCF5"/>
<circle cx="31.4998" cy="38.5" r="1.5" fill="#FDFCF5"/>
<circle cx="40.4998" cy="38.5" r="1.5" fill="#FDFCF5"/>
<circle cx="49.4998" cy="38.5" r="1.5" fill="#FDFCF5"/>
<circle cx="58.4998" cy="38.5" r="1.5" fill="#FDFCF5"/>
<circle cx="67.4998" cy="38.5" r="1.5" fill="#FDFCF5"/>
<circle cx="76.4998" cy="38.5" r="1.5" fill="#FDFCF5"/>
<circle cx="85.4998" cy="38.5" r="1.5" fill="#FDFCF5"/>
<circle cx="94.4998" cy="38.5" r="1.5" fill="#FDFCF5"/>
<circle cx="103.5" cy="38.5" r="1.5" fill="#FDFCF5"/>
<circle cx="112.5" cy="38.5" r="1.5" fill="#FDFCF5"/>
<circle cx="13.4998" cy="47.5" r="1.5" fill="#FDFCF5"/>
<circle cx="22.4998" cy="47.5" r="1.5" fill="#FDFCF5"/>
<circle cx="31.4998" cy="47.5" r="1.5" fill="#FDFCF5"/>
<circle cx="40.4998" cy="47.5" r="1.5" fill="#FDFCF5"/>
<circle cx="49.4998" cy="47.5" r="1.5" fill="#FDFCF5"/>
<circle cx="58.4998" cy="47.5" r="1.5" fill="#FDFCF5"/>
<circle cx="67.4998" cy="47.5" r="1.5" fill="#FDFCF5"/>
<circle cx="76.4998" cy="47.5" r="1.5" fill="#FDFCF5"/>
<circle cx="85.4998" cy="47.5" r="1.5" fill="#FDFCF5"/>
<circle cx="94.4998" cy="47.5" r="1.5" fill="#FDFCF5"/>
<circle cx="103.5" cy="47.5" r="1.5" fill="#FDFCF5"/>
<circle cx="112.5" cy="47.5" r="1.5" fill="#FDFCF5"/>
<circle cx="13.4998" cy="56.5" r="1.5" fill="#FDFCF5"/>
<circle cx="22.4998" cy="56.5" r="1.5" fill="#FDFCF5"/>
<circle cx="31.4998" cy="56.5" r="1.5" fill="#FDFCF5"/>
<circle cx="40.4998" cy="56.5" r="1.5" fill="#FDFCF5"/>
<circle cx="49.4998" cy="56.5" r="1.5" fill="#FDFCF5"/>
<circle cx="58.4998" cy="56.5" r="1.5" fill="#FDFCF5"/>
<circle cx="67.4998" cy="56.5" r="1.5" fill="#FDFCF5"/>
<circle cx="76.4998" cy="56.5" r="1.5" fill="#FDFCF5"/>
<circle cx="85.4998" cy="56.5" r="1.5" fill="#FDFCF5"/>
<circle cx="94.4998" cy="56.5" r="1.5" fill="#FDFCF5"/>
<circle cx="103.5" cy="56.5" r="1.5" fill="#FDFCF5"/>
<circle cx="112.5" cy="56.5" r="1.5" fill="#FDFCF5"/>
<circle cx="13.4998" cy="65.5" r="1.5" fill="#FDFCF5"/>
<circle cx="22.4998" cy="65.5" r="1.5" fill="#FDFCF5"/>
<circle cx="31.4998" cy="65.5" r="1.5" fill="#FDFCF5"/>
<circle cx="40.4998" cy="65.5" r="1.5" fill="#FDFCF5"/>
<circle cx="49.4998" cy="65.5" r="1.5" fill="#FDFCF5"/>
<circle cx="58.4998" cy="65.5" r="1.5" fill="#FDFCF5"/>
<circle cx="67.4998" cy="65.5" r="1.5" fill="#FDFCF5"/>
<circle cx="76.4998" cy="65.5" r="1.5" fill="#FDFCF5"/>
<circle cx="85.4998" cy="65.5" r="1.5" fill="#FDFCF5"/>
<circle cx="94.4998" cy="65.5" r="1.5" fill="#FDFCF5"/>
<circle cx="103.5" cy="65.5" r="1.5" fill="#FDFCF5"/>
<circle cx="112.5" cy="65.5" r="1.5" fill="#FDFCF5"/>
<circle cx="13.4998" cy="74.5" r="1.5" fill="#FDFCF5"/>
<circle cx="22.4998" cy="74.5" r="1.5" fill="#FDFCF5"/>
<circle cx="31.4998" cy="74.5" r="1.5" fill="#FDFCF5"/>
<circle cx="40.4998" cy="74.5" r="1.5" fill="#FDFCF5"/>
<circle cx="49.4998" cy="74.5" r="1.5" fill="#FDFCF5"/>
<circle cx="58.4998" cy="74.5" r="1.5" fill="#FDFCF5"/>
<circle cx="67.4998" cy="74.5" r="1.5" fill="#FDFCF5"/>
<circle cx="76.4998" cy="74.5" r="1.5" fill="#FDFCF5"/>
<circle cx="85.4998" cy="74.5" r="1.5" fill="#FDFCF5"/>
<circle cx="94.4998" cy="74.5" r="1.5" fill="#FDFCF5"/>
<circle cx="103.5" cy="74.5" r="1.5" fill="#FDFCF5"/>
<circle cx="112.5" cy="74.5" r="1.5" fill="#FDFCF5"/>
<circle cx="13.4998" cy="83.5" r="1.5" fill="#FDFCF5"/>
<circle cx="22.4998" cy="83.5" r="1.5" fill="#FDFCF5"/>
<circle cx="31.4998" cy="83.5" r="1.5" fill="#FDFCF5"/>
<circle cx="40.4998" cy="83.5" r="1.5" fill="#FDFCF5"/>
<circle cx="49.4998" cy="83.5" r="1.5" fill="#FDFCF5"/>
<circle cx="58.4998" cy="83.5" r="1.5" fill="#FDFCF5"/>
<circle cx="67.4998" cy="83.5" r="1.5" fill="#FDFCF5"/>
<circle cx="76.4998" cy="83.5" r="1.5" fill="#FDFCF5"/>
<circle cx="85.4998" cy="83.5" r="1.5" fill="#FDFCF5"/>
<circle cx="94.4998" cy="83.5" r="1.5" fill="#FDFCF5"/>
<circle cx="103.5" cy="83.5" r="1.5" fill="#FDFCF5"/>
<circle cx="112.5" cy="83.5" r="1.5" fill="#FDFCF5"/>
<circle cx="13.4998" cy="92.5" r="1.5" fill="#FDFCF5"/>
<circle cx="22.4998" cy="92.5" r="1.5" fill="#FDFCF5"/>
<circle cx="31.4998" cy="92.5" r="1.5" fill="#FDFCF5"/>
<circle cx="40.4998" cy="92.5" r="1.5" fill="#FDFCF5"/>
<circle cx="49.4998" cy="92.5" r="1.5" fill="#FDFCF5"/>
<circle cx="58.4998" cy="92.5" r="1.5" fill="#FDFCF5"/>
<circle cx="67.4998" cy="92.5" r="1.5" fill="#FDFCF5"/>
<circle cx="76.4998" cy="92.5" r="1.5" fill="#FDFCF5"/>
<circle cx="85.4998" cy="92.5" r="1.5" fill="#FDFCF5"/>
<circle cx="94.4998" cy="92.5" r="1.5" fill="#FDFCF5"/>
<circle cx="103.5" cy="92.5" r="1.5" fill="#FDFCF5"/>
<circle cx="112.5" cy="92.5" r="1.5" fill="#FDFCF5"/>
<circle cx="13.4998" cy="101.5" r="1.5" fill="#FDFCF5"/>
<circle cx="22.4998" cy="101.5" r="1.5" fill="#FDFCF5"/>
<circle cx="31.4998" cy="101.5" r="1.5" fill="#FDFCF5"/>
<circle cx="40.4998" cy="101.5" r="1.5" fill="#FDFCF5"/>
<circle cx="49.4998" cy="101.5" r="1.5" fill="#FDFCF5"/>
<circle cx="58.4998" cy="101.5" r="1.5" fill="#FDFCF5"/>
<circle cx="67.4998" cy="101.5" r="1.5" fill="#FDFCF5"/>
<circle cx="76.4998" cy="101.5" r="1.5" fill="#FDFCF5"/>
<circle cx="85.4998" cy="101.5" r="1.5" fill="#FDFCF5"/>
<circle cx="94.4998" cy="101.5" r="1.5" fill="#FDFCF5"/>
<circle cx="103.5" cy="101.5" r="1.5" fill="#FDFCF5"/>
<circle cx="112.5" cy="101.5" r="1.5" fill="#FDFCF5"/>
<circle cx="13.4998" cy="110.5" r="1.5" fill="#FDFCF5"/>
<circle cx="22.4998" cy="110.5" r="1.5" fill="#FDFCF5"/>
<circle cx="31.4998" cy="110.5" r="1.5" fill="#FDFCF5"/>
<circle cx="40.4998" cy="110.5" r="1.5" fill="#FDFCF5"/>
<circle cx="49.4998" cy="110.5" r="1.5" fill="#FDFCF5"/>
<circle cx="58.4998" cy="110.5" r="1.5" fill="#FDFCF5"/>
<circle cx="67.4998" cy="110.5" r="1.5" fill="#FDFCF5"/>
<circle cx="76.4998" cy="110.5" r="1.5" fill="#FDFCF5"/>
<circle cx="85.4998" cy="110.5" r="1.5" fill="#FDFCF5"/>
<circle cx="94.4998" cy="110.5" r="1.5" fill="#FDFCF5"/>
<circle cx="103.5" cy="110.5" r="1.5" fill="#FDFCF5"/>
<circle cx="112.5" cy="110.5" r="1.5" fill="#FDFCF5"/>
<circle cx="13.4998" cy="119.5" r="1.5" fill="#FDFCF5"/>
<circle cx="22.4998" cy="119.5" r="1.5" fill="#FDFCF5"/>
<circle cx="31.4998" cy="119.5" r="1.5" fill="#FDFCF5"/>
<circle cx="40.4998" cy="119.5" r="1.5" fill="#FDFCF5"/>
<circle cx="49.4998" cy="119.5" r="1.5" fill="#FDFCF5"/>
<circle cx="58.4998" cy="119.5" r="1.5" fill="#FDFCF5"/>
<circle cx="67.4998" cy="119.5" r="1.5" fill="#FDFCF5"/>
<circle cx="76.4998" cy="119.5" r="1.5" fill="#FDFCF5"/>
<circle cx="85.4998" cy="119.5" r="1.5" fill="#FDFCF5"/>
<circle cx="94.4998" cy="119.5" r="1.5" fill="#FDFCF5"/>
<circle cx="103.5" cy="119.5" r="1.5" fill="#FDFCF5"/>
<circle cx="112.5" cy="119.5" r="1.5" fill="#FDFCF5"/>
</g>
<defs>
<clipPath id="clip0_35_127">
<rect width="104" height="120" fill="white" transform="translate(11.9998 1)"/>
</clipPath>
</defs>
</svg>
