<svg width="128" height="128" viewBox="0 0 128 128" fill="none" xmlns="http://www.w3.org/2000/svg">
<g clip-path="url(#clip0_35_145)">
<path d="M108.8 0H19.2C8.59613 0 0 8.59613 0 19.2V108.8C0 119.404 8.59613 128 19.2 128H108.8C119.404 128 128 119.404 128 108.8V19.2C128 8.59613 119.404 0 108.8 0Z" fill="#F7DF1E"/>
<path d="M81 92.5C83.5 96.75 87 99.75 92.75 99.75C97.75 99.75 101 97.25 101 93.75C101 89.75 97.75 88.25 92.25 85.75L89.25 84.5C80.5 80.75 74.75 76.25 74.75 66.5C74.75 57.5 81.5 50.5 92.25 50.5C100 50.5 105.5 53.25 109.25 60.25L100 66.25C98 62.5 95.75 61 92.25 61C88.75 61 86.5 63.25 86.5 66.25C86.5 69.75 88.75 71.25 94 73.5L97 74.75C107.25 79.25 113 83.5 113 93.75C113 104.5 104.5 110.5 93 110.5C81.75 110.5 74.5 105.25 71 98.25L81 92.5ZM38.5 93.5C40.5 96.75 42 99.75 46.25 99.75C50.25 99.75 52.75 98.25 52.75 92.25V50.75H64.75V91.75C64.75 104.25 57.5 109.75 46.75 109.75C37 109.75 31.5 104.75 28.75 98.75L38.5 93.5Z" fill="black"/>
<g clip-path="url(#clip1_35_145)">
<circle cx="1.49976" cy="1.5" r="1.5" fill="#FDFCF5"/>
<circle cx="10.4998" cy="1.5" r="1.5" fill="#FDFCF5"/>
<circle cx="19.4998" cy="1.5" r="1.5" fill="#FDFCF5"/>
<circle cx="28.4998" cy="1.5" r="1.5" fill="#FDFCF5"/>
<circle cx="37.4998" cy="1.5" r="1.5" fill="#FDFCF5"/>
<circle cx="46.4998" cy="1.5" r="1.5" fill="#FDFCF5"/>
<circle cx="55.4998" cy="1.5" r="1.5" fill="#FDFCF5"/>
<circle cx="64.4998" cy="1.5" r="1.5" fill="#FDFCF5"/>
<circle cx="73.4998" cy="1.5" r="1.5" fill="#FDFCF5"/>
<circle cx="82.4998" cy="1.5" r="1.5" fill="#FDFCF5"/>
<circle cx="91.4998" cy="1.5" r="1.5" fill="#FDFCF5"/>
<circle cx="100.5" cy="1.5" r="1.5" fill="#FDFCF5"/>
<circle cx="109.5" cy="1.5" r="1.5" fill="#FDFCF5"/>
<circle cx="118.5" cy="1.5" r="1.5" fill="#FDFCF5"/>
<circle cx="127.5" cy="1.5" r="1.5" fill="#FDFCF5"/>
<circle cx="1.49976" cy="10.5" r="1.5" fill="#FDFCF5"/>
<circle cx="10.4998" cy="10.5" r="1.5" fill="#FDFCF5"/>
<circle cx="19.4998" cy="10.5" r="1.5" fill="#FDFCF5"/>
<circle cx="28.4998" cy="10.5" r="1.5" fill="#FDFCF5"/>
<circle cx="37.4998" cy="10.5" r="1.5" fill="#FDFCF5"/>
<circle cx="46.4998" cy="10.5" r="1.5" fill="#FDFCF5"/>
<circle cx="55.4998" cy="10.5" r="1.5" fill="#FDFCF5"/>
<circle cx="64.4998" cy="10.5" r="1.5" fill="#FDFCF5"/>
<circle cx="73.4998" cy="10.5" r="1.5" fill="#FDFCF5"/>
<circle cx="82.4998" cy="10.5" r="1.5" fill="#FDFCF5"/>
<circle cx="91.4998" cy="10.5" r="1.5" fill="#FDFCF5"/>
<circle cx="100.5" cy="10.5" r="1.5" fill="#FDFCF5"/>
<circle cx="109.5" cy="10.5" r="1.5" fill="#FDFCF5"/>
<circle cx="118.5" cy="10.5" r="1.5" fill="#FDFCF5"/>
<circle cx="127.5" cy="10.5" r="1.5" fill="#FDFCF5"/>
<circle cx="1.49976" cy="19.5" r="1.5" fill="#FDFCF5"/>
<circle cx="10.4998" cy="19.5" r="1.5" fill="#FDFCF5"/>
<circle cx="19.4998" cy="19.5" r="1.5" fill="#FDFCF5"/>
<circle cx="28.4998" cy="19.5" r="1.5" fill="#FDFCF5"/>
<circle cx="37.4998" cy="19.5" r="1.5" fill="#FDFCF5"/>
<circle cx="46.4998" cy="19.5" r="1.5" fill="#FDFCF5"/>
<circle cx="55.4998" cy="19.5" r="1.5" fill="#FDFCF5"/>
<circle cx="64.4998" cy="19.5" r="1.5" fill="#FDFCF5"/>
<circle cx="73.4998" cy="19.5" r="1.5" fill="#FDFCF5"/>
<circle cx="82.4998" cy="19.5" r="1.5" fill="#FDFCF5"/>
<circle cx="91.4998" cy="19.5" r="1.5" fill="#FDFCF5"/>
<circle cx="100.5" cy="19.5" r="1.5" fill="#FDFCF5"/>
<circle cx="109.5" cy="19.5" r="1.5" fill="#FDFCF5"/>
<circle cx="118.5" cy="19.5" r="1.5" fill="#FDFCF5"/>
<circle cx="127.5" cy="19.5" r="1.5" fill="#FDFCF5"/>
<circle cx="1.49976" cy="28.5" r="1.5" fill="#FDFCF5"/>
<circle cx="10.4998" cy="28.5" r="1.5" fill="#FDFCF5"/>
<circle cx="19.4998" cy="28.5" r="1.5" fill="#FDFCF5"/>
<circle cx="28.4998" cy="28.5" r="1.5" fill="#FDFCF5"/>
<circle cx="37.4998" cy="28.5" r="1.5" fill="#FDFCF5"/>
<circle cx="46.4998" cy="28.5" r="1.5" fill="#FDFCF5"/>
<circle cx="55.4998" cy="28.5" r="1.5" fill="#FDFCF5"/>
<circle cx="64.4998" cy="28.5" r="1.5" fill="#FDFCF5"/>
<circle cx="73.4998" cy="28.5" r="1.5" fill="#FDFCF5"/>
<circle cx="82.4998" cy="28.5" r="1.5" fill="#FDFCF5"/>
<circle cx="91.4998" cy="28.5" r="1.5" fill="#FDFCF5"/>
<circle cx="100.5" cy="28.5" r="1.5" fill="#FDFCF5"/>
<circle cx="109.5" cy="28.5" r="1.5" fill="#FDFCF5"/>
<circle cx="118.5" cy="28.5" r="1.5" fill="#FDFCF5"/>
<circle cx="127.5" cy="28.5" r="1.5" fill="#FDFCF5"/>
<circle cx="1.49976" cy="37.5" r="1.5" fill="#FDFCF5"/>
<circle cx="10.4998" cy="37.5" r="1.5" fill="#FDFCF5"/>
<circle cx="19.4998" cy="37.5" r="1.5" fill="#FDFCF5"/>
<circle cx="28.4998" cy="37.5" r="1.5" fill="#FDFCF5"/>
<circle cx="37.4998" cy="37.5" r="1.5" fill="#FDFCF5"/>
<circle cx="46.4998" cy="37.5" r="1.5" fill="#FDFCF5"/>
<circle cx="55.4998" cy="37.5" r="1.5" fill="#FDFCF5"/>
<circle cx="64.4998" cy="37.5" r="1.5" fill="#FDFCF5"/>
<circle cx="73.4998" cy="37.5" r="1.5" fill="#FDFCF5"/>
<circle cx="82.4998" cy="37.5" r="1.5" fill="#FDFCF5"/>
<circle cx="91.4998" cy="37.5" r="1.5" fill="#FDFCF5"/>
<circle cx="100.5" cy="37.5" r="1.5" fill="#FDFCF5"/>
<circle cx="109.5" cy="37.5" r="1.5" fill="#FDFCF5"/>
<circle cx="118.5" cy="37.5" r="1.5" fill="#FDFCF5"/>
<circle cx="127.5" cy="37.5" r="1.5" fill="#FDFCF5"/>
<circle cx="1.49976" cy="46.5" r="1.5" fill="#FDFCF5"/>
<circle cx="10.4998" cy="46.5" r="1.5" fill="#FDFCF5"/>
<circle cx="19.4998" cy="46.5" r="1.5" fill="#FDFCF5"/>
<circle cx="28.4998" cy="46.5" r="1.5" fill="#FDFCF5"/>
<circle cx="37.4998" cy="46.5" r="1.5" fill="#FDFCF5"/>
<circle cx="46.4998" cy="46.5" r="1.5" fill="#FDFCF5"/>
<circle cx="55.4998" cy="46.5" r="1.5" fill="#FDFCF5"/>
<circle cx="64.4998" cy="46.5" r="1.5" fill="#FDFCF5"/>
<circle cx="73.4998" cy="46.5" r="1.5" fill="#FDFCF5"/>
<circle cx="82.4998" cy="46.5" r="1.5" fill="#FDFCF5"/>
<circle cx="91.4998" cy="46.5" r="1.5" fill="#FDFCF5"/>
<circle cx="100.5" cy="46.5" r="1.5" fill="#FDFCF5"/>
<circle cx="109.5" cy="46.5" r="1.5" fill="#FDFCF5"/>
<circle cx="118.5" cy="46.5" r="1.5" fill="#FDFCF5"/>
<circle cx="127.5" cy="46.5" r="1.5" fill="#FDFCF5"/>
<circle cx="1.49976" cy="55.5" r="1.5" fill="#FDFCF5"/>
<circle cx="10.4998" cy="55.5" r="1.5" fill="#FDFCF5"/>
<circle cx="19.4998" cy="55.5" r="1.5" fill="#FDFCF5"/>
<circle cx="28.4998" cy="55.5" r="1.5" fill="#FDFCF5"/>
<circle cx="37.4998" cy="55.5" r="1.5" fill="#FDFCF5"/>
<circle cx="46.4998" cy="55.5" r="1.5" fill="#FDFCF5"/>
<circle cx="55.4998" cy="55.5" r="1.5" fill="#FDFCF5"/>
<circle cx="64.4998" cy="55.5" r="1.5" fill="#FDFCF5"/>
<circle cx="73.4998" cy="55.5" r="1.5" fill="#FDFCF5"/>
<circle cx="82.4998" cy="55.5" r="1.5" fill="#FDFCF5"/>
<circle cx="91.4998" cy="55.5" r="1.5" fill="#FDFCF5"/>
<circle cx="100.5" cy="55.5" r="1.5" fill="#FDFCF5"/>
<circle cx="109.5" cy="55.5" r="1.5" fill="#FDFCF5"/>
<circle cx="118.5" cy="55.5" r="1.5" fill="#FDFCF5"/>
<circle cx="127.5" cy="55.5" r="1.5" fill="#FDFCF5"/>
<circle cx="1.49976" cy="64.5" r="1.5" fill="#FDFCF5"/>
<circle cx="10.4998" cy="64.5" r="1.5" fill="#FDFCF5"/>
<circle cx="19.4998" cy="64.5" r="1.5" fill="#FDFCF5"/>
<circle cx="28.4998" cy="64.5" r="1.5" fill="#FDFCF5"/>
<circle cx="37.4998" cy="64.5" r="1.5" fill="#FDFCF5"/>
<circle cx="46.4998" cy="64.5" r="1.5" fill="#FDFCF5"/>
<circle cx="55.4998" cy="64.5" r="1.5" fill="#FDFCF5"/>
<circle cx="64.4998" cy="64.5" r="1.5" fill="#FDFCF5"/>
<circle cx="73.4998" cy="64.5" r="1.5" fill="#FDFCF5"/>
<circle cx="82.4998" cy="64.5" r="1.5" fill="#FDFCF5"/>
<circle cx="91.4998" cy="64.5" r="1.5" fill="#FDFCF5"/>
<circle cx="100.5" cy="64.5" r="1.5" fill="#FDFCF5"/>
<circle cx="109.5" cy="64.5" r="1.5" fill="#FDFCF5"/>
<circle cx="118.5" cy="64.5" r="1.5" fill="#FDFCF5"/>
<circle cx="127.5" cy="64.5" r="1.5" fill="#FDFCF5"/>
<circle cx="1.49976" cy="73.5" r="1.5" fill="#FDFCF5"/>
<circle cx="10.4998" cy="73.5" r="1.5" fill="#FDFCF5"/>
<circle cx="19.4998" cy="73.5" r="1.5" fill="#FDFCF5"/>
<circle cx="28.4998" cy="73.5" r="1.5" fill="#FDFCF5"/>
<circle cx="37.4998" cy="73.5" r="1.5" fill="#FDFCF5"/>
<circle cx="46.4998" cy="73.5" r="1.5" fill="#FDFCF5"/>
<circle cx="55.4998" cy="73.5" r="1.5" fill="#FDFCF5"/>
<circle cx="64.4998" cy="73.5" r="1.5" fill="#FDFCF5"/>
<circle cx="73.4998" cy="73.5" r="1.5" fill="#FDFCF5"/>
<circle cx="82.4998" cy="73.5" r="1.5" fill="#FDFCF5"/>
<circle cx="91.4998" cy="73.5" r="1.5" fill="#FDFCF5"/>
<circle cx="100.5" cy="73.5" r="1.5" fill="#FDFCF5"/>
<circle cx="109.5" cy="73.5" r="1.5" fill="#FDFCF5"/>
<circle cx="118.5" cy="73.5" r="1.5" fill="#FDFCF5"/>
<circle cx="127.5" cy="73.5" r="1.5" fill="#FDFCF5"/>
<circle cx="1.49976" cy="82.5" r="1.5" fill="#FDFCF5"/>
<circle cx="10.4998" cy="82.5" r="1.5" fill="#FDFCF5"/>
<circle cx="19.4998" cy="82.5" r="1.5" fill="#FDFCF5"/>
<circle cx="28.4998" cy="82.5" r="1.5" fill="#FDFCF5"/>
<circle cx="37.4998" cy="82.5" r="1.5" fill="#FDFCF5"/>
<circle cx="46.4998" cy="82.5" r="1.5" fill="#FDFCF5"/>
<circle cx="55.4998" cy="82.5" r="1.5" fill="#FDFCF5"/>
<circle cx="64.4998" cy="82.5" r="1.5" fill="#FDFCF5"/>
<circle cx="73.4998" cy="82.5" r="1.5" fill="#FDFCF5"/>
<circle cx="82.4998" cy="82.5" r="1.5" fill="#FDFCF5"/>
<circle cx="91.4998" cy="82.5" r="1.5" fill="#FDFCF5"/>
<circle cx="100.5" cy="82.5" r="1.5" fill="#FDFCF5"/>
<circle cx="109.5" cy="82.5" r="1.5" fill="#FDFCF5"/>
<circle cx="118.5" cy="82.5" r="1.5" fill="#FDFCF5"/>
<circle cx="127.5" cy="82.5" r="1.5" fill="#FDFCF5"/>
<circle cx="1.49976" cy="91.5" r="1.5" fill="#FDFCF5"/>
<circle cx="10.4998" cy="91.5" r="1.5" fill="#FDFCF5"/>
<circle cx="19.4998" cy="91.5" r="1.5" fill="#FDFCF5"/>
<circle cx="28.4998" cy="91.5" r="1.5" fill="#FDFCF5"/>
<circle cx="37.4998" cy="91.5" r="1.5" fill="#FDFCF5"/>
<circle cx="46.4998" cy="91.5" r="1.5" fill="#FDFCF5"/>
<circle cx="55.4998" cy="91.5" r="1.5" fill="#FDFCF5"/>
<circle cx="64.4998" cy="91.5" r="1.5" fill="#FDFCF5"/>
<circle cx="73.4998" cy="91.5" r="1.5" fill="#FDFCF5"/>
<circle cx="82.4998" cy="91.5" r="1.5" fill="#FDFCF5"/>
<circle cx="91.4998" cy="91.5" r="1.5" fill="#FDFCF5"/>
<circle cx="100.5" cy="91.5" r="1.5" fill="#FDFCF5"/>
<circle cx="109.5" cy="91.5" r="1.5" fill="#FDFCF5"/>
<circle cx="118.5" cy="91.5" r="1.5" fill="#FDFCF5"/>
<circle cx="127.5" cy="91.5" r="1.5" fill="#FDFCF5"/>
<circle cx="1.49976" cy="100.5" r="1.5" fill="#FDFCF5"/>
<circle cx="10.4998" cy="100.5" r="1.5" fill="#FDFCF5"/>
<circle cx="19.4998" cy="100.5" r="1.5" fill="#FDFCF5"/>
<circle cx="28.4998" cy="100.5" r="1.5" fill="#FDFCF5"/>
<circle cx="37.4998" cy="100.5" r="1.5" fill="#FDFCF5"/>
<circle cx="46.4998" cy="100.5" r="1.5" fill="#FDFCF5"/>
<circle cx="55.4998" cy="100.5" r="1.5" fill="#FDFCF5"/>
<circle cx="64.4998" cy="100.5" r="1.5" fill="#FDFCF5"/>
<circle cx="73.4998" cy="100.5" r="1.5" fill="#FDFCF5"/>
<circle cx="82.4998" cy="100.5" r="1.5" fill="#FDFCF5"/>
<circle cx="91.4998" cy="100.5" r="1.5" fill="#FDFCF5"/>
<circle cx="100.5" cy="100.5" r="1.5" fill="#FDFCF5"/>
<circle cx="109.5" cy="100.5" r="1.5" fill="#FDFCF5"/>
<circle cx="118.5" cy="100.5" r="1.5" fill="#FDFCF5"/>
<circle cx="127.5" cy="100.5" r="1.5" fill="#FDFCF5"/>
<circle cx="1.49976" cy="109.5" r="1.5" fill="#FDFCF5"/>
<circle cx="10.4998" cy="109.5" r="1.5" fill="#FDFCF5"/>
<circle cx="19.4998" cy="109.5" r="1.5" fill="#FDFCF5"/>
<circle cx="28.4998" cy="109.5" r="1.5" fill="#FDFCF5"/>
<circle cx="37.4998" cy="109.5" r="1.5" fill="#FDFCF5"/>
<circle cx="46.4998" cy="109.5" r="1.5" fill="#FDFCF5"/>
<circle cx="55.4998" cy="109.5" r="1.5" fill="#FDFCF5"/>
<circle cx="64.4998" cy="109.5" r="1.5" fill="#FDFCF5"/>
<circle cx="73.4998" cy="109.5" r="1.5" fill="#FDFCF5"/>
<circle cx="82.4998" cy="109.5" r="1.5" fill="#FDFCF5"/>
<circle cx="91.4998" cy="109.5" r="1.5" fill="#FDFCF5"/>
<circle cx="100.5" cy="109.5" r="1.5" fill="#FDFCF5"/>
<circle cx="109.5" cy="109.5" r="1.5" fill="#FDFCF5"/>
<circle cx="118.5" cy="109.5" r="1.5" fill="#FDFCF5"/>
<circle cx="127.5" cy="109.5" r="1.5" fill="#FDFCF5"/>
<circle cx="1.49976" cy="118.5" r="1.5" fill="#FDFCF5"/>
<circle cx="10.4998" cy="118.5" r="1.5" fill="#FDFCF5"/>
<circle cx="19.4998" cy="118.5" r="1.5" fill="#FDFCF5"/>
<circle cx="28.4998" cy="118.5" r="1.5" fill="#FDFCF5"/>
<circle cx="37.4998" cy="118.5" r="1.5" fill="#FDFCF5"/>
<circle cx="46.4998" cy="118.5" r="1.5" fill="#FDFCF5"/>
<circle cx="55.4998" cy="118.5" r="1.5" fill="#FDFCF5"/>
<circle cx="64.4998" cy="118.5" r="1.5" fill="#FDFCF5"/>
<circle cx="73.4998" cy="118.5" r="1.5" fill="#FDFCF5"/>
<circle cx="82.4998" cy="118.5" r="1.5" fill="#FDFCF5"/>
<circle cx="91.4998" cy="118.5" r="1.5" fill="#FDFCF5"/>
<circle cx="100.5" cy="118.5" r="1.5" fill="#FDFCF5"/>
<circle cx="109.5" cy="118.5" r="1.5" fill="#FDFCF5"/>
<circle cx="118.5" cy="118.5" r="1.5" fill="#FDFCF5"/>
<circle cx="127.5" cy="118.5" r="1.5" fill="#FDFCF5"/>
<circle cx="1.49976" cy="127.5" r="1.5" fill="#FDFCF5"/>
<circle cx="10.4998" cy="127.5" r="1.5" fill="#FDFCF5"/>
<circle cx="19.4998" cy="127.5" r="1.5" fill="#FDFCF5"/>
<circle cx="28.4998" cy="127.5" r="1.5" fill="#FDFCF5"/>
<circle cx="37.4998" cy="127.5" r="1.5" fill="#FDFCF5"/>
<circle cx="46.4998" cy="127.5" r="1.5" fill="#FDFCF5"/>
<circle cx="55.4998" cy="127.5" r="1.5" fill="#FDFCF5"/>
<circle cx="64.4998" cy="127.5" r="1.5" fill="#FDFCF5"/>
<circle cx="73.4998" cy="127.5" r="1.5" fill="#FDFCF5"/>
<circle cx="82.4998" cy="127.5" r="1.5" fill="#FDFCF5"/>
<circle cx="91.4998" cy="127.5" r="1.5" fill="#FDFCF5"/>
<circle cx="100.5" cy="127.5" r="1.5" fill="#FDFCF5"/>
<circle cx="109.5" cy="127.5" r="1.5" fill="#FDFCF5"/>
<circle cx="118.5" cy="127.5" r="1.5" fill="#FDFCF5"/>
<circle cx="127.5" cy="127.5" r="1.5" fill="#FDFCF5"/>
</g>
</g>
<defs>
<clipPath id="clip0_35_145">
<rect width="128" height="128" fill="white"/>
</clipPath>
<clipPath id="clip1_35_145">
<rect width="128" height="129" fill="white" transform="translate(-0.000244141)"/>
</clipPath>
</defs>
</svg>
