<svg width="128" height="142" viewBox="0 0 128 142" fill="none" xmlns="http://www.w3.org/2000/svg">
<path d="M119.983 69.5975C119.983 66.1083 118.597 62.7619 116.13 60.2947C113.663 57.8274 110.316 56.4413 106.827 56.4413C106.358 56.4413 105.898 56.4666 105.444 56.512L123.517 3.21582H46.7207L64.7638 56.4666C64.5013 56.4666 64.2337 56.4413 63.9662 56.4413C60.8284 56.4443 57.7949 57.5681 55.4127 59.6103C53.0305 61.6525 51.4562 64.4786 50.9738 67.579C50.4914 70.6795 51.1325 73.8503 52.7816 76.5197C54.4307 79.1891 56.9793 81.1816 59.9678 82.1378C57.1697 86.9566 53.6851 91.3426 49.6236 95.1577C44.3381 100.21 38.0595 104.107 31.1868 106.602C27.3357 104.776 24.3239 101.553 22.7628 97.5865C21.2017 93.6205 21.2083 89.209 22.7811 85.2476C23.1699 84.3389 23.5636 83.4201 23.9423 82.5013C26.8771 81.8106 29.486 80.1337 31.3329 77.7506C33.1799 75.3675 34.153 72.4228 34.0897 69.4085C34.0263 66.3941 32.9304 63.4929 30.9849 61.1895C29.0395 58.8861 26.3625 57.3202 23.4012 56.7535C20.44 56.1868 17.3739 56.6535 14.7155 58.0757C12.057 59.498 9.96721 61.7895 8.79531 64.5674C7.62341 67.3454 7.44041 70.4413 8.27689 73.338C9.11338 76.2346 10.9187 78.7564 13.3911 80.4819C9.18847 88.0967 5.98332 96.2207 3.85461 104.654C2.06747 115.432 3.85461 126.867 13.1689 133.334C34.8772 148.383 58.4482 124.004 83.2966 117.881C92.3029 115.659 102.188 116.018 110.119 111.419C112.986 109.789 115.458 107.546 117.359 104.852C119.261 102.157 120.545 99.0765 121.119 95.8291C121.646 92.7363 121.547 89.5691 120.826 86.5155C120.105 83.462 118.778 80.5844 116.924 78.0536C118.903 75.6884 119.986 72.7018 119.983 69.6177V69.5975ZM77.1274 69.6682V69.6227C77.1287 67.3592 76.5457 65.1336 75.4349 63.1614C74.3241 61.1891 72.723 59.5369 70.7866 58.3648L85.1443 29.2808L99.5323 58.6323C97.7273 59.8318 96.2473 61.4595 95.2246 63.3702C94.2018 65.2809 93.6681 67.4152 93.6711 69.5824C93.6711 69.6783 93.6711 69.7742 93.6711 69.8701L77.1274 69.6682Z" fill="#99425B"/>
<path d="M123.199 69.5975C123.193 65.7831 121.857 62.0901 119.422 59.1544C116.986 56.2186 113.604 54.2238 109.856 53.5133L128 0H42.2374L60.4117 53.6193C57.2374 54.3262 54.3456 55.9628 52.1053 58.3202C49.8651 60.6776 48.3779 63.6489 47.8335 66.8551C47.2891 70.0613 47.7122 73.357 49.0488 76.3218C50.3854 79.2865 52.575 81.7858 55.3381 83.5009C53.0555 86.893 50.4003 90.0189 47.4221 92.8203C42.8121 97.2293 37.3957 100.709 31.4691 103.069C28.6872 101.453 26.5785 98.8914 25.5276 95.8508C24.4767 92.8103 24.5536 89.4933 25.7442 86.5047L25.9462 86.0352L26.3198 85.1517C29.6829 83.985 32.5744 81.7542 34.5563 78.7971C36.5382 75.84 37.5026 72.3177 37.3036 68.7635C37.1045 65.2092 35.7528 61.8166 33.4531 59.0993C31.1534 56.382 28.0309 54.4881 24.5585 53.7042C21.086 52.9203 17.4527 53.2892 14.2087 54.7549C10.9647 56.2207 8.28657 58.7036 6.5799 61.8276C4.87323 64.9517 4.23093 68.5467 4.75025 72.0684C5.26958 75.5902 6.92225 78.8468 9.45803 81.3452C8.9128 82.5114 8.33728 83.6927 7.74661 84.9094C4.47481 90.9284 2.09406 97.3904 0.678824 104.093C-1.66869 118.229 2.11762 129.553 11.336 135.939C16.2917 139.483 22.2366 141.378 28.329 141.356C39.0923 141.356 49.9817 135.949 60.6389 130.658C68.0847 126.609 75.9406 123.365 84.0737 120.98C87.074 120.292 90.1068 119.755 93.1608 119.37C99.6285 118.853 105.935 117.091 111.734 114.18C115.006 112.312 117.826 109.747 119.996 106.668C122.166 103.588 123.632 100.069 124.289 96.3592C125.364 90.0581 124.127 83.5811 120.806 78.1193C122.377 75.5547 123.202 72.6051 123.199 69.5975ZM116.772 69.5975C116.772 71.5645 116.189 73.4874 115.096 75.1229C114.003 76.7584 112.45 78.0331 110.633 78.7859C108.816 79.5386 106.816 79.7356 104.887 79.3518C102.957 78.9681 101.185 78.0209 99.7945 76.63C98.4036 75.2391 97.4564 73.467 97.0726 71.5378C96.6889 69.6086 96.8858 67.6089 97.6386 65.7916C98.3913 63.9743 99.666 62.4211 101.302 61.3282C102.937 60.2354 104.86 59.6521 106.827 59.6521C109.463 59.6561 111.991 60.7052 113.855 62.5695C115.719 64.4338 116.768 66.9611 116.772 69.5975ZM119.029 6.42664L103.005 53.6799C102.319 53.847 101.645 54.0578 100.986 54.3109L85.1591 22.001L69.2818 54.1191C68.5902 53.8807 67.8836 53.6884 67.1665 53.5436L51.1984 6.42664H119.029ZM63.9658 59.6521C65.9328 59.6521 67.8557 60.2354 69.4912 61.3282C71.1267 62.4211 72.4014 63.9743 73.1542 65.7916C73.9069 67.6089 74.1039 69.6086 73.7201 71.5378C73.3364 73.467 72.3892 75.2391 70.9983 76.63C69.6074 78.0209 67.8353 78.9681 65.9061 79.3518C63.9769 79.7356 61.9772 79.5386 60.1599 78.7859C58.3426 78.0331 56.7894 76.7584 55.6965 75.1229C54.6037 73.4874 54.0204 71.5645 54.0204 69.5975C54.0231 66.9607 55.0718 64.4326 56.9363 62.568C58.8009 60.7035 61.329 59.6548 63.9658 59.6521ZM20.9381 59.7481C22.9051 59.7481 24.828 60.3313 26.4635 61.4242C28.099 62.517 29.3737 64.0702 30.1265 65.8875C30.8792 67.7048 31.0762 69.7045 30.6924 71.6337C30.3087 73.5629 29.3615 75.335 27.9706 76.7259C26.5797 78.1168 24.8076 79.064 22.8784 79.4477C20.9492 79.8315 18.9495 79.6345 17.1322 78.8818C15.3149 78.129 13.7617 76.8543 12.6688 75.2188C11.576 73.5833 10.9927 71.6605 10.9927 69.6935C10.9954 67.0575 12.0434 64.5301 13.9068 62.6657C15.7703 60.8013 18.3022 59.7521 20.9381 59.7481ZM117.954 95.2587C117.455 98.0417 116.351 100.681 114.718 102.99C113.086 105.298 110.966 107.219 108.508 108.617C103.411 111.096 97.8896 112.587 92.237 113.009C89.0464 113.468 85.7498 113.943 82.5238 114.741C73.9364 117.228 65.6426 120.635 57.7866 124.903C41.8134 132.834 28.0009 139.685 15.0163 130.673C5.48997 124.07 5.92918 111.853 7.03983 105.159C8.34491 99.0637 10.5266 93.1902 13.517 87.7214C13.9814 86.7622 14.4358 85.8282 14.88 84.8993C16.2368 85.4394 17.6595 85.7959 19.1106 85.9595C17.8236 90.4978 18.1817 95.345 20.1215 99.645C22.0614 103.945 25.4582 107.421 29.7123 109.46L30.9492 110.096L32.2567 109.626C39.5524 106.996 46.2175 102.869 51.8244 97.5103C55.5266 94.024 58.7793 90.0895 61.5072 85.7979C64.9963 86.3286 68.5635 85.7169 71.6765 84.0542C74.7894 82.3914 77.2813 79.7667 78.7803 76.5716C80.2793 73.3766 80.7051 69.7825 79.9941 66.3257C79.2831 62.8688 77.4734 59.7345 74.8351 57.3904L85.1238 36.5859L95.5185 57.7893C92.5609 60.6396 90.784 64.4982 90.5408 68.5985C90.2976 72.6987 91.606 76.7404 94.2059 79.9203C96.8057 83.1002 100.507 85.1855 104.574 85.7619C108.64 86.3383 112.775 85.3636 116.156 83.0314C118.032 86.8133 118.659 91.0925 117.949 95.2536L117.954 95.2587Z" fill="white"/>
<g clip-path="url(#clip0_91_6975)">
<circle cx="6.20996" cy="6.5" r="1.5" fill="#FDFCF5"/>
<circle cx="15.21" cy="6.5" r="1.5" fill="#FDFCF5"/>
<circle cx="24.21" cy="6.5" r="1.5" fill="#FDFCF5"/>
<circle cx="33.21" cy="6.5" r="1.5" fill="#FDFCF5"/>
<circle cx="42.21" cy="6.5" r="1.5" fill="#FDFCF5"/>
<circle cx="51.21" cy="6.5" r="1.5" fill="#FDFCF5"/>
<circle cx="60.21" cy="6.5" r="1.5" fill="#FDFCF5"/>
<circle cx="69.21" cy="6.5" r="1.5" fill="#FDFCF5"/>
<circle cx="78.21" cy="6.5" r="1.5" fill="#FDFCF5"/>
<circle cx="87.21" cy="6.5" r="1.5" fill="#FDFCF5"/>
<circle cx="96.21" cy="6.5" r="1.5" fill="#FDFCF5"/>
<circle cx="105.21" cy="6.5" r="1.5" fill="#FDFCF5"/>
<circle cx="114.21" cy="6.5" r="1.5" fill="#FDFCF5"/>
<circle cx="6.20996" cy="15.5" r="1.5" fill="#FDFCF5"/>
<circle cx="15.21" cy="15.5" r="1.5" fill="#FDFCF5"/>
<circle cx="24.21" cy="15.5" r="1.5" fill="#FDFCF5"/>
<circle cx="33.21" cy="15.5" r="1.5" fill="#FDFCF5"/>
<circle cx="42.21" cy="15.5" r="1.5" fill="#FDFCF5"/>
<circle cx="51.21" cy="15.5" r="1.5" fill="#FDFCF5"/>
<circle cx="60.21" cy="15.5" r="1.5" fill="#FDFCF5"/>
<circle cx="69.21" cy="15.5" r="1.5" fill="#FDFCF5"/>
<circle cx="78.21" cy="15.5" r="1.5" fill="#FDFCF5"/>
<circle cx="87.21" cy="15.5" r="1.5" fill="#FDFCF5"/>
<circle cx="96.21" cy="15.5" r="1.5" fill="#FDFCF5"/>
<circle cx="105.21" cy="15.5" r="1.5" fill="#FDFCF5"/>
<circle cx="114.21" cy="15.5" r="1.5" fill="#FDFCF5"/>
<circle cx="6.20996" cy="24.5" r="1.5" fill="#FDFCF5"/>
<circle cx="15.21" cy="24.5" r="1.5" fill="#FDFCF5"/>
<circle cx="24.21" cy="24.5" r="1.5" fill="#FDFCF5"/>
<circle cx="33.21" cy="24.5" r="1.5" fill="#FDFCF5"/>
<circle cx="42.21" cy="24.5" r="1.5" fill="#FDFCF5"/>
<circle cx="51.21" cy="24.5" r="1.5" fill="#FDFCF5"/>
<circle cx="60.21" cy="24.5" r="1.5" fill="#FDFCF5"/>
<circle cx="69.21" cy="24.5" r="1.5" fill="#FDFCF5"/>
<circle cx="78.21" cy="24.5" r="1.5" fill="#FDFCF5"/>
<circle cx="87.21" cy="24.5" r="1.5" fill="#FDFCF5"/>
<circle cx="96.21" cy="24.5" r="1.5" fill="#FDFCF5"/>
<circle cx="105.21" cy="24.5" r="1.5" fill="#FDFCF5"/>
<circle cx="114.21" cy="24.5" r="1.5" fill="#FDFCF5"/>
<circle cx="6.20996" cy="33.5" r="1.5" fill="#FDFCF5"/>
<circle cx="15.21" cy="33.5" r="1.5" fill="#FDFCF5"/>
<circle cx="24.21" cy="33.5" r="1.5" fill="#FDFCF5"/>
<circle cx="33.21" cy="33.5" r="1.5" fill="#FDFCF5"/>
<circle cx="42.21" cy="33.5" r="1.5" fill="#FDFCF5"/>
<circle cx="51.21" cy="33.5" r="1.5" fill="#FDFCF5"/>
<circle cx="60.21" cy="33.5" r="1.5" fill="#FDFCF5"/>
<circle cx="69.21" cy="33.5" r="1.5" fill="#FDFCF5"/>
<circle cx="78.21" cy="33.5" r="1.5" fill="#FDFCF5"/>
<circle cx="87.21" cy="33.5" r="1.5" fill="#FDFCF5"/>
<circle cx="96.21" cy="33.5" r="1.5" fill="#FDFCF5"/>
<circle cx="105.21" cy="33.5" r="1.5" fill="#FDFCF5"/>
<circle cx="114.21" cy="33.5" r="1.5" fill="#FDFCF5"/>
<circle cx="6.20996" cy="42.5" r="1.5" fill="#FDFCF5"/>
<circle cx="15.21" cy="42.5" r="1.5" fill="#FDFCF5"/>
<circle cx="24.21" cy="42.5" r="1.5" fill="#FDFCF5"/>
<circle cx="33.21" cy="42.5" r="1.5" fill="#FDFCF5"/>
<circle cx="42.21" cy="42.5" r="1.5" fill="#FDFCF5"/>
<circle cx="51.21" cy="42.5" r="1.5" fill="#FDFCF5"/>
<circle cx="60.21" cy="42.5" r="1.5" fill="#FDFCF5"/>
<circle cx="69.21" cy="42.5" r="1.5" fill="#FDFCF5"/>
<circle cx="78.21" cy="42.5" r="1.5" fill="#FDFCF5"/>
<circle cx="87.21" cy="42.5" r="1.5" fill="#FDFCF5"/>
<circle cx="96.21" cy="42.5" r="1.5" fill="#FDFCF5"/>
<circle cx="105.21" cy="42.5" r="1.5" fill="#FDFCF5"/>
<circle cx="114.21" cy="42.5" r="1.5" fill="#FDFCF5"/>
<circle cx="6.20996" cy="51.5" r="1.5" fill="#FDFCF5"/>
<circle cx="15.21" cy="51.5" r="1.5" fill="#FDFCF5"/>
<circle cx="24.21" cy="51.5" r="1.5" fill="#FDFCF5"/>
<circle cx="33.21" cy="51.5" r="1.5" fill="#FDFCF5"/>
<circle cx="42.21" cy="51.5" r="1.5" fill="#FDFCF5"/>
<circle cx="51.21" cy="51.5" r="1.5" fill="#FDFCF5"/>
<circle cx="60.21" cy="51.5" r="1.5" fill="#FDFCF5"/>
<circle cx="69.21" cy="51.5" r="1.5" fill="#FDFCF5"/>
<circle cx="78.21" cy="51.5" r="1.5" fill="#FDFCF5"/>
<circle cx="87.21" cy="51.5" r="1.5" fill="#FDFCF5"/>
<circle cx="96.21" cy="51.5" r="1.5" fill="#FDFCF5"/>
<circle cx="105.21" cy="51.5" r="1.5" fill="#FDFCF5"/>
<circle cx="114.21" cy="51.5" r="1.5" fill="#FDFCF5"/>
<circle cx="6.20996" cy="60.5" r="1.5" fill="#FDFCF5"/>
<circle cx="15.21" cy="60.5" r="1.5" fill="#FDFCF5"/>
<circle cx="24.21" cy="60.5" r="1.5" fill="#FDFCF5"/>
<circle cx="33.21" cy="60.5" r="1.5" fill="#FDFCF5"/>
<circle cx="42.21" cy="60.5" r="1.5" fill="#FDFCF5"/>
<circle cx="51.21" cy="60.5" r="1.5" fill="#FDFCF5"/>
<circle cx="60.21" cy="60.5" r="1.5" fill="#FDFCF5"/>
<circle cx="69.21" cy="60.5" r="1.5" fill="#FDFCF5"/>
<circle cx="78.21" cy="60.5" r="1.5" fill="#FDFCF5"/>
<circle cx="87.21" cy="60.5" r="1.5" fill="#FDFCF5"/>
<circle cx="96.21" cy="60.5" r="1.5" fill="#FDFCF5"/>
<circle cx="105.21" cy="60.5" r="1.5" fill="#FDFCF5"/>
<circle cx="114.21" cy="60.5" r="1.5" fill="#FDFCF5"/>
<circle cx="6.20996" cy="69.5" r="1.5" fill="#FDFCF5"/>
<circle cx="15.21" cy="69.5" r="1.5" fill="#FDFCF5"/>
<circle cx="24.21" cy="69.5" r="1.5" fill="#FDFCF5"/>
<circle cx="33.21" cy="69.5" r="1.5" fill="#FDFCF5"/>
<circle cx="42.21" cy="69.5" r="1.5" fill="#FDFCF5"/>
<circle cx="51.21" cy="69.5" r="1.5" fill="#FDFCF5"/>
<circle cx="60.21" cy="69.5" r="1.5" fill="#FDFCF5"/>
<circle cx="69.21" cy="69.5" r="1.5" fill="#FDFCF5"/>
<circle cx="78.21" cy="69.5" r="1.5" fill="#FDFCF5"/>
<circle cx="87.21" cy="69.5" r="1.5" fill="#FDFCF5"/>
<circle cx="96.21" cy="69.5" r="1.5" fill="#FDFCF5"/>
<circle cx="105.21" cy="69.5" r="1.5" fill="#FDFCF5"/>
<circle cx="114.21" cy="69.5" r="1.5" fill="#FDFCF5"/>
<circle cx="6.20996" cy="78.5" r="1.5" fill="#FDFCF5"/>
<circle cx="15.21" cy="78.5" r="1.5" fill="#FDFCF5"/>
<circle cx="24.21" cy="78.5" r="1.5" fill="#FDFCF5"/>
<circle cx="33.21" cy="78.5" r="1.5" fill="#FDFCF5"/>
<circle cx="42.21" cy="78.5" r="1.5" fill="#FDFCF5"/>
<circle cx="51.21" cy="78.5" r="1.5" fill="#FDFCF5"/>
<circle cx="60.21" cy="78.5" r="1.5" fill="#FDFCF5"/>
<circle cx="69.21" cy="78.5" r="1.5" fill="#FDFCF5"/>
<circle cx="78.21" cy="78.5" r="1.5" fill="#FDFCF5"/>
<circle cx="87.21" cy="78.5" r="1.5" fill="#FDFCF5"/>
<circle cx="96.21" cy="78.5" r="1.5" fill="#FDFCF5"/>
<circle cx="105.21" cy="78.5" r="1.5" fill="#FDFCF5"/>
<circle cx="114.21" cy="78.5" r="1.5" fill="#FDFCF5"/>
<circle cx="6.20996" cy="87.5" r="1.5" fill="#FDFCF5"/>
<circle cx="15.21" cy="87.5" r="1.5" fill="#FDFCF5"/>
<circle cx="24.21" cy="87.5" r="1.5" fill="#FDFCF5"/>
<circle cx="33.21" cy="87.5" r="1.5" fill="#FDFCF5"/>
<circle cx="42.21" cy="87.5" r="1.5" fill="#FDFCF5"/>
<circle cx="51.21" cy="87.5" r="1.5" fill="#FDFCF5"/>
<circle cx="60.21" cy="87.5" r="1.5" fill="#FDFCF5"/>
<circle cx="69.21" cy="87.5" r="1.5" fill="#FDFCF5"/>
<circle cx="78.21" cy="87.5" r="1.5" fill="#FDFCF5"/>
<circle cx="87.21" cy="87.5" r="1.5" fill="#FDFCF5"/>
<circle cx="96.21" cy="87.5" r="1.5" fill="#FDFCF5"/>
<circle cx="105.21" cy="87.5" r="1.5" fill="#FDFCF5"/>
<circle cx="114.21" cy="87.5" r="1.5" fill="#FDFCF5"/>
<circle cx="6.20996" cy="96.5" r="1.5" fill="#FDFCF5"/>
<circle cx="15.21" cy="96.5" r="1.5" fill="#FDFCF5"/>
<circle cx="24.21" cy="96.5" r="1.5" fill="#FDFCF5"/>
<circle cx="33.21" cy="96.5" r="1.5" fill="#FDFCF5"/>
<circle cx="42.21" cy="96.5" r="1.5" fill="#FDFCF5"/>
<circle cx="51.21" cy="96.5" r="1.5" fill="#FDFCF5"/>
<circle cx="60.21" cy="96.5" r="1.5" fill="#FDFCF5"/>
<circle cx="69.21" cy="96.5" r="1.5" fill="#FDFCF5"/>
<circle cx="78.21" cy="96.5" r="1.5" fill="#FDFCF5"/>
<circle cx="87.21" cy="96.5" r="1.5" fill="#FDFCF5"/>
<circle cx="96.21" cy="96.5" r="1.5" fill="#FDFCF5"/>
<circle cx="105.21" cy="96.5" r="1.5" fill="#FDFCF5"/>
<circle cx="114.21" cy="96.5" r="1.5" fill="#FDFCF5"/>
<circle cx="6.20996" cy="105.5" r="1.5" fill="#FDFCF5"/>
<circle cx="15.21" cy="105.5" r="1.5" fill="#FDFCF5"/>
<circle cx="24.21" cy="105.5" r="1.5" fill="#FDFCF5"/>
<circle cx="33.21" cy="105.5" r="1.5" fill="#FDFCF5"/>
<circle cx="42.21" cy="105.5" r="1.5" fill="#FDFCF5"/>
<circle cx="51.21" cy="105.5" r="1.5" fill="#FDFCF5"/>
<circle cx="60.21" cy="105.5" r="1.5" fill="#FDFCF5"/>
<circle cx="69.21" cy="105.5" r="1.5" fill="#FDFCF5"/>
<circle cx="78.21" cy="105.5" r="1.5" fill="#FDFCF5"/>
<circle cx="87.21" cy="105.5" r="1.5" fill="#FDFCF5"/>
<circle cx="96.21" cy="105.5" r="1.5" fill="#FDFCF5"/>
<circle cx="105.21" cy="105.5" r="1.5" fill="#FDFCF5"/>
<circle cx="114.21" cy="105.5" r="1.5" fill="#FDFCF5"/>
<circle cx="6.20996" cy="114.5" r="1.5" fill="#FDFCF5"/>
<circle cx="15.21" cy="114.5" r="1.5" fill="#FDFCF5"/>
<circle cx="24.21" cy="114.5" r="1.5" fill="#FDFCF5"/>
<circle cx="33.21" cy="114.5" r="1.5" fill="#FDFCF5"/>
<circle cx="42.21" cy="114.5" r="1.5" fill="#FDFCF5"/>
<circle cx="51.21" cy="114.5" r="1.5" fill="#FDFCF5"/>
<circle cx="60.21" cy="114.5" r="1.5" fill="#FDFCF5"/>
<circle cx="69.21" cy="114.5" r="1.5" fill="#FDFCF5"/>
<circle cx="78.21" cy="114.5" r="1.5" fill="#FDFCF5"/>
<circle cx="87.21" cy="114.5" r="1.5" fill="#FDFCF5"/>
<circle cx="96.21" cy="114.5" r="1.5" fill="#FDFCF5"/>
<circle cx="105.21" cy="114.5" r="1.5" fill="#FDFCF5"/>
<circle cx="114.21" cy="114.5" r="1.5" fill="#FDFCF5"/>
<circle cx="6.20996" cy="123.5" r="1.5" fill="#FDFCF5"/>
<circle cx="15.21" cy="123.5" r="1.5" fill="#FDFCF5"/>
<circle cx="24.21" cy="123.5" r="1.5" fill="#FDFCF5"/>
<circle cx="33.21" cy="123.5" r="1.5" fill="#FDFCF5"/>
<circle cx="42.21" cy="123.5" r="1.5" fill="#FDFCF5"/>
<circle cx="51.21" cy="123.5" r="1.5" fill="#FDFCF5"/>
<circle cx="60.21" cy="123.5" r="1.5" fill="#FDFCF5"/>
<circle cx="69.21" cy="123.5" r="1.5" fill="#FDFCF5"/>
<circle cx="78.21" cy="123.5" r="1.5" fill="#FDFCF5"/>
<circle cx="87.21" cy="123.5" r="1.5" fill="#FDFCF5"/>
<circle cx="96.21" cy="123.5" r="1.5" fill="#FDFCF5"/>
<circle cx="105.21" cy="123.5" r="1.5" fill="#FDFCF5"/>
<circle cx="114.21" cy="123.5" r="1.5" fill="#FDFCF5"/>
<circle cx="6.20996" cy="132.5" r="1.5" fill="#FDFCF5"/>
<circle cx="15.21" cy="132.5" r="1.5" fill="#FDFCF5"/>
<circle cx="24.21" cy="132.5" r="1.5" fill="#FDFCF5"/>
<circle cx="33.21" cy="132.5" r="1.5" fill="#FDFCF5"/>
<circle cx="42.21" cy="132.5" r="1.5" fill="#FDFCF5"/>
<circle cx="51.21" cy="132.5" r="1.5" fill="#FDFCF5"/>
<circle cx="60.21" cy="132.5" r="1.5" fill="#FDFCF5"/>
<circle cx="69.21" cy="132.5" r="1.5" fill="#FDFCF5"/>
<circle cx="78.21" cy="132.5" r="1.5" fill="#FDFCF5"/>
<circle cx="87.21" cy="132.5" r="1.5" fill="#FDFCF5"/>
<circle cx="96.21" cy="132.5" r="1.5" fill="#FDFCF5"/>
<circle cx="105.21" cy="132.5" r="1.5" fill="#FDFCF5"/>
<circle cx="114.21" cy="132.5" r="1.5" fill="#FDFCF5"/>
</g>
<defs>
<clipPath id="clip0_91_6975">
<rect width="115" height="131" fill="white" transform="translate(4.70996 5)"/>
</clipPath>
</defs>
</svg>
