<svg width="128" height="128" viewBox="0 0 128 128" fill="none" xmlns="http://www.w3.org/2000/svg">
<g clip-path="url(#clip0_35_71)">
<path d="M109.06 40.24V84.52L71.4003 106.84L71.0603 107.15V123.72L71.4003 124.04L124.4 93.4V31.64L123.9 31.52L108.9 39.88L108.98 40.24" fill="#2F406A"/>
<path d="M33.6202 84.9199L71.4002 106.84V124.04L18.0002 93.2799V31.7599L18.5502 31.6799L33.4602 40.3499L33.6202 40.8499V84.9199Z" fill="#2379BD"/>
<path d="M33.6202 40.84L18.0002 31.76L71.2802 1L124.44 31.64L109.06 40.24L71.2802 18.68L33.6202 40.84Z" fill="#03AFEF"/>
<path d="M70.7503 79.8501L70.3403 79.4301V62.7901L70.7503 62.5801L70.8503 62.1701L85.1203 53.8501L85.5603 53.9501V71.1001L70.7603 79.8601" fill="#2F406A"/>
<path d="M55.7002 71.6301V53.8201H56.1102L70.6202 62.2701L70.7402 62.6001V79.8501L55.7002 71.6301Z" fill="#2379BD"/>
<path d="M70.5102 45.0601L55.7002 53.8201L70.7502 62.5801L85.5502 53.9401L70.5102 45.0601Z" fill="#03AFEF"/>
<path d="M52.3302 90.71L51.9202 90.29V73.65L52.3302 73.44L52.4302 73.03L66.7002 64.71L67.1402 64.81V81.95L52.3402 90.71" fill="#2F406A"/>
<path d="M37.2803 82.5199V64.6799H37.6903L52.2203 73.1099L52.3403 73.4399V90.7099L37.2803 82.5199Z" fill="#2379BD"/>
<path d="M52.0803 55.9199L37.2803 64.6799L52.3303 73.4399L67.1303 64.7999L52.0803 55.9199Z" fill="#03AFEF"/>
<path d="M90.4903 91.1201L90.0803 90.7001V74.0601L90.4903 73.8501L90.5903 73.4401L104.86 65.1201L105.3 65.2201V82.3601L90.4903 91.1201Z" fill="#2F406A"/>
<path d="M75.4402 82.9001V65.0901H75.8502L90.3702 73.5201L90.4902 73.8501V91.1201L75.4402 82.9001Z" fill="#2379BD"/>
<path d="M90.2202 56.3301L75.4202 65.0901L90.4702 73.8501L105.27 65.2101L90.2202 56.3301Z" fill="#03AFEF"/>
<path d="M72.0702 101.98L71.6602 101.56V84.92L72.0702 84.71L72.1702 84.3L86.4402 75.98L86.8802 76.08V93.22L72.0802 101.98" fill="#2F406A"/>
<path d="M57.0203 93.75V75.95H57.4303L71.9403 84.3999L72.0603 84.7299V102L57.0203 93.75Z" fill="#2379BD"/>
<path d="M71.8203 67.1899L57.0203 75.9499L72.0703 84.7099L86.8703 76.0699L71.8203 67.1899Z" fill="#03AFEF"/>
<path d="M70.7503 56.25L70.3403 55.83V39.19L70.7503 38.98L70.8503 38.57L85.1203 30.24L85.5603 30.34V47.52L70.7603 56.28" fill="#2F406A"/>
<path d="M55.7002 48.02V30.22H56.1102L70.6202 38.67L70.7402 39V56.25L55.7002 48.02Z" fill="#2379BD"/>
<path d="M70.5102 21.46L55.7002 30.22L70.7502 38.98L85.5502 30.34L70.5102 21.46Z" fill="#03AFEF"/>
<path d="M52.3302 67.1101L51.9202 66.6901V50.0501L52.3302 49.8401L52.4302 49.4301L66.7002 41.1101L67.1402 41.2101V58.3501L52.3402 67.1101" fill="#2F406A"/>
<path d="M37.2803 58.8801V41.0701H37.6903L52.2203 49.5201L52.3403 49.8501V67.1101L37.2803 58.8801Z" fill="#2379BD"/>
<path d="M52.0803 32.3201L37.2803 41.0801L52.3303 49.8401L67.1303 41.2001L52.0803 32.3201Z" fill="#03AFEF"/>
<path d="M90.4903 67.52L90.0803 67.1V50.46L90.4903 50.25L90.5903 49.84L104.86 41.52L105.3 41.62V58.76L90.4903 67.52Z" fill="#2F406A"/>
<path d="M75.4402 59.29V41.52H75.8502L90.3602 49.97L90.4802 50.3V67.52L75.4402 59.29Z" fill="#2379BD"/>
<path d="M90.2202 32.73L75.4402 41.52L90.4902 50.28L105.29 41.64L90.2202 32.73Z" fill="#03AFEF"/>
<path d="M72.0702 78.3701L71.6602 77.9501V61.3101L72.0702 61.1001L72.1702 60.6901L86.4402 52.3701L86.8802 52.4701V69.6101L72.0802 78.3701" fill="#2F406A"/>
<path d="M57.0203 70.1501V52.3401H57.4303L71.9403 60.7901L72.0603 61.1201V78.3701L57.0203 70.1501Z" fill="#2379BD"/>
<path d="M71.8203 43.5801L57.0203 52.3401L72.0703 61.1001L86.8703 52.4601L71.8203 43.5801Z" fill="#03AFEF"/>
<g clip-path="url(#clip1_35_71)">
<circle cx="17.4998" cy="0.5" r="1.5" fill="#FDFCF5"/>
<circle cx="26.4998" cy="0.5" r="1.5" fill="#FDFCF5"/>
<circle cx="35.4998" cy="0.5" r="1.5" fill="#FDFCF5"/>
<circle cx="44.4998" cy="0.5" r="1.5" fill="#FDFCF5"/>
<circle cx="53.4998" cy="0.5" r="1.5" fill="#FDFCF5"/>
<circle cx="62.4998" cy="0.5" r="1.5" fill="#FDFCF5"/>
<circle cx="71.4998" cy="0.5" r="1.5" fill="#FDFCF5"/>
<circle cx="80.4998" cy="0.5" r="1.5" fill="#FDFCF5"/>
<circle cx="89.4998" cy="0.5" r="1.5" fill="#FDFCF5"/>
<circle cx="98.4998" cy="0.5" r="1.5" fill="#FDFCF5"/>
<circle cx="107.5" cy="0.5" r="1.5" fill="#FDFCF5"/>
<circle cx="116.5" cy="0.5" r="1.5" fill="#FDFCF5"/>
<circle cx="125.5" cy="0.5" r="1.5" fill="#FDFCF5"/>
<circle cx="17.4998" cy="9.5" r="1.5" fill="#FDFCF5"/>
<circle cx="26.4998" cy="9.5" r="1.5" fill="#FDFCF5"/>
<circle cx="35.4998" cy="9.5" r="1.5" fill="#FDFCF5"/>
<circle cx="44.4998" cy="9.5" r="1.5" fill="#FDFCF5"/>
<circle cx="53.4998" cy="9.5" r="1.5" fill="#FDFCF5"/>
<circle cx="62.4998" cy="9.5" r="1.5" fill="#FDFCF5"/>
<circle cx="71.4998" cy="9.5" r="1.5" fill="#FDFCF5"/>
<circle cx="80.4998" cy="9.5" r="1.5" fill="#FDFCF5"/>
<circle cx="89.4998" cy="9.5" r="1.5" fill="#FDFCF5"/>
<circle cx="98.4998" cy="9.5" r="1.5" fill="#FDFCF5"/>
<circle cx="107.5" cy="9.5" r="1.5" fill="#FDFCF5"/>
<circle cx="116.5" cy="9.5" r="1.5" fill="#FDFCF5"/>
<circle cx="125.5" cy="9.5" r="1.5" fill="#FDFCF5"/>
<circle cx="17.4998" cy="18.5" r="1.5" fill="#FDFCF5"/>
<circle cx="26.4998" cy="18.5" r="1.5" fill="#FDFCF5"/>
<circle cx="35.4998" cy="18.5" r="1.5" fill="#FDFCF5"/>
<circle cx="44.4998" cy="18.5" r="1.5" fill="#FDFCF5"/>
<circle cx="53.4998" cy="18.5" r="1.5" fill="#FDFCF5"/>
<circle cx="62.4998" cy="18.5" r="1.5" fill="#FDFCF5"/>
<circle cx="71.4998" cy="18.5" r="1.5" fill="#FDFCF5"/>
<circle cx="80.4998" cy="18.5" r="1.5" fill="#FDFCF5"/>
<circle cx="89.4998" cy="18.5" r="1.5" fill="#FDFCF5"/>
<circle cx="98.4998" cy="18.5" r="1.5" fill="#FDFCF5"/>
<circle cx="107.5" cy="18.5" r="1.5" fill="#FDFCF5"/>
<circle cx="116.5" cy="18.5" r="1.5" fill="#FDFCF5"/>
<circle cx="125.5" cy="18.5" r="1.5" fill="#FDFCF5"/>
<circle cx="17.4998" cy="27.5" r="1.5" fill="#FDFCF5"/>
<circle cx="26.4998" cy="27.5" r="1.5" fill="#FDFCF5"/>
<circle cx="35.4998" cy="27.5" r="1.5" fill="#FDFCF5"/>
<circle cx="44.4998" cy="27.5" r="1.5" fill="#FDFCF5"/>
<circle cx="53.4998" cy="27.5" r="1.5" fill="#FDFCF5"/>
<circle cx="62.4998" cy="27.5" r="1.5" fill="#FDFCF5"/>
<circle cx="71.4998" cy="27.5" r="1.5" fill="#FDFCF5"/>
<circle cx="80.4998" cy="27.5" r="1.5" fill="#FDFCF5"/>
<circle cx="89.4998" cy="27.5" r="1.5" fill="#FDFCF5"/>
<circle cx="98.4998" cy="27.5" r="1.5" fill="#FDFCF5"/>
<circle cx="107.5" cy="27.5" r="1.5" fill="#FDFCF5"/>
<circle cx="116.5" cy="27.5" r="1.5" fill="#FDFCF5"/>
<circle cx="125.5" cy="27.5" r="1.5" fill="#FDFCF5"/>
<circle cx="17.4998" cy="36.5" r="1.5" fill="#FDFCF5"/>
<circle cx="26.4998" cy="36.5" r="1.5" fill="#FDFCF5"/>
<circle cx="35.4998" cy="36.5" r="1.5" fill="#FDFCF5"/>
<circle cx="44.4998" cy="36.5" r="1.5" fill="#FDFCF5"/>
<circle cx="53.4998" cy="36.5" r="1.5" fill="#FDFCF5"/>
<circle cx="62.4998" cy="36.5" r="1.5" fill="#FDFCF5"/>
<circle cx="71.4998" cy="36.5" r="1.5" fill="#FDFCF5"/>
<circle cx="80.4998" cy="36.5" r="1.5" fill="#FDFCF5"/>
<circle cx="89.4998" cy="36.5" r="1.5" fill="#FDFCF5"/>
<circle cx="98.4998" cy="36.5" r="1.5" fill="#FDFCF5"/>
<circle cx="107.5" cy="36.5" r="1.5" fill="#FDFCF5"/>
<circle cx="116.5" cy="36.5" r="1.5" fill="#FDFCF5"/>
<circle cx="125.5" cy="36.5" r="1.5" fill="#FDFCF5"/>
<circle cx="17.4998" cy="45.5" r="1.5" fill="#FDFCF5"/>
<circle cx="26.4998" cy="45.5" r="1.5" fill="#FDFCF5"/>
<circle cx="35.4998" cy="45.5" r="1.5" fill="#FDFCF5"/>
<circle cx="44.4998" cy="45.5" r="1.5" fill="#FDFCF5"/>
<circle cx="53.4998" cy="45.5" r="1.5" fill="#FDFCF5"/>
<circle cx="62.4998" cy="45.5" r="1.5" fill="#FDFCF5"/>
<circle cx="71.4998" cy="45.5" r="1.5" fill="#FDFCF5"/>
<circle cx="80.4998" cy="45.5" r="1.5" fill="#FDFCF5"/>
<circle cx="89.4998" cy="45.5" r="1.5" fill="#FDFCF5"/>
<circle cx="98.4998" cy="45.5" r="1.5" fill="#FDFCF5"/>
<circle cx="107.5" cy="45.5" r="1.5" fill="#FDFCF5"/>
<circle cx="116.5" cy="45.5" r="1.5" fill="#FDFCF5"/>
<circle cx="125.5" cy="45.5" r="1.5" fill="#FDFCF5"/>
<circle cx="17.4998" cy="54.5" r="1.5" fill="#FDFCF5"/>
<circle cx="26.4998" cy="54.5" r="1.5" fill="#FDFCF5"/>
<circle cx="35.4998" cy="54.5" r="1.5" fill="#FDFCF5"/>
<circle cx="44.4998" cy="54.5" r="1.5" fill="#FDFCF5"/>
<circle cx="53.4998" cy="54.5" r="1.5" fill="#FDFCF5"/>
<circle cx="62.4998" cy="54.5" r="1.5" fill="#FDFCF5"/>
<circle cx="71.4998" cy="54.5" r="1.5" fill="#FDFCF5"/>
<circle cx="80.4998" cy="54.5" r="1.5" fill="#FDFCF5"/>
<circle cx="89.4998" cy="54.5" r="1.5" fill="#FDFCF5"/>
<circle cx="98.4998" cy="54.5" r="1.5" fill="#FDFCF5"/>
<circle cx="107.5" cy="54.5" r="1.5" fill="#FDFCF5"/>
<circle cx="116.5" cy="54.5" r="1.5" fill="#FDFCF5"/>
<circle cx="125.5" cy="54.5" r="1.5" fill="#FDFCF5"/>
<circle cx="17.4998" cy="63.5" r="1.5" fill="#FDFCF5"/>
<circle cx="26.4998" cy="63.5" r="1.5" fill="#FDFCF5"/>
<circle cx="35.4998" cy="63.5" r="1.5" fill="#FDFCF5"/>
<circle cx="44.4998" cy="63.5" r="1.5" fill="#FDFCF5"/>
<circle cx="53.4998" cy="63.5" r="1.5" fill="#FDFCF5"/>
<circle cx="62.4998" cy="63.5" r="1.5" fill="#FDFCF5"/>
<circle cx="71.4998" cy="63.5" r="1.5" fill="#FDFCF5"/>
<circle cx="80.4998" cy="63.5" r="1.5" fill="#FDFCF5"/>
<circle cx="89.4998" cy="63.5" r="1.5" fill="#FDFCF5"/>
<circle cx="98.4998" cy="63.5" r="1.5" fill="#FDFCF5"/>
<circle cx="107.5" cy="63.5" r="1.5" fill="#FDFCF5"/>
<circle cx="116.5" cy="63.5" r="1.5" fill="#FDFCF5"/>
<circle cx="125.5" cy="63.5" r="1.5" fill="#FDFCF5"/>
<circle cx="17.4998" cy="72.5" r="1.5" fill="#FDFCF5"/>
<circle cx="26.4998" cy="72.5" r="1.5" fill="#FDFCF5"/>
<circle cx="35.4998" cy="72.5" r="1.5" fill="#FDFCF5"/>
<circle cx="44.4998" cy="72.5" r="1.5" fill="#FDFCF5"/>
<circle cx="53.4998" cy="72.5" r="1.5" fill="#FDFCF5"/>
<circle cx="62.4998" cy="72.5" r="1.5" fill="#FDFCF5"/>
<circle cx="71.4998" cy="72.5" r="1.5" fill="#FDFCF5"/>
<circle cx="80.4998" cy="72.5" r="1.5" fill="#FDFCF5"/>
<circle cx="89.4998" cy="72.5" r="1.5" fill="#FDFCF5"/>
<circle cx="98.4998" cy="72.5" r="1.5" fill="#FDFCF5"/>
<circle cx="107.5" cy="72.5" r="1.5" fill="#FDFCF5"/>
<circle cx="116.5" cy="72.5" r="1.5" fill="#FDFCF5"/>
<circle cx="125.5" cy="72.5" r="1.5" fill="#FDFCF5"/>
<circle cx="17.4998" cy="81.5" r="1.5" fill="#FDFCF5"/>
<circle cx="26.4998" cy="81.5" r="1.5" fill="#FDFCF5"/>
<circle cx="35.4998" cy="81.5" r="1.5" fill="#FDFCF5"/>
<circle cx="44.4998" cy="81.5" r="1.5" fill="#FDFCF5"/>
<circle cx="53.4998" cy="81.5" r="1.5" fill="#FDFCF5"/>
<circle cx="62.4998" cy="81.5" r="1.5" fill="#FDFCF5"/>
<circle cx="71.4998" cy="81.5" r="1.5" fill="#FDFCF5"/>
<circle cx="80.4998" cy="81.5" r="1.5" fill="#FDFCF5"/>
<circle cx="89.4998" cy="81.5" r="1.5" fill="#FDFCF5"/>
<circle cx="98.4998" cy="81.5" r="1.5" fill="#FDFCF5"/>
<circle cx="107.5" cy="81.5" r="1.5" fill="#FDFCF5"/>
<circle cx="116.5" cy="81.5" r="1.5" fill="#FDFCF5"/>
<circle cx="125.5" cy="81.5" r="1.5" fill="#FDFCF5"/>
<circle cx="17.4998" cy="90.5" r="1.5" fill="#FDFCF5"/>
<circle cx="26.4998" cy="90.5" r="1.5" fill="#FDFCF5"/>
<circle cx="35.4998" cy="90.5" r="1.5" fill="#FDFCF5"/>
<circle cx="44.4998" cy="90.5" r="1.5" fill="#FDFCF5"/>
<circle cx="53.4998" cy="90.5" r="1.5" fill="#FDFCF5"/>
<circle cx="62.4998" cy="90.5" r="1.5" fill="#FDFCF5"/>
<circle cx="71.4998" cy="90.5" r="1.5" fill="#FDFCF5"/>
<circle cx="80.4998" cy="90.5" r="1.5" fill="#FDFCF5"/>
<circle cx="89.4998" cy="90.5" r="1.5" fill="#FDFCF5"/>
<circle cx="98.4998" cy="90.5" r="1.5" fill="#FDFCF5"/>
<circle cx="107.5" cy="90.5" r="1.5" fill="#FDFCF5"/>
<circle cx="116.5" cy="90.5" r="1.5" fill="#FDFCF5"/>
<circle cx="125.5" cy="90.5" r="1.5" fill="#FDFCF5"/>
<circle cx="17.4998" cy="99.5" r="1.5" fill="#FDFCF5"/>
<circle cx="26.4998" cy="99.5" r="1.5" fill="#FDFCF5"/>
<circle cx="35.4998" cy="99.5" r="1.5" fill="#FDFCF5"/>
<circle cx="44.4998" cy="99.5" r="1.5" fill="#FDFCF5"/>
<circle cx="53.4998" cy="99.5" r="1.5" fill="#FDFCF5"/>
<circle cx="62.4998" cy="99.5" r="1.5" fill="#FDFCF5"/>
<circle cx="71.4998" cy="99.5" r="1.5" fill="#FDFCF5"/>
<circle cx="80.4998" cy="99.5" r="1.5" fill="#FDFCF5"/>
<circle cx="89.4998" cy="99.5" r="1.5" fill="#FDFCF5"/>
<circle cx="98.4998" cy="99.5" r="1.5" fill="#FDFCF5"/>
<circle cx="107.5" cy="99.5" r="1.5" fill="#FDFCF5"/>
<circle cx="116.5" cy="99.5" r="1.5" fill="#FDFCF5"/>
<circle cx="125.5" cy="99.5" r="1.5" fill="#FDFCF5"/>
<circle cx="17.4998" cy="108.5" r="1.5" fill="#FDFCF5"/>
<circle cx="26.4998" cy="108.5" r="1.5" fill="#FDFCF5"/>
<circle cx="35.4998" cy="108.5" r="1.5" fill="#FDFCF5"/>
<circle cx="44.4998" cy="108.5" r="1.5" fill="#FDFCF5"/>
<circle cx="53.4998" cy="108.5" r="1.5" fill="#FDFCF5"/>
<circle cx="62.4998" cy="108.5" r="1.5" fill="#FDFCF5"/>
<circle cx="71.4998" cy="108.5" r="1.5" fill="#FDFCF5"/>
<circle cx="80.4998" cy="108.5" r="1.5" fill="#FDFCF5"/>
<circle cx="89.4998" cy="108.5" r="1.5" fill="#FDFCF5"/>
<circle cx="98.4998" cy="108.5" r="1.5" fill="#FDFCF5"/>
<circle cx="107.5" cy="108.5" r="1.5" fill="#FDFCF5"/>
<circle cx="116.5" cy="108.5" r="1.5" fill="#FDFCF5"/>
<circle cx="125.5" cy="108.5" r="1.5" fill="#FDFCF5"/>
<circle cx="17.4998" cy="117.5" r="1.5" fill="#FDFCF5"/>
<circle cx="26.4998" cy="117.5" r="1.5" fill="#FDFCF5"/>
<circle cx="35.4998" cy="117.5" r="1.5" fill="#FDFCF5"/>
<circle cx="44.4998" cy="117.5" r="1.5" fill="#FDFCF5"/>
<circle cx="53.4998" cy="117.5" r="1.5" fill="#FDFCF5"/>
<circle cx="62.4998" cy="117.5" r="1.5" fill="#FDFCF5"/>
<circle cx="71.4998" cy="117.5" r="1.5" fill="#FDFCF5"/>
<circle cx="80.4998" cy="117.5" r="1.5" fill="#FDFCF5"/>
<circle cx="89.4998" cy="117.5" r="1.5" fill="#FDFCF5"/>
<circle cx="98.4998" cy="117.5" r="1.5" fill="#FDFCF5"/>
<circle cx="107.5" cy="117.5" r="1.5" fill="#FDFCF5"/>
<circle cx="116.5" cy="117.5" r="1.5" fill="#FDFCF5"/>
<circle cx="125.5" cy="117.5" r="1.5" fill="#FDFCF5"/>
</g>
</g>
<defs>
<clipPath id="clip0_35_71">
<rect width="128" height="128" fill="white"/>
</clipPath>
<clipPath id="clip1_35_71">
<rect width="112" height="127" fill="white" transform="translate(15.9998 -1)"/>
</clipPath>
</defs>
</svg>
