<svg width="128" height="128" viewBox="0 0 128 128" fill="none" xmlns="http://www.w3.org/2000/svg">
<g clip-path="url(#clip0_35_26)">
<path d="M63.6774 0.00446127C58.3214 0.0244613 52.9894 0.692461 47.8014 2.02446C22.8414 8.23246 3.02939 30.8365 0.489391 56.4765C-2.65861 80.7285 9.61339 106 30.5894 118.52C51.1974 131.416 79.0894 130.9 99.2574 117.336C117.385 105.564 128.653 84.1245 127.989 62.4765C127.681 41.0645 115.657 20.2485 97.2574 9.24846C87.2374 3.06046 75.4494 -0.0435387 63.6774 0.000461267V0.00446127ZM63.3214 9.04446C89.6934 9.00046 115.529 29.3965 118.173 56.6485C123.217 86.8365 98.1534 117.524 67.5694 118.42C38.4854 121.316 10.3574 96.6485 9.52539 67.4405C7.36139 43.7965 22.9654 20.3165 45.2534 12.5005C51.0014 10.2125 57.1294 9.04446 63.3174 9.06446L63.3214 9.04446ZM90.4894 26.2565C76.1534 37.3765 62.4254 49.2325 48.4054 60.6925C54.8214 60.7725 61.2814 60.7725 67.7174 60.7285C75.2374 49.1885 82.9694 37.8005 90.4894 26.2565ZM60.2814 67.0685C52.7614 78.6325 45.0134 90.0445 37.4854 101.608C51.8654 90.5045 65.5294 78.5685 79.6334 67.1725C73.1734 67.0925 66.7174 67.0725 60.2774 67.0725L60.2814 67.0685Z" fill="black"/>
<g clip-path="url(#clip1_35_26)">
<circle cx="1.49976" cy="1.5" r="1.5" fill="#FDFCF5"/>
<circle cx="10.4998" cy="1.5" r="1.5" fill="#FDFCF5"/>
<circle cx="19.4998" cy="1.5" r="1.5" fill="#FDFCF5"/>
<circle cx="28.4998" cy="1.5" r="1.5" fill="#FDFCF5"/>
<circle cx="37.4998" cy="1.5" r="1.5" fill="#FDFCF5"/>
<circle cx="46.4998" cy="1.5" r="1.5" fill="#FDFCF5"/>
<circle cx="55.4998" cy="1.5" r="1.5" fill="#FDFCF5"/>
<circle cx="64.4998" cy="1.5" r="1.5" fill="#FDFCF5"/>
<circle cx="73.4998" cy="1.5" r="1.5" fill="#FDFCF5"/>
<circle cx="82.4998" cy="1.5" r="1.5" fill="#FDFCF5"/>
<circle cx="91.4998" cy="1.5" r="1.5" fill="#FDFCF5"/>
<circle cx="100.5" cy="1.5" r="1.5" fill="#FDFCF5"/>
<circle cx="109.5" cy="1.5" r="1.5" fill="#FDFCF5"/>
<circle cx="118.5" cy="1.5" r="1.5" fill="#FDFCF5"/>
<circle cx="127.5" cy="1.5" r="1.5" fill="#FDFCF5"/>
<circle cx="1.49976" cy="10.5" r="1.5" fill="#FDFCF5"/>
<circle cx="10.4998" cy="10.5" r="1.5" fill="#FDFCF5"/>
<circle cx="19.4998" cy="10.5" r="1.5" fill="#FDFCF5"/>
<circle cx="28.4998" cy="10.5" r="1.5" fill="#FDFCF5"/>
<circle cx="37.4998" cy="10.5" r="1.5" fill="#FDFCF5"/>
<circle cx="46.4998" cy="10.5" r="1.5" fill="#FDFCF5"/>
<circle cx="55.4998" cy="10.5" r="1.5" fill="#FDFCF5"/>
<circle cx="64.4998" cy="10.5" r="1.5" fill="#FDFCF5"/>
<circle cx="73.4998" cy="10.5" r="1.5" fill="#FDFCF5"/>
<circle cx="82.4998" cy="10.5" r="1.5" fill="#FDFCF5"/>
<circle cx="91.4998" cy="10.5" r="1.5" fill="#FDFCF5"/>
<circle cx="100.5" cy="10.5" r="1.5" fill="#FDFCF5"/>
<circle cx="109.5" cy="10.5" r="1.5" fill="#FDFCF5"/>
<circle cx="118.5" cy="10.5" r="1.5" fill="#FDFCF5"/>
<circle cx="127.5" cy="10.5" r="1.5" fill="#FDFCF5"/>
<circle cx="1.49976" cy="19.5" r="1.5" fill="#FDFCF5"/>
<circle cx="10.4998" cy="19.5" r="1.5" fill="#FDFCF5"/>
<circle cx="19.4998" cy="19.5" r="1.5" fill="#FDFCF5"/>
<circle cx="28.4998" cy="19.5" r="1.5" fill="#FDFCF5"/>
<circle cx="37.4998" cy="19.5" r="1.5" fill="#FDFCF5"/>
<circle cx="46.4998" cy="19.5" r="1.5" fill="#FDFCF5"/>
<circle cx="55.4998" cy="19.5" r="1.5" fill="#FDFCF5"/>
<circle cx="64.4998" cy="19.5" r="1.5" fill="#FDFCF5"/>
<circle cx="73.4998" cy="19.5" r="1.5" fill="#FDFCF5"/>
<circle cx="82.4998" cy="19.5" r="1.5" fill="#FDFCF5"/>
<circle cx="91.4998" cy="19.5" r="1.5" fill="#FDFCF5"/>
<circle cx="100.5" cy="19.5" r="1.5" fill="#FDFCF5"/>
<circle cx="109.5" cy="19.5" r="1.5" fill="#FDFCF5"/>
<circle cx="118.5" cy="19.5" r="1.5" fill="#FDFCF5"/>
<circle cx="127.5" cy="19.5" r="1.5" fill="#FDFCF5"/>
<circle cx="1.49976" cy="28.5" r="1.5" fill="#FDFCF5"/>
<circle cx="10.4998" cy="28.5" r="1.5" fill="#FDFCF5"/>
<circle cx="19.4998" cy="28.5" r="1.5" fill="#FDFCF5"/>
<circle cx="28.4998" cy="28.5" r="1.5" fill="#FDFCF5"/>
<circle cx="37.4998" cy="28.5" r="1.5" fill="#FDFCF5"/>
<circle cx="46.4998" cy="28.5" r="1.5" fill="#FDFCF5"/>
<circle cx="55.4998" cy="28.5" r="1.5" fill="#FDFCF5"/>
<circle cx="64.4998" cy="28.5" r="1.5" fill="#FDFCF5"/>
<circle cx="73.4998" cy="28.5" r="1.5" fill="#FDFCF5"/>
<circle cx="82.4998" cy="28.5" r="1.5" fill="#FDFCF5"/>
<circle cx="91.4998" cy="28.5" r="1.5" fill="#FDFCF5"/>
<circle cx="100.5" cy="28.5" r="1.5" fill="#FDFCF5"/>
<circle cx="109.5" cy="28.5" r="1.5" fill="#FDFCF5"/>
<circle cx="118.5" cy="28.5" r="1.5" fill="#FDFCF5"/>
<circle cx="127.5" cy="28.5" r="1.5" fill="#FDFCF5"/>
<circle cx="1.49976" cy="37.5" r="1.5" fill="#FDFCF5"/>
<circle cx="10.4998" cy="37.5" r="1.5" fill="#FDFCF5"/>
<circle cx="19.4998" cy="37.5" r="1.5" fill="#FDFCF5"/>
<circle cx="28.4998" cy="37.5" r="1.5" fill="#FDFCF5"/>
<circle cx="37.4998" cy="37.5" r="1.5" fill="#FDFCF5"/>
<circle cx="46.4998" cy="37.5" r="1.5" fill="#FDFCF5"/>
<circle cx="55.4998" cy="37.5" r="1.5" fill="#FDFCF5"/>
<circle cx="64.4998" cy="37.5" r="1.5" fill="#FDFCF5"/>
<circle cx="73.4998" cy="37.5" r="1.5" fill="#FDFCF5"/>
<circle cx="82.4998" cy="37.5" r="1.5" fill="#FDFCF5"/>
<circle cx="91.4998" cy="37.5" r="1.5" fill="#FDFCF5"/>
<circle cx="100.5" cy="37.5" r="1.5" fill="#FDFCF5"/>
<circle cx="109.5" cy="37.5" r="1.5" fill="#FDFCF5"/>
<circle cx="118.5" cy="37.5" r="1.5" fill="#FDFCF5"/>
<circle cx="127.5" cy="37.5" r="1.5" fill="#FDFCF5"/>
<circle cx="1.49976" cy="46.5" r="1.5" fill="#FDFCF5"/>
<circle cx="10.4998" cy="46.5" r="1.5" fill="#FDFCF5"/>
<circle cx="19.4998" cy="46.5" r="1.5" fill="#FDFCF5"/>
<circle cx="28.4998" cy="46.5" r="1.5" fill="#FDFCF5"/>
<circle cx="37.4998" cy="46.5" r="1.5" fill="#FDFCF5"/>
<circle cx="46.4998" cy="46.5" r="1.5" fill="#FDFCF5"/>
<circle cx="55.4998" cy="46.5" r="1.5" fill="#FDFCF5"/>
<circle cx="64.4998" cy="46.5" r="1.5" fill="#FDFCF5"/>
<circle cx="73.4998" cy="46.5" r="1.5" fill="#FDFCF5"/>
<circle cx="82.4998" cy="46.5" r="1.5" fill="#FDFCF5"/>
<circle cx="91.4998" cy="46.5" r="1.5" fill="#FDFCF5"/>
<circle cx="100.5" cy="46.5" r="1.5" fill="#FDFCF5"/>
<circle cx="109.5" cy="46.5" r="1.5" fill="#FDFCF5"/>
<circle cx="118.5" cy="46.5" r="1.5" fill="#FDFCF5"/>
<circle cx="127.5" cy="46.5" r="1.5" fill="#FDFCF5"/>
<circle cx="1.49976" cy="55.5" r="1.5" fill="#FDFCF5"/>
<circle cx="10.4998" cy="55.5" r="1.5" fill="#FDFCF5"/>
<circle cx="19.4998" cy="55.5" r="1.5" fill="#FDFCF5"/>
<circle cx="28.4998" cy="55.5" r="1.5" fill="#FDFCF5"/>
<circle cx="37.4998" cy="55.5" r="1.5" fill="#FDFCF5"/>
<circle cx="46.4998" cy="55.5" r="1.5" fill="#FDFCF5"/>
<circle cx="55.4998" cy="55.5" r="1.5" fill="#FDFCF5"/>
<circle cx="64.4998" cy="55.5" r="1.5" fill="#FDFCF5"/>
<circle cx="73.4998" cy="55.5" r="1.5" fill="#FDFCF5"/>
<circle cx="82.4998" cy="55.5" r="1.5" fill="#FDFCF5"/>
<circle cx="91.4998" cy="55.5" r="1.5" fill="#FDFCF5"/>
<circle cx="100.5" cy="55.5" r="1.5" fill="#FDFCF5"/>
<circle cx="109.5" cy="55.5" r="1.5" fill="#FDFCF5"/>
<circle cx="118.5" cy="55.5" r="1.5" fill="#FDFCF5"/>
<circle cx="127.5" cy="55.5" r="1.5" fill="#FDFCF5"/>
<circle cx="1.49976" cy="64.5" r="1.5" fill="#FDFCF5"/>
<circle cx="10.4998" cy="64.5" r="1.5" fill="#FDFCF5"/>
<circle cx="19.4998" cy="64.5" r="1.5" fill="#FDFCF5"/>
<circle cx="28.4998" cy="64.5" r="1.5" fill="#FDFCF5"/>
<circle cx="37.4998" cy="64.5" r="1.5" fill="#FDFCF5"/>
<circle cx="46.4998" cy="64.5" r="1.5" fill="#FDFCF5"/>
<circle cx="55.4998" cy="64.5" r="1.5" fill="#FDFCF5"/>
<circle cx="64.4998" cy="64.5" r="1.5" fill="#FDFCF5"/>
<circle cx="73.4998" cy="64.5" r="1.5" fill="#FDFCF5"/>
<circle cx="82.4998" cy="64.5" r="1.5" fill="#FDFCF5"/>
<circle cx="91.4998" cy="64.5" r="1.5" fill="#FDFCF5"/>
<circle cx="100.5" cy="64.5" r="1.5" fill="#FDFCF5"/>
<circle cx="109.5" cy="64.5" r="1.5" fill="#FDFCF5"/>
<circle cx="118.5" cy="64.5" r="1.5" fill="#FDFCF5"/>
<circle cx="127.5" cy="64.5" r="1.5" fill="#FDFCF5"/>
<circle cx="1.49976" cy="73.5" r="1.5" fill="#FDFCF5"/>
<circle cx="10.4998" cy="73.5" r="1.5" fill="#FDFCF5"/>
<circle cx="19.4998" cy="73.5" r="1.5" fill="#FDFCF5"/>
<circle cx="28.4998" cy="73.5" r="1.5" fill="#FDFCF5"/>
<circle cx="37.4998" cy="73.5" r="1.5" fill="#FDFCF5"/>
<circle cx="46.4998" cy="73.5" r="1.5" fill="#FDFCF5"/>
<circle cx="55.4998" cy="73.5" r="1.5" fill="#FDFCF5"/>
<circle cx="64.4998" cy="73.5" r="1.5" fill="#FDFCF5"/>
<circle cx="73.4998" cy="73.5" r="1.5" fill="#FDFCF5"/>
<circle cx="82.4998" cy="73.5" r="1.5" fill="#FDFCF5"/>
<circle cx="91.4998" cy="73.5" r="1.5" fill="#FDFCF5"/>
<circle cx="100.5" cy="73.5" r="1.5" fill="#FDFCF5"/>
<circle cx="109.5" cy="73.5" r="1.5" fill="#FDFCF5"/>
<circle cx="118.5" cy="73.5" r="1.5" fill="#FDFCF5"/>
<circle cx="127.5" cy="73.5" r="1.5" fill="#FDFCF5"/>
<circle cx="1.49976" cy="82.5" r="1.5" fill="#FDFCF5"/>
<circle cx="10.4998" cy="82.5" r="1.5" fill="#FDFCF5"/>
<circle cx="19.4998" cy="82.5" r="1.5" fill="#FDFCF5"/>
<circle cx="28.4998" cy="82.5" r="1.5" fill="#FDFCF5"/>
<circle cx="37.4998" cy="82.5" r="1.5" fill="#FDFCF5"/>
<circle cx="46.4998" cy="82.5" r="1.5" fill="#FDFCF5"/>
<circle cx="55.4998" cy="82.5" r="1.5" fill="#FDFCF5"/>
<circle cx="64.4998" cy="82.5" r="1.5" fill="#FDFCF5"/>
<circle cx="73.4998" cy="82.5" r="1.5" fill="#FDFCF5"/>
<circle cx="82.4998" cy="82.5" r="1.5" fill="#FDFCF5"/>
<circle cx="91.4998" cy="82.5" r="1.5" fill="#FDFCF5"/>
<circle cx="100.5" cy="82.5" r="1.5" fill="#FDFCF5"/>
<circle cx="109.5" cy="82.5" r="1.5" fill="#FDFCF5"/>
<circle cx="118.5" cy="82.5" r="1.5" fill="#FDFCF5"/>
<circle cx="127.5" cy="82.5" r="1.5" fill="#FDFCF5"/>
<circle cx="1.49976" cy="91.5" r="1.5" fill="#FDFCF5"/>
<circle cx="10.4998" cy="91.5" r="1.5" fill="#FDFCF5"/>
<circle cx="19.4998" cy="91.5" r="1.5" fill="#FDFCF5"/>
<circle cx="28.4998" cy="91.5" r="1.5" fill="#FDFCF5"/>
<circle cx="37.4998" cy="91.5" r="1.5" fill="#FDFCF5"/>
<circle cx="46.4998" cy="91.5" r="1.5" fill="#FDFCF5"/>
<circle cx="55.4998" cy="91.5" r="1.5" fill="#FDFCF5"/>
<circle cx="64.4998" cy="91.5" r="1.5" fill="#FDFCF5"/>
<circle cx="73.4998" cy="91.5" r="1.5" fill="#FDFCF5"/>
<circle cx="82.4998" cy="91.5" r="1.5" fill="#FDFCF5"/>
<circle cx="91.4998" cy="91.5" r="1.5" fill="#FDFCF5"/>
<circle cx="100.5" cy="91.5" r="1.5" fill="#FDFCF5"/>
<circle cx="109.5" cy="91.5" r="1.5" fill="#FDFCF5"/>
<circle cx="118.5" cy="91.5" r="1.5" fill="#FDFCF5"/>
<circle cx="127.5" cy="91.5" r="1.5" fill="#FDFCF5"/>
<circle cx="1.49976" cy="100.5" r="1.5" fill="#FDFCF5"/>
<circle cx="10.4998" cy="100.5" r="1.5" fill="#FDFCF5"/>
<circle cx="19.4998" cy="100.5" r="1.5" fill="#FDFCF5"/>
<circle cx="28.4998" cy="100.5" r="1.5" fill="#FDFCF5"/>
<circle cx="37.4998" cy="100.5" r="1.5" fill="#FDFCF5"/>
<circle cx="46.4998" cy="100.5" r="1.5" fill="#FDFCF5"/>
<circle cx="55.4998" cy="100.5" r="1.5" fill="#FDFCF5"/>
<circle cx="64.4998" cy="100.5" r="1.5" fill="#FDFCF5"/>
<circle cx="73.4998" cy="100.5" r="1.5" fill="#FDFCF5"/>
<circle cx="82.4998" cy="100.5" r="1.5" fill="#FDFCF5"/>
<circle cx="91.4998" cy="100.5" r="1.5" fill="#FDFCF5"/>
<circle cx="100.5" cy="100.5" r="1.5" fill="#FDFCF5"/>
<circle cx="109.5" cy="100.5" r="1.5" fill="#FDFCF5"/>
<circle cx="118.5" cy="100.5" r="1.5" fill="#FDFCF5"/>
<circle cx="127.5" cy="100.5" r="1.5" fill="#FDFCF5"/>
<circle cx="1.49976" cy="109.5" r="1.5" fill="#FDFCF5"/>
<circle cx="10.4998" cy="109.5" r="1.5" fill="#FDFCF5"/>
<circle cx="19.4998" cy="109.5" r="1.5" fill="#FDFCF5"/>
<circle cx="28.4998" cy="109.5" r="1.5" fill="#FDFCF5"/>
<circle cx="37.4998" cy="109.5" r="1.5" fill="#FDFCF5"/>
<circle cx="46.4998" cy="109.5" r="1.5" fill="#FDFCF5"/>
<circle cx="55.4998" cy="109.5" r="1.5" fill="#FDFCF5"/>
<circle cx="64.4998" cy="109.5" r="1.5" fill="#FDFCF5"/>
<circle cx="73.4998" cy="109.5" r="1.5" fill="#FDFCF5"/>
<circle cx="82.4998" cy="109.5" r="1.5" fill="#FDFCF5"/>
<circle cx="91.4998" cy="109.5" r="1.5" fill="#FDFCF5"/>
<circle cx="100.5" cy="109.5" r="1.5" fill="#FDFCF5"/>
<circle cx="109.5" cy="109.5" r="1.5" fill="#FDFCF5"/>
<circle cx="118.5" cy="109.5" r="1.5" fill="#FDFCF5"/>
<circle cx="127.5" cy="109.5" r="1.5" fill="#FDFCF5"/>
<circle cx="1.49976" cy="118.5" r="1.5" fill="#FDFCF5"/>
<circle cx="10.4998" cy="118.5" r="1.5" fill="#FDFCF5"/>
<circle cx="19.4998" cy="118.5" r="1.5" fill="#FDFCF5"/>
<circle cx="28.4998" cy="118.5" r="1.5" fill="#FDFCF5"/>
<circle cx="37.4998" cy="118.5" r="1.5" fill="#FDFCF5"/>
<circle cx="46.4998" cy="118.5" r="1.5" fill="#FDFCF5"/>
<circle cx="55.4998" cy="118.5" r="1.5" fill="#FDFCF5"/>
<circle cx="64.4998" cy="118.5" r="1.5" fill="#FDFCF5"/>
<circle cx="73.4998" cy="118.5" r="1.5" fill="#FDFCF5"/>
<circle cx="82.4998" cy="118.5" r="1.5" fill="#FDFCF5"/>
<circle cx="91.4998" cy="118.5" r="1.5" fill="#FDFCF5"/>
<circle cx="100.5" cy="118.5" r="1.5" fill="#FDFCF5"/>
<circle cx="109.5" cy="118.5" r="1.5" fill="#FDFCF5"/>
<circle cx="118.5" cy="118.5" r="1.5" fill="#FDFCF5"/>
<circle cx="127.5" cy="118.5" r="1.5" fill="#FDFCF5"/>
<circle cx="1.49976" cy="127.5" r="1.5" fill="#FDFCF5"/>
<circle cx="10.4998" cy="127.5" r="1.5" fill="#FDFCF5"/>
<circle cx="19.4998" cy="127.5" r="1.5" fill="#FDFCF5"/>
<circle cx="28.4998" cy="127.5" r="1.5" fill="#FDFCF5"/>
<circle cx="37.4998" cy="127.5" r="1.5" fill="#FDFCF5"/>
<circle cx="46.4998" cy="127.5" r="1.5" fill="#FDFCF5"/>
<circle cx="55.4998" cy="127.5" r="1.5" fill="#FDFCF5"/>
<circle cx="64.4998" cy="127.5" r="1.5" fill="#FDFCF5"/>
<circle cx="73.4998" cy="127.5" r="1.5" fill="#FDFCF5"/>
<circle cx="82.4998" cy="127.5" r="1.5" fill="#FDFCF5"/>
<circle cx="91.4998" cy="127.5" r="1.5" fill="#FDFCF5"/>
<circle cx="100.5" cy="127.5" r="1.5" fill="#FDFCF5"/>
<circle cx="109.5" cy="127.5" r="1.5" fill="#FDFCF5"/>
<circle cx="118.5" cy="127.5" r="1.5" fill="#FDFCF5"/>
<circle cx="127.5" cy="127.5" r="1.5" fill="#FDFCF5"/>
</g>
</g>
<defs>
<clipPath id="clip0_35_26">
<rect width="128" height="128" fill="white"/>
</clipPath>
<clipPath id="clip1_35_26">
<rect width="138" height="132" fill="white" transform="translate(-0.000244141)"/>
</clipPath>
</defs>
</svg>
