<svg width="133" height="79" viewBox="0 0 133 79" fill="none" xmlns="http://www.w3.org/2000/svg">
<path fill-rule="evenodd" clip-rule="evenodd" d="M32.0002 27.6C36.2662 10.534 46.9342 2 64.0002 2C89.6002 2 92.8002 21.2 105.6 24.4C114.134 26.534 121.6 23.334 128 14.8C123.734 31.866 113.066 40.4 96.0002 40.4C70.4002 40.4 67.2002 21.2 54.4002 18C45.8662 15.866 38.4002 19.066 32.0002 27.6ZM0.000244141 66C4.26624 48.934 14.9342 40.4 32.0002 40.4C57.6002 40.4 60.8002 59.6 73.6002 62.8C82.1342 64.934 89.6002 61.734 96.0002 53.2C91.7342 70.266 81.0662 78.8 64.0002 78.8C38.4002 78.8 35.2002 59.6 22.4002 56.4C13.8662 54.266 6.40024 57.466 0.000244141 66Z" fill="url(#paint0_linear_100_841)"/>
<g clip-path="url(#clip0_100_841)">
<circle cx="1.5" cy="1.5" r="1.5" fill="#FDFCF5"/>
<circle cx="10.5" cy="1.5" r="1.5" fill="#FDFCF5"/>
<circle cx="19.5" cy="1.5" r="1.5" fill="#FDFCF5"/>
<circle cx="28.5" cy="1.5" r="1.5" fill="#FDFCF5"/>
<circle cx="37.5" cy="1.5" r="1.5" fill="#FDFCF5"/>
<circle cx="46.5" cy="1.5" r="1.5" fill="#FDFCF5"/>
<circle cx="55.5" cy="1.5" r="1.5" fill="#FDFCF5"/>
<circle cx="64.5" cy="1.5" r="1.5" fill="#FDFCF5"/>
<circle cx="73.5" cy="1.5" r="1.5" fill="#FDFCF5"/>
<circle cx="82.5" cy="1.5" r="1.5" fill="#FDFCF5"/>
<circle cx="91.5" cy="1.5" r="1.5" fill="#FDFCF5"/>
<circle cx="100.5" cy="1.5" r="1.5" fill="#FDFCF5"/>
<circle cx="109.5" cy="1.5" r="1.5" fill="#FDFCF5"/>
<circle cx="118.5" cy="1.5" r="1.5" fill="#FDFCF5"/>
<circle cx="127.5" cy="1.5" r="1.5" fill="#FDFCF5"/>
<circle cx="1.5" cy="10.5" r="1.5" fill="#FDFCF5"/>
<circle cx="10.5" cy="10.5" r="1.5" fill="#FDFCF5"/>
<circle cx="19.5" cy="10.5" r="1.5" fill="#FDFCF5"/>
<circle cx="28.5" cy="10.5" r="1.5" fill="#FDFCF5"/>
<circle cx="37.5" cy="10.5" r="1.5" fill="#FDFCF5"/>
<circle cx="46.5" cy="10.5" r="1.5" fill="#FDFCF5"/>
<circle cx="55.5" cy="10.5" r="1.5" fill="#FDFCF5"/>
<circle cx="64.5" cy="10.5" r="1.5" fill="#FDFCF5"/>
<circle cx="73.5" cy="10.5" r="1.5" fill="#FDFCF5"/>
<circle cx="82.5" cy="10.5" r="1.5" fill="#FDFCF5"/>
<circle cx="91.5" cy="10.5" r="1.5" fill="#FDFCF5"/>
<circle cx="100.5" cy="10.5" r="1.5" fill="#FDFCF5"/>
<circle cx="109.5" cy="10.5" r="1.5" fill="#FDFCF5"/>
<circle cx="118.5" cy="10.5" r="1.5" fill="#FDFCF5"/>
<circle cx="127.5" cy="10.5" r="1.5" fill="#FDFCF5"/>
<circle cx="1.5" cy="19.5" r="1.5" fill="#FDFCF5"/>
<circle cx="10.5" cy="19.5" r="1.5" fill="#FDFCF5"/>
<circle cx="19.5" cy="19.5" r="1.5" fill="#FDFCF5"/>
<circle cx="28.5" cy="19.5" r="1.5" fill="#FDFCF5"/>
<circle cx="37.5" cy="19.5" r="1.5" fill="#FDFCF5"/>
<circle cx="46.5" cy="19.5" r="1.5" fill="#FDFCF5"/>
<circle cx="55.5" cy="19.5" r="1.5" fill="#FDFCF5"/>
<circle cx="64.5" cy="19.5" r="1.5" fill="#FDFCF5"/>
<circle cx="73.5" cy="19.5" r="1.5" fill="#FDFCF5"/>
<circle cx="82.5" cy="19.5" r="1.5" fill="#FDFCF5"/>
<circle cx="91.5" cy="19.5" r="1.5" fill="#FDFCF5"/>
<circle cx="100.5" cy="19.5" r="1.5" fill="#FDFCF5"/>
<circle cx="109.5" cy="19.5" r="1.5" fill="#FDFCF5"/>
<circle cx="118.5" cy="19.5" r="1.5" fill="#FDFCF5"/>
<circle cx="127.5" cy="19.5" r="1.5" fill="#FDFCF5"/>
<circle cx="1.5" cy="28.5" r="1.5" fill="#FDFCF5"/>
<circle cx="10.5" cy="28.5" r="1.5" fill="#FDFCF5"/>
<circle cx="19.5" cy="28.5" r="1.5" fill="#FDFCF5"/>
<circle cx="28.5" cy="28.5" r="1.5" fill="#FDFCF5"/>
<circle cx="37.5" cy="28.5" r="1.5" fill="#FDFCF5"/>
<circle cx="46.5" cy="28.5" r="1.5" fill="#FDFCF5"/>
<circle cx="55.5" cy="28.5" r="1.5" fill="#FDFCF5"/>
<circle cx="64.5" cy="28.5" r="1.5" fill="#FDFCF5"/>
<circle cx="73.5" cy="28.5" r="1.5" fill="#FDFCF5"/>
<circle cx="82.5" cy="28.5" r="1.5" fill="#FDFCF5"/>
<circle cx="91.5" cy="28.5" r="1.5" fill="#FDFCF5"/>
<circle cx="100.5" cy="28.5" r="1.5" fill="#FDFCF5"/>
<circle cx="109.5" cy="28.5" r="1.5" fill="#FDFCF5"/>
<circle cx="118.5" cy="28.5" r="1.5" fill="#FDFCF5"/>
<circle cx="127.5" cy="28.5" r="1.5" fill="#FDFCF5"/>
<circle cx="1.5" cy="37.5" r="1.5" fill="#FDFCF5"/>
<circle cx="10.5" cy="37.5" r="1.5" fill="#FDFCF5"/>
<circle cx="19.5" cy="37.5" r="1.5" fill="#FDFCF5"/>
<circle cx="28.5" cy="37.5" r="1.5" fill="#FDFCF5"/>
<circle cx="37.5" cy="37.5" r="1.5" fill="#FDFCF5"/>
<circle cx="46.5" cy="37.5" r="1.5" fill="#FDFCF5"/>
<circle cx="55.5" cy="37.5" r="1.5" fill="#FDFCF5"/>
<circle cx="64.5" cy="37.5" r="1.5" fill="#FDFCF5"/>
<circle cx="73.5" cy="37.5" r="1.5" fill="#FDFCF5"/>
<circle cx="82.5" cy="37.5" r="1.5" fill="#FDFCF5"/>
<circle cx="91.5" cy="37.5" r="1.5" fill="#FDFCF5"/>
<circle cx="100.5" cy="37.5" r="1.5" fill="#FDFCF5"/>
<circle cx="109.5" cy="37.5" r="1.5" fill="#FDFCF5"/>
<circle cx="118.5" cy="37.5" r="1.5" fill="#FDFCF5"/>
<circle cx="127.5" cy="37.5" r="1.5" fill="#FDFCF5"/>
<circle cx="1.5" cy="46.5" r="1.5" fill="#FDFCF5"/>
<circle cx="10.5" cy="46.5" r="1.5" fill="#FDFCF5"/>
<circle cx="19.5" cy="46.5" r="1.5" fill="#FDFCF5"/>
<circle cx="28.5" cy="46.5" r="1.5" fill="#FDFCF5"/>
<circle cx="37.5" cy="46.5" r="1.5" fill="#FDFCF5"/>
<circle cx="46.5" cy="46.5" r="1.5" fill="#FDFCF5"/>
<circle cx="55.5" cy="46.5" r="1.5" fill="#FDFCF5"/>
<circle cx="64.5" cy="46.5" r="1.5" fill="#FDFCF5"/>
<circle cx="73.5" cy="46.5" r="1.5" fill="#FDFCF5"/>
<circle cx="82.5" cy="46.5" r="1.5" fill="#FDFCF5"/>
<circle cx="91.5" cy="46.5" r="1.5" fill="#FDFCF5"/>
<circle cx="100.5" cy="46.5" r="1.5" fill="#FDFCF5"/>
<circle cx="109.5" cy="46.5" r="1.5" fill="#FDFCF5"/>
<circle cx="118.5" cy="46.5" r="1.5" fill="#FDFCF5"/>
<circle cx="127.5" cy="46.5" r="1.5" fill="#FDFCF5"/>
<circle cx="1.5" cy="55.5" r="1.5" fill="#FDFCF5"/>
<circle cx="10.5" cy="55.5" r="1.5" fill="#FDFCF5"/>
<circle cx="19.5" cy="55.5" r="1.5" fill="#FDFCF5"/>
<circle cx="28.5" cy="55.5" r="1.5" fill="#FDFCF5"/>
<circle cx="37.5" cy="55.5" r="1.5" fill="#FDFCF5"/>
<circle cx="46.5" cy="55.5" r="1.5" fill="#FDFCF5"/>
<circle cx="55.5" cy="55.5" r="1.5" fill="#FDFCF5"/>
<circle cx="64.5" cy="55.5" r="1.5" fill="#FDFCF5"/>
<circle cx="73.5" cy="55.5" r="1.5" fill="#FDFCF5"/>
<circle cx="82.5" cy="55.5" r="1.5" fill="#FDFCF5"/>
<circle cx="91.5" cy="55.5" r="1.5" fill="#FDFCF5"/>
<circle cx="100.5" cy="55.5" r="1.5" fill="#FDFCF5"/>
<circle cx="109.5" cy="55.5" r="1.5" fill="#FDFCF5"/>
<circle cx="118.5" cy="55.5" r="1.5" fill="#FDFCF5"/>
<circle cx="127.5" cy="55.5" r="1.5" fill="#FDFCF5"/>
<circle cx="1.5" cy="64.5" r="1.5" fill="#FDFCF5"/>
<circle cx="10.5" cy="64.5" r="1.5" fill="#FDFCF5"/>
<circle cx="19.5" cy="64.5" r="1.5" fill="#FDFCF5"/>
<circle cx="28.5" cy="64.5" r="1.5" fill="#FDFCF5"/>
<circle cx="37.5" cy="64.5" r="1.5" fill="#FDFCF5"/>
<circle cx="46.5" cy="64.5" r="1.5" fill="#FDFCF5"/>
<circle cx="55.5" cy="64.5" r="1.5" fill="#FDFCF5"/>
<circle cx="64.5" cy="64.5" r="1.5" fill="#FDFCF5"/>
<circle cx="73.5" cy="64.5" r="1.5" fill="#FDFCF5"/>
<circle cx="82.5" cy="64.5" r="1.5" fill="#FDFCF5"/>
<circle cx="91.5" cy="64.5" r="1.5" fill="#FDFCF5"/>
<circle cx="100.5" cy="64.5" r="1.5" fill="#FDFCF5"/>
<circle cx="109.5" cy="64.5" r="1.5" fill="#FDFCF5"/>
<circle cx="118.5" cy="64.5" r="1.5" fill="#FDFCF5"/>
<circle cx="127.5" cy="64.5" r="1.5" fill="#FDFCF5"/>
<circle cx="1.5" cy="73.5" r="1.5" fill="#FDFCF5"/>
<circle cx="10.5" cy="73.5" r="1.5" fill="#FDFCF5"/>
<circle cx="19.5" cy="73.5" r="1.5" fill="#FDFCF5"/>
<circle cx="28.5" cy="73.5" r="1.5" fill="#FDFCF5"/>
<circle cx="37.5" cy="73.5" r="1.5" fill="#FDFCF5"/>
<circle cx="46.5" cy="73.5" r="1.5" fill="#FDFCF5"/>
<circle cx="55.5" cy="73.5" r="1.5" fill="#FDFCF5"/>
<circle cx="64.5" cy="73.5" r="1.5" fill="#FDFCF5"/>
<circle cx="73.5" cy="73.5" r="1.5" fill="#FDFCF5"/>
<circle cx="82.5" cy="73.5" r="1.5" fill="#FDFCF5"/>
<circle cx="91.5" cy="73.5" r="1.5" fill="#FDFCF5"/>
<circle cx="100.5" cy="73.5" r="1.5" fill="#FDFCF5"/>
<circle cx="109.5" cy="73.5" r="1.5" fill="#FDFCF5"/>
<circle cx="118.5" cy="73.5" r="1.5" fill="#FDFCF5"/>
<circle cx="127.5" cy="73.5" r="1.5" fill="#FDFCF5"/>
</g>
<defs>
<linearGradient id="paint0_linear_100_841" x1="0.000247321" y1="-66.266" x2="128" y2="147.066" gradientUnits="userSpaceOnUse">
<stop stop-color="#2383AE"/>
<stop offset="1" stop-color="#6DD7B9"/>
</linearGradient>
<clipPath id="clip0_100_841">
<rect width="133" height="79" fill="white"/>
</clipPath>
</defs>
</svg>
