<svg width="129" height="34" viewBox="0 0 129 34" fill="none" xmlns="http://www.w3.org/2000/svg">
<path d="M28.7395 24.7598L15.7231 32.122V26.3829L23.8385 21.9168L28.7501 24.7492L28.7395 24.7598ZM29.6306 23.9536V8.55031L24.8675 11.2979V21.1954L29.6625 23.9536H29.6306ZM1.56102 24.7598L14.5774 32.122V26.3829L6.46207 21.9274L1.56102 24.7598ZM0.669922 23.9536V8.55031L5.43306 11.2979V21.1954L0.669922 23.9536ZM1.23216 7.55313L14.588 0V5.53754L6.02712 10.2476H5.96347L1.23216 7.55313ZM29.079 7.55313L15.7231 0V5.53754L24.2734 10.237L24.3583 10.3113L29.0896 7.58495L29.079 7.55313Z" fill="#8ED6FB"/>
<path d="M14.5775 25.0781L6.57886 20.6757V11.9556L14.5881 16.5809L14.5775 25.0781ZM15.7232 25.0781L23.7325 20.6757V11.9556L15.7232 16.5809V25.0781ZM7.11988 10.9479L15.1504 6.53479L23.1915 10.9479L15.1504 15.6155L7.11988 10.9479Z" fill="#1C78C0"/>
<path d="M48.3439 21.9804H51.8659L55.4515 10.0248H52.025L49.9033 18.5115L47.6331 10.0248H44.6628L42.3714 18.5115L40.2498 10.0248H36.8445L40.4089 21.9804H43.9308L46.148 14.3212L48.3439 21.9804ZM55.6318 16.0397C55.5919 16.874 55.7276 17.7074 56.0304 18.4858C56.3331 19.2642 56.796 19.9704 57.3891 20.5585C57.9822 21.1466 58.6922 21.6035 59.4732 21.8996C60.2542 22.1957 61.0886 22.3244 61.9226 22.2774C62.9179 22.3188 63.9065 22.0974 64.7892 21.6356C65.6718 21.1738 66.4174 20.4878 66.9509 19.6465L64.8292 18.0659C64.5001 18.5277 64.0634 18.9023 63.557 19.1574C63.0505 19.4125 62.4895 19.5403 61.9226 19.5299C61.5373 19.5572 61.1504 19.5074 60.7846 19.3835C60.4188 19.2596 60.0813 19.0641 59.7919 18.8083C59.5026 18.5525 59.2671 18.2415 59.0992 17.8937C58.9313 17.5458 58.8345 17.168 58.8143 16.7823H67.2373C67.2373 16.5489 67.2373 16.3261 67.2373 16.0928C67.2373 12.1889 65.1157 9.72777 61.4346 9.72777C58.0293 9.72777 55.5788 12.4223 55.5788 16.0397H55.6318ZM58.9522 14.7349C58.9769 14.0791 59.2549 13.4585 59.7278 13.0035C60.2006 12.5485 60.8314 12.2945 61.4876 12.295C61.8159 12.2792 62.144 12.33 62.4522 12.4442C62.7605 12.5585 63.0424 12.7338 63.2812 12.9597C63.52 13.1856 63.7106 13.4574 63.8417 13.7588C63.9729 14.0602 64.0417 14.385 64.0442 14.7137L58.9522 14.7349ZM68.4997 21.9804H71.47V20.7286C71.9172 21.2216 72.4648 21.6131 73.076 21.8766C73.6872 22.1401 74.3478 22.2696 75.0132 22.2562C78.4397 22.2562 80.869 19.6784 80.869 15.9973C80.869 12.3162 78.6307 9.71716 75.1936 9.71716C74.525 9.6956 73.86 9.82344 73.247 10.0914C72.6341 10.3593 72.0886 10.7606 71.6504 11.266V5.4314H68.4679V21.9804H68.4997ZM71.5655 16.0397C71.5655 13.8014 72.8916 12.5178 74.6313 12.5178C76.3711 12.5178 77.6971 13.9605 77.6971 16.0397C77.6971 18.1189 76.4135 19.4874 74.6313 19.4874C74.2 19.4731 73.7761 19.3712 73.3854 19.188C72.9947 19.0047 72.6453 18.7439 72.3586 18.4215C72.0718 18.099 71.8536 17.7215 71.7173 17.3121C71.581 16.9026 71.5293 16.4697 71.5655 16.0397ZM82.089 26.2237H85.2715V20.7074C85.7146 21.2054 86.2614 21.6003 86.8736 21.8643C87.4858 22.1282 88.1483 22.2547 88.8147 22.235C92.2411 22.235 94.4901 19.6572 94.4901 15.9548C94.4901 12.2525 92.0714 9.69594 88.6343 9.69594C87.9665 9.68028 87.3034 9.8108 86.6914 10.0783C86.0793 10.3459 85.5332 10.744 85.0911 11.2448V10.0036H82.1208V26.2237H82.089ZM85.1548 15.9336C85.1186 15.5036 85.1702 15.0707 85.3066 14.6613C85.4429 14.2518 85.6611 13.8744 85.9478 13.5519C86.2346 13.2294 86.584 12.9686 86.9747 12.7854C87.3654 12.6021 87.7893 12.5002 88.2206 12.4859C90.0028 12.4859 91.2864 13.812 91.2864 15.9336C91.2864 18.0553 90.0558 19.4556 88.2206 19.4556C86.3853 19.4556 85.1548 18.172 85.1548 15.9336ZM95.0311 18.2463C95.0311 20.7604 97.0891 22.2456 99.5078 22.2456C100.04 22.2868 100.575 22.2134 101.076 22.0304C101.578 21.8474 102.034 21.559 102.415 21.1848L102.616 21.9592H105.406V14.3954C105.406 11.7221 104.26 9.70655 100.42 9.70655C98.7479 9.72956 97.1158 10.2221 95.7101 11.1281L96.8982 13.2497C97.8772 12.7197 98.9677 12.4289 100.081 12.4011C101.481 12.4011 102.202 13.1118 102.202 14.162V14.9365C101.433 14.5017 100.56 14.2853 99.6776 14.3106C96.8876 14.3106 95.0311 15.9018 95.0311 18.2569V18.2463ZM98.2136 18.1508C98.2136 17.1642 99.0623 16.4853 100.272 16.4853C101.481 16.4853 102.393 17.1005 102.393 18.1508C102.393 19.201 101.46 19.8587 100.272 19.8587C99.0835 19.8587 98.15 19.201 98.15 18.2144L98.2136 18.1508ZM113.065 19.4556C112.172 19.4218 111.326 19.0468 110.702 18.4079C110.077 17.7689 109.721 16.9146 109.707 16.0211C109.694 15.1275 110.023 14.2628 110.628 13.6051C111.233 12.9474 112.068 12.5468 112.959 12.4859C114.002 12.4957 115.001 12.9059 115.749 13.6316L116.64 10.9795C115.561 10.1398 114.231 9.68767 112.864 9.69594C112.025 9.66824 111.189 9.81216 110.408 10.1189C109.627 10.4256 108.916 10.8886 108.32 11.4796C107.724 12.0706 107.255 12.7771 106.942 13.5557C106.629 14.3344 106.478 15.1688 106.499 16.0079C106.476 16.8441 106.626 17.676 106.939 18.4516C107.253 19.2272 107.723 19.9298 108.32 20.5153C108.918 21.1008 109.63 21.5567 110.412 21.8544C111.193 22.1521 112.028 22.2853 112.864 22.2456C114.233 22.2682 115.569 21.8228 116.651 20.9832L115.802 18.4054C115.048 19.0571 114.093 19.4314 113.097 19.4662L113.065 19.4556ZM117.807 21.9804H120.99V15.7957L124.968 21.9804H128.67L124.14 15.435L128.384 10.0142H124.841L121 15.0425V5.4314H117.818V21.9804H117.807Z" fill="#1C78C0"/>
<g clip-path="url(#clip0_112_6904)">
<circle cx="1.5" cy="2.21997" r="1.5" fill="#FDFCF5"/>
<circle cx="10.5" cy="2.21997" r="1.5" fill="#FDFCF5"/>
<circle cx="19.5" cy="2.21997" r="1.5" fill="#FDFCF5"/>
<circle cx="28.5" cy="2.21997" r="1.5" fill="#FDFCF5"/>
<circle cx="37.5" cy="2.21997" r="1.5" fill="#FDFCF5"/>
<circle cx="46.5" cy="2.21997" r="1.5" fill="#FDFCF5"/>
<circle cx="55.5" cy="2.21997" r="1.5" fill="#FDFCF5"/>
<circle cx="64.5" cy="2.21997" r="1.5" fill="#FDFCF5"/>
<circle cx="73.5" cy="2.21997" r="1.5" fill="#FDFCF5"/>
<circle cx="82.5" cy="2.21997" r="1.5" fill="#FDFCF5"/>
<circle cx="91.5" cy="2.21997" r="1.5" fill="#FDFCF5"/>
<circle cx="100.5" cy="2.21997" r="1.5" fill="#FDFCF5"/>
<circle cx="109.5" cy="2.21997" r="1.5" fill="#FDFCF5"/>
<circle cx="118.5" cy="2.21997" r="1.5" fill="#FDFCF5"/>
<circle cx="127.5" cy="2.21997" r="1.5" fill="#FDFCF5"/>
<circle cx="1.5" cy="11.22" r="1.5" fill="#FDFCF5"/>
<circle cx="10.5" cy="11.22" r="1.5" fill="#FDFCF5"/>
<circle cx="19.5" cy="11.22" r="1.5" fill="#FDFCF5"/>
<circle cx="28.5" cy="11.22" r="1.5" fill="#FDFCF5"/>
<circle cx="37.5" cy="11.22" r="1.5" fill="#FDFCF5"/>
<circle cx="46.5" cy="11.22" r="1.5" fill="#FDFCF5"/>
<circle cx="55.5" cy="11.22" r="1.5" fill="#FDFCF5"/>
<circle cx="64.5" cy="11.22" r="1.5" fill="#FDFCF5"/>
<circle cx="73.5" cy="11.22" r="1.5" fill="#FDFCF5"/>
<circle cx="82.5" cy="11.22" r="1.5" fill="#FDFCF5"/>
<circle cx="91.5" cy="11.22" r="1.5" fill="#FDFCF5"/>
<circle cx="100.5" cy="11.22" r="1.5" fill="#FDFCF5"/>
<circle cx="109.5" cy="11.22" r="1.5" fill="#FDFCF5"/>
<circle cx="118.5" cy="11.22" r="1.5" fill="#FDFCF5"/>
<circle cx="127.5" cy="11.22" r="1.5" fill="#FDFCF5"/>
<circle cx="1.5" cy="20.22" r="1.5" fill="#FDFCF5"/>
<circle cx="10.5" cy="20.22" r="1.5" fill="#FDFCF5"/>
<circle cx="19.5" cy="20.22" r="1.5" fill="#FDFCF5"/>
<circle cx="28.5" cy="20.22" r="1.5" fill="#FDFCF5"/>
<circle cx="37.5" cy="20.22" r="1.5" fill="#FDFCF5"/>
<circle cx="46.5" cy="20.22" r="1.5" fill="#FDFCF5"/>
<circle cx="55.5" cy="20.22" r="1.5" fill="#FDFCF5"/>
<circle cx="64.5" cy="20.22" r="1.5" fill="#FDFCF5"/>
<circle cx="73.5" cy="20.22" r="1.5" fill="#FDFCF5"/>
<circle cx="82.5" cy="20.22" r="1.5" fill="#FDFCF5"/>
<circle cx="91.5" cy="20.22" r="1.5" fill="#FDFCF5"/>
<circle cx="100.5" cy="20.22" r="1.5" fill="#FDFCF5"/>
<circle cx="109.5" cy="20.22" r="1.5" fill="#FDFCF5"/>
<circle cx="118.5" cy="20.22" r="1.5" fill="#FDFCF5"/>
<circle cx="127.5" cy="20.22" r="1.5" fill="#FDFCF5"/>
<circle cx="1.5" cy="29.22" r="1.5" fill="#FDFCF5"/>
<circle cx="10.5" cy="29.22" r="1.5" fill="#FDFCF5"/>
<circle cx="19.5" cy="29.22" r="1.5" fill="#FDFCF5"/>
<circle cx="28.5" cy="29.22" r="1.5" fill="#FDFCF5"/>
<circle cx="37.5" cy="29.22" r="1.5" fill="#FDFCF5"/>
<circle cx="46.5" cy="29.22" r="1.5" fill="#FDFCF5"/>
<circle cx="55.5" cy="29.22" r="1.5" fill="#FDFCF5"/>
<circle cx="64.5" cy="29.22" r="1.5" fill="#FDFCF5"/>
<circle cx="73.5" cy="29.22" r="1.5" fill="#FDFCF5"/>
<circle cx="82.5" cy="29.22" r="1.5" fill="#FDFCF5"/>
<circle cx="91.5" cy="29.22" r="1.5" fill="#FDFCF5"/>
<circle cx="100.5" cy="29.22" r="1.5" fill="#FDFCF5"/>
<circle cx="109.5" cy="29.22" r="1.5" fill="#FDFCF5"/>
<circle cx="118.5" cy="29.22" r="1.5" fill="#FDFCF5"/>
<circle cx="127.5" cy="29.22" r="1.5" fill="#FDFCF5"/>
</g>
<defs>
<clipPath id="clip0_112_6904">
<rect width="129" height="33" fill="white" transform="translate(0 0.719971)"/>
</clipPath>
</defs>
</svg>
