<svg width="400" height="261" viewBox="0 0 400 261" fill="none" xmlns="http://www.w3.org/2000/svg">
<path d="M400 82H400.002V260.799H280.924L280.909 260.798C276.218 260.512 272.788 259.804 270.256 257.801C267.715 255.791 266.169 252.551 265.041 247.439L265.032 247.4L265.03 247.36V247.357C265.03 247.356 265.029 247.354 265.029 247.351C265.029 247.344 265.028 247.334 265.027 247.32C265.026 247.294 265.024 247.254 265.021 247.202C265.014 247.098 265.005 246.944 264.993 246.745C264.969 246.346 264.931 245.765 264.882 245.037C264.783 243.581 264.636 241.537 264.439 239.188C264.046 234.484 263.458 228.565 262.676 223.675C262.285 221.231 261.856 219.383 261.352 218.063C260.841 216.73 260.287 216.028 259.71 215.737C259.161 215.461 258.456 215.492 257.458 215.979C256.462 216.467 255.263 217.368 253.805 218.675L232.587 243.045L232.308 243.365L231.946 243.142L192.873 218.965L159.417 256.019L159.062 256.411L158.689 256.034L110.56 207.289C110.541 207.278 110.516 207.263 110.487 207.246C110.405 207.197 110.282 207.124 110.123 207.032C109.806 206.848 109.344 206.584 108.769 206.267C107.617 205.632 106.013 204.785 104.203 203.939C100.557 202.235 96.1709 200.58 92.9619 200.58H0V0H400V82Z" fill="#F4F2E9"/>
</svg>
