<svg width="430" height="112" viewBox="0 0 430 112" fill="none" xmlns="http://www.w3.org/2000/svg">
<path d="M429.702 111.033H301.8L301.784 111.032C296.745 110.725 293.07 109.965 290.358 107.82C287.639 105.669 285.98 102.198 284.77 96.709L284.761 96.6699L284.758 96.6299V96.6191C284.757 96.6121 284.757 96.6009 284.756 96.5869C284.754 96.5586 284.751 96.5155 284.748 96.46C284.741 96.3484 284.732 96.1825 284.719 95.9688C284.692 95.5403 284.652 94.9157 284.6 94.1338C284.494 92.5693 284.335 90.3727 284.124 87.8477C283.701 82.7944 283.068 76.4335 282.228 71.1777C281.808 68.5512 281.347 66.5631 280.804 65.1416C280.255 63.706 279.655 62.9411 279.021 62.6221C278.417 62.3177 277.646 62.3553 276.569 62.8818C275.494 63.4077 274.202 64.3797 272.634 65.7852L249.835 91.9707L249.556 92.291L249.194 92.0674L207.186 66.0762L171.219 105.909L170.863 106.303L170.491 105.926L118.773 53.5479C118.753 53.5355 118.726 53.5191 118.694 53.5C118.605 53.4472 118.473 53.3696 118.303 53.2705C117.961 53.072 117.464 52.7874 116.846 52.4463C115.608 51.7638 113.884 50.8544 111.938 49.9453C108.021 48.1144 103.302 46.3322 99.8447 46.332H0V0H429.702V111.033Z" fill="#F4F2E9"/>
</svg>
