<svg width="429" height="367" viewBox="0 0 429 367" fill="none" xmlns="http://www.w3.org/2000/svg">
<path d="M0 0H99.8447C103.302 0.00012207 108.021 1.78238 111.938 3.61328C113.884 4.52237 115.608 5.43181 116.846 6.11426C117.464 6.45534 117.961 6.73999 118.303 6.93848C118.473 7.03757 118.605 7.11517 118.694 7.16797C118.726 7.18706 118.753 7.20343 118.773 7.21582L170.491 59.5938L170.863 59.9707L171.219 59.5771L207.186 19.7441L249.194 45.7354L249.556 45.959L249.835 45.6387L272.634 19.4531C274.202 18.0476 275.494 17.0757 276.569 16.5498C277.646 16.0232 278.417 15.9856 279.021 16.29C279.655 16.609 280.255 17.374 280.804 18.8096C281.347 20.2311 281.808 22.2192 282.228 24.8457C283.068 30.1015 283.701 36.4623 284.124 41.5156C284.335 44.0407 284.494 46.2372 284.6 47.8018C284.652 48.5836 284.692 49.2082 284.719 49.6367C284.732 49.8505 284.741 50.0163 284.748 50.1279C284.751 50.1834 284.754 50.2265 284.756 50.2549C284.757 50.2689 284.757 50.2801 284.758 50.2871V50.2979L284.761 50.3379L284.77 50.377C285.98 55.8662 287.639 59.3369 290.358 61.4883C293.07 63.6332 296.745 64.3929 301.784 64.7002L301.8 64.7012H429V366.668H0V0Z" fill="#FFDE00"/>
</svg>
