<svg width="128" height="128" viewBox="0 0 128 128" fill="none" xmlns="http://www.w3.org/2000/svg">
<g clip-path="url(#clip0_35_100)">
<path d="M77.701 66.603C75.367 65.835 72.007 66 67.621 66H50V89H68.844C71.788 89 73.856 88.685 75.047 88.465C77.146 88.089 78.901 87.361 80.311 86.483C81.72 85.607 82.879 84.278 83.789 82.602C84.697 80.926 85.152 78.965 85.152 76.772C85.152 74.204 84.494 72.232 83.177 70.336C81.861 68.44 80.036 67.371 77.701 66.603ZM75.282 56.087C77.599 55.399 79.346 54.197 80.521 52.6C81.697 51.002 82.284 48.969 82.284 46.556C82.284 44.27 81.735 42.242 80.638 40.502C79.541 38.762 77.976 38.089 75.939 37.446C73.902 36.805 70.409 37 65.459 37H50V57H66.587C70.629 57 73.526 56.62 75.282 56.087ZM128 19.625C128 10.443 120.557 3 111.375 3H19.625C10.443 3 3 10.443 3 19.625V111.375C3 120.557 10.443 128 19.625 128H111.375C120.557 128 128 120.557 128 111.375V19.625ZM92.553 85.745C91.191 88.518 89.506 90.656 87.501 92.16C85.495 93.664 82.98 94.94 79.957 95.708C76.935 96.477 73.229 97 68.844 97H41V28H68.42C73.684 28 77.905 28.609 81.085 30.002C84.266 31.397 86.756 33.499 88.559 36.397C90.36 39.295 91.261 42.304 91.261 45.468C91.261 48.413 90.461 51.176 88.864 53.776C87.266 56.378 84.853 58.47 81.627 60.068C85.793 61.29 88.997 63.372 91.237 66.316C93.477 69.261 94.597 72.738 94.597 76.748C94.597 79.975 93.916 82.973 92.553 85.745Z" fill="#5B4282"/>
<g clip-path="url(#clip1_35_100)">
<circle cx="4.49976" cy="4.5" r="1.5" fill="#FDFCF5"/>
<circle cx="13.4998" cy="4.5" r="1.5" fill="#FDFCF5"/>
<circle cx="22.4998" cy="4.5" r="1.5" fill="#FDFCF5"/>
<circle cx="31.4998" cy="4.5" r="1.5" fill="#FDFCF5"/>
<circle cx="40.4998" cy="4.5" r="1.5" fill="#FDFCF5"/>
<circle cx="49.4998" cy="4.5" r="1.5" fill="#FDFCF5"/>
<circle cx="58.4998" cy="4.5" r="1.5" fill="#FDFCF5"/>
<circle cx="67.4998" cy="4.5" r="1.5" fill="#FDFCF5"/>
<circle cx="76.4998" cy="4.5" r="1.5" fill="#FDFCF5"/>
<circle cx="85.4998" cy="4.5" r="1.5" fill="#FDFCF5"/>
<circle cx="94.4998" cy="4.5" r="1.5" fill="#FDFCF5"/>
<circle cx="103.5" cy="4.5" r="1.5" fill="#FDFCF5"/>
<circle cx="112.5" cy="4.5" r="1.5" fill="#FDFCF5"/>
<circle cx="121.5" cy="4.5" r="1.5" fill="#FDFCF5"/>
<circle cx="4.49976" cy="13.5" r="1.5" fill="#FDFCF5"/>
<circle cx="13.4998" cy="13.5" r="1.5" fill="#FDFCF5"/>
<circle cx="22.4998" cy="13.5" r="1.5" fill="#FDFCF5"/>
<circle cx="31.4998" cy="13.5" r="1.5" fill="#FDFCF5"/>
<circle cx="40.4998" cy="13.5" r="1.5" fill="#FDFCF5"/>
<circle cx="49.4998" cy="13.5" r="1.5" fill="#FDFCF5"/>
<circle cx="58.4998" cy="13.5" r="1.5" fill="#FDFCF5"/>
<circle cx="67.4998" cy="13.5" r="1.5" fill="#FDFCF5"/>
<circle cx="76.4998" cy="13.5" r="1.5" fill="#FDFCF5"/>
<circle cx="85.4998" cy="13.5" r="1.5" fill="#FDFCF5"/>
<circle cx="94.4998" cy="13.5" r="1.5" fill="#FDFCF5"/>
<circle cx="103.5" cy="13.5" r="1.5" fill="#FDFCF5"/>
<circle cx="112.5" cy="13.5" r="1.5" fill="#FDFCF5"/>
<circle cx="121.5" cy="13.5" r="1.5" fill="#FDFCF5"/>
<circle cx="4.49976" cy="22.5" r="1.5" fill="#FDFCF5"/>
<circle cx="13.4998" cy="22.5" r="1.5" fill="#FDFCF5"/>
<circle cx="22.4998" cy="22.5" r="1.5" fill="#FDFCF5"/>
<circle cx="31.4998" cy="22.5" r="1.5" fill="#FDFCF5"/>
<circle cx="40.4998" cy="22.5" r="1.5" fill="#FDFCF5"/>
<circle cx="49.4998" cy="22.5" r="1.5" fill="#FDFCF5"/>
<circle cx="58.4998" cy="22.5" r="1.5" fill="#FDFCF5"/>
<circle cx="67.4998" cy="22.5" r="1.5" fill="#FDFCF5"/>
<circle cx="76.4998" cy="22.5" r="1.5" fill="#FDFCF5"/>
<circle cx="85.4998" cy="22.5" r="1.5" fill="#FDFCF5"/>
<circle cx="94.4998" cy="22.5" r="1.5" fill="#FDFCF5"/>
<circle cx="103.5" cy="22.5" r="1.5" fill="#FDFCF5"/>
<circle cx="112.5" cy="22.5" r="1.5" fill="#FDFCF5"/>
<circle cx="121.5" cy="22.5" r="1.5" fill="#FDFCF5"/>
<circle cx="4.49976" cy="31.5" r="1.5" fill="#FDFCF5"/>
<circle cx="13.4998" cy="31.5" r="1.5" fill="#FDFCF5"/>
<circle cx="22.4998" cy="31.5" r="1.5" fill="#FDFCF5"/>
<circle cx="31.4998" cy="31.5" r="1.5" fill="#FDFCF5"/>
<circle cx="40.4998" cy="31.5" r="1.5" fill="#FDFCF5"/>
<circle cx="49.4998" cy="31.5" r="1.5" fill="#FDFCF5"/>
<circle cx="58.4998" cy="31.5" r="1.5" fill="#FDFCF5"/>
<circle cx="67.4998" cy="31.5" r="1.5" fill="#FDFCF5"/>
<circle cx="76.4998" cy="31.5" r="1.5" fill="#FDFCF5"/>
<circle cx="85.4998" cy="31.5" r="1.5" fill="#FDFCF5"/>
<circle cx="94.4998" cy="31.5" r="1.5" fill="#FDFCF5"/>
<circle cx="103.5" cy="31.5" r="1.5" fill="#FDFCF5"/>
<circle cx="112.5" cy="31.5" r="1.5" fill="#FDFCF5"/>
<circle cx="121.5" cy="31.5" r="1.5" fill="#FDFCF5"/>
<circle cx="4.49976" cy="40.5" r="1.5" fill="#FDFCF5"/>
<circle cx="13.4998" cy="40.5" r="1.5" fill="#FDFCF5"/>
<circle cx="22.4998" cy="40.5" r="1.5" fill="#FDFCF5"/>
<circle cx="31.4998" cy="40.5" r="1.5" fill="#FDFCF5"/>
<circle cx="40.4998" cy="40.5" r="1.5" fill="#FDFCF5"/>
<circle cx="49.4998" cy="40.5" r="1.5" fill="#FDFCF5"/>
<circle cx="58.4998" cy="40.5" r="1.5" fill="#FDFCF5"/>
<circle cx="67.4998" cy="40.5" r="1.5" fill="#FDFCF5"/>
<circle cx="76.4998" cy="40.5" r="1.5" fill="#FDFCF5"/>
<circle cx="85.4998" cy="40.5" r="1.5" fill="#FDFCF5"/>
<circle cx="94.4998" cy="40.5" r="1.5" fill="#FDFCF5"/>
<circle cx="103.5" cy="40.5" r="1.5" fill="#FDFCF5"/>
<circle cx="112.5" cy="40.5" r="1.5" fill="#FDFCF5"/>
<circle cx="121.5" cy="40.5" r="1.5" fill="#FDFCF5"/>
<circle cx="4.49976" cy="49.5" r="1.5" fill="#FDFCF5"/>
<circle cx="13.4998" cy="49.5" r="1.5" fill="#FDFCF5"/>
<circle cx="22.4998" cy="49.5" r="1.5" fill="#FDFCF5"/>
<circle cx="31.4998" cy="49.5" r="1.5" fill="#FDFCF5"/>
<circle cx="40.4998" cy="49.5" r="1.5" fill="#FDFCF5"/>
<circle cx="49.4998" cy="49.5" r="1.5" fill="#FDFCF5"/>
<circle cx="58.4998" cy="49.5" r="1.5" fill="#FDFCF5"/>
<circle cx="67.4998" cy="49.5" r="1.5" fill="#FDFCF5"/>
<circle cx="76.4998" cy="49.5" r="1.5" fill="#FDFCF5"/>
<circle cx="85.4998" cy="49.5" r="1.5" fill="#FDFCF5"/>
<circle cx="94.4998" cy="49.5" r="1.5" fill="#FDFCF5"/>
<circle cx="103.5" cy="49.5" r="1.5" fill="#FDFCF5"/>
<circle cx="112.5" cy="49.5" r="1.5" fill="#FDFCF5"/>
<circle cx="121.5" cy="49.5" r="1.5" fill="#FDFCF5"/>
<circle cx="4.49976" cy="58.5" r="1.5" fill="#FDFCF5"/>
<circle cx="13.4998" cy="58.5" r="1.5" fill="#FDFCF5"/>
<circle cx="22.4998" cy="58.5" r="1.5" fill="#FDFCF5"/>
<circle cx="31.4998" cy="58.5" r="1.5" fill="#FDFCF5"/>
<circle cx="40.4998" cy="58.5" r="1.5" fill="#FDFCF5"/>
<circle cx="49.4998" cy="58.5" r="1.5" fill="#FDFCF5"/>
<circle cx="58.4998" cy="58.5" r="1.5" fill="#FDFCF5"/>
<circle cx="67.4998" cy="58.5" r="1.5" fill="#FDFCF5"/>
<circle cx="76.4998" cy="58.5" r="1.5" fill="#FDFCF5"/>
<circle cx="85.4998" cy="58.5" r="1.5" fill="#FDFCF5"/>
<circle cx="94.4998" cy="58.5" r="1.5" fill="#FDFCF5"/>
<circle cx="103.5" cy="58.5" r="1.5" fill="#FDFCF5"/>
<circle cx="112.5" cy="58.5" r="1.5" fill="#FDFCF5"/>
<circle cx="121.5" cy="58.5" r="1.5" fill="#FDFCF5"/>
<circle cx="4.49976" cy="67.5" r="1.5" fill="#FDFCF5"/>
<circle cx="13.4998" cy="67.5" r="1.5" fill="#FDFCF5"/>
<circle cx="22.4998" cy="67.5" r="1.5" fill="#FDFCF5"/>
<circle cx="31.4998" cy="67.5" r="1.5" fill="#FDFCF5"/>
<circle cx="40.4998" cy="67.5" r="1.5" fill="#FDFCF5"/>
<circle cx="49.4998" cy="67.5" r="1.5" fill="#FDFCF5"/>
<circle cx="58.4998" cy="67.5" r="1.5" fill="#FDFCF5"/>
<circle cx="67.4998" cy="67.5" r="1.5" fill="#FDFCF5"/>
<circle cx="76.4998" cy="67.5" r="1.5" fill="#FDFCF5"/>
<circle cx="85.4998" cy="67.5" r="1.5" fill="#FDFCF5"/>
<circle cx="94.4998" cy="67.5" r="1.5" fill="#FDFCF5"/>
<circle cx="103.5" cy="67.5" r="1.5" fill="#FDFCF5"/>
<circle cx="112.5" cy="67.5" r="1.5" fill="#FDFCF5"/>
<circle cx="121.5" cy="67.5" r="1.5" fill="#FDFCF5"/>
<circle cx="4.49976" cy="76.5" r="1.5" fill="#FDFCF5"/>
<circle cx="13.4998" cy="76.5" r="1.5" fill="#FDFCF5"/>
<circle cx="22.4998" cy="76.5" r="1.5" fill="#FDFCF5"/>
<circle cx="31.4998" cy="76.5" r="1.5" fill="#FDFCF5"/>
<circle cx="40.4998" cy="76.5" r="1.5" fill="#FDFCF5"/>
<circle cx="49.4998" cy="76.5" r="1.5" fill="#FDFCF5"/>
<circle cx="58.4998" cy="76.5" r="1.5" fill="#FDFCF5"/>
<circle cx="67.4998" cy="76.5" r="1.5" fill="#FDFCF5"/>
<circle cx="76.4998" cy="76.5" r="1.5" fill="#FDFCF5"/>
<circle cx="85.4998" cy="76.5" r="1.5" fill="#FDFCF5"/>
<circle cx="94.4998" cy="76.5" r="1.5" fill="#FDFCF5"/>
<circle cx="103.5" cy="76.5" r="1.5" fill="#FDFCF5"/>
<circle cx="112.5" cy="76.5" r="1.5" fill="#FDFCF5"/>
<circle cx="121.5" cy="76.5" r="1.5" fill="#FDFCF5"/>
<circle cx="4.49976" cy="85.5" r="1.5" fill="#FDFCF5"/>
<circle cx="13.4998" cy="85.5" r="1.5" fill="#FDFCF5"/>
<circle cx="22.4998" cy="85.5" r="1.5" fill="#FDFCF5"/>
<circle cx="31.4998" cy="85.5" r="1.5" fill="#FDFCF5"/>
<circle cx="40.4998" cy="85.5" r="1.5" fill="#FDFCF5"/>
<circle cx="49.4998" cy="85.5" r="1.5" fill="#FDFCF5"/>
<circle cx="58.4998" cy="85.5" r="1.5" fill="#FDFCF5"/>
<circle cx="67.4998" cy="85.5" r="1.5" fill="#FDFCF5"/>
<circle cx="76.4998" cy="85.5" r="1.5" fill="#FDFCF5"/>
<circle cx="85.4998" cy="85.5" r="1.5" fill="#FDFCF5"/>
<circle cx="94.4998" cy="85.5" r="1.5" fill="#FDFCF5"/>
<circle cx="103.5" cy="85.5" r="1.5" fill="#FDFCF5"/>
<circle cx="112.5" cy="85.5" r="1.5" fill="#FDFCF5"/>
<circle cx="121.5" cy="85.5" r="1.5" fill="#FDFCF5"/>
<circle cx="4.49976" cy="94.5" r="1.5" fill="#FDFCF5"/>
<circle cx="13.4998" cy="94.5" r="1.5" fill="#FDFCF5"/>
<circle cx="22.4998" cy="94.5" r="1.5" fill="#FDFCF5"/>
<circle cx="31.4998" cy="94.5" r="1.5" fill="#FDFCF5"/>
<circle cx="40.4998" cy="94.5" r="1.5" fill="#FDFCF5"/>
<circle cx="49.4998" cy="94.5" r="1.5" fill="#FDFCF5"/>
<circle cx="58.4998" cy="94.5" r="1.5" fill="#FDFCF5"/>
<circle cx="67.4998" cy="94.5" r="1.5" fill="#FDFCF5"/>
<circle cx="76.4998" cy="94.5" r="1.5" fill="#FDFCF5"/>
<circle cx="85.4998" cy="94.5" r="1.5" fill="#FDFCF5"/>
<circle cx="94.4998" cy="94.5" r="1.5" fill="#FDFCF5"/>
<circle cx="103.5" cy="94.5" r="1.5" fill="#FDFCF5"/>
<circle cx="112.5" cy="94.5" r="1.5" fill="#FDFCF5"/>
<circle cx="121.5" cy="94.5" r="1.5" fill="#FDFCF5"/>
<circle cx="4.49976" cy="103.5" r="1.5" fill="#FDFCF5"/>
<circle cx="13.4998" cy="103.5" r="1.5" fill="#FDFCF5"/>
<circle cx="22.4998" cy="103.5" r="1.5" fill="#FDFCF5"/>
<circle cx="31.4998" cy="103.5" r="1.5" fill="#FDFCF5"/>
<circle cx="40.4998" cy="103.5" r="1.5" fill="#FDFCF5"/>
<circle cx="49.4998" cy="103.5" r="1.5" fill="#FDFCF5"/>
<circle cx="58.4998" cy="103.5" r="1.5" fill="#FDFCF5"/>
<circle cx="67.4998" cy="103.5" r="1.5" fill="#FDFCF5"/>
<circle cx="76.4998" cy="103.5" r="1.5" fill="#FDFCF5"/>
<circle cx="85.4998" cy="103.5" r="1.5" fill="#FDFCF5"/>
<circle cx="94.4998" cy="103.5" r="1.5" fill="#FDFCF5"/>
<circle cx="103.5" cy="103.5" r="1.5" fill="#FDFCF5"/>
<circle cx="112.5" cy="103.5" r="1.5" fill="#FDFCF5"/>
<circle cx="121.5" cy="103.5" r="1.5" fill="#FDFCF5"/>
<circle cx="4.49976" cy="112.5" r="1.5" fill="#FDFCF5"/>
<circle cx="13.4998" cy="112.5" r="1.5" fill="#FDFCF5"/>
<circle cx="22.4998" cy="112.5" r="1.5" fill="#FDFCF5"/>
<circle cx="31.4998" cy="112.5" r="1.5" fill="#FDFCF5"/>
<circle cx="40.4998" cy="112.5" r="1.5" fill="#FDFCF5"/>
<circle cx="49.4998" cy="112.5" r="1.5" fill="#FDFCF5"/>
<circle cx="58.4998" cy="112.5" r="1.5" fill="#FDFCF5"/>
<circle cx="67.4998" cy="112.5" r="1.5" fill="#FDFCF5"/>
<circle cx="76.4998" cy="112.5" r="1.5" fill="#FDFCF5"/>
<circle cx="85.4998" cy="112.5" r="1.5" fill="#FDFCF5"/>
<circle cx="94.4998" cy="112.5" r="1.5" fill="#FDFCF5"/>
<circle cx="103.5" cy="112.5" r="1.5" fill="#FDFCF5"/>
<circle cx="112.5" cy="112.5" r="1.5" fill="#FDFCF5"/>
<circle cx="121.5" cy="112.5" r="1.5" fill="#FDFCF5"/>
<circle cx="4.49976" cy="121.5" r="1.5" fill="#FDFCF5"/>
<circle cx="13.4998" cy="121.5" r="1.5" fill="#FDFCF5"/>
<circle cx="22.4998" cy="121.5" r="1.5" fill="#FDFCF5"/>
<circle cx="31.4998" cy="121.5" r="1.5" fill="#FDFCF5"/>
<circle cx="40.4998" cy="121.5" r="1.5" fill="#FDFCF5"/>
<circle cx="49.4998" cy="121.5" r="1.5" fill="#FDFCF5"/>
<circle cx="58.4998" cy="121.5" r="1.5" fill="#FDFCF5"/>
<circle cx="67.4998" cy="121.5" r="1.5" fill="#FDFCF5"/>
<circle cx="76.4998" cy="121.5" r="1.5" fill="#FDFCF5"/>
<circle cx="85.4998" cy="121.5" r="1.5" fill="#FDFCF5"/>
<circle cx="94.4998" cy="121.5" r="1.5" fill="#FDFCF5"/>
<circle cx="103.5" cy="121.5" r="1.5" fill="#FDFCF5"/>
<circle cx="112.5" cy="121.5" r="1.5" fill="#FDFCF5"/>
<circle cx="121.5" cy="121.5" r="1.5" fill="#FDFCF5"/>
</g>
</g>
<defs>
<clipPath id="clip0_35_100">
<rect width="128" height="128" fill="white"/>
</clipPath>
<clipPath id="clip1_35_100">
<rect width="125" height="126" fill="white" transform="translate(2.99976 3)"/>
</clipPath>
</defs>
</svg>
