<svg width="128" height="128" viewBox="0 0 128 128" fill="none" xmlns="http://www.w3.org/2000/svg">
<g clip-path="url(#clip0_86_2142)">
<path d="M109.311 102.809C107.68 102.809 106.163 101.772 105.628 100.138C104.962 98.1029 106.071 95.9132 108.107 95.2475C115.481 92.8339 120.246 86.3703 120.246 78.78C120.246 69.1672 112.425 61.3459 102.813 61.3459C102.145 61.3459 101.427 61.3986 100.552 61.5121L96.7617 62.0035L96.2176 58.219C93.8881 41.9906 79.7514 29.7524 63.3338 29.7524C49.7614 29.7524 37.6785 37.8778 32.5545 50.4533L31.5899 52.8193L29.0365 52.8659C17.3021 53.0817 7.75536 62.7999 7.75536 74.5284C7.75536 83.0904 12.7263 90.8986 20.4189 94.4197C22.3653 95.3113 23.2215 97.6115 22.3299 99.5579C21.4382 101.504 19.1392 102.359 17.1927 101.47C6.7482 96.6894 0 86.115 0 74.5284C0 59.4511 11.6168 46.8208 26.3727 45.2695C33.1716 31.0535 47.4208 22 63.3328 22C82.3777 22 98.9331 35.3527 103.226 53.5975C116.924 53.8194 128 65.0311 128 78.781C128 89.6158 120.974 99.1942 110.519 102.616C110.118 102.747 109.711 102.809 109.311 102.809Z" fill="#0071CE"/>
<path d="M50.0084 104.487C50.0074 104.486 50.0074 104.486 50.0064 104.486C50.0054 104.486 50.0043 104.485 50.0033 104.485H50.0023L50.0013 104.484L50.0003 104.483C50.0003 104.483 49.9993 104.483 49.9993 104.482H49.9983L49.9973 104.481C49.9983 104.48 49.9962 104.48 49.9962 104.48L49.9952 104.479H49.9942L49.9932 104.478C49.9942 104.479 49.9922 104.477 49.9922 104.477C49.9922 104.477 49.9902 104.476 49.9892 104.476L49.9881 104.474L49.9871 104.473L49.9861 104.472C49.9831 104.471 49.9841 104.471 49.9831 104.471C49.9821 104.472 49.9821 104.47 49.9811 104.47L49.9801 104.469C49.9801 104.469 49.979 104.468 49.978 104.468L49.977 104.467C49.976 104.466 49.974 104.466 49.973 104.466C49.972 104.466 49.9699 104.465 49.9689 104.465C49.9679 104.464 49.9679 104.464 49.9669 104.464H49.9659C49.9649 104.463 49.9639 104.463 49.9629 104.463C49.9618 104.462 49.9598 104.462 49.9598 104.462H49.9588L49.9568 104.461C49.9558 104.461 49.9558 104.46 49.9558 104.46H49.9548C49.8951 104.439 49.8313 104.426 49.7645 104.423H49.7625H49.7605H49.7585C49.7585 104.423 49.7585 104.423 49.7574 104.423H49.7564H49.7554L49.7544 104.422H49.7524H49.7504H49.7494H49.7483H49.7473H49.7453H49.7443H49.7433H49.7423H49.7413H49.7402H49.7392H49.7382H49.7372C48.0616 104.422 46.6905 103.058 46.6804 101.386V67.3211H49.2778H49.291C49.6886 67.3383 49.9598 67.0327 49.9598 66.6654C49.9598 66.3912 49.7919 66.1564 49.5531 66.0583L37.0273 57.413C36.8026 57.2582 36.5062 57.2582 36.2815 57.413L23.6576 66.1261C23.4208 66.289 23.3186 66.5875 23.4036 66.8617C23.4896 67.1359 23.7426 67.3221 24.03 67.3221H26.6405L26.6426 101.395C26.6557 103.751 28.5479 105.674 30.9551 105.734C30.9824 105.737 31.0087 105.739 31.0361 105.739H49.7362H49.7473C49.9193 105.736 50.0752 105.667 50.1905 105.557C50.1905 105.557 50.1905 105.557 50.1915 105.556C50.1936 105.554 50.1956 105.552 50.1966 105.551C50.1976 105.55 50.1986 105.55 50.1996 105.548L50.2006 105.547L50.2017 105.546L50.2027 105.545L50.2037 105.544L50.2047 105.543L50.2057 105.542C50.2077 105.541 50.2067 105.541 50.2077 105.54C50.2077 105.54 50.2077 105.54 50.2087 105.539L50.2097 105.538C50.2097 105.538 50.2097 105.538 50.2108 105.537C50.3241 105.42 50.3949 105.261 50.3959 105.085V105.083V105.082V105.081V105.08V105.079V105.078V105.077V105.075C50.3909 104.815 50.234 104.589 50.0084 104.487Z" fill="#DC8327"/>
<path d="M77.0624 104.487C77.0624 104.487 77.0614 104.486 77.0604 104.486C77.0593 104.486 77.0583 104.485 77.0573 104.485H77.0563L77.0553 104.484L77.0543 104.483H77.0533L77.0523 104.482L77.0512 104.481C77.0523 104.48 77.0502 104.48 77.0492 104.48L77.0482 104.479H77.0472C77.0462 104.479 77.0462 104.478 77.0462 104.478C77.0442 104.479 77.0442 104.477 77.0442 104.477L77.0421 104.476L77.0411 104.475H77.0401L77.0391 104.474L77.0381 104.472C77.0371 104.471 77.0361 104.471 77.0361 104.471C77.0351 104.472 77.0351 104.47 77.033 104.47L77.032 104.469L77.031 104.468C77.031 104.468 77.03 104.468 77.029 104.467C77.028 104.466 77.026 104.466 77.0249 104.466C77.0239 104.466 77.0219 104.465 77.0209 104.465C77.0199 104.464 77.0199 104.464 77.0189 104.464C77.0179 104.464 77.0179 104.464 77.0168 104.463C77.0168 104.463 77.0158 104.463 77.0148 104.462C77.0118 104.461 77.0138 104.461 77.0128 104.461C77.0098 104.461 77.0118 104.461 77.0108 104.46C77.0108 104.46 77.0098 104.459 77.0088 104.459L77.0077 104.458H77.0067C76.947 104.437 76.8833 104.424 76.8165 104.421H76.8145H76.8135H76.8114H76.8104H76.8094H76.8084L76.8074 104.42H76.8054H76.8033H76.8023H76.8013H76.8003H76.7983H76.7963H76.7952H76.7942H76.7932H76.7922H76.7912H76.7902H76.7892H76.7882H76.7872C75.1125 104.42 73.7415 103.056 73.7313 101.384V74.9495H76.3409C76.35 74.9485 76.3571 74.9485 76.3672 74.9495C76.7295 74.9495 77.0229 74.6561 77.0229 74.2938C77.0229 74.0196 76.8549 73.7849 76.6161 73.6867L64.0893 65.0414C63.8647 64.8866 63.5682 64.8866 63.3436 65.0414L50.7247 73.7535C50.488 73.9164 50.3858 74.2149 50.4708 74.4891C50.5568 74.7633 50.8097 74.9495 51.0971 74.9495H53.6955L53.6976 101.394C53.7087 103.751 55.6039 105.675 58.0121 105.734C58.0384 105.737 58.0647 105.738 58.0911 105.738H76.7912H76.8023C76.9743 105.735 77.1302 105.666 77.2455 105.556C77.2455 105.556 77.2455 105.556 77.2465 105.555C77.2486 105.553 77.2526 105.551 77.2516 105.55C77.2526 105.549 77.2536 105.549 77.2546 105.547L77.2556 105.546L77.2567 105.545L77.2577 105.544C77.2577 105.544 77.2587 105.544 77.2587 105.543L77.2597 105.542C77.2607 105.542 77.2607 105.541 77.2607 105.541C77.2637 105.54 77.2627 105.54 77.2627 105.539C77.2627 105.539 77.2627 105.539 77.2637 105.538C77.2637 105.538 77.2637 105.538 77.2647 105.537C77.2647 105.537 77.2647 105.537 77.2658 105.536C77.3791 105.419 77.4499 105.26 77.4509 105.084V105.082V105.081V105.08V105.079V105.078V105.077V105.076V105.074C77.4449 104.816 77.288 104.589 77.0624 104.487Z" fill="#F4B21B"/>
<path d="M104.187 104.487L104.185 104.486C104.184 104.486 104.183 104.485 104.182 104.485H104.181L104.18 104.484L104.179 104.483C104.178 104.483 104.178 104.483 104.178 104.482H104.177L104.176 104.481L104.175 104.48C104.175 104.48 104.174 104.48 104.174 104.479H104.173L104.172 104.478C104.171 104.479 104.171 104.477 104.17 104.477C104.171 104.476 104.169 104.476 104.168 104.476L104.167 104.475H104.166L104.165 104.474L104.164 104.472C104.161 104.471 104.162 104.471 104.162 104.471C104.161 104.472 104.161 104.47 104.159 104.47L104.158 104.469C104.159 104.468 104.157 104.468 104.156 104.468C104.156 104.468 104.155 104.468 104.155 104.467C104.154 104.466 104.152 104.466 104.151 104.466C104.15 104.466 104.148 104.465 104.147 104.465L104.145 104.464C104.145 104.464 104.144 104.464 104.143 104.463L104.141 104.462C104.138 104.461 104.138 104.461 104.139 104.461C104.136 104.461 104.136 104.461 104.137 104.46C104.136 104.46 104.136 104.459 104.136 104.459C104.135 104.459 104.134 104.458 104.134 104.458H104.132C104.073 104.437 104.009 104.424 103.942 104.421H103.941H103.939H103.936H103.935H103.934H103.933C103.932 104.42 103.932 104.42 103.931 104.42H103.929H103.927H103.926H103.925H103.924H103.922H103.92C103.92 104.42 103.92 104.42 103.919 104.42H103.918H103.917H103.916H103.915H103.914H103.913H103.917H103.916C102.241 104.42 100.87 103.056 100.86 101.384V82.5749H103.464H103.477C103.846 82.5658 104.146 82.2865 104.146 81.9192C104.146 81.645 103.978 81.4102 103.739 81.3121L91.2121 72.6668C90.9885 72.512 90.691 72.512 90.4663 72.6668L77.8424 81.3789C77.6056 81.5418 77.5034 81.8403 77.5884 82.1145C77.6744 82.3887 77.9274 82.5749 78.2148 82.5749H80.8183L80.8203 101.394C80.8335 103.751 82.7277 105.676 85.1349 105.734C85.1612 105.737 85.1875 105.738 85.2138 105.738H103.914H103.925C104.097 105.735 104.253 105.666 104.368 105.556L104.369 105.555C104.371 105.553 104.374 105.551 104.374 105.55C104.375 105.549 104.376 105.549 104.377 105.547L104.378 105.546L104.379 105.545L104.38 105.544L104.381 105.543L104.382 105.542L104.383 105.541C104.386 105.54 104.384 105.54 104.385 105.539C104.385 105.539 104.385 105.539 104.386 105.538L104.387 105.537C104.387 105.537 104.387 105.537 104.388 105.536C104.502 105.419 104.573 105.26 104.574 105.084V105.082V105.081V105.08V105.079V105.078V105.077V105.076V105.074C104.57 104.816 104.412 104.589 104.187 104.487Z" fill="#F2D864"/>
<g clip-path="url(#clip1_86_2142)">
<circle cx="1.5" cy="21.5" r="1.5" fill="#FDFCF5"/>
<circle cx="10.5" cy="21.5" r="1.5" fill="#FDFCF5"/>
<circle cx="19.5" cy="21.5" r="1.5" fill="#FDFCF5"/>
<circle cx="28.5" cy="21.5" r="1.5" fill="#FDFCF5"/>
<circle cx="37.5" cy="21.5" r="1.5" fill="#FDFCF5"/>
<circle cx="46.5" cy="21.5" r="1.5" fill="#FDFCF5"/>
<circle cx="55.5" cy="21.5" r="1.5" fill="#FDFCF5"/>
<circle cx="64.5" cy="21.5" r="1.5" fill="#FDFCF5"/>
<circle cx="73.5" cy="21.5" r="1.5" fill="#FDFCF5"/>
<circle cx="82.5" cy="21.5" r="1.5" fill="#FDFCF5"/>
<circle cx="91.5" cy="21.5" r="1.5" fill="#FDFCF5"/>
<circle cx="100.5" cy="21.5" r="1.5" fill="#FDFCF5"/>
<circle cx="109.5" cy="21.5" r="1.5" fill="#FDFCF5"/>
<circle cx="118.5" cy="21.5" r="1.5" fill="#FDFCF5"/>
<circle cx="127.5" cy="21.5" r="1.5" fill="#FDFCF5"/>
<circle cx="1.5" cy="30.5" r="1.5" fill="#FDFCF5"/>
<circle cx="10.5" cy="30.5" r="1.5" fill="#FDFCF5"/>
<circle cx="19.5" cy="30.5" r="1.5" fill="#FDFCF5"/>
<circle cx="28.5" cy="30.5" r="1.5" fill="#FDFCF5"/>
<circle cx="37.5" cy="30.5" r="1.5" fill="#FDFCF5"/>
<circle cx="46.5" cy="30.5" r="1.5" fill="#FDFCF5"/>
<circle cx="55.5" cy="30.5" r="1.5" fill="#FDFCF5"/>
<circle cx="64.5" cy="30.5" r="1.5" fill="#FDFCF5"/>
<circle cx="73.5" cy="30.5" r="1.5" fill="#FDFCF5"/>
<circle cx="82.5" cy="30.5" r="1.5" fill="#FDFCF5"/>
<circle cx="91.5" cy="30.5" r="1.5" fill="#FDFCF5"/>
<circle cx="100.5" cy="30.5" r="1.5" fill="#FDFCF5"/>
<circle cx="109.5" cy="30.5" r="1.5" fill="#FDFCF5"/>
<circle cx="118.5" cy="30.5" r="1.5" fill="#FDFCF5"/>
<circle cx="127.5" cy="30.5" r="1.5" fill="#FDFCF5"/>
<circle cx="1.5" cy="39.5" r="1.5" fill="#FDFCF5"/>
<circle cx="10.5" cy="39.5" r="1.5" fill="#FDFCF5"/>
<circle cx="19.5" cy="39.5" r="1.5" fill="#FDFCF5"/>
<circle cx="28.5" cy="39.5" r="1.5" fill="#FDFCF5"/>
<circle cx="37.5" cy="39.5" r="1.5" fill="#FDFCF5"/>
<circle cx="46.5" cy="39.5" r="1.5" fill="#FDFCF5"/>
<circle cx="55.5" cy="39.5" r="1.5" fill="#FDFCF5"/>
<circle cx="64.5" cy="39.5" r="1.5" fill="#FDFCF5"/>
<circle cx="73.5" cy="39.5" r="1.5" fill="#FDFCF5"/>
<circle cx="82.5" cy="39.5" r="1.5" fill="#FDFCF5"/>
<circle cx="91.5" cy="39.5" r="1.5" fill="#FDFCF5"/>
<circle cx="100.5" cy="39.5" r="1.5" fill="#FDFCF5"/>
<circle cx="109.5" cy="39.5" r="1.5" fill="#FDFCF5"/>
<circle cx="118.5" cy="39.5" r="1.5" fill="#FDFCF5"/>
<circle cx="127.5" cy="39.5" r="1.5" fill="#FDFCF5"/>
<circle cx="1.5" cy="48.5" r="1.5" fill="#FDFCF5"/>
<circle cx="10.5" cy="48.5" r="1.5" fill="#FDFCF5"/>
<circle cx="19.5" cy="48.5" r="1.5" fill="#FDFCF5"/>
<circle cx="28.5" cy="48.5" r="1.5" fill="#FDFCF5"/>
<circle cx="37.5" cy="48.5" r="1.5" fill="#FDFCF5"/>
<circle cx="46.5" cy="48.5" r="1.5" fill="#FDFCF5"/>
<circle cx="55.5" cy="48.5" r="1.5" fill="#FDFCF5"/>
<circle cx="64.5" cy="48.5" r="1.5" fill="#FDFCF5"/>
<circle cx="73.5" cy="48.5" r="1.5" fill="#FDFCF5"/>
<circle cx="82.5" cy="48.5" r="1.5" fill="#FDFCF5"/>
<circle cx="91.5" cy="48.5" r="1.5" fill="#FDFCF5"/>
<circle cx="100.5" cy="48.5" r="1.5" fill="#FDFCF5"/>
<circle cx="109.5" cy="48.5" r="1.5" fill="#FDFCF5"/>
<circle cx="118.5" cy="48.5" r="1.5" fill="#FDFCF5"/>
<circle cx="127.5" cy="48.5" r="1.5" fill="#FDFCF5"/>
<circle cx="1.5" cy="57.5" r="1.5" fill="#FDFCF5"/>
<circle cx="10.5" cy="57.5" r="1.5" fill="#FDFCF5"/>
<circle cx="19.5" cy="57.5" r="1.5" fill="#FDFCF5"/>
<circle cx="28.5" cy="57.5" r="1.5" fill="#FDFCF5"/>
<circle cx="37.5" cy="57.5" r="1.5" fill="#FDFCF5"/>
<circle cx="46.5" cy="57.5" r="1.5" fill="#FDFCF5"/>
<circle cx="55.5" cy="57.5" r="1.5" fill="#FDFCF5"/>
<circle cx="64.5" cy="57.5" r="1.5" fill="#FDFCF5"/>
<circle cx="73.5" cy="57.5" r="1.5" fill="#FDFCF5"/>
<circle cx="82.5" cy="57.5" r="1.5" fill="#FDFCF5"/>
<circle cx="91.5" cy="57.5" r="1.5" fill="#FDFCF5"/>
<circle cx="100.5" cy="57.5" r="1.5" fill="#FDFCF5"/>
<circle cx="109.5" cy="57.5" r="1.5" fill="#FDFCF5"/>
<circle cx="118.5" cy="57.5" r="1.5" fill="#FDFCF5"/>
<circle cx="127.5" cy="57.5" r="1.5" fill="#FDFCF5"/>
<circle cx="1.5" cy="66.5" r="1.5" fill="#FDFCF5"/>
<circle cx="10.5" cy="66.5" r="1.5" fill="#FDFCF5"/>
<circle cx="19.5" cy="66.5" r="1.5" fill="#FDFCF5"/>
<circle cx="28.5" cy="66.5" r="1.5" fill="#FDFCF5"/>
<circle cx="37.5" cy="66.5" r="1.5" fill="#FDFCF5"/>
<circle cx="46.5" cy="66.5" r="1.5" fill="#FDFCF5"/>
<circle cx="55.5" cy="66.5" r="1.5" fill="#FDFCF5"/>
<circle cx="64.5" cy="66.5" r="1.5" fill="#FDFCF5"/>
<circle cx="73.5" cy="66.5" r="1.5" fill="#FDFCF5"/>
<circle cx="82.5" cy="66.5" r="1.5" fill="#FDFCF5"/>
<circle cx="91.5" cy="66.5" r="1.5" fill="#FDFCF5"/>
<circle cx="100.5" cy="66.5" r="1.5" fill="#FDFCF5"/>
<circle cx="109.5" cy="66.5" r="1.5" fill="#FDFCF5"/>
<circle cx="118.5" cy="66.5" r="1.5" fill="#FDFCF5"/>
<circle cx="127.5" cy="66.5" r="1.5" fill="#FDFCF5"/>
<circle cx="1.5" cy="75.5" r="1.5" fill="#FDFCF5"/>
<circle cx="10.5" cy="75.5" r="1.5" fill="#FDFCF5"/>
<circle cx="19.5" cy="75.5" r="1.5" fill="#FDFCF5"/>
<circle cx="28.5" cy="75.5" r="1.5" fill="#FDFCF5"/>
<circle cx="37.5" cy="75.5" r="1.5" fill="#FDFCF5"/>
<circle cx="46.5" cy="75.5" r="1.5" fill="#FDFCF5"/>
<circle cx="55.5" cy="75.5" r="1.5" fill="#FDFCF5"/>
<circle cx="64.5" cy="75.5" r="1.5" fill="#FDFCF5"/>
<circle cx="73.5" cy="75.5" r="1.5" fill="#FDFCF5"/>
<circle cx="82.5" cy="75.5" r="1.5" fill="#FDFCF5"/>
<circle cx="91.5" cy="75.5" r="1.5" fill="#FDFCF5"/>
<circle cx="100.5" cy="75.5" r="1.5" fill="#FDFCF5"/>
<circle cx="109.5" cy="75.5" r="1.5" fill="#FDFCF5"/>
<circle cx="118.5" cy="75.5" r="1.5" fill="#FDFCF5"/>
<circle cx="127.5" cy="75.5" r="1.5" fill="#FDFCF5"/>
<circle cx="1.5" cy="84.5" r="1.5" fill="#FDFCF5"/>
<circle cx="10.5" cy="84.5" r="1.5" fill="#FDFCF5"/>
<circle cx="19.5" cy="84.5" r="1.5" fill="#FDFCF5"/>
<circle cx="28.5" cy="84.5" r="1.5" fill="#FDFCF5"/>
<circle cx="37.5" cy="84.5" r="1.5" fill="#FDFCF5"/>
<circle cx="46.5" cy="84.5" r="1.5" fill="#FDFCF5"/>
<circle cx="55.5" cy="84.5" r="1.5" fill="#FDFCF5"/>
<circle cx="64.5" cy="84.5" r="1.5" fill="#FDFCF5"/>
<circle cx="73.5" cy="84.5" r="1.5" fill="#FDFCF5"/>
<circle cx="82.5" cy="84.5" r="1.5" fill="#FDFCF5"/>
<circle cx="91.5" cy="84.5" r="1.5" fill="#FDFCF5"/>
<circle cx="100.5" cy="84.5" r="1.5" fill="#FDFCF5"/>
<circle cx="109.5" cy="84.5" r="1.5" fill="#FDFCF5"/>
<circle cx="118.5" cy="84.5" r="1.5" fill="#FDFCF5"/>
<circle cx="127.5" cy="84.5" r="1.5" fill="#FDFCF5"/>
<circle cx="1.5" cy="93.5" r="1.5" fill="#FDFCF5"/>
<circle cx="10.5" cy="93.5" r="1.5" fill="#FDFCF5"/>
<circle cx="19.5" cy="93.5" r="1.5" fill="#FDFCF5"/>
<circle cx="28.5" cy="93.5" r="1.5" fill="#FDFCF5"/>
<circle cx="37.5" cy="93.5" r="1.5" fill="#FDFCF5"/>
<circle cx="46.5" cy="93.5" r="1.5" fill="#FDFCF5"/>
<circle cx="55.5" cy="93.5" r="1.5" fill="#FDFCF5"/>
<circle cx="64.5" cy="93.5" r="1.5" fill="#FDFCF5"/>
<circle cx="73.5" cy="93.5" r="1.5" fill="#FDFCF5"/>
<circle cx="82.5" cy="93.5" r="1.5" fill="#FDFCF5"/>
<circle cx="91.5" cy="93.5" r="1.5" fill="#FDFCF5"/>
<circle cx="100.5" cy="93.5" r="1.5" fill="#FDFCF5"/>
<circle cx="109.5" cy="93.5" r="1.5" fill="#FDFCF5"/>
<circle cx="118.5" cy="93.5" r="1.5" fill="#FDFCF5"/>
<circle cx="127.5" cy="93.5" r="1.5" fill="#FDFCF5"/>
<circle cx="1.5" cy="102.5" r="1.5" fill="#FDFCF5"/>
<circle cx="10.5" cy="102.5" r="1.5" fill="#FDFCF5"/>
<circle cx="19.5" cy="102.5" r="1.5" fill="#FDFCF5"/>
<circle cx="28.5" cy="102.5" r="1.5" fill="#FDFCF5"/>
<circle cx="37.5" cy="102.5" r="1.5" fill="#FDFCF5"/>
<circle cx="46.5" cy="102.5" r="1.5" fill="#FDFCF5"/>
<circle cx="55.5" cy="102.5" r="1.5" fill="#FDFCF5"/>
<circle cx="64.5" cy="102.5" r="1.5" fill="#FDFCF5"/>
<circle cx="73.5" cy="102.5" r="1.5" fill="#FDFCF5"/>
<circle cx="82.5" cy="102.5" r="1.5" fill="#FDFCF5"/>
<circle cx="91.5" cy="102.5" r="1.5" fill="#FDFCF5"/>
<circle cx="100.5" cy="102.5" r="1.5" fill="#FDFCF5"/>
<circle cx="109.5" cy="102.5" r="1.5" fill="#FDFCF5"/>
<circle cx="118.5" cy="102.5" r="1.5" fill="#FDFCF5"/>
<circle cx="127.5" cy="102.5" r="1.5" fill="#FDFCF5"/>
</g>
</g>
<defs>
<clipPath id="clip0_86_2142">
<rect width="128" height="128" fill="white"/>
</clipPath>
<clipPath id="clip1_86_2142">
<rect width="131" height="90" fill="white" transform="translate(0 20)"/>
</clipPath>
</defs>
</svg>
