<svg width="131" height="129" viewBox="0 0 131 129" fill="none" xmlns="http://www.w3.org/2000/svg">
<path d="M73.6936 34.5357L73.5652 0H54.3074L54.4358 34.5357L64.0647 47.7594L73.6936 34.5357Z" fill="white"/>
<path d="M54.4363 93.7218V128.386H73.6941V93.7218L64.0652 80.498L54.4363 93.7218Z" fill="white"/>
<path d="M73.6926 93.7217L93.9775 121.71L109.512 110.412L89.2273 82.4238L73.6926 77.4167V93.7217Z" fill="#00F2E6"/>
<path d="M54.4355 34.5358L34.0222 6.54785L18.4875 17.8457L38.7725 45.8338L54.4355 50.8408V34.5358Z" fill="#00F2E6"/>
<path d="M38.7724 45.8335L5.90573 35.1775L0 53.4082L32.8667 64.1926L48.4013 59.0572L38.7724 45.8335Z" fill="#00B9F1"/>
<path d="M79.5986 69.1999L89.2276 82.4236L122.094 93.0796L128 74.8489L95.1333 64.1929L79.5986 69.1999Z" fill="#00B9F1"/>
<path d="M95.1333 64.1926L128 53.4082L122.094 35.1775L89.2276 45.8335L79.5986 59.0572L95.1333 64.1926Z" fill="#D63AFF"/>
<path d="M32.8667 64.1929L0 74.8489L5.90573 93.0796L38.7724 82.4236L48.4013 69.1999L32.8667 64.1929Z" fill="#D63AFF"/>
<path d="M38.7725 82.4238L18.4875 110.412L34.0222 121.71L54.4355 93.7217V77.4167L38.7725 82.4238Z" fill="#FB015B"/>
<path d="M89.2273 45.8338L109.512 17.8457L93.9775 6.54785L73.6926 34.5358V50.8408L89.2273 45.8338Z" fill="#FB015B"/>
<g clip-path="url(#clip0_100_2871)">
<circle cx="4.97852" cy="11.1667" r="1.5" fill="#FDFCF5"/>
<circle cx="13.9785" cy="11.1667" r="1.5" fill="#FDFCF5"/>
<circle cx="22.9785" cy="11.1667" r="1.5" fill="#FDFCF5"/>
<circle cx="31.9785" cy="11.1667" r="1.5" fill="#FDFCF5"/>
<circle cx="40.9785" cy="11.1667" r="1.5" fill="#FDFCF5"/>
<circle cx="49.9785" cy="11.1667" r="1.5" fill="#FDFCF5"/>
<circle cx="58.9785" cy="11.1667" r="1.5" fill="#FDFCF5"/>
<circle cx="67.9785" cy="11.1667" r="1.5" fill="#FDFCF5"/>
<circle cx="76.9785" cy="11.1667" r="1.5" fill="#FDFCF5"/>
<circle cx="85.9785" cy="11.1667" r="1.5" fill="#FDFCF5"/>
<circle cx="94.9785" cy="11.1667" r="1.5" fill="#FDFCF5"/>
<circle cx="103.979" cy="11.1667" r="1.5" fill="#FDFCF5"/>
<circle cx="112.979" cy="11.1667" r="1.5" fill="#FDFCF5"/>
<circle cx="121.979" cy="11.1667" r="1.5" fill="#FDFCF5"/>
<circle cx="130.979" cy="11.1667" r="1.5" fill="#FDFCF5"/>
<circle cx="4.97852" cy="20.1667" r="1.5" fill="#FDFCF5"/>
<circle cx="13.9785" cy="20.1667" r="1.5" fill="#FDFCF5"/>
<circle cx="22.9785" cy="20.1667" r="1.5" fill="#FDFCF5"/>
<circle cx="31.9785" cy="20.1667" r="1.5" fill="#FDFCF5"/>
<circle cx="40.9785" cy="20.1667" r="1.5" fill="#FDFCF5"/>
<circle cx="49.9785" cy="20.1667" r="1.5" fill="#FDFCF5"/>
<circle cx="58.9785" cy="20.1667" r="1.5" fill="#FDFCF5"/>
<circle cx="67.9785" cy="20.1667" r="1.5" fill="#FDFCF5"/>
<circle cx="76.9785" cy="20.1667" r="1.5" fill="#FDFCF5"/>
<circle cx="85.9785" cy="20.1667" r="1.5" fill="#FDFCF5"/>
<circle cx="94.9785" cy="20.1667" r="1.5" fill="#FDFCF5"/>
<circle cx="103.979" cy="20.1667" r="1.5" fill="#FDFCF5"/>
<circle cx="112.979" cy="20.1667" r="1.5" fill="#FDFCF5"/>
<circle cx="121.979" cy="20.1667" r="1.5" fill="#FDFCF5"/>
<circle cx="130.979" cy="20.1667" r="1.5" fill="#FDFCF5"/>
<circle cx="4.97852" cy="29.1667" r="1.5" fill="#FDFCF5"/>
<circle cx="13.9785" cy="29.1667" r="1.5" fill="#FDFCF5"/>
<circle cx="22.9785" cy="29.1667" r="1.5" fill="#FDFCF5"/>
<circle cx="31.9785" cy="29.1667" r="1.5" fill="#FDFCF5"/>
<circle cx="40.9785" cy="29.1667" r="1.5" fill="#FDFCF5"/>
<circle cx="49.9785" cy="29.1667" r="1.5" fill="#FDFCF5"/>
<circle cx="58.9785" cy="29.1667" r="1.5" fill="#FDFCF5"/>
<circle cx="67.9785" cy="29.1667" r="1.5" fill="#FDFCF5"/>
<circle cx="76.9785" cy="29.1667" r="1.5" fill="#FDFCF5"/>
<circle cx="85.9785" cy="29.1667" r="1.5" fill="#FDFCF5"/>
<circle cx="94.9785" cy="29.1667" r="1.5" fill="#FDFCF5"/>
<circle cx="103.979" cy="29.1667" r="1.5" fill="#FDFCF5"/>
<circle cx="112.979" cy="29.1667" r="1.5" fill="#FDFCF5"/>
<circle cx="121.979" cy="29.1667" r="1.5" fill="#FDFCF5"/>
<circle cx="130.979" cy="29.1667" r="1.5" fill="#FDFCF5"/>
<circle cx="4.97852" cy="38.1667" r="1.5" fill="#FDFCF5"/>
<circle cx="13.9785" cy="38.1667" r="1.5" fill="#FDFCF5"/>
<circle cx="22.9785" cy="38.1667" r="1.5" fill="#FDFCF5"/>
<circle cx="31.9785" cy="38.1667" r="1.5" fill="#FDFCF5"/>
<circle cx="40.9785" cy="38.1667" r="1.5" fill="#FDFCF5"/>
<circle cx="49.9785" cy="38.1667" r="1.5" fill="#FDFCF5"/>
<circle cx="58.9785" cy="38.1667" r="1.5" fill="#FDFCF5"/>
<circle cx="67.9785" cy="38.1667" r="1.5" fill="#FDFCF5"/>
<circle cx="76.9785" cy="38.1667" r="1.5" fill="#FDFCF5"/>
<circle cx="85.9785" cy="38.1667" r="1.5" fill="#FDFCF5"/>
<circle cx="94.9785" cy="38.1667" r="1.5" fill="#FDFCF5"/>
<circle cx="103.979" cy="38.1667" r="1.5" fill="#FDFCF5"/>
<circle cx="112.979" cy="38.1667" r="1.5" fill="#FDFCF5"/>
<circle cx="121.979" cy="38.1667" r="1.5" fill="#FDFCF5"/>
<circle cx="130.979" cy="38.1667" r="1.5" fill="#FDFCF5"/>
<circle cx="4.97852" cy="47.1667" r="1.5" fill="#FDFCF5"/>
<circle cx="13.9785" cy="47.1667" r="1.5" fill="#FDFCF5"/>
<circle cx="22.9785" cy="47.1667" r="1.5" fill="#FDFCF5"/>
<circle cx="31.9785" cy="47.1667" r="1.5" fill="#FDFCF5"/>
<circle cx="40.9785" cy="47.1667" r="1.5" fill="#FDFCF5"/>
<circle cx="49.9785" cy="47.1667" r="1.5" fill="#FDFCF5"/>
<circle cx="58.9785" cy="47.1667" r="1.5" fill="#FDFCF5"/>
<circle cx="67.9785" cy="47.1667" r="1.5" fill="#FDFCF5"/>
<circle cx="76.9785" cy="47.1667" r="1.5" fill="#FDFCF5"/>
<circle cx="85.9785" cy="47.1667" r="1.5" fill="#FDFCF5"/>
<circle cx="94.9785" cy="47.1667" r="1.5" fill="#FDFCF5"/>
<circle cx="103.979" cy="47.1667" r="1.5" fill="#FDFCF5"/>
<circle cx="112.979" cy="47.1667" r="1.5" fill="#FDFCF5"/>
<circle cx="121.979" cy="47.1667" r="1.5" fill="#FDFCF5"/>
<circle cx="130.979" cy="47.1667" r="1.5" fill="#FDFCF5"/>
<circle cx="4.97852" cy="56.1667" r="1.5" fill="#FDFCF5"/>
<circle cx="13.9785" cy="56.1667" r="1.5" fill="#FDFCF5"/>
<circle cx="22.9785" cy="56.1667" r="1.5" fill="#FDFCF5"/>
<circle cx="31.9785" cy="56.1667" r="1.5" fill="#FDFCF5"/>
<circle cx="40.9785" cy="56.1667" r="1.5" fill="#FDFCF5"/>
<circle cx="49.9785" cy="56.1667" r="1.5" fill="#FDFCF5"/>
<circle cx="58.9785" cy="56.1667" r="1.5" fill="#FDFCF5"/>
<circle cx="67.9785" cy="56.1667" r="1.5" fill="#FDFCF5"/>
<circle cx="76.9785" cy="56.1667" r="1.5" fill="#FDFCF5"/>
<circle cx="85.9785" cy="56.1667" r="1.5" fill="#FDFCF5"/>
<circle cx="94.9785" cy="56.1667" r="1.5" fill="#FDFCF5"/>
<circle cx="103.979" cy="56.1667" r="1.5" fill="#FDFCF5"/>
<circle cx="112.979" cy="56.1667" r="1.5" fill="#FDFCF5"/>
<circle cx="121.979" cy="56.1667" r="1.5" fill="#FDFCF5"/>
<circle cx="130.979" cy="56.1667" r="1.5" fill="#FDFCF5"/>
<circle cx="4.97852" cy="65.1667" r="1.5" fill="#FDFCF5"/>
<circle cx="13.9785" cy="65.1667" r="1.5" fill="#FDFCF5"/>
<circle cx="22.9785" cy="65.1667" r="1.5" fill="#FDFCF5"/>
<circle cx="31.9785" cy="65.1667" r="1.5" fill="#FDFCF5"/>
<circle cx="40.9785" cy="65.1667" r="1.5" fill="#FDFCF5"/>
<circle cx="49.9785" cy="65.1667" r="1.5" fill="#FDFCF5"/>
<circle cx="58.9785" cy="65.1667" r="1.5" fill="#FDFCF5"/>
<circle cx="67.9785" cy="65.1667" r="1.5" fill="#FDFCF5"/>
<circle cx="76.9785" cy="65.1667" r="1.5" fill="#FDFCF5"/>
<circle cx="85.9785" cy="65.1667" r="1.5" fill="#FDFCF5"/>
<circle cx="94.9785" cy="65.1667" r="1.5" fill="#FDFCF5"/>
<circle cx="103.979" cy="65.1667" r="1.5" fill="#FDFCF5"/>
<circle cx="112.979" cy="65.1667" r="1.5" fill="#FDFCF5"/>
<circle cx="121.979" cy="65.1667" r="1.5" fill="#FDFCF5"/>
<circle cx="130.979" cy="65.1667" r="1.5" fill="#FDFCF5"/>
<circle cx="4.97852" cy="74.1667" r="1.5" fill="#FDFCF5"/>
<circle cx="13.9785" cy="74.1667" r="1.5" fill="#FDFCF5"/>
<circle cx="22.9785" cy="74.1667" r="1.5" fill="#FDFCF5"/>
<circle cx="31.9785" cy="74.1667" r="1.5" fill="#FDFCF5"/>
<circle cx="40.9785" cy="74.1667" r="1.5" fill="#FDFCF5"/>
<circle cx="49.9785" cy="74.1667" r="1.5" fill="#FDFCF5"/>
<circle cx="58.9785" cy="74.1667" r="1.5" fill="#FDFCF5"/>
<circle cx="67.9785" cy="74.1667" r="1.5" fill="#FDFCF5"/>
<circle cx="76.9785" cy="74.1667" r="1.5" fill="#FDFCF5"/>
<circle cx="85.9785" cy="74.1667" r="1.5" fill="#FDFCF5"/>
<circle cx="94.9785" cy="74.1667" r="1.5" fill="#FDFCF5"/>
<circle cx="103.979" cy="74.1667" r="1.5" fill="#FDFCF5"/>
<circle cx="112.979" cy="74.1667" r="1.5" fill="#FDFCF5"/>
<circle cx="121.979" cy="74.1667" r="1.5" fill="#FDFCF5"/>
<circle cx="130.979" cy="74.1667" r="1.5" fill="#FDFCF5"/>
<circle cx="4.97852" cy="83.1667" r="1.5" fill="#FDFCF5"/>
<circle cx="13.9785" cy="83.1667" r="1.5" fill="#FDFCF5"/>
<circle cx="22.9785" cy="83.1667" r="1.5" fill="#FDFCF5"/>
<circle cx="31.9785" cy="83.1667" r="1.5" fill="#FDFCF5"/>
<circle cx="40.9785" cy="83.1667" r="1.5" fill="#FDFCF5"/>
<circle cx="49.9785" cy="83.1667" r="1.5" fill="#FDFCF5"/>
<circle cx="58.9785" cy="83.1667" r="1.5" fill="#FDFCF5"/>
<circle cx="67.9785" cy="83.1667" r="1.5" fill="#FDFCF5"/>
<circle cx="76.9785" cy="83.1667" r="1.5" fill="#FDFCF5"/>
<circle cx="85.9785" cy="83.1667" r="1.5" fill="#FDFCF5"/>
<circle cx="94.9785" cy="83.1667" r="1.5" fill="#FDFCF5"/>
<circle cx="103.979" cy="83.1667" r="1.5" fill="#FDFCF5"/>
<circle cx="112.979" cy="83.1667" r="1.5" fill="#FDFCF5"/>
<circle cx="121.979" cy="83.1667" r="1.5" fill="#FDFCF5"/>
<circle cx="130.979" cy="83.1667" r="1.5" fill="#FDFCF5"/>
<circle cx="4.97852" cy="92.1667" r="1.5" fill="#FDFCF5"/>
<circle cx="13.9785" cy="92.1667" r="1.5" fill="#FDFCF5"/>
<circle cx="22.9785" cy="92.1667" r="1.5" fill="#FDFCF5"/>
<circle cx="31.9785" cy="92.1667" r="1.5" fill="#FDFCF5"/>
<circle cx="40.9785" cy="92.1667" r="1.5" fill="#FDFCF5"/>
<circle cx="49.9785" cy="92.1667" r="1.5" fill="#FDFCF5"/>
<circle cx="58.9785" cy="92.1667" r="1.5" fill="#FDFCF5"/>
<circle cx="67.9785" cy="92.1667" r="1.5" fill="#FDFCF5"/>
<circle cx="76.9785" cy="92.1667" r="1.5" fill="#FDFCF5"/>
<circle cx="85.9785" cy="92.1667" r="1.5" fill="#FDFCF5"/>
<circle cx="94.9785" cy="92.1667" r="1.5" fill="#FDFCF5"/>
<circle cx="103.979" cy="92.1667" r="1.5" fill="#FDFCF5"/>
<circle cx="112.979" cy="92.1667" r="1.5" fill="#FDFCF5"/>
<circle cx="121.979" cy="92.1667" r="1.5" fill="#FDFCF5"/>
<circle cx="130.979" cy="92.1667" r="1.5" fill="#FDFCF5"/>
<circle cx="4.97852" cy="101.167" r="1.5" fill="#FDFCF5"/>
<circle cx="13.9785" cy="101.167" r="1.5" fill="#FDFCF5"/>
<circle cx="22.9785" cy="101.167" r="1.5" fill="#FDFCF5"/>
<circle cx="31.9785" cy="101.167" r="1.5" fill="#FDFCF5"/>
<circle cx="40.9785" cy="101.167" r="1.5" fill="#FDFCF5"/>
<circle cx="49.9785" cy="101.167" r="1.5" fill="#FDFCF5"/>
<circle cx="58.9785" cy="101.167" r="1.5" fill="#FDFCF5"/>
<circle cx="67.9785" cy="101.167" r="1.5" fill="#FDFCF5"/>
<circle cx="76.9785" cy="101.167" r="1.5" fill="#FDFCF5"/>
<circle cx="85.9785" cy="101.167" r="1.5" fill="#FDFCF5"/>
<circle cx="94.9785" cy="101.167" r="1.5" fill="#FDFCF5"/>
<circle cx="103.979" cy="101.167" r="1.5" fill="#FDFCF5"/>
<circle cx="112.979" cy="101.167" r="1.5" fill="#FDFCF5"/>
<circle cx="121.979" cy="101.167" r="1.5" fill="#FDFCF5"/>
<circle cx="130.979" cy="101.167" r="1.5" fill="#FDFCF5"/>
<circle cx="4.97852" cy="110.167" r="1.5" fill="#FDFCF5"/>
<circle cx="13.9785" cy="110.167" r="1.5" fill="#FDFCF5"/>
<circle cx="22.9785" cy="110.167" r="1.5" fill="#FDFCF5"/>
<circle cx="31.9785" cy="110.167" r="1.5" fill="#FDFCF5"/>
<circle cx="40.9785" cy="110.167" r="1.5" fill="#FDFCF5"/>
<circle cx="49.9785" cy="110.167" r="1.5" fill="#FDFCF5"/>
<circle cx="58.9785" cy="110.167" r="1.5" fill="#FDFCF5"/>
<circle cx="67.9785" cy="110.167" r="1.5" fill="#FDFCF5"/>
<circle cx="76.9785" cy="110.167" r="1.5" fill="#FDFCF5"/>
<circle cx="85.9785" cy="110.167" r="1.5" fill="#FDFCF5"/>
<circle cx="94.9785" cy="110.167" r="1.5" fill="#FDFCF5"/>
<circle cx="103.979" cy="110.167" r="1.5" fill="#FDFCF5"/>
<circle cx="112.979" cy="110.167" r="1.5" fill="#FDFCF5"/>
<circle cx="121.979" cy="110.167" r="1.5" fill="#FDFCF5"/>
<circle cx="130.979" cy="110.167" r="1.5" fill="#FDFCF5"/>
<circle cx="4.97852" cy="119.167" r="1.5" fill="#FDFCF5"/>
<circle cx="13.9785" cy="119.167" r="1.5" fill="#FDFCF5"/>
<circle cx="22.9785" cy="119.167" r="1.5" fill="#FDFCF5"/>
<circle cx="31.9785" cy="119.167" r="1.5" fill="#FDFCF5"/>
<circle cx="40.9785" cy="119.167" r="1.5" fill="#FDFCF5"/>
<circle cx="49.9785" cy="119.167" r="1.5" fill="#FDFCF5"/>
<circle cx="58.9785" cy="119.167" r="1.5" fill="#FDFCF5"/>
<circle cx="67.9785" cy="119.167" r="1.5" fill="#FDFCF5"/>
<circle cx="76.9785" cy="119.167" r="1.5" fill="#FDFCF5"/>
<circle cx="85.9785" cy="119.167" r="1.5" fill="#FDFCF5"/>
<circle cx="94.9785" cy="119.167" r="1.5" fill="#FDFCF5"/>
<circle cx="103.979" cy="119.167" r="1.5" fill="#FDFCF5"/>
<circle cx="112.979" cy="119.167" r="1.5" fill="#FDFCF5"/>
<circle cx="121.979" cy="119.167" r="1.5" fill="#FDFCF5"/>
<circle cx="130.979" cy="119.167" r="1.5" fill="#FDFCF5"/>
</g>
<defs>
<clipPath id="clip0_100_2871">
<rect width="127" height="117" fill="white" transform="translate(3.47852 9.66675)"/>
</clipPath>
</defs>
</svg>
