<svg width="128" height="128" viewBox="0 0 128 128" fill="none" xmlns="http://www.w3.org/2000/svg">
<g clip-path="url(#clip0_35_69)">
<path d="M48.0002 86.2267V79.6133L80.0002 61.16V36.2L53.3336 51.6133L26.6669 36.2V66.9733L21.3336 70.0667L16.0002 66.9733V24.3067L21.7069 21L53.3336 39.2933L74.2936 27.1867L84.9602 21L90.6669 24.3067V67.2933L63.5736 82.9733L85.1736 95.4L112 79.9333V56.3067L117.334 53.2133L122.667 56.3067V86.0667L85.1736 107.72L48.0002 86.2267ZM122.667 49.64L117.334 52.7333L112 49.64V43.4L117.334 40.3067L122.667 43.4V49.64Z" fill="black"/>
<g clip-path="url(#clip1_35_69)">
<circle cx="15.4998" cy="22.5" r="1.5" fill="#FDFCF5"/>
<circle cx="24.4998" cy="22.5" r="1.5" fill="#FDFCF5"/>
<circle cx="33.4998" cy="22.5" r="1.5" fill="#FDFCF5"/>
<circle cx="42.4998" cy="22.5" r="1.5" fill="#FDFCF5"/>
<circle cx="51.4998" cy="22.5" r="1.5" fill="#FDFCF5"/>
<circle cx="60.4998" cy="22.5" r="1.5" fill="#FDFCF5"/>
<circle cx="69.4998" cy="22.5" r="1.5" fill="#FDFCF5"/>
<circle cx="78.4998" cy="22.5" r="1.5" fill="#FDFCF5"/>
<circle cx="87.4998" cy="22.5" r="1.5" fill="#FDFCF5"/>
<circle cx="96.4998" cy="22.5" r="1.5" fill="#FDFCF5"/>
<circle cx="105.5" cy="22.5" r="1.5" fill="#FDFCF5"/>
<circle cx="114.5" cy="22.5" r="1.5" fill="#FDFCF5"/>
<circle cx="123.5" cy="22.5" r="1.5" fill="#FDFCF5"/>
<circle cx="15.4998" cy="31.5" r="1.5" fill="#FDFCF5"/>
<circle cx="24.4998" cy="31.5" r="1.5" fill="#FDFCF5"/>
<circle cx="33.4998" cy="31.5" r="1.5" fill="#FDFCF5"/>
<circle cx="42.4998" cy="31.5" r="1.5" fill="#FDFCF5"/>
<circle cx="51.4998" cy="31.5" r="1.5" fill="#FDFCF5"/>
<circle cx="60.4998" cy="31.5" r="1.5" fill="#FDFCF5"/>
<circle cx="69.4998" cy="31.5" r="1.5" fill="#FDFCF5"/>
<circle cx="78.4998" cy="31.5" r="1.5" fill="#FDFCF5"/>
<circle cx="87.4998" cy="31.5" r="1.5" fill="#FDFCF5"/>
<circle cx="96.4998" cy="31.5" r="1.5" fill="#FDFCF5"/>
<circle cx="105.5" cy="31.5" r="1.5" fill="#FDFCF5"/>
<circle cx="114.5" cy="31.5" r="1.5" fill="#FDFCF5"/>
<circle cx="123.5" cy="31.5" r="1.5" fill="#FDFCF5"/>
<circle cx="15.4998" cy="40.5" r="1.5" fill="#FDFCF5"/>
<circle cx="24.4998" cy="40.5" r="1.5" fill="#FDFCF5"/>
<circle cx="33.4998" cy="40.5" r="1.5" fill="#FDFCF5"/>
<circle cx="42.4998" cy="40.5" r="1.5" fill="#FDFCF5"/>
<circle cx="51.4998" cy="40.5" r="1.5" fill="#FDFCF5"/>
<circle cx="60.4998" cy="40.5" r="1.5" fill="#FDFCF5"/>
<circle cx="69.4998" cy="40.5" r="1.5" fill="#FDFCF5"/>
<circle cx="78.4998" cy="40.5" r="1.5" fill="#FDFCF5"/>
<circle cx="87.4998" cy="40.5" r="1.5" fill="#FDFCF5"/>
<circle cx="96.4998" cy="40.5" r="1.5" fill="#FDFCF5"/>
<circle cx="105.5" cy="40.5" r="1.5" fill="#FDFCF5"/>
<circle cx="114.5" cy="40.5" r="1.5" fill="#FDFCF5"/>
<circle cx="123.5" cy="40.5" r="1.5" fill="#FDFCF5"/>
<circle cx="15.4998" cy="49.5" r="1.5" fill="#FDFCF5"/>
<circle cx="24.4998" cy="49.5" r="1.5" fill="#FDFCF5"/>
<circle cx="33.4998" cy="49.5" r="1.5" fill="#FDFCF5"/>
<circle cx="42.4998" cy="49.5" r="1.5" fill="#FDFCF5"/>
<circle cx="51.4998" cy="49.5" r="1.5" fill="#FDFCF5"/>
<circle cx="60.4998" cy="49.5" r="1.5" fill="#FDFCF5"/>
<circle cx="69.4998" cy="49.5" r="1.5" fill="#FDFCF5"/>
<circle cx="78.4998" cy="49.5" r="1.5" fill="#FDFCF5"/>
<circle cx="87.4998" cy="49.5" r="1.5" fill="#FDFCF5"/>
<circle cx="96.4998" cy="49.5" r="1.5" fill="#FDFCF5"/>
<circle cx="105.5" cy="49.5" r="1.5" fill="#FDFCF5"/>
<circle cx="114.5" cy="49.5" r="1.5" fill="#FDFCF5"/>
<circle cx="123.5" cy="49.5" r="1.5" fill="#FDFCF5"/>
<circle cx="15.4998" cy="58.5" r="1.5" fill="#FDFCF5"/>
<circle cx="24.4998" cy="58.5" r="1.5" fill="#FDFCF5"/>
<circle cx="33.4998" cy="58.5" r="1.5" fill="#FDFCF5"/>
<circle cx="42.4998" cy="58.5" r="1.5" fill="#FDFCF5"/>
<circle cx="51.4998" cy="58.5" r="1.5" fill="#FDFCF5"/>
<circle cx="60.4998" cy="58.5" r="1.5" fill="#FDFCF5"/>
<circle cx="69.4998" cy="58.5" r="1.5" fill="#FDFCF5"/>
<circle cx="78.4998" cy="58.5" r="1.5" fill="#FDFCF5"/>
<circle cx="87.4998" cy="58.5" r="1.5" fill="#FDFCF5"/>
<circle cx="96.4998" cy="58.5" r="1.5" fill="#FDFCF5"/>
<circle cx="105.5" cy="58.5" r="1.5" fill="#FDFCF5"/>
<circle cx="114.5" cy="58.5" r="1.5" fill="#FDFCF5"/>
<circle cx="123.5" cy="58.5" r="1.5" fill="#FDFCF5"/>
<circle cx="15.4998" cy="67.5" r="1.5" fill="#FDFCF5"/>
<circle cx="24.4998" cy="67.5" r="1.5" fill="#FDFCF5"/>
<circle cx="33.4998" cy="67.5" r="1.5" fill="#FDFCF5"/>
<circle cx="42.4998" cy="67.5" r="1.5" fill="#FDFCF5"/>
<circle cx="51.4998" cy="67.5" r="1.5" fill="#FDFCF5"/>
<circle cx="60.4998" cy="67.5" r="1.5" fill="#FDFCF5"/>
<circle cx="69.4998" cy="67.5" r="1.5" fill="#FDFCF5"/>
<circle cx="78.4998" cy="67.5" r="1.5" fill="#FDFCF5"/>
<circle cx="87.4998" cy="67.5" r="1.5" fill="#FDFCF5"/>
<circle cx="96.4998" cy="67.5" r="1.5" fill="#FDFCF5"/>
<circle cx="105.5" cy="67.5" r="1.5" fill="#FDFCF5"/>
<circle cx="114.5" cy="67.5" r="1.5" fill="#FDFCF5"/>
<circle cx="123.5" cy="67.5" r="1.5" fill="#FDFCF5"/>
<circle cx="15.4998" cy="76.5" r="1.5" fill="#FDFCF5"/>
<circle cx="24.4998" cy="76.5" r="1.5" fill="#FDFCF5"/>
<circle cx="33.4998" cy="76.5" r="1.5" fill="#FDFCF5"/>
<circle cx="42.4998" cy="76.5" r="1.5" fill="#FDFCF5"/>
<circle cx="51.4998" cy="76.5" r="1.5" fill="#FDFCF5"/>
<circle cx="60.4998" cy="76.5" r="1.5" fill="#FDFCF5"/>
<circle cx="69.4998" cy="76.5" r="1.5" fill="#FDFCF5"/>
<circle cx="78.4998" cy="76.5" r="1.5" fill="#FDFCF5"/>
<circle cx="87.4998" cy="76.5" r="1.5" fill="#FDFCF5"/>
<circle cx="96.4998" cy="76.5" r="1.5" fill="#FDFCF5"/>
<circle cx="105.5" cy="76.5" r="1.5" fill="#FDFCF5"/>
<circle cx="114.5" cy="76.5" r="1.5" fill="#FDFCF5"/>
<circle cx="123.5" cy="76.5" r="1.5" fill="#FDFCF5"/>
<circle cx="15.4998" cy="85.5" r="1.5" fill="#FDFCF5"/>
<circle cx="24.4998" cy="85.5" r="1.5" fill="#FDFCF5"/>
<circle cx="33.4998" cy="85.5" r="1.5" fill="#FDFCF5"/>
<circle cx="42.4998" cy="85.5" r="1.5" fill="#FDFCF5"/>
<circle cx="51.4998" cy="85.5" r="1.5" fill="#FDFCF5"/>
<circle cx="60.4998" cy="85.5" r="1.5" fill="#FDFCF5"/>
<circle cx="69.4998" cy="85.5" r="1.5" fill="#FDFCF5"/>
<circle cx="78.4998" cy="85.5" r="1.5" fill="#FDFCF5"/>
<circle cx="87.4998" cy="85.5" r="1.5" fill="#FDFCF5"/>
<circle cx="96.4998" cy="85.5" r="1.5" fill="#FDFCF5"/>
<circle cx="105.5" cy="85.5" r="1.5" fill="#FDFCF5"/>
<circle cx="114.5" cy="85.5" r="1.5" fill="#FDFCF5"/>
<circle cx="123.5" cy="85.5" r="1.5" fill="#FDFCF5"/>
<circle cx="15.4998" cy="94.5" r="1.5" fill="#FDFCF5"/>
<circle cx="24.4998" cy="94.5" r="1.5" fill="#FDFCF5"/>
<circle cx="33.4998" cy="94.5" r="1.5" fill="#FDFCF5"/>
<circle cx="42.4998" cy="94.5" r="1.5" fill="#FDFCF5"/>
<circle cx="51.4998" cy="94.5" r="1.5" fill="#FDFCF5"/>
<circle cx="60.4998" cy="94.5" r="1.5" fill="#FDFCF5"/>
<circle cx="69.4998" cy="94.5" r="1.5" fill="#FDFCF5"/>
<circle cx="78.4998" cy="94.5" r="1.5" fill="#FDFCF5"/>
<circle cx="87.4998" cy="94.5" r="1.5" fill="#FDFCF5"/>
<circle cx="96.4998" cy="94.5" r="1.5" fill="#FDFCF5"/>
<circle cx="105.5" cy="94.5" r="1.5" fill="#FDFCF5"/>
<circle cx="114.5" cy="94.5" r="1.5" fill="#FDFCF5"/>
<circle cx="123.5" cy="94.5" r="1.5" fill="#FDFCF5"/>
<circle cx="15.4998" cy="103.5" r="1.5" fill="#FDFCF5"/>
<circle cx="24.4998" cy="103.5" r="1.5" fill="#FDFCF5"/>
<circle cx="33.4998" cy="103.5" r="1.5" fill="#FDFCF5"/>
<circle cx="42.4998" cy="103.5" r="1.5" fill="#FDFCF5"/>
<circle cx="51.4998" cy="103.5" r="1.5" fill="#FDFCF5"/>
<circle cx="60.4998" cy="103.5" r="1.5" fill="#FDFCF5"/>
<circle cx="69.4998" cy="103.5" r="1.5" fill="#FDFCF5"/>
<circle cx="78.4998" cy="103.5" r="1.5" fill="#FDFCF5"/>
<circle cx="87.4998" cy="103.5" r="1.5" fill="#FDFCF5"/>
<circle cx="96.4998" cy="103.5" r="1.5" fill="#FDFCF5"/>
<circle cx="105.5" cy="103.5" r="1.5" fill="#FDFCF5"/>
<circle cx="114.5" cy="103.5" r="1.5" fill="#FDFCF5"/>
<circle cx="123.5" cy="103.5" r="1.5" fill="#FDFCF5"/>
</g>
</g>
<defs>
<clipPath id="clip0_35_69">
<rect width="128" height="128" fill="white"/>
</clipPath>
<clipPath id="clip1_35_69">
<rect width="119" height="87" fill="white" transform="translate(13.9998 21)"/>
</clipPath>
</defs>
</svg>
