<svg width="127" height="29" viewBox="0 0 127 29" fill="none" xmlns="http://www.w3.org/2000/svg">
<path fill-rule="evenodd" clip-rule="evenodd" d="M120.413 11.426C120.413 10.3748 121.16 9.58195 122.119 9.58195C123.066 9.58195 123.814 10.3748 123.814 11.426C123.814 12.4951 123.066 13.2814 122.119 13.2814C121.16 13.2814 120.413 12.4951 120.413 11.426ZM122.119 13.6519C123.261 13.6519 124.236 12.7123 124.236 11.426C124.236 10.1524 123.261 9.21274 122.119 9.21274C120.966 9.21274 119.991 10.1524 119.991 11.426C119.991 12.7123 120.966 13.6519 122.119 13.6519ZM121.676 11.602H122.097L122.734 12.7123H123.144L122.456 11.5847C122.812 11.5382 123.083 11.3384 123.083 10.8802C123.083 10.3748 122.8 10.1524 122.229 10.1524H121.31V12.7123H121.676V11.602ZM121.676 11.2733V10.4804H122.174C122.429 10.4804 122.7 10.5395 122.7 10.8563C122.7 11.25 122.424 11.2733 122.113 11.2733H121.676ZM112.908 20.6915H117.514V17.2949H113.021V14.5013H117.924L117.929 11.0767H108.892V19.3701C107.605 17.0652 103.234 17.6296 102.791 15.7085C102.551 14.6732 103.319 13.972 104.715 13.972C106.112 13.972 107.358 14.9541 107.358 14.9541L108.792 12.0097C108.792 12.0097 107.093 10.7952 103.922 10.764C100.109 10.7261 98.5241 14.0484 98.5619 15.8234C98.5632 15.8871 98.5579 15.9469 98.5486 16.0047C97.3958 13.0184 94.5397 10.8324 91.1159 10.5601L91.0767 10.2354C91.0767 10.2354 91.9818 10.424 92.5775 10.3768C93.6539 10.2918 96.1454 8.11174 98.5798 8.13963C100.647 8.16354 104.088 10.5428 105.374 10.7726C106.387 10.9532 107.202 10.4897 107.202 10.4897C107.202 10.4897 106.49 10.8191 105.501 10.4592C104.732 10.1789 101.156 6.89387 98.1834 7.00742C95.2118 7.12031 93.539 9.66894 92.2939 9.66894C88.896 9.55539 89.4339 0.665061 83.6858 0.495063C78.3927 0.339011 77.2877 7.88463 72.9275 7.91319C70.4645 7.92846 69.2739 6.44099 69.0481 6.55387C68.821 6.66743 69.0481 6.92176 68.9352 6.97887C68.821 7.03531 68.481 7.12031 68.0288 7.31886C67.8369 7.41316 67.2778 7.86737 66.6695 8.21334C65.9702 8.60912 65.2338 8.89864 65.3387 8.98962C65.5373 9.15961 67.2645 8.70607 68.5667 8.67817C69.8689 8.65028 71.8504 9.95183 74.7391 9.89538C75.0219 9.81038 74.9934 10.1504 74.8234 10.3768C74.7038 10.5369 74.4316 10.6531 74.2802 10.7082C69.8058 10.7115 66.1236 13.9674 65.6336 18.1562H58.8443V21.2872H62.6765C61.9627 22.9022 60.5004 24.0125 58.8078 24.0125C56.4145 24.0125 54.4735 21.7972 54.4735 19.0659C54.4735 16.3334 56.4139 14.1181 58.8078 14.1181C60.3643 14.1181 61.725 15.0571 62.4893 16.4642L66.0938 14.8731C64.6388 12.363 61.9235 10.6697 58.8071 10.6697C55.1907 10.6697 52.1155 12.9487 50.9242 16.1415V11.0781H46.8934V20.7008L39.2143 10.9858H35.2207V16.1315C34.0247 12.8703 30.8067 10.5302 27.0143 10.5302C22.6375 10.5302 19.0251 13.6453 18.4062 17.698L17.264 11.0767H13.3076L9.99465 19.5646L6.68169 11.0767H2.72394L0 26.8719H3.86677L5.50034 17.8394L9.12341 26.8719H10.8646L14.4876 17.8394L16.1212 26.8719H19.988L19.2841 22.7939C20.7357 25.4853 23.6495 27.3267 27.0136 27.3267C30.806 27.3267 34.024 24.9873 35.22 21.7248V26.8712H39.1684V17.0671L46.8748 26.8712H50.9242V21.9878C52.1155 25.1812 55.1907 27.4596 58.8071 27.4596C62.2097 27.4596 65.0691 25.4621 66.3594 22.5741C67.73 25.4807 70.7614 27.504 74.2875 27.504C77.9564 27.504 81.09 25.3147 82.3743 22.2175C83.7024 25.2197 86.7903 27.3261 90.3907 27.3261C95.2025 27.3261 99.1024 23.5662 99.1024 18.9285C99.1024 18.8687 99.0115 18.4172 99.0101 18.3594C101.047 20.2061 105.204 20.3124 105.281 22.1259C105.342 23.5682 104.299 24.0516 103.015 23.9388C101.585 23.8119 99.5806 22.428 99.5806 22.428L97.8813 25.5617C97.8813 25.5617 99.5507 27.261 103.469 27.261C106.816 27.261 108.351 25.3246 108.89 24.4089V26.8719H117.927V23.448H112.906V20.6915H112.908ZM27.0143 23.5124C25.7986 23.5124 24.6326 23.0295 23.773 22.1698C22.9133 21.3102 22.4303 20.1442 22.4303 18.9285C22.4303 17.7127 22.9133 16.5468 23.773 15.6871C24.6326 14.8275 25.7986 14.3445 27.0143 14.3445C28.23 14.3445 29.396 14.8275 30.2556 15.6871C31.1153 16.5468 31.5982 17.7127 31.5982 18.9285C31.5982 20.1442 31.1153 21.3102 30.2556 22.1698C29.396 23.0295 28.23 23.5124 27.0143 23.5124ZM74.2882 23.6904C73.677 23.7051 73.069 23.5974 72.5001 23.3737C71.9312 23.15 71.4127 22.8148 70.9753 22.3877C70.5378 21.9607 70.1902 21.4504 69.9528 20.887C69.7155 20.3236 69.5932 19.7185 69.5932 19.1071C69.5932 18.4958 69.7155 17.8906 69.9528 17.3272C70.1902 16.7638 70.5378 16.2536 70.9753 15.8265C71.4127 15.3995 71.9312 15.0642 72.5001 14.8405C73.069 14.6168 73.677 14.5091 74.2882 14.5238C75.4846 14.5526 76.6224 15.0482 77.4584 15.9045C78.2944 16.7609 78.7624 17.9103 78.7624 19.1071C78.7624 20.3039 78.2944 21.4533 77.4584 22.3097C76.6224 23.1661 75.4846 23.6616 74.2882 23.6904ZM82.3046 15.8161C81.0701 13.0224 78.3083 11.0077 75.0312 10.7407C75.0492 10.7301 75.2052 10.6458 75.3918 10.4333C75.5904 10.2068 75.3075 9.92327 75.4775 9.75394C77.629 9.92394 79.07 5.87853 83.3206 5.84666C87.1143 5.81877 88.728 8.62107 90.2852 9.86683C89.2373 10.1218 87.4537 10.3483 87.538 10.5176C88.2516 10.4888 88.9663 10.5026 89.6782 10.5588C86.3201 10.8217 83.5045 12.9228 82.3046 15.8161ZM90.3914 23.5124C89.7895 23.5124 89.1935 23.3939 88.6375 23.1636C88.0814 22.9332 87.5761 22.5956 87.1505 22.17C86.7249 21.7444 86.3873 21.2392 86.157 20.6831C85.9267 20.127 85.8081 19.531 85.8081 18.9291C85.8079 18.0223 86.0766 17.1357 86.5802 16.3816C87.0839 15.6274 87.7999 15.0396 88.6377 14.6924C89.4755 14.3453 90.3974 14.2544 91.2868 14.4312C92.1763 14.6081 92.9933 15.0448 93.6346 15.686C94.2758 16.3273 94.7125 17.1443 94.8893 18.0337C95.0662 18.9232 94.9753 19.8451 94.6281 20.6829C94.281 21.5207 93.6931 22.2367 92.939 22.7403C92.1849 23.244 91.2983 23.5127 90.3914 23.5124Z" fill="#CE3829"/>
<g clip-path="url(#clip0_100_2148)">
<circle cx="1.61816" cy="1.5" r="1.5" fill="#FDFCF5"/>
<circle cx="10.6182" cy="1.5" r="1.5" fill="#FDFCF5"/>
<circle cx="19.6182" cy="1.5" r="1.5" fill="#FDFCF5"/>
<circle cx="28.6182" cy="1.5" r="1.5" fill="#FDFCF5"/>
<circle cx="37.6182" cy="1.5" r="1.5" fill="#FDFCF5"/>
<circle cx="46.6182" cy="1.5" r="1.5" fill="#FDFCF5"/>
<circle cx="55.6182" cy="1.5" r="1.5" fill="#FDFCF5"/>
<circle cx="64.6182" cy="1.5" r="1.5" fill="#FDFCF5"/>
<circle cx="73.6182" cy="1.5" r="1.5" fill="#FDFCF5"/>
<circle cx="82.6182" cy="1.5" r="1.5" fill="#FDFCF5"/>
<circle cx="91.6182" cy="1.5" r="1.5" fill="#FDFCF5"/>
<circle cx="100.618" cy="1.5" r="1.5" fill="#FDFCF5"/>
<circle cx="109.618" cy="1.5" r="1.5" fill="#FDFCF5"/>
<circle cx="118.618" cy="1.5" r="1.5" fill="#FDFCF5"/>
<circle cx="1.61816" cy="10.5" r="1.5" fill="#FDFCF5"/>
<circle cx="10.6182" cy="10.5" r="1.5" fill="#FDFCF5"/>
<circle cx="19.6182" cy="10.5" r="1.5" fill="#FDFCF5"/>
<circle cx="28.6182" cy="10.5" r="1.5" fill="#FDFCF5"/>
<circle cx="37.6182" cy="10.5" r="1.5" fill="#FDFCF5"/>
<circle cx="46.6182" cy="10.5" r="1.5" fill="#FDFCF5"/>
<circle cx="55.6182" cy="10.5" r="1.5" fill="#FDFCF5"/>
<circle cx="64.6182" cy="10.5" r="1.5" fill="#FDFCF5"/>
<circle cx="73.6182" cy="10.5" r="1.5" fill="#FDFCF5"/>
<circle cx="82.6182" cy="10.5" r="1.5" fill="#FDFCF5"/>
<circle cx="91.6182" cy="10.5" r="1.5" fill="#FDFCF5"/>
<circle cx="100.618" cy="10.5" r="1.5" fill="#FDFCF5"/>
<circle cx="109.618" cy="10.5" r="1.5" fill="#FDFCF5"/>
<circle cx="118.618" cy="10.5" r="1.5" fill="#FDFCF5"/>
<circle cx="1.61816" cy="19.5" r="1.5" fill="#FDFCF5"/>
<circle cx="10.6182" cy="19.5" r="1.5" fill="#FDFCF5"/>
<circle cx="19.6182" cy="19.5" r="1.5" fill="#FDFCF5"/>
<circle cx="28.6182" cy="19.5" r="1.5" fill="#FDFCF5"/>
<circle cx="37.6182" cy="19.5" r="1.5" fill="#FDFCF5"/>
<circle cx="46.6182" cy="19.5" r="1.5" fill="#FDFCF5"/>
<circle cx="55.6182" cy="19.5" r="1.5" fill="#FDFCF5"/>
<circle cx="64.6182" cy="19.5" r="1.5" fill="#FDFCF5"/>
<circle cx="73.6182" cy="19.5" r="1.5" fill="#FDFCF5"/>
<circle cx="82.6182" cy="19.5" r="1.5" fill="#FDFCF5"/>
<circle cx="91.6182" cy="19.5" r="1.5" fill="#FDFCF5"/>
<circle cx="100.618" cy="19.5" r="1.5" fill="#FDFCF5"/>
<circle cx="109.618" cy="19.5" r="1.5" fill="#FDFCF5"/>
<circle cx="118.618" cy="19.5" r="1.5" fill="#FDFCF5"/>
<circle cx="1.61816" cy="28.5" r="1.5" fill="#FDFCF5"/>
<circle cx="10.6182" cy="28.5" r="1.5" fill="#FDFCF5"/>
<circle cx="19.6182" cy="28.5" r="1.5" fill="#FDFCF5"/>
<circle cx="28.6182" cy="28.5" r="1.5" fill="#FDFCF5"/>
<circle cx="37.6182" cy="28.5" r="1.5" fill="#FDFCF5"/>
<circle cx="46.6182" cy="28.5" r="1.5" fill="#FDFCF5"/>
<circle cx="55.6182" cy="28.5" r="1.5" fill="#FDFCF5"/>
<circle cx="64.6182" cy="28.5" r="1.5" fill="#FDFCF5"/>
<circle cx="73.6182" cy="28.5" r="1.5" fill="#FDFCF5"/>
<circle cx="82.6182" cy="28.5" r="1.5" fill="#FDFCF5"/>
<circle cx="91.6182" cy="28.5" r="1.5" fill="#FDFCF5"/>
<circle cx="100.618" cy="28.5" r="1.5" fill="#FDFCF5"/>
<circle cx="109.618" cy="28.5" r="1.5" fill="#FDFCF5"/>
<circle cx="118.618" cy="28.5" r="1.5" fill="#FDFCF5"/>
</g>
<defs>
<clipPath id="clip0_100_2148">
<rect width="126" height="29" fill="white" transform="translate(0.118164)"/>
</clipPath>
</defs>
</svg>
