<svg width="128" height="128" viewBox="0 0 128 128" fill="none" xmlns="http://www.w3.org/2000/svg">
<g clip-path="url(#clip0_35_28)">
<path d="M4 46H128V89.71H66V97H38.44V89.71H4V46ZM10.89 82.43H24.67V60.57H31.56V82.43H38.45V53.29H10.89V82.43ZM45.33 53.29V89.71H59.11V82.43H72.89V53.29H45.33ZM59.11 60.58H66V75.14H59.11V60.58ZM79.78 53.29V82.43H93.56V60.57H100.45V82.43H107.34V60.57H114.23V82.43H121.12V53.29H79.78Z" fill="#CB3837"/>
<g clip-path="url(#clip1_35_28)">
<circle cx="6.49976" cy="47.5" r="1.5" fill="#FDFCF5"/>
<circle cx="15.4998" cy="47.5" r="1.5" fill="#FDFCF5"/>
<circle cx="24.4998" cy="47.5" r="1.5" fill="#FDFCF5"/>
<circle cx="33.4998" cy="47.5" r="1.5" fill="#FDFCF5"/>
<circle cx="42.4998" cy="47.5" r="1.5" fill="#FDFCF5"/>
<circle cx="51.4998" cy="47.5" r="1.5" fill="#FDFCF5"/>
<circle cx="60.4998" cy="47.5" r="1.5" fill="#FDFCF5"/>
<circle cx="69.4998" cy="47.5" r="1.5" fill="#FDFCF5"/>
<circle cx="78.4998" cy="47.5" r="1.5" fill="#FDFCF5"/>
<circle cx="87.4998" cy="47.5" r="1.5" fill="#FDFCF5"/>
<circle cx="96.4998" cy="47.5" r="1.5" fill="#FDFCF5"/>
<circle cx="105.5" cy="47.5" r="1.5" fill="#FDFCF5"/>
<circle cx="114.5" cy="47.5" r="1.5" fill="#FDFCF5"/>
<circle cx="123.5" cy="47.5" r="1.5" fill="#FDFCF5"/>
<circle cx="6.49976" cy="56.5" r="1.5" fill="#FDFCF5"/>
<circle cx="15.4998" cy="56.5" r="1.5" fill="#FDFCF5"/>
<circle cx="24.4998" cy="56.5" r="1.5" fill="#FDFCF5"/>
<circle cx="33.4998" cy="56.5" r="1.5" fill="#FDFCF5"/>
<circle cx="42.4998" cy="56.5" r="1.5" fill="#FDFCF5"/>
<circle cx="51.4998" cy="56.5" r="1.5" fill="#FDFCF5"/>
<circle cx="60.4998" cy="56.5" r="1.5" fill="#FDFCF5"/>
<circle cx="69.4998" cy="56.5" r="1.5" fill="#FDFCF5"/>
<circle cx="78.4998" cy="56.5" r="1.5" fill="#FDFCF5"/>
<circle cx="87.4998" cy="56.5" r="1.5" fill="#FDFCF5"/>
<circle cx="96.4998" cy="56.5" r="1.5" fill="#FDFCF5"/>
<circle cx="105.5" cy="56.5" r="1.5" fill="#FDFCF5"/>
<circle cx="114.5" cy="56.5" r="1.5" fill="#FDFCF5"/>
<circle cx="123.5" cy="56.5" r="1.5" fill="#FDFCF5"/>
<circle cx="6.49976" cy="65.5" r="1.5" fill="#FDFCF5"/>
<circle cx="15.4998" cy="65.5" r="1.5" fill="#FDFCF5"/>
<circle cx="24.4998" cy="65.5" r="1.5" fill="#FDFCF5"/>
<circle cx="33.4998" cy="65.5" r="1.5" fill="#FDFCF5"/>
<circle cx="42.4998" cy="65.5" r="1.5" fill="#FDFCF5"/>
<circle cx="51.4998" cy="65.5" r="1.5" fill="#FDFCF5"/>
<circle cx="60.4998" cy="65.5" r="1.5" fill="#FDFCF5"/>
<circle cx="69.4998" cy="65.5" r="1.5" fill="#FDFCF5"/>
<circle cx="78.4998" cy="65.5" r="1.5" fill="#FDFCF5"/>
<circle cx="87.4998" cy="65.5" r="1.5" fill="#FDFCF5"/>
<circle cx="96.4998" cy="65.5" r="1.5" fill="#FDFCF5"/>
<circle cx="105.5" cy="65.5" r="1.5" fill="#FDFCF5"/>
<circle cx="114.5" cy="65.5" r="1.5" fill="#FDFCF5"/>
<circle cx="123.5" cy="65.5" r="1.5" fill="#FDFCF5"/>
<circle cx="6.49976" cy="74.5" r="1.5" fill="#FDFCF5"/>
<circle cx="15.4998" cy="74.5" r="1.5" fill="#FDFCF5"/>
<circle cx="24.4998" cy="74.5" r="1.5" fill="#FDFCF5"/>
<circle cx="33.4998" cy="74.5" r="1.5" fill="#FDFCF5"/>
<circle cx="42.4998" cy="74.5" r="1.5" fill="#FDFCF5"/>
<circle cx="51.4998" cy="74.5" r="1.5" fill="#FDFCF5"/>
<circle cx="60.4998" cy="74.5" r="1.5" fill="#FDFCF5"/>
<circle cx="69.4998" cy="74.5" r="1.5" fill="#FDFCF5"/>
<circle cx="78.4998" cy="74.5" r="1.5" fill="#FDFCF5"/>
<circle cx="87.4998" cy="74.5" r="1.5" fill="#FDFCF5"/>
<circle cx="96.4998" cy="74.5" r="1.5" fill="#FDFCF5"/>
<circle cx="105.5" cy="74.5" r="1.5" fill="#FDFCF5"/>
<circle cx="114.5" cy="74.5" r="1.5" fill="#FDFCF5"/>
<circle cx="123.5" cy="74.5" r="1.5" fill="#FDFCF5"/>
<circle cx="6.49976" cy="83.5" r="1.5" fill="#FDFCF5"/>
<circle cx="15.4998" cy="83.5" r="1.5" fill="#FDFCF5"/>
<circle cx="24.4998" cy="83.5" r="1.5" fill="#FDFCF5"/>
<circle cx="33.4998" cy="83.5" r="1.5" fill="#FDFCF5"/>
<circle cx="42.4998" cy="83.5" r="1.5" fill="#FDFCF5"/>
<circle cx="51.4998" cy="83.5" r="1.5" fill="#FDFCF5"/>
<circle cx="60.4998" cy="83.5" r="1.5" fill="#FDFCF5"/>
<circle cx="69.4998" cy="83.5" r="1.5" fill="#FDFCF5"/>
<circle cx="78.4998" cy="83.5" r="1.5" fill="#FDFCF5"/>
<circle cx="87.4998" cy="83.5" r="1.5" fill="#FDFCF5"/>
<circle cx="96.4998" cy="83.5" r="1.5" fill="#FDFCF5"/>
<circle cx="105.5" cy="83.5" r="1.5" fill="#FDFCF5"/>
<circle cx="114.5" cy="83.5" r="1.5" fill="#FDFCF5"/>
<circle cx="123.5" cy="83.5" r="1.5" fill="#FDFCF5"/>
<circle cx="6.49976" cy="92.5" r="1.5" fill="#FDFCF5"/>
<circle cx="15.4998" cy="92.5" r="1.5" fill="#FDFCF5"/>
<circle cx="24.4998" cy="92.5" r="1.5" fill="#FDFCF5"/>
<circle cx="33.4998" cy="92.5" r="1.5" fill="#FDFCF5"/>
<circle cx="42.4998" cy="92.5" r="1.5" fill="#FDFCF5"/>
<circle cx="51.4998" cy="92.5" r="1.5" fill="#FDFCF5"/>
<circle cx="60.4998" cy="92.5" r="1.5" fill="#FDFCF5"/>
<circle cx="69.4998" cy="92.5" r="1.5" fill="#FDFCF5"/>
<circle cx="78.4998" cy="92.5" r="1.5" fill="#FDFCF5"/>
<circle cx="87.4998" cy="92.5" r="1.5" fill="#FDFCF5"/>
<circle cx="96.4998" cy="92.5" r="1.5" fill="#FDFCF5"/>
<circle cx="105.5" cy="92.5" r="1.5" fill="#FDFCF5"/>
<circle cx="114.5" cy="92.5" r="1.5" fill="#FDFCF5"/>
<circle cx="123.5" cy="92.5" r="1.5" fill="#FDFCF5"/>
</g>
</g>
<defs>
<clipPath id="clip0_35_28">
<rect width="128" height="128" fill="white"/>
</clipPath>
<clipPath id="clip1_35_28">
<rect width="126" height="51" fill="white" transform="translate(4.99976 46)"/>
</clipPath>
</defs>
</svg>
