<svg width="81" height="130" viewBox="0 0 81 130" fill="none" xmlns="http://www.w3.org/2000/svg">
<path d="M10.0316 127.409C10.6515 127.807 11.3517 127.999 12.0462 127.999C13.1198 127.999 14.1822 127.536 14.9141 126.659L74.1287 55.7711C75.0585 54.6584 75.2583 53.2188 74.644 51.9063C74.0298 50.5956 72.7116 49.8674 71.2627 49.8674H47.687L69.7411 5.46622C70.5701 3.79891 70.0473 1.72271 68.5144 0.667804C66.9759 -0.3871 64.9016 -0.177987 63.6469 1.19432L0.98187 69.5409C-0.018889 70.6331 -0.280281 72.3154 0.317187 73.6709C0.912787 75.0283 2.25522 76.0066 3.73582 76.0066H31.0606L8.678 122.77C7.86768 124.467 8.44648 126.392 10.0316 127.409ZM40.3494 73.6578C40.9021 72.5021 40.8218 71.253 40.1384 70.1701C39.4551 69.0835 38.262 68.5383 36.9812 68.5383H12.2255L51.2401 25.8623L38.3124 51.77C37.7355 52.9276 37.799 54.3839 38.4804 55.4836C39.1601 56.5833 40.3625 57.3358 41.6545 57.3358H63.2772L28.2003 99.2182L40.3494 73.6578Z" fill="black"/>
<g clip-path="url(#clip0_100_1762)">
<circle cx="1.5" cy="1.5" r="1.5" fill="#FDFCF5"/>
<circle cx="10.5" cy="1.5" r="1.5" fill="#FDFCF5"/>
<circle cx="19.5" cy="1.5" r="1.5" fill="#FDFCF5"/>
<circle cx="28.5" cy="1.5" r="1.5" fill="#FDFCF5"/>
<circle cx="37.5" cy="1.5" r="1.5" fill="#FDFCF5"/>
<circle cx="46.5" cy="1.5" r="1.5" fill="#FDFCF5"/>
<circle cx="55.5" cy="1.5" r="1.5" fill="#FDFCF5"/>
<circle cx="64.5" cy="1.5" r="1.5" fill="#FDFCF5"/>
<circle cx="73.5" cy="1.5" r="1.5" fill="#FDFCF5"/>
<circle cx="1.5" cy="10.5" r="1.5" fill="#FDFCF5"/>
<circle cx="10.5" cy="10.5" r="1.5" fill="#FDFCF5"/>
<circle cx="19.5" cy="10.5" r="1.5" fill="#FDFCF5"/>
<circle cx="28.5" cy="10.5" r="1.5" fill="#FDFCF5"/>
<circle cx="37.5" cy="10.5" r="1.5" fill="#FDFCF5"/>
<circle cx="46.5" cy="10.5" r="1.5" fill="#FDFCF5"/>
<circle cx="55.5" cy="10.5" r="1.5" fill="#FDFCF5"/>
<circle cx="64.5" cy="10.5" r="1.5" fill="#FDFCF5"/>
<circle cx="73.5" cy="10.5" r="1.5" fill="#FDFCF5"/>
<circle cx="1.5" cy="19.5" r="1.5" fill="#FDFCF5"/>
<circle cx="10.5" cy="19.5" r="1.5" fill="#FDFCF5"/>
<circle cx="19.5" cy="19.5" r="1.5" fill="#FDFCF5"/>
<circle cx="28.5" cy="19.5" r="1.5" fill="#FDFCF5"/>
<circle cx="37.5" cy="19.5" r="1.5" fill="#FDFCF5"/>
<circle cx="46.5" cy="19.5" r="1.5" fill="#FDFCF5"/>
<circle cx="55.5" cy="19.5" r="1.5" fill="#FDFCF5"/>
<circle cx="64.5" cy="19.5" r="1.5" fill="#FDFCF5"/>
<circle cx="73.5" cy="19.5" r="1.5" fill="#FDFCF5"/>
<circle cx="1.5" cy="28.5" r="1.5" fill="#FDFCF5"/>
<circle cx="10.5" cy="28.5" r="1.5" fill="#FDFCF5"/>
<circle cx="19.5" cy="28.5" r="1.5" fill="#FDFCF5"/>
<circle cx="28.5" cy="28.5" r="1.5" fill="#FDFCF5"/>
<circle cx="37.5" cy="28.5" r="1.5" fill="#FDFCF5"/>
<circle cx="46.5" cy="28.5" r="1.5" fill="#FDFCF5"/>
<circle cx="55.5" cy="28.5" r="1.5" fill="#FDFCF5"/>
<circle cx="64.5" cy="28.5" r="1.5" fill="#FDFCF5"/>
<circle cx="73.5" cy="28.5" r="1.5" fill="#FDFCF5"/>
<circle cx="1.5" cy="37.5" r="1.5" fill="#FDFCF5"/>
<circle cx="10.5" cy="37.5" r="1.5" fill="#FDFCF5"/>
<circle cx="19.5" cy="37.5" r="1.5" fill="#FDFCF5"/>
<circle cx="28.5" cy="37.5" r="1.5" fill="#FDFCF5"/>
<circle cx="37.5" cy="37.5" r="1.5" fill="#FDFCF5"/>
<circle cx="46.5" cy="37.5" r="1.5" fill="#FDFCF5"/>
<circle cx="55.5" cy="37.5" r="1.5" fill="#FDFCF5"/>
<circle cx="64.5" cy="37.5" r="1.5" fill="#FDFCF5"/>
<circle cx="73.5" cy="37.5" r="1.5" fill="#FDFCF5"/>
<circle cx="1.5" cy="46.5" r="1.5" fill="#FDFCF5"/>
<circle cx="10.5" cy="46.5" r="1.5" fill="#FDFCF5"/>
<circle cx="19.5" cy="46.5" r="1.5" fill="#FDFCF5"/>
<circle cx="28.5" cy="46.5" r="1.5" fill="#FDFCF5"/>
<circle cx="37.5" cy="46.5" r="1.5" fill="#FDFCF5"/>
<circle cx="46.5" cy="46.5" r="1.5" fill="#FDFCF5"/>
<circle cx="55.5" cy="46.5" r="1.5" fill="#FDFCF5"/>
<circle cx="64.5" cy="46.5" r="1.5" fill="#FDFCF5"/>
<circle cx="73.5" cy="46.5" r="1.5" fill="#FDFCF5"/>
<circle cx="1.5" cy="55.5" r="1.5" fill="#FDFCF5"/>
<circle cx="10.5" cy="55.5" r="1.5" fill="#FDFCF5"/>
<circle cx="19.5" cy="55.5" r="1.5" fill="#FDFCF5"/>
<circle cx="28.5" cy="55.5" r="1.5" fill="#FDFCF5"/>
<circle cx="37.5" cy="55.5" r="1.5" fill="#FDFCF5"/>
<circle cx="46.5" cy="55.5" r="1.5" fill="#FDFCF5"/>
<circle cx="55.5" cy="55.5" r="1.5" fill="#FDFCF5"/>
<circle cx="64.5" cy="55.5" r="1.5" fill="#FDFCF5"/>
<circle cx="73.5" cy="55.5" r="1.5" fill="#FDFCF5"/>
<circle cx="1.5" cy="64.5" r="1.5" fill="#FDFCF5"/>
<circle cx="10.5" cy="64.5" r="1.5" fill="#FDFCF5"/>
<circle cx="19.5" cy="64.5" r="1.5" fill="#FDFCF5"/>
<circle cx="28.5" cy="64.5" r="1.5" fill="#FDFCF5"/>
<circle cx="37.5" cy="64.5" r="1.5" fill="#FDFCF5"/>
<circle cx="46.5" cy="64.5" r="1.5" fill="#FDFCF5"/>
<circle cx="55.5" cy="64.5" r="1.5" fill="#FDFCF5"/>
<circle cx="64.5" cy="64.5" r="1.5" fill="#FDFCF5"/>
<circle cx="73.5" cy="64.5" r="1.5" fill="#FDFCF5"/>
<circle cx="1.5" cy="73.5" r="1.5" fill="#FDFCF5"/>
<circle cx="10.5" cy="73.5" r="1.5" fill="#FDFCF5"/>
<circle cx="19.5" cy="73.5" r="1.5" fill="#FDFCF5"/>
<circle cx="28.5" cy="73.5" r="1.5" fill="#FDFCF5"/>
<circle cx="37.5" cy="73.5" r="1.5" fill="#FDFCF5"/>
<circle cx="46.5" cy="73.5" r="1.5" fill="#FDFCF5"/>
<circle cx="55.5" cy="73.5" r="1.5" fill="#FDFCF5"/>
<circle cx="64.5" cy="73.5" r="1.5" fill="#FDFCF5"/>
<circle cx="73.5" cy="73.5" r="1.5" fill="#FDFCF5"/>
<circle cx="1.5" cy="82.5" r="1.5" fill="#FDFCF5"/>
<circle cx="10.5" cy="82.5" r="1.5" fill="#FDFCF5"/>
<circle cx="19.5" cy="82.5" r="1.5" fill="#FDFCF5"/>
<circle cx="28.5" cy="82.5" r="1.5" fill="#FDFCF5"/>
<circle cx="37.5" cy="82.5" r="1.5" fill="#FDFCF5"/>
<circle cx="46.5" cy="82.5" r="1.5" fill="#FDFCF5"/>
<circle cx="55.5" cy="82.5" r="1.5" fill="#FDFCF5"/>
<circle cx="64.5" cy="82.5" r="1.5" fill="#FDFCF5"/>
<circle cx="73.5" cy="82.5" r="1.5" fill="#FDFCF5"/>
<circle cx="1.5" cy="91.5" r="1.5" fill="#FDFCF5"/>
<circle cx="10.5" cy="91.5" r="1.5" fill="#FDFCF5"/>
<circle cx="19.5" cy="91.5" r="1.5" fill="#FDFCF5"/>
<circle cx="28.5" cy="91.5" r="1.5" fill="#FDFCF5"/>
<circle cx="37.5" cy="91.5" r="1.5" fill="#FDFCF5"/>
<circle cx="46.5" cy="91.5" r="1.5" fill="#FDFCF5"/>
<circle cx="55.5" cy="91.5" r="1.5" fill="#FDFCF5"/>
<circle cx="64.5" cy="91.5" r="1.5" fill="#FDFCF5"/>
<circle cx="73.5" cy="91.5" r="1.5" fill="#FDFCF5"/>
<circle cx="1.5" cy="100.5" r="1.5" fill="#FDFCF5"/>
<circle cx="10.5" cy="100.5" r="1.5" fill="#FDFCF5"/>
<circle cx="19.5" cy="100.5" r="1.5" fill="#FDFCF5"/>
<circle cx="28.5" cy="100.5" r="1.5" fill="#FDFCF5"/>
<circle cx="37.5" cy="100.5" r="1.5" fill="#FDFCF5"/>
<circle cx="46.5" cy="100.5" r="1.5" fill="#FDFCF5"/>
<circle cx="55.5" cy="100.5" r="1.5" fill="#FDFCF5"/>
<circle cx="64.5" cy="100.5" r="1.5" fill="#FDFCF5"/>
<circle cx="73.5" cy="100.5" r="1.5" fill="#FDFCF5"/>
<circle cx="1.5" cy="109.5" r="1.5" fill="#FDFCF5"/>
<circle cx="10.5" cy="109.5" r="1.5" fill="#FDFCF5"/>
<circle cx="19.5" cy="109.5" r="1.5" fill="#FDFCF5"/>
<circle cx="28.5" cy="109.5" r="1.5" fill="#FDFCF5"/>
<circle cx="37.5" cy="109.5" r="1.5" fill="#FDFCF5"/>
<circle cx="46.5" cy="109.5" r="1.5" fill="#FDFCF5"/>
<circle cx="55.5" cy="109.5" r="1.5" fill="#FDFCF5"/>
<circle cx="64.5" cy="109.5" r="1.5" fill="#FDFCF5"/>
<circle cx="73.5" cy="109.5" r="1.5" fill="#FDFCF5"/>
<circle cx="1.5" cy="118.5" r="1.5" fill="#FDFCF5"/>
<circle cx="10.5" cy="118.5" r="1.5" fill="#FDFCF5"/>
<circle cx="19.5" cy="118.5" r="1.5" fill="#FDFCF5"/>
<circle cx="28.5" cy="118.5" r="1.5" fill="#FDFCF5"/>
<circle cx="37.5" cy="118.5" r="1.5" fill="#FDFCF5"/>
<circle cx="46.5" cy="118.5" r="1.5" fill="#FDFCF5"/>
<circle cx="55.5" cy="118.5" r="1.5" fill="#FDFCF5"/>
<circle cx="64.5" cy="118.5" r="1.5" fill="#FDFCF5"/>
<circle cx="73.5" cy="118.5" r="1.5" fill="#FDFCF5"/>
<circle cx="1.5" cy="127.5" r="1.5" fill="#FDFCF5"/>
<circle cx="10.5" cy="127.5" r="1.5" fill="#FDFCF5"/>
<circle cx="19.5" cy="127.5" r="1.5" fill="#FDFCF5"/>
<circle cx="28.5" cy="127.5" r="1.5" fill="#FDFCF5"/>
<circle cx="37.5" cy="127.5" r="1.5" fill="#FDFCF5"/>
<circle cx="46.5" cy="127.5" r="1.5" fill="#FDFCF5"/>
<circle cx="55.5" cy="127.5" r="1.5" fill="#FDFCF5"/>
<circle cx="64.5" cy="127.5" r="1.5" fill="#FDFCF5"/>
<circle cx="73.5" cy="127.5" r="1.5" fill="#FDFCF5"/>
</g>
<defs>
<clipPath id="clip0_100_1762">
<rect width="81" height="130" fill="white"/>
</clipPath>
</defs>
</svg>
