<svg width="128" height="128" viewBox="0 0 128 128" fill="none" xmlns="http://www.w3.org/2000/svg">
<g clip-path="url(#clip0_91_5447)">
<mask id="mask0_91_5447" style="mask-type:luminance" maskUnits="userSpaceOnUse" x="0" y="0" width="128" height="128">
<path d="M90.4138 126.803C92.422 127.585 94.712 127.535 96.7391 126.56L122.99 113.928C125.748 112.601 127.502 109.809 127.502 106.746V21.0985C127.502 18.0359 125.748 15.2442 122.99 13.9169L96.7391 1.28526C94.079 0.00528902 90.9657 0.318802 88.6313 2.01609C88.2976 2.25855 87.9798 2.52927 87.682 2.8276L37.4283 48.6748L15.5389 32.059C13.5012 30.5122 10.651 30.6389 8.75854 32.3605L1.73789 38.7468C-0.577012 40.8525 -0.579667 44.4944 1.73216 46.6035L20.7154 63.9222L1.73216 81.241C-0.579667 83.3503 -0.577012 86.9921 1.73789 89.0978L8.75854 95.4839C10.651 97.2057 13.5012 97.3322 15.5389 95.7857L37.4283 79.1696L87.682 125.017C88.4769 125.812 89.4102 126.412 90.4138 126.803ZM95.6459 34.9779L57.5148 63.9222L95.6459 92.8666V34.9779Z" fill="white"/>
</mask>
<g mask="url(#mask0_91_5447)">
<path d="M123.067 13.9366L96.7965 1.28759C93.7559 -0.176536 90.1216 0.441063 87.7349 2.82754L1.73321 81.2411C-0.58002 83.3503 -0.577361 86.9921 1.73895 89.0979L8.76384 95.4839C10.6575 97.2057 13.5095 97.3322 15.5483 95.7858L119.114 17.2181C122.589 14.5823 127.579 17.0604 127.579 21.4216V21.1166C127.579 18.0553 125.826 15.2646 123.067 13.9366Z" fill="#0065A9"/>
</g>
<mask id="mask1_91_5447" style="mask-type:luminance" maskUnits="userSpaceOnUse" x="0" y="0" width="128" height="128">
<path d="M90.4138 126.803C92.422 127.585 94.712 127.535 96.7391 126.56L122.99 113.928C125.748 112.601 127.502 109.809 127.502 106.746V21.0985C127.502 18.0359 125.748 15.2442 122.99 13.9169L96.7391 1.28526C94.079 0.00528902 90.9657 0.318802 88.6313 2.01609C88.2976 2.25855 87.9798 2.52927 87.682 2.8276L37.4283 48.6748L15.5389 32.059C13.5012 30.5122 10.651 30.6389 8.75854 32.3605L1.73789 38.7468C-0.577012 40.8525 -0.579667 44.4944 1.73216 46.6035L20.7154 63.9222L1.73216 81.241C-0.579667 83.3503 -0.577012 86.9921 1.73789 89.0978L8.75854 95.4839C10.651 97.2057 13.5012 97.3322 15.5389 95.7857L37.4283 79.1696L87.682 125.017C88.4769 125.812 89.4102 126.412 90.4138 126.803ZM95.6459 34.9779L57.5148 63.9222L95.6459 92.8666V34.9779Z" fill="white"/>
</mask>
<g mask="url(#mask1_91_5447)">
<path d="M123.067 113.908L96.7965 126.557C93.7559 128.021 90.1216 127.403 87.7349 125.017L1.73321 46.6036C-0.58002 44.4945 -0.577361 40.8525 1.73895 38.7468L8.76384 32.3605C10.6575 30.639 13.5095 30.5122 15.5483 32.059L119.114 110.626C122.589 113.262 127.579 110.784 127.579 106.423V106.728C127.579 109.789 125.826 112.58 123.067 113.908Z" fill="#007ACC"/>
</g>
<mask id="mask2_91_5447" style="mask-type:luminance" maskUnits="userSpaceOnUse" x="0" y="0" width="128" height="128">
<path d="M90.4138 126.803C92.422 127.585 94.712 127.535 96.7391 126.56L122.99 113.928C125.748 112.601 127.502 109.809 127.502 106.746V21.0985C127.502 18.0359 125.748 15.2442 122.99 13.9169L96.7391 1.28526C94.079 0.00528902 90.9657 0.318802 88.6313 2.01609C88.2976 2.25855 87.9798 2.52927 87.682 2.8276L37.4283 48.6748L15.5389 32.059C13.5012 30.5122 10.651 30.6389 8.75854 32.3605L1.73789 38.7468C-0.577012 40.8525 -0.579667 44.4944 1.73216 46.6035L20.7154 63.9222L1.73216 81.241C-0.579667 83.3503 -0.577012 86.9921 1.73789 89.0978L8.75854 95.4839C10.651 97.2057 13.5012 97.3322 15.5389 95.7857L37.4283 79.1696L87.682 125.017C88.4769 125.812 89.4102 126.412 90.4138 126.803ZM95.6459 34.9779L57.5148 63.9222L95.6459 92.8666V34.9779Z" fill="white"/>
</mask>
<g mask="url(#mask2_91_5447)">
<path d="M96.7142 126.567C93.6726 128.03 90.0383 127.412 87.6516 125.025C90.5921 127.966 95.6205 125.883 95.6205 121.724V6.13646C95.6205 1.97769 90.5921 -0.105046 87.6516 2.83566C90.0383 0.44896 93.6726 -0.169511 96.7142 1.29332L122.981 13.925C125.741 15.2523 127.496 18.0439 127.496 21.1066V106.755C127.496 109.817 125.741 112.609 122.981 113.936L96.7142 126.567Z" fill="#1F9CF0"/>
</g>
<mask id="mask3_91_5447" style="mask-type:luminance" maskUnits="userSpaceOnUse" x="0" y="0" width="128" height="128">
<path d="M90.4138 126.803C92.422 127.585 94.712 127.535 96.7391 126.56L122.99 113.928C125.748 112.601 127.502 109.809 127.502 106.746V21.0985C127.502 18.0359 125.748 15.2442 122.99 13.9169L96.7391 1.28526C94.079 0.00528902 90.9657 0.318802 88.6313 2.01609C88.2976 2.25855 87.9798 2.52927 87.682 2.8276L37.4283 48.6748L15.5389 32.059C13.5012 30.5122 10.651 30.6389 8.75854 32.3605L1.73789 38.7468C-0.577012 40.8525 -0.579667 44.4944 1.73216 46.6035L20.7154 63.9222L1.73216 81.241C-0.579667 83.3503 -0.577012 86.9921 1.73789 89.0978L8.75854 95.4839C10.651 97.2057 13.5012 97.3322 15.5389 95.7857L37.4283 79.1696L87.682 125.017C88.4769 125.812 89.4102 126.412 90.4138 126.803ZM95.6459 34.9779L57.5148 63.9222L95.6459 92.8666V34.9779Z" fill="white"/>
</mask>
<g mask="url(#mask3_91_5447)">
<path d="M90.4139 126.803C92.4221 127.585 94.7122 127.535 96.7387 126.56L122.989 113.928C125.748 112.601 127.502 109.809 127.502 106.746V21.0985C127.502 18.0359 125.748 15.2442 122.99 13.9169L96.7387 1.28526C94.0791 0.00528848 90.9658 0.318802 88.6309 2.01609C88.2977 2.25855 87.9799 2.52926 87.6816 2.8276L37.4283 48.6748L15.5389 32.059C13.5012 30.5122 10.651 30.639 8.75851 32.3605L1.73789 38.7468C-0.577012 40.8525 -0.579667 44.4944 1.73216 46.6036L20.7154 63.9223L1.73216 81.2411C-0.579667 83.3504 -0.577012 86.9921 1.73789 89.0979L8.75851 95.484C10.651 97.2057 13.5012 97.3323 15.5389 95.7858L37.4283 79.1697L87.6816 125.017C88.4765 125.813 89.4104 126.412 90.4139 126.803ZM95.646 34.9779L57.515 63.9223L95.646 92.8667V34.9779Z" fill="url(#paint0_linear_91_5447)" fill-opacity="0.25"/>
</g>
<g clip-path="url(#clip1_91_5447)">
<circle cx="1.5" cy="1.5" r="1.5" fill="#FDFCF5"/>
<circle cx="10.5" cy="1.5" r="1.5" fill="#FDFCF5"/>
<circle cx="19.5" cy="1.5" r="1.5" fill="#FDFCF5"/>
<circle cx="28.5" cy="1.5" r="1.5" fill="#FDFCF5"/>
<circle cx="37.5" cy="1.5" r="1.5" fill="#FDFCF5"/>
<circle cx="46.5" cy="1.5" r="1.5" fill="#FDFCF5"/>
<circle cx="55.5" cy="1.5" r="1.5" fill="#FDFCF5"/>
<circle cx="64.5" cy="1.5" r="1.5" fill="#FDFCF5"/>
<circle cx="73.5" cy="1.5" r="1.5" fill="#FDFCF5"/>
<circle cx="82.5" cy="1.5" r="1.5" fill="#FDFCF5"/>
<circle cx="91.5" cy="1.5" r="1.5" fill="#FDFCF5"/>
<circle cx="100.5" cy="1.5" r="1.5" fill="#FDFCF5"/>
<circle cx="109.5" cy="1.5" r="1.5" fill="#FDFCF5"/>
<circle cx="118.5" cy="1.5" r="1.5" fill="#FDFCF5"/>
<circle cx="127.5" cy="1.5" r="1.5" fill="#FDFCF5"/>
<circle cx="1.5" cy="10.5" r="1.5" fill="#FDFCF5"/>
<circle cx="10.5" cy="10.5" r="1.5" fill="#FDFCF5"/>
<circle cx="19.5" cy="10.5" r="1.5" fill="#FDFCF5"/>
<circle cx="28.5" cy="10.5" r="1.5" fill="#FDFCF5"/>
<circle cx="37.5" cy="10.5" r="1.5" fill="#FDFCF5"/>
<circle cx="46.5" cy="10.5" r="1.5" fill="#FDFCF5"/>
<circle cx="55.5" cy="10.5" r="1.5" fill="#FDFCF5"/>
<circle cx="64.5" cy="10.5" r="1.5" fill="#FDFCF5"/>
<circle cx="73.5" cy="10.5" r="1.5" fill="#FDFCF5"/>
<circle cx="82.5" cy="10.5" r="1.5" fill="#FDFCF5"/>
<circle cx="91.5" cy="10.5" r="1.5" fill="#FDFCF5"/>
<circle cx="100.5" cy="10.5" r="1.5" fill="#FDFCF5"/>
<circle cx="109.5" cy="10.5" r="1.5" fill="#FDFCF5"/>
<circle cx="118.5" cy="10.5" r="1.5" fill="#FDFCF5"/>
<circle cx="127.5" cy="10.5" r="1.5" fill="#FDFCF5"/>
<circle cx="1.5" cy="19.5" r="1.5" fill="#FDFCF5"/>
<circle cx="10.5" cy="19.5" r="1.5" fill="#FDFCF5"/>
<circle cx="19.5" cy="19.5" r="1.5" fill="#FDFCF5"/>
<circle cx="28.5" cy="19.5" r="1.5" fill="#FDFCF5"/>
<circle cx="37.5" cy="19.5" r="1.5" fill="#FDFCF5"/>
<circle cx="46.5" cy="19.5" r="1.5" fill="#FDFCF5"/>
<circle cx="55.5" cy="19.5" r="1.5" fill="#FDFCF5"/>
<circle cx="64.5" cy="19.5" r="1.5" fill="#FDFCF5"/>
<circle cx="73.5" cy="19.5" r="1.5" fill="#FDFCF5"/>
<circle cx="82.5" cy="19.5" r="1.5" fill="#FDFCF5"/>
<circle cx="91.5" cy="19.5" r="1.5" fill="#FDFCF5"/>
<circle cx="100.5" cy="19.5" r="1.5" fill="#FDFCF5"/>
<circle cx="109.5" cy="19.5" r="1.5" fill="#FDFCF5"/>
<circle cx="118.5" cy="19.5" r="1.5" fill="#FDFCF5"/>
<circle cx="127.5" cy="19.5" r="1.5" fill="#FDFCF5"/>
<circle cx="1.5" cy="28.5" r="1.5" fill="#FDFCF5"/>
<circle cx="10.5" cy="28.5" r="1.5" fill="#FDFCF5"/>
<circle cx="19.5" cy="28.5" r="1.5" fill="#FDFCF5"/>
<circle cx="28.5" cy="28.5" r="1.5" fill="#FDFCF5"/>
<circle cx="37.5" cy="28.5" r="1.5" fill="#FDFCF5"/>
<circle cx="46.5" cy="28.5" r="1.5" fill="#FDFCF5"/>
<circle cx="55.5" cy="28.5" r="1.5" fill="#FDFCF5"/>
<circle cx="64.5" cy="28.5" r="1.5" fill="#FDFCF5"/>
<circle cx="73.5" cy="28.5" r="1.5" fill="#FDFCF5"/>
<circle cx="82.5" cy="28.5" r="1.5" fill="#FDFCF5"/>
<circle cx="91.5" cy="28.5" r="1.5" fill="#FDFCF5"/>
<circle cx="100.5" cy="28.5" r="1.5" fill="#FDFCF5"/>
<circle cx="109.5" cy="28.5" r="1.5" fill="#FDFCF5"/>
<circle cx="118.5" cy="28.5" r="1.5" fill="#FDFCF5"/>
<circle cx="127.5" cy="28.5" r="1.5" fill="#FDFCF5"/>
<circle cx="1.5" cy="37.5" r="1.5" fill="#FDFCF5"/>
<circle cx="10.5" cy="37.5" r="1.5" fill="#FDFCF5"/>
<circle cx="19.5" cy="37.5" r="1.5" fill="#FDFCF5"/>
<circle cx="28.5" cy="37.5" r="1.5" fill="#FDFCF5"/>
<circle cx="37.5" cy="37.5" r="1.5" fill="#FDFCF5"/>
<circle cx="46.5" cy="37.5" r="1.5" fill="#FDFCF5"/>
<circle cx="55.5" cy="37.5" r="1.5" fill="#FDFCF5"/>
<circle cx="64.5" cy="37.5" r="1.5" fill="#FDFCF5"/>
<circle cx="73.5" cy="37.5" r="1.5" fill="#FDFCF5"/>
<circle cx="82.5" cy="37.5" r="1.5" fill="#FDFCF5"/>
<circle cx="91.5" cy="37.5" r="1.5" fill="#FDFCF5"/>
<circle cx="100.5" cy="37.5" r="1.5" fill="#FDFCF5"/>
<circle cx="109.5" cy="37.5" r="1.5" fill="#FDFCF5"/>
<circle cx="118.5" cy="37.5" r="1.5" fill="#FDFCF5"/>
<circle cx="127.5" cy="37.5" r="1.5" fill="#FDFCF5"/>
<circle cx="1.5" cy="46.5" r="1.5" fill="#FDFCF5"/>
<circle cx="10.5" cy="46.5" r="1.5" fill="#FDFCF5"/>
<circle cx="19.5" cy="46.5" r="1.5" fill="#FDFCF5"/>
<circle cx="28.5" cy="46.5" r="1.5" fill="#FDFCF5"/>
<circle cx="37.5" cy="46.5" r="1.5" fill="#FDFCF5"/>
<circle cx="46.5" cy="46.5" r="1.5" fill="#FDFCF5"/>
<circle cx="55.5" cy="46.5" r="1.5" fill="#FDFCF5"/>
<circle cx="64.5" cy="46.5" r="1.5" fill="#FDFCF5"/>
<circle cx="73.5" cy="46.5" r="1.5" fill="#FDFCF5"/>
<circle cx="82.5" cy="46.5" r="1.5" fill="#FDFCF5"/>
<circle cx="91.5" cy="46.5" r="1.5" fill="#FDFCF5"/>
<circle cx="100.5" cy="46.5" r="1.5" fill="#FDFCF5"/>
<circle cx="109.5" cy="46.5" r="1.5" fill="#FDFCF5"/>
<circle cx="118.5" cy="46.5" r="1.5" fill="#FDFCF5"/>
<circle cx="127.5" cy="46.5" r="1.5" fill="#FDFCF5"/>
<circle cx="1.5" cy="55.5" r="1.5" fill="#FDFCF5"/>
<circle cx="10.5" cy="55.5" r="1.5" fill="#FDFCF5"/>
<circle cx="19.5" cy="55.5" r="1.5" fill="#FDFCF5"/>
<circle cx="28.5" cy="55.5" r="1.5" fill="#FDFCF5"/>
<circle cx="37.5" cy="55.5" r="1.5" fill="#FDFCF5"/>
<circle cx="46.5" cy="55.5" r="1.5" fill="#FDFCF5"/>
<circle cx="55.5" cy="55.5" r="1.5" fill="#FDFCF5"/>
<circle cx="64.5" cy="55.5" r="1.5" fill="#FDFCF5"/>
<circle cx="73.5" cy="55.5" r="1.5" fill="#FDFCF5"/>
<circle cx="82.5" cy="55.5" r="1.5" fill="#FDFCF5"/>
<circle cx="91.5" cy="55.5" r="1.5" fill="#FDFCF5"/>
<circle cx="100.5" cy="55.5" r="1.5" fill="#FDFCF5"/>
<circle cx="109.5" cy="55.5" r="1.5" fill="#FDFCF5"/>
<circle cx="118.5" cy="55.5" r="1.5" fill="#FDFCF5"/>
<circle cx="127.5" cy="55.5" r="1.5" fill="#FDFCF5"/>
<circle cx="1.5" cy="64.5" r="1.5" fill="#FDFCF5"/>
<circle cx="10.5" cy="64.5" r="1.5" fill="#FDFCF5"/>
<circle cx="19.5" cy="64.5" r="1.5" fill="#FDFCF5"/>
<circle cx="28.5" cy="64.5" r="1.5" fill="#FDFCF5"/>
<circle cx="37.5" cy="64.5" r="1.5" fill="#FDFCF5"/>
<circle cx="46.5" cy="64.5" r="1.5" fill="#FDFCF5"/>
<circle cx="55.5" cy="64.5" r="1.5" fill="#FDFCF5"/>
<circle cx="64.5" cy="64.5" r="1.5" fill="#FDFCF5"/>
<circle cx="73.5" cy="64.5" r="1.5" fill="#FDFCF5"/>
<circle cx="82.5" cy="64.5" r="1.5" fill="#FDFCF5"/>
<circle cx="91.5" cy="64.5" r="1.5" fill="#FDFCF5"/>
<circle cx="100.5" cy="64.5" r="1.5" fill="#FDFCF5"/>
<circle cx="109.5" cy="64.5" r="1.5" fill="#FDFCF5"/>
<circle cx="118.5" cy="64.5" r="1.5" fill="#FDFCF5"/>
<circle cx="127.5" cy="64.5" r="1.5" fill="#FDFCF5"/>
<circle cx="1.5" cy="73.5" r="1.5" fill="#FDFCF5"/>
<circle cx="10.5" cy="73.5" r="1.5" fill="#FDFCF5"/>
<circle cx="19.5" cy="73.5" r="1.5" fill="#FDFCF5"/>
<circle cx="28.5" cy="73.5" r="1.5" fill="#FDFCF5"/>
<circle cx="37.5" cy="73.5" r="1.5" fill="#FDFCF5"/>
<circle cx="46.5" cy="73.5" r="1.5" fill="#FDFCF5"/>
<circle cx="55.5" cy="73.5" r="1.5" fill="#FDFCF5"/>
<circle cx="64.5" cy="73.5" r="1.5" fill="#FDFCF5"/>
<circle cx="73.5" cy="73.5" r="1.5" fill="#FDFCF5"/>
<circle cx="82.5" cy="73.5" r="1.5" fill="#FDFCF5"/>
<circle cx="91.5" cy="73.5" r="1.5" fill="#FDFCF5"/>
<circle cx="100.5" cy="73.5" r="1.5" fill="#FDFCF5"/>
<circle cx="109.5" cy="73.5" r="1.5" fill="#FDFCF5"/>
<circle cx="118.5" cy="73.5" r="1.5" fill="#FDFCF5"/>
<circle cx="127.5" cy="73.5" r="1.5" fill="#FDFCF5"/>
<circle cx="1.5" cy="82.5" r="1.5" fill="#FDFCF5"/>
<circle cx="10.5" cy="82.5" r="1.5" fill="#FDFCF5"/>
<circle cx="19.5" cy="82.5" r="1.5" fill="#FDFCF5"/>
<circle cx="28.5" cy="82.5" r="1.5" fill="#FDFCF5"/>
<circle cx="37.5" cy="82.5" r="1.5" fill="#FDFCF5"/>
<circle cx="46.5" cy="82.5" r="1.5" fill="#FDFCF5"/>
<circle cx="55.5" cy="82.5" r="1.5" fill="#FDFCF5"/>
<circle cx="64.5" cy="82.5" r="1.5" fill="#FDFCF5"/>
<circle cx="73.5" cy="82.5" r="1.5" fill="#FDFCF5"/>
<circle cx="82.5" cy="82.5" r="1.5" fill="#FDFCF5"/>
<circle cx="91.5" cy="82.5" r="1.5" fill="#FDFCF5"/>
<circle cx="100.5" cy="82.5" r="1.5" fill="#FDFCF5"/>
<circle cx="109.5" cy="82.5" r="1.5" fill="#FDFCF5"/>
<circle cx="118.5" cy="82.5" r="1.5" fill="#FDFCF5"/>
<circle cx="127.5" cy="82.5" r="1.5" fill="#FDFCF5"/>
<circle cx="1.5" cy="91.5" r="1.5" fill="#FDFCF5"/>
<circle cx="10.5" cy="91.5" r="1.5" fill="#FDFCF5"/>
<circle cx="19.5" cy="91.5" r="1.5" fill="#FDFCF5"/>
<circle cx="28.5" cy="91.5" r="1.5" fill="#FDFCF5"/>
<circle cx="37.5" cy="91.5" r="1.5" fill="#FDFCF5"/>
<circle cx="46.5" cy="91.5" r="1.5" fill="#FDFCF5"/>
<circle cx="55.5" cy="91.5" r="1.5" fill="#FDFCF5"/>
<circle cx="64.5" cy="91.5" r="1.5" fill="#FDFCF5"/>
<circle cx="73.5" cy="91.5" r="1.5" fill="#FDFCF5"/>
<circle cx="82.5" cy="91.5" r="1.5" fill="#FDFCF5"/>
<circle cx="91.5" cy="91.5" r="1.5" fill="#FDFCF5"/>
<circle cx="100.5" cy="91.5" r="1.5" fill="#FDFCF5"/>
<circle cx="109.5" cy="91.5" r="1.5" fill="#FDFCF5"/>
<circle cx="118.5" cy="91.5" r="1.5" fill="#FDFCF5"/>
<circle cx="127.5" cy="91.5" r="1.5" fill="#FDFCF5"/>
<circle cx="1.5" cy="100.5" r="1.5" fill="#FDFCF5"/>
<circle cx="10.5" cy="100.5" r="1.5" fill="#FDFCF5"/>
<circle cx="19.5" cy="100.5" r="1.5" fill="#FDFCF5"/>
<circle cx="28.5" cy="100.5" r="1.5" fill="#FDFCF5"/>
<circle cx="37.5" cy="100.5" r="1.5" fill="#FDFCF5"/>
<circle cx="46.5" cy="100.5" r="1.5" fill="#FDFCF5"/>
<circle cx="55.5" cy="100.5" r="1.5" fill="#FDFCF5"/>
<circle cx="64.5" cy="100.5" r="1.5" fill="#FDFCF5"/>
<circle cx="73.5" cy="100.5" r="1.5" fill="#FDFCF5"/>
<circle cx="82.5" cy="100.5" r="1.5" fill="#FDFCF5"/>
<circle cx="91.5" cy="100.5" r="1.5" fill="#FDFCF5"/>
<circle cx="100.5" cy="100.5" r="1.5" fill="#FDFCF5"/>
<circle cx="109.5" cy="100.5" r="1.5" fill="#FDFCF5"/>
<circle cx="118.5" cy="100.5" r="1.5" fill="#FDFCF5"/>
<circle cx="127.5" cy="100.5" r="1.5" fill="#FDFCF5"/>
<circle cx="1.5" cy="109.5" r="1.5" fill="#FDFCF5"/>
<circle cx="10.5" cy="109.5" r="1.5" fill="#FDFCF5"/>
<circle cx="19.5" cy="109.5" r="1.5" fill="#FDFCF5"/>
<circle cx="28.5" cy="109.5" r="1.5" fill="#FDFCF5"/>
<circle cx="37.5" cy="109.5" r="1.5" fill="#FDFCF5"/>
<circle cx="46.5" cy="109.5" r="1.5" fill="#FDFCF5"/>
<circle cx="55.5" cy="109.5" r="1.5" fill="#FDFCF5"/>
<circle cx="64.5" cy="109.5" r="1.5" fill="#FDFCF5"/>
<circle cx="73.5" cy="109.5" r="1.5" fill="#FDFCF5"/>
<circle cx="82.5" cy="109.5" r="1.5" fill="#FDFCF5"/>
<circle cx="91.5" cy="109.5" r="1.5" fill="#FDFCF5"/>
<circle cx="100.5" cy="109.5" r="1.5" fill="#FDFCF5"/>
<circle cx="109.5" cy="109.5" r="1.5" fill="#FDFCF5"/>
<circle cx="118.5" cy="109.5" r="1.5" fill="#FDFCF5"/>
<circle cx="127.5" cy="109.5" r="1.5" fill="#FDFCF5"/>
<circle cx="1.5" cy="118.5" r="1.5" fill="#FDFCF5"/>
<circle cx="10.5" cy="118.5" r="1.5" fill="#FDFCF5"/>
<circle cx="19.5" cy="118.5" r="1.5" fill="#FDFCF5"/>
<circle cx="28.5" cy="118.5" r="1.5" fill="#FDFCF5"/>
<circle cx="37.5" cy="118.5" r="1.5" fill="#FDFCF5"/>
<circle cx="46.5" cy="118.5" r="1.5" fill="#FDFCF5"/>
<circle cx="55.5" cy="118.5" r="1.5" fill="#FDFCF5"/>
<circle cx="64.5" cy="118.5" r="1.5" fill="#FDFCF5"/>
<circle cx="73.5" cy="118.5" r="1.5" fill="#FDFCF5"/>
<circle cx="82.5" cy="118.5" r="1.5" fill="#FDFCF5"/>
<circle cx="91.5" cy="118.5" r="1.5" fill="#FDFCF5"/>
<circle cx="100.5" cy="118.5" r="1.5" fill="#FDFCF5"/>
<circle cx="109.5" cy="118.5" r="1.5" fill="#FDFCF5"/>
<circle cx="118.5" cy="118.5" r="1.5" fill="#FDFCF5"/>
<circle cx="127.5" cy="118.5" r="1.5" fill="#FDFCF5"/>
<circle cx="1.5" cy="127.5" r="1.5" fill="#FDFCF5"/>
<circle cx="10.5" cy="127.5" r="1.5" fill="#FDFCF5"/>
<circle cx="19.5" cy="127.5" r="1.5" fill="#FDFCF5"/>
<circle cx="28.5" cy="127.5" r="1.5" fill="#FDFCF5"/>
<circle cx="37.5" cy="127.5" r="1.5" fill="#FDFCF5"/>
<circle cx="46.5" cy="127.5" r="1.5" fill="#FDFCF5"/>
<circle cx="55.5" cy="127.5" r="1.5" fill="#FDFCF5"/>
<circle cx="64.5" cy="127.5" r="1.5" fill="#FDFCF5"/>
<circle cx="73.5" cy="127.5" r="1.5" fill="#FDFCF5"/>
<circle cx="82.5" cy="127.5" r="1.5" fill="#FDFCF5"/>
<circle cx="91.5" cy="127.5" r="1.5" fill="#FDFCF5"/>
<circle cx="100.5" cy="127.5" r="1.5" fill="#FDFCF5"/>
<circle cx="109.5" cy="127.5" r="1.5" fill="#FDFCF5"/>
<circle cx="118.5" cy="127.5" r="1.5" fill="#FDFCF5"/>
<circle cx="127.5" cy="127.5" r="1.5" fill="#FDFCF5"/>
</g>
</g>
<defs>
<linearGradient id="paint0_linear_91_5447" x1="6375.11" y1="0.49995" x2="6375.11" y2="12685" gradientUnits="userSpaceOnUse">
<stop stop-color="white"/>
<stop offset="1" stop-color="white" stop-opacity="0"/>
</linearGradient>
<clipPath id="clip0_91_5447">
<rect width="128" height="128" fill="white"/>
</clipPath>
<clipPath id="clip1_91_5447">
<rect width="129" height="128" fill="white"/>
</clipPath>
</defs>
</svg>
