<svg width="128" height="128" viewBox="0 0 128 128" fill="none" xmlns="http://www.w3.org/2000/svg">
<g clip-path="url(#clip0_81_4)">
<path d="M110.8 44.1599H96.3499L87.8499 58.2699L79.6059 44.1599H65.0059L80.8999 67.4499L70.6159 82.4939L53.7019 44.2439H40.9519L62.0319 91.6719H77.9259L87.8699 76.6279L97.7299 91.6719H110.734L95.0099 67.4479L110.8 44.1599Z" fill="white"/>
<path d="M29.64 119.45H0L48.94 8.4458H78.8L29.64 119.45Z" fill="#0A99E0"/>
<path d="M98.2739 119.45L128 119.556L78.7999 8.44385H48.9399L98.2759 119.448" fill="#222222"/>
<g clip-path="url(#clip1_81_4)">
<circle cx="1.5" cy="9.5" r="1.5" fill="#FDFCF5"/>
<circle cx="10.5" cy="9.5" r="1.5" fill="#FDFCF5"/>
<circle cx="19.5" cy="9.5" r="1.5" fill="#FDFCF5"/>
<circle cx="28.5" cy="9.5" r="1.5" fill="#FDFCF5"/>
<circle cx="37.5" cy="9.5" r="1.5" fill="#FDFCF5"/>
<circle cx="46.5" cy="9.5" r="1.5" fill="#FDFCF5"/>
<circle cx="55.5" cy="9.5" r="1.5" fill="#FDFCF5"/>
<circle cx="64.5" cy="9.5" r="1.5" fill="#FDFCF5"/>
<circle cx="73.5" cy="9.5" r="1.5" fill="#FDFCF5"/>
<circle cx="82.5" cy="9.5" r="1.5" fill="#FDFCF5"/>
<circle cx="91.5" cy="9.5" r="1.5" fill="#FDFCF5"/>
<circle cx="100.5" cy="9.5" r="1.5" fill="#FDFCF5"/>
<circle cx="109.5" cy="9.5" r="1.5" fill="#FDFCF5"/>
<circle cx="118.5" cy="9.5" r="1.5" fill="#FDFCF5"/>
<circle cx="127.5" cy="9.5" r="1.5" fill="#FDFCF5"/>
<circle cx="1.5" cy="18.5" r="1.5" fill="#FDFCF5"/>
<circle cx="10.5" cy="18.5" r="1.5" fill="#FDFCF5"/>
<circle cx="19.5" cy="18.5" r="1.5" fill="#FDFCF5"/>
<circle cx="28.5" cy="18.5" r="1.5" fill="#FDFCF5"/>
<circle cx="37.5" cy="18.5" r="1.5" fill="#FDFCF5"/>
<circle cx="46.5" cy="18.5" r="1.5" fill="#FDFCF5"/>
<circle cx="55.5" cy="18.5" r="1.5" fill="#FDFCF5"/>
<circle cx="64.5" cy="18.5" r="1.5" fill="#FDFCF5"/>
<circle cx="73.5" cy="18.5" r="1.5" fill="#FDFCF5"/>
<circle cx="82.5" cy="18.5" r="1.5" fill="#FDFCF5"/>
<circle cx="91.5" cy="18.5" r="1.5" fill="#FDFCF5"/>
<circle cx="100.5" cy="18.5" r="1.5" fill="#FDFCF5"/>
<circle cx="109.5" cy="18.5" r="1.5" fill="#FDFCF5"/>
<circle cx="118.5" cy="18.5" r="1.5" fill="#FDFCF5"/>
<circle cx="127.5" cy="18.5" r="1.5" fill="#FDFCF5"/>
<circle cx="1.5" cy="27.5" r="1.5" fill="#FDFCF5"/>
<circle cx="10.5" cy="27.5" r="1.5" fill="#FDFCF5"/>
<circle cx="19.5" cy="27.5" r="1.5" fill="#FDFCF5"/>
<circle cx="28.5" cy="27.5" r="1.5" fill="#FDFCF5"/>
<circle cx="37.5" cy="27.5" r="1.5" fill="#FDFCF5"/>
<circle cx="46.5" cy="27.5" r="1.5" fill="#FDFCF5"/>
<circle cx="55.5" cy="27.5" r="1.5" fill="#FDFCF5"/>
<circle cx="64.5" cy="27.5" r="1.5" fill="#FDFCF5"/>
<circle cx="73.5" cy="27.5" r="1.5" fill="#FDFCF5"/>
<circle cx="82.5" cy="27.5" r="1.5" fill="#FDFCF5"/>
<circle cx="91.5" cy="27.5" r="1.5" fill="#FDFCF5"/>
<circle cx="100.5" cy="27.5" r="1.5" fill="#FDFCF5"/>
<circle cx="109.5" cy="27.5" r="1.5" fill="#FDFCF5"/>
<circle cx="118.5" cy="27.5" r="1.5" fill="#FDFCF5"/>
<circle cx="127.5" cy="27.5" r="1.5" fill="#FDFCF5"/>
<circle cx="1.5" cy="36.5" r="1.5" fill="#FDFCF5"/>
<circle cx="10.5" cy="36.5" r="1.5" fill="#FDFCF5"/>
<circle cx="19.5" cy="36.5" r="1.5" fill="#FDFCF5"/>
<circle cx="28.5" cy="36.5" r="1.5" fill="#FDFCF5"/>
<circle cx="37.5" cy="36.5" r="1.5" fill="#FDFCF5"/>
<circle cx="46.5" cy="36.5" r="1.5" fill="#FDFCF5"/>
<circle cx="55.5" cy="36.5" r="1.5" fill="#FDFCF5"/>
<circle cx="64.5" cy="36.5" r="1.5" fill="#FDFCF5"/>
<circle cx="73.5" cy="36.5" r="1.5" fill="#FDFCF5"/>
<circle cx="82.5" cy="36.5" r="1.5" fill="#FDFCF5"/>
<circle cx="91.5" cy="36.5" r="1.5" fill="#FDFCF5"/>
<circle cx="100.5" cy="36.5" r="1.5" fill="#FDFCF5"/>
<circle cx="109.5" cy="36.5" r="1.5" fill="#FDFCF5"/>
<circle cx="118.5" cy="36.5" r="1.5" fill="#FDFCF5"/>
<circle cx="127.5" cy="36.5" r="1.5" fill="#FDFCF5"/>
<circle cx="1.5" cy="45.5" r="1.5" fill="#FDFCF5"/>
<circle cx="10.5" cy="45.5" r="1.5" fill="#FDFCF5"/>
<circle cx="19.5" cy="45.5" r="1.5" fill="#FDFCF5"/>
<circle cx="28.5" cy="45.5" r="1.5" fill="#FDFCF5"/>
<circle cx="37.5" cy="45.5" r="1.5" fill="#FDFCF5"/>
<circle cx="46.5" cy="45.5" r="1.5" fill="#FDFCF5"/>
<circle cx="55.5" cy="45.5" r="1.5" fill="#FDFCF5"/>
<circle cx="64.5" cy="45.5" r="1.5" fill="#FDFCF5"/>
<circle cx="73.5" cy="45.5" r="1.5" fill="#FDFCF5"/>
<circle cx="82.5" cy="45.5" r="1.5" fill="#FDFCF5"/>
<circle cx="91.5" cy="45.5" r="1.5" fill="#FDFCF5"/>
<circle cx="100.5" cy="45.5" r="1.5" fill="#FDFCF5"/>
<circle cx="109.5" cy="45.5" r="1.5" fill="#FDFCF5"/>
<circle cx="118.5" cy="45.5" r="1.5" fill="#FDFCF5"/>
<circle cx="127.5" cy="45.5" r="1.5" fill="#FDFCF5"/>
<circle cx="1.5" cy="54.5" r="1.5" fill="#FDFCF5"/>
<circle cx="10.5" cy="54.5" r="1.5" fill="#FDFCF5"/>
<circle cx="19.5" cy="54.5" r="1.5" fill="#FDFCF5"/>
<circle cx="28.5" cy="54.5" r="1.5" fill="#FDFCF5"/>
<circle cx="37.5" cy="54.5" r="1.5" fill="#FDFCF5"/>
<circle cx="46.5" cy="54.5" r="1.5" fill="#FDFCF5"/>
<circle cx="55.5" cy="54.5" r="1.5" fill="#FDFCF5"/>
<circle cx="64.5" cy="54.5" r="1.5" fill="#FDFCF5"/>
<circle cx="73.5" cy="54.5" r="1.5" fill="#FDFCF5"/>
<circle cx="82.5" cy="54.5" r="1.5" fill="#FDFCF5"/>
<circle cx="91.5" cy="54.5" r="1.5" fill="#FDFCF5"/>
<circle cx="100.5" cy="54.5" r="1.5" fill="#FDFCF5"/>
<circle cx="109.5" cy="54.5" r="1.5" fill="#FDFCF5"/>
<circle cx="118.5" cy="54.5" r="1.5" fill="#FDFCF5"/>
<circle cx="127.5" cy="54.5" r="1.5" fill="#FDFCF5"/>
<circle cx="1.5" cy="63.5" r="1.5" fill="#FDFCF5"/>
<circle cx="10.5" cy="63.5" r="1.5" fill="#FDFCF5"/>
<circle cx="19.5" cy="63.5" r="1.5" fill="#FDFCF5"/>
<circle cx="28.5" cy="63.5" r="1.5" fill="#FDFCF5"/>
<circle cx="37.5" cy="63.5" r="1.5" fill="#FDFCF5"/>
<circle cx="46.5" cy="63.5" r="1.5" fill="#FDFCF5"/>
<circle cx="55.5" cy="63.5" r="1.5" fill="#FDFCF5"/>
<circle cx="64.5" cy="63.5" r="1.5" fill="#FDFCF5"/>
<circle cx="73.5" cy="63.5" r="1.5" fill="#FDFCF5"/>
<circle cx="82.5" cy="63.5" r="1.5" fill="#FDFCF5"/>
<circle cx="91.5" cy="63.5" r="1.5" fill="#FDFCF5"/>
<circle cx="100.5" cy="63.5" r="1.5" fill="#FDFCF5"/>
<circle cx="109.5" cy="63.5" r="1.5" fill="#FDFCF5"/>
<circle cx="118.5" cy="63.5" r="1.5" fill="#FDFCF5"/>
<circle cx="127.5" cy="63.5" r="1.5" fill="#FDFCF5"/>
<circle cx="1.5" cy="72.5" r="1.5" fill="#FDFCF5"/>
<circle cx="10.5" cy="72.5" r="1.5" fill="#FDFCF5"/>
<circle cx="19.5" cy="72.5" r="1.5" fill="#FDFCF5"/>
<circle cx="28.5" cy="72.5" r="1.5" fill="#FDFCF5"/>
<circle cx="37.5" cy="72.5" r="1.5" fill="#FDFCF5"/>
<circle cx="46.5" cy="72.5" r="1.5" fill="#FDFCF5"/>
<circle cx="55.5" cy="72.5" r="1.5" fill="#FDFCF5"/>
<circle cx="64.5" cy="72.5" r="1.5" fill="#FDFCF5"/>
<circle cx="73.5" cy="72.5" r="1.5" fill="#FDFCF5"/>
<circle cx="82.5" cy="72.5" r="1.5" fill="#FDFCF5"/>
<circle cx="91.5" cy="72.5" r="1.5" fill="#FDFCF5"/>
<circle cx="100.5" cy="72.5" r="1.5" fill="#FDFCF5"/>
<circle cx="109.5" cy="72.5" r="1.5" fill="#FDFCF5"/>
<circle cx="118.5" cy="72.5" r="1.5" fill="#FDFCF5"/>
<circle cx="127.5" cy="72.5" r="1.5" fill="#FDFCF5"/>
<circle cx="1.5" cy="81.5" r="1.5" fill="#FDFCF5"/>
<circle cx="10.5" cy="81.5" r="1.5" fill="#FDFCF5"/>
<circle cx="19.5" cy="81.5" r="1.5" fill="#FDFCF5"/>
<circle cx="28.5" cy="81.5" r="1.5" fill="#FDFCF5"/>
<circle cx="37.5" cy="81.5" r="1.5" fill="#FDFCF5"/>
<circle cx="46.5" cy="81.5" r="1.5" fill="#FDFCF5"/>
<circle cx="55.5" cy="81.5" r="1.5" fill="#FDFCF5"/>
<circle cx="64.5" cy="81.5" r="1.5" fill="#FDFCF5"/>
<circle cx="73.5" cy="81.5" r="1.5" fill="#FDFCF5"/>
<circle cx="82.5" cy="81.5" r="1.5" fill="#FDFCF5"/>
<circle cx="91.5" cy="81.5" r="1.5" fill="#FDFCF5"/>
<circle cx="100.5" cy="81.5" r="1.5" fill="#FDFCF5"/>
<circle cx="109.5" cy="81.5" r="1.5" fill="#FDFCF5"/>
<circle cx="118.5" cy="81.5" r="1.5" fill="#FDFCF5"/>
<circle cx="127.5" cy="81.5" r="1.5" fill="#FDFCF5"/>
<circle cx="1.5" cy="90.5" r="1.5" fill="#FDFCF5"/>
<circle cx="10.5" cy="90.5" r="1.5" fill="#FDFCF5"/>
<circle cx="19.5" cy="90.5" r="1.5" fill="#FDFCF5"/>
<circle cx="28.5" cy="90.5" r="1.5" fill="#FDFCF5"/>
<circle cx="37.5" cy="90.5" r="1.5" fill="#FDFCF5"/>
<circle cx="46.5" cy="90.5" r="1.5" fill="#FDFCF5"/>
<circle cx="55.5" cy="90.5" r="1.5" fill="#FDFCF5"/>
<circle cx="64.5" cy="90.5" r="1.5" fill="#FDFCF5"/>
<circle cx="73.5" cy="90.5" r="1.5" fill="#FDFCF5"/>
<circle cx="82.5" cy="90.5" r="1.5" fill="#FDFCF5"/>
<circle cx="91.5" cy="90.5" r="1.5" fill="#FDFCF5"/>
<circle cx="100.5" cy="90.5" r="1.5" fill="#FDFCF5"/>
<circle cx="109.5" cy="90.5" r="1.5" fill="#FDFCF5"/>
<circle cx="118.5" cy="90.5" r="1.5" fill="#FDFCF5"/>
<circle cx="127.5" cy="90.5" r="1.5" fill="#FDFCF5"/>
<circle cx="1.5" cy="99.5" r="1.5" fill="#FDFCF5"/>
<circle cx="10.5" cy="99.5" r="1.5" fill="#FDFCF5"/>
<circle cx="19.5" cy="99.5" r="1.5" fill="#FDFCF5"/>
<circle cx="28.5" cy="99.5" r="1.5" fill="#FDFCF5"/>
<circle cx="37.5" cy="99.5" r="1.5" fill="#FDFCF5"/>
<circle cx="46.5" cy="99.5" r="1.5" fill="#FDFCF5"/>
<circle cx="55.5" cy="99.5" r="1.5" fill="#FDFCF5"/>
<circle cx="64.5" cy="99.5" r="1.5" fill="#FDFCF5"/>
<circle cx="73.5" cy="99.5" r="1.5" fill="#FDFCF5"/>
<circle cx="82.5" cy="99.5" r="1.5" fill="#FDFCF5"/>
<circle cx="91.5" cy="99.5" r="1.5" fill="#FDFCF5"/>
<circle cx="100.5" cy="99.5" r="1.5" fill="#FDFCF5"/>
<circle cx="109.5" cy="99.5" r="1.5" fill="#FDFCF5"/>
<circle cx="118.5" cy="99.5" r="1.5" fill="#FDFCF5"/>
<circle cx="127.5" cy="99.5" r="1.5" fill="#FDFCF5"/>
<circle cx="1.5" cy="108.5" r="1.5" fill="#FDFCF5"/>
<circle cx="10.5" cy="108.5" r="1.5" fill="#FDFCF5"/>
<circle cx="19.5" cy="108.5" r="1.5" fill="#FDFCF5"/>
<circle cx="28.5" cy="108.5" r="1.5" fill="#FDFCF5"/>
<circle cx="37.5" cy="108.5" r="1.5" fill="#FDFCF5"/>
<circle cx="46.5" cy="108.5" r="1.5" fill="#FDFCF5"/>
<circle cx="55.5" cy="108.5" r="1.5" fill="#FDFCF5"/>
<circle cx="64.5" cy="108.5" r="1.5" fill="#FDFCF5"/>
<circle cx="73.5" cy="108.5" r="1.5" fill="#FDFCF5"/>
<circle cx="82.5" cy="108.5" r="1.5" fill="#FDFCF5"/>
<circle cx="91.5" cy="108.5" r="1.5" fill="#FDFCF5"/>
<circle cx="100.5" cy="108.5" r="1.5" fill="#FDFCF5"/>
<circle cx="109.5" cy="108.5" r="1.5" fill="#FDFCF5"/>
<circle cx="118.5" cy="108.5" r="1.5" fill="#FDFCF5"/>
<circle cx="127.5" cy="108.5" r="1.5" fill="#FDFCF5"/>
<circle cx="1.5" cy="117.5" r="1.5" fill="#FDFCF5"/>
<circle cx="10.5" cy="117.5" r="1.5" fill="#FDFCF5"/>
<circle cx="19.5" cy="117.5" r="1.5" fill="#FDFCF5"/>
<circle cx="28.5" cy="117.5" r="1.5" fill="#FDFCF5"/>
<circle cx="37.5" cy="117.5" r="1.5" fill="#FDFCF5"/>
<circle cx="46.5" cy="117.5" r="1.5" fill="#FDFCF5"/>
<circle cx="55.5" cy="117.5" r="1.5" fill="#FDFCF5"/>
<circle cx="64.5" cy="117.5" r="1.5" fill="#FDFCF5"/>
<circle cx="73.5" cy="117.5" r="1.5" fill="#FDFCF5"/>
<circle cx="82.5" cy="117.5" r="1.5" fill="#FDFCF5"/>
<circle cx="91.5" cy="117.5" r="1.5" fill="#FDFCF5"/>
<circle cx="100.5" cy="117.5" r="1.5" fill="#FDFCF5"/>
<circle cx="109.5" cy="117.5" r="1.5" fill="#FDFCF5"/>
<circle cx="118.5" cy="117.5" r="1.5" fill="#FDFCF5"/>
<circle cx="127.5" cy="117.5" r="1.5" fill="#FDFCF5"/>
</g>
</g>
<defs>
<clipPath id="clip0_81_4">
<rect width="128" height="128" fill="white"/>
</clipPath>
<clipPath id="clip1_81_4">
<rect width="133" height="114" fill="white" transform="translate(0 8)"/>
</clipPath>
</defs>
</svg>
