<svg width="128" height="119" viewBox="0 0 128 119" fill="none" xmlns="http://www.w3.org/2000/svg">
<path d="M66.8529 36.7519H60.2136L58.4319 34.4526V16.3762H68.5351V34.4526L66.8529 36.7519Z" fill="#8A4182"/>
<path d="M57.8845 38.434L55.834 44.7448L53.0867 45.7303L35.9062 40.1561L39.0218 30.5505L56.2123 36.1347L57.8845 38.434Z" fill="#8A4182"/>
<path d="M56.6999 47.313L62.075 51.2149L62.1646 54.1314L51.5438 68.7438L43.3716 62.8113L53.9924 48.1889L56.6999 47.313Z" fill="#8A4182"/>
<path d="M64.9319 51.2448L70.307 47.3528L73.1041 48.159L83.7249 62.7814L75.5527 68.7139L64.9319 54.0916V51.2448Z" fill="#8A4182"/>
<path d="M71.3122 44.8543L69.2617 38.5435L70.8942 36.1347L88.0846 30.5505L91.2002 40.1561L74.0197 45.7303L71.3122 44.8543Z" fill="#8A4182"/>
<path d="M63.6975 0.728638C55.0017 0.728638 46.5013 3.30723 39.271 8.13833C32.0407 12.9694 26.4054 19.8361 23.0777 27.8699C19.75 35.9037 18.8793 44.7439 20.5758 53.2726C22.2722 61.8012 26.4596 69.6353 32.6085 75.7841C38.7573 81.933 46.5914 86.1204 55.12 87.8168C63.6487 89.5133 72.4889 88.6426 80.5227 85.3149C88.5566 81.9872 95.4232 76.3519 100.254 69.1216C105.085 61.8914 107.664 53.3909 107.664 44.6951C107.664 33.0345 103.032 21.8514 94.7865 13.6061C86.5412 5.36081 75.3581 0.728638 63.6975 0.728638ZM63.4586 79.0561C56.5819 79.0561 49.8597 77.0169 44.1419 73.1964C38.4242 69.376 33.9677 63.9458 31.3361 57.5926C28.7046 51.2394 28.016 44.2485 29.3576 37.5039C30.6992 30.7594 34.0106 24.5641 38.8731 19.7016C43.7357 14.839 49.9309 11.5276 56.6755 10.186C63.42 8.84446 70.4109 9.533 76.7641 12.1646C83.1173 14.7962 88.5475 19.2526 92.368 24.9704C96.1885 30.6881 98.2277 37.4104 98.2277 44.287C98.2277 48.853 97.3283 53.3742 95.581 57.5926C93.8337 61.811 91.2726 65.6439 88.044 68.8725C84.8154 72.1011 80.9825 74.6621 76.7641 76.4095C72.5457 78.1568 68.0245 79.0561 63.4586 79.0561Z" fill="#8A4182"/>
<path d="M64.7429 58.0333H61.9956V71.7399H64.7429V58.0333Z" fill="#8A4182"/>
<path d="M77.7755 46.9571L76.9265 49.5699L89.9622 53.8055L90.8112 51.1927L77.7755 46.9571Z" fill="#8A4182"/>
<path d="M71.1382 31.1732L73.3608 32.788L81.4174 21.6991L79.1948 20.0843L71.1382 31.1732Z" fill="#8A4182"/>
<path d="M53.991 32.785L56.2136 31.1702L48.1571 20.0813L45.9345 21.6961L53.991 32.785Z" fill="#8A4182"/>
<path d="M50.0714 49.5648L49.2224 46.952L36.1867 51.1876L37.0357 53.8004L50.0714 49.5648Z" fill="#8A4182"/>
<path d="M5.03903 108.141C5.01471 108.478 5.05741 108.816 5.16464 109.135C5.27188 109.455 5.44153 109.75 5.66375 110.004C5.88596 110.258 6.15633 110.465 6.45918 110.613C6.76202 110.762 7.09132 110.849 7.42797 110.869C7.84669 110.878 8.25988 110.772 8.62178 110.561C8.98369 110.35 9.28019 110.043 9.47848 109.674C9.83686 108.802 9.98353 107.857 9.9065 106.917V95.9678H7.52751V92.4242H16.486V95.918H14.0772V107.435C14.0772 109.426 13.9577 110.929 12.5742 112.521C11.9193 113.222 11.1269 113.78 10.2465 114.16C9.36618 114.54 8.4168 114.735 7.45783 114.731C3.53598 114.731 0.490083 112.123 0.689161 108.141H5.03903Z" fill="#8A4182"/>
<path d="M30.3421 106.021C30.3356 105.375 30.2016 104.736 29.9479 104.141C29.6941 103.546 29.3255 103.007 28.8632 102.555C28.4009 102.103 27.854 101.747 27.2538 101.506C26.6535 101.266 26.0117 101.146 25.3651 101.154C24.7048 101.154 24.051 101.285 23.442 101.54C22.8329 101.795 22.2806 102.169 21.8174 102.64C21.3542 103.11 20.9893 103.668 20.7439 104.281C20.4985 104.894 20.3776 105.55 20.3882 106.21C20.4161 107.493 20.9379 108.714 21.8447 109.621C22.7516 110.528 23.9735 111.05 25.2556 111.078C25.9251 111.093 26.5907 110.972 27.2126 110.724C27.8344 110.475 28.3997 110.104 28.8747 109.632C29.3496 109.16 29.7243 108.596 29.9765 107.976C30.2286 107.356 30.353 106.691 30.3421 106.021ZM30.2824 112.083C29.7019 112.935 28.9136 113.624 27.9921 114.086C27.0706 114.547 26.0464 114.766 25.0167 114.721C22.7771 114.7 20.6369 113.793 19.0643 112.198C17.4918 110.603 16.615 108.45 16.6256 106.21C16.6202 103.927 17.5183 101.733 19.1239 100.109C20.7294 98.4849 22.9122 97.5616 25.1959 97.5405C26.2096 97.522 27.2109 97.7662 28.1022 98.2493C28.9936 98.7325 29.7447 99.4382 30.2824 100.298V97.9387H36.1353V101.433H34.0848V110.809H36.1353V114.303H30.2824V112.093" fill="#8A4182"/>
<path d="M41.0622 109.545C41.0684 109.881 41.1422 110.212 41.2794 110.519C41.4165 110.826 41.6142 111.102 41.8604 111.33C42.1067 111.559 42.3965 111.735 42.7126 111.849C43.0287 111.963 43.3645 112.012 43.7 111.994C44.2602 112.024 44.8097 111.831 45.229 111.459C45.6484 111.086 45.9037 110.563 45.9396 110.003C45.9396 108.38 44.4067 108.102 43.1525 107.763C40.3057 107.027 37.1802 106.141 37.1802 102.557C37.1802 99.4317 39.818 97.5803 42.7245 97.5803C43.4144 97.5138 44.1101 97.6128 44.7541 97.869C45.3981 98.1252 45.9717 98.5312 46.4274 99.0534V97.9386H49.1846V102.378H45.5713C45.5638 102.111 45.5028 101.849 45.3918 101.606C45.2808 101.363 45.1222 101.146 44.9253 100.965C44.7285 100.785 44.4974 100.647 44.2459 100.558C43.9943 100.468 43.7275 100.431 43.4611 100.447C43.2115 100.42 42.959 100.442 42.7183 100.514C42.4777 100.586 42.2538 100.705 42.0599 100.864C41.866 101.024 41.7061 101.221 41.5894 101.443C41.4728 101.665 41.4018 101.909 41.3807 102.159C41.3807 103.692 42.8838 104.03 44.0782 104.299C47.0644 104.976 50.1701 105.892 50.1701 109.565C50.1701 112.869 47.3829 114.711 44.3171 114.711C43.5245 114.749 42.7333 114.61 42.0014 114.304C41.2695 113.997 40.6153 113.531 40.0867 112.939V114.283H37.2399V109.535H41.0722" fill="#8A4182"/>
<path d="M53.2857 101.432H51.1755V97.9387H56.7298V100.387C57.1861 99.5419 57.8588 98.8329 58.6791 98.3327C59.4993 97.8325 60.4376 97.5592 61.3982 97.5405C62.4893 97.5511 63.5533 97.8823 64.4577 98.4929C65.362 99.1035 66.0669 99.9665 66.4846 100.975C66.9538 99.9467 67.7095 99.0761 68.6611 98.4669C69.6128 97.8578 70.7199 97.5362 71.8498 97.5405C72.7384 97.5356 73.618 97.7183 74.431 98.0768C75.2441 98.4353 75.9723 98.9615 76.5679 99.6209C77.852 101.124 77.852 102.746 77.852 104.598V110.789H79.9622V114.283H71.9991V110.789H74.1093V105.504C74.2 104.483 74.0323 103.456 73.6216 102.517C73.3194 102.094 72.9187 101.75 72.4539 101.516C71.9891 101.282 71.4743 101.164 70.9539 101.174C70.4334 101.168 69.9176 101.274 69.4418 101.485C68.966 101.697 68.5413 102.008 68.1967 102.398C67.5639 103.298 67.2906 104.402 67.4302 105.494V110.759H69.5405V114.253H61.5773V110.759H63.6975V105.782C63.7861 104.736 63.6187 103.684 63.2098 102.717C62.9398 102.244 62.5458 101.854 62.0704 101.589C61.595 101.324 61.0562 101.194 60.5123 101.214C60.0145 101.196 59.5195 101.294 59.0667 101.502C58.6139 101.709 58.2159 102.019 57.9043 102.408C57.204 103.37 56.8881 104.559 57.0184 105.743V110.799H59.1287V114.293H51.1655V110.799H53.2758V101.423" fill="#8A4182"/>
<path d="M87.0394 96.3759H83.3067V92.3943H87.0394V96.3759ZM87.0394 110.799H89.1497V114.293H81.1865V110.799H83.3067V101.422H81.1865V97.9386H87.0394V110.799Z" fill="#8A4182"/>
<path d="M92.4049 101.433H90.2847V97.9387H96.1377V100.268C96.6164 99.4155 97.3218 98.7124 98.1757 98.2362C99.0295 97.7601 99.9985 97.5297 100.975 97.5704C101.856 97.5643 102.728 97.7377 103.539 98.0799C104.351 98.4222 105.083 98.9262 105.693 99.5612C107.037 101.064 107.067 102.547 107.067 104.369V110.769H109.177V114.263H101.214V110.769H103.324V105.504C103.444 104.464 103.217 103.414 102.677 102.517C102.331 102.092 101.891 101.753 101.392 101.525C100.893 101.297 100.349 101.187 99.8007 101.204C99.2305 101.185 98.6637 101.299 98.1454 101.538C97.627 101.776 97.1714 102.132 96.8145 102.577C96.228 103.621 95.981 104.821 96.1078 106.011V110.759H98.218V114.253H90.2549V110.759H92.3651V101.383" fill="#8A4182"/>
<path d="M123.242 104.648C122.938 103.522 122.266 102.531 121.334 101.831C120.401 101.131 119.262 100.763 118.096 100.786C116.986 100.817 115.918 101.212 115.055 101.91C114.192 102.608 113.581 103.569 113.318 104.648H123.242ZM126.089 109.485C125.465 111.023 124.399 112.341 123.026 113.273C121.653 114.205 120.034 114.709 118.375 114.721C116.083 114.733 113.881 113.834 112.252 112.222C110.623 110.61 109.702 108.417 109.69 106.126C109.678 103.834 110.577 101.632 112.189 100.003C113.801 98.3746 115.994 97.4529 118.285 97.441C120.593 97.4792 122.794 98.4272 124.407 100.079C125.173 100.898 125.771 101.86 126.165 102.911C126.56 103.961 126.744 105.079 126.706 106.2L126.587 107.514H113.348C113.602 108.625 114.224 109.617 115.113 110.329C116.002 111.041 117.106 111.431 118.245 111.436C119.024 111.473 119.799 111.31 120.496 110.961C121.193 110.613 121.789 110.091 122.227 109.445H126.119" fill="#8A4182"/>
<g clip-path="url(#clip0_91_6976)">
<circle cx="1.5" cy="1.5" r="1.5" fill="#FDFCF5"/>
<circle cx="10.5" cy="1.5" r="1.5" fill="#FDFCF5"/>
<circle cx="19.5" cy="1.5" r="1.5" fill="#FDFCF5"/>
<circle cx="28.5" cy="1.5" r="1.5" fill="#FDFCF5"/>
<circle cx="37.5" cy="1.5" r="1.5" fill="#FDFCF5"/>
<circle cx="46.5" cy="1.5" r="1.5" fill="#FDFCF5"/>
<circle cx="55.5" cy="1.5" r="1.5" fill="#FDFCF5"/>
<circle cx="64.5" cy="1.5" r="1.5" fill="#FDFCF5"/>
<circle cx="73.5" cy="1.5" r="1.5" fill="#FDFCF5"/>
<circle cx="82.5" cy="1.5" r="1.5" fill="#FDFCF5"/>
<circle cx="91.5" cy="1.5" r="1.5" fill="#FDFCF5"/>
<circle cx="100.5" cy="1.5" r="1.5" fill="#FDFCF5"/>
<circle cx="109.5" cy="1.5" r="1.5" fill="#FDFCF5"/>
<circle cx="118.5" cy="1.5" r="1.5" fill="#FDFCF5"/>
<circle cx="127.5" cy="1.5" r="1.5" fill="#FDFCF5"/>
<circle cx="1.5" cy="10.5" r="1.5" fill="#FDFCF5"/>
<circle cx="10.5" cy="10.5" r="1.5" fill="#FDFCF5"/>
<circle cx="19.5" cy="10.5" r="1.5" fill="#FDFCF5"/>
<circle cx="28.5" cy="10.5" r="1.5" fill="#FDFCF5"/>
<circle cx="37.5" cy="10.5" r="1.5" fill="#FDFCF5"/>
<circle cx="46.5" cy="10.5" r="1.5" fill="#FDFCF5"/>
<circle cx="55.5" cy="10.5" r="1.5" fill="#FDFCF5"/>
<circle cx="64.5" cy="10.5" r="1.5" fill="#FDFCF5"/>
<circle cx="73.5" cy="10.5" r="1.5" fill="#FDFCF5"/>
<circle cx="82.5" cy="10.5" r="1.5" fill="#FDFCF5"/>
<circle cx="91.5" cy="10.5" r="1.5" fill="#FDFCF5"/>
<circle cx="100.5" cy="10.5" r="1.5" fill="#FDFCF5"/>
<circle cx="109.5" cy="10.5" r="1.5" fill="#FDFCF5"/>
<circle cx="118.5" cy="10.5" r="1.5" fill="#FDFCF5"/>
<circle cx="127.5" cy="10.5" r="1.5" fill="#FDFCF5"/>
<circle cx="1.5" cy="19.5" r="1.5" fill="#FDFCF5"/>
<circle cx="10.5" cy="19.5" r="1.5" fill="#FDFCF5"/>
<circle cx="19.5" cy="19.5" r="1.5" fill="#FDFCF5"/>
<circle cx="28.5" cy="19.5" r="1.5" fill="#FDFCF5"/>
<circle cx="37.5" cy="19.5" r="1.5" fill="#FDFCF5"/>
<circle cx="46.5" cy="19.5" r="1.5" fill="#FDFCF5"/>
<circle cx="55.5" cy="19.5" r="1.5" fill="#FDFCF5"/>
<circle cx="64.5" cy="19.5" r="1.5" fill="#FDFCF5"/>
<circle cx="73.5" cy="19.5" r="1.5" fill="#FDFCF5"/>
<circle cx="82.5" cy="19.5" r="1.5" fill="#FDFCF5"/>
<circle cx="91.5" cy="19.5" r="1.5" fill="#FDFCF5"/>
<circle cx="100.5" cy="19.5" r="1.5" fill="#FDFCF5"/>
<circle cx="109.5" cy="19.5" r="1.5" fill="#FDFCF5"/>
<circle cx="118.5" cy="19.5" r="1.5" fill="#FDFCF5"/>
<circle cx="127.5" cy="19.5" r="1.5" fill="#FDFCF5"/>
<circle cx="1.5" cy="28.5" r="1.5" fill="#FDFCF5"/>
<circle cx="10.5" cy="28.5" r="1.5" fill="#FDFCF5"/>
<circle cx="19.5" cy="28.5" r="1.5" fill="#FDFCF5"/>
<circle cx="28.5" cy="28.5" r="1.5" fill="#FDFCF5"/>
<circle cx="37.5" cy="28.5" r="1.5" fill="#FDFCF5"/>
<circle cx="46.5" cy="28.5" r="1.5" fill="#FDFCF5"/>
<circle cx="55.5" cy="28.5" r="1.5" fill="#FDFCF5"/>
<circle cx="64.5" cy="28.5" r="1.5" fill="#FDFCF5"/>
<circle cx="73.5" cy="28.5" r="1.5" fill="#FDFCF5"/>
<circle cx="82.5" cy="28.5" r="1.5" fill="#FDFCF5"/>
<circle cx="91.5" cy="28.5" r="1.5" fill="#FDFCF5"/>
<circle cx="100.5" cy="28.5" r="1.5" fill="#FDFCF5"/>
<circle cx="109.5" cy="28.5" r="1.5" fill="#FDFCF5"/>
<circle cx="118.5" cy="28.5" r="1.5" fill="#FDFCF5"/>
<circle cx="127.5" cy="28.5" r="1.5" fill="#FDFCF5"/>
<circle cx="1.5" cy="37.5" r="1.5" fill="#FDFCF5"/>
<circle cx="10.5" cy="37.5" r="1.5" fill="#FDFCF5"/>
<circle cx="19.5" cy="37.5" r="1.5" fill="#FDFCF5"/>
<circle cx="28.5" cy="37.5" r="1.5" fill="#FDFCF5"/>
<circle cx="37.5" cy="37.5" r="1.5" fill="#FDFCF5"/>
<circle cx="46.5" cy="37.5" r="1.5" fill="#FDFCF5"/>
<circle cx="55.5" cy="37.5" r="1.5" fill="#FDFCF5"/>
<circle cx="64.5" cy="37.5" r="1.5" fill="#FDFCF5"/>
<circle cx="73.5" cy="37.5" r="1.5" fill="#FDFCF5"/>
<circle cx="82.5" cy="37.5" r="1.5" fill="#FDFCF5"/>
<circle cx="91.5" cy="37.5" r="1.5" fill="#FDFCF5"/>
<circle cx="100.5" cy="37.5" r="1.5" fill="#FDFCF5"/>
<circle cx="109.5" cy="37.5" r="1.5" fill="#FDFCF5"/>
<circle cx="118.5" cy="37.5" r="1.5" fill="#FDFCF5"/>
<circle cx="127.5" cy="37.5" r="1.5" fill="#FDFCF5"/>
<circle cx="1.5" cy="46.5" r="1.5" fill="#FDFCF5"/>
<circle cx="10.5" cy="46.5" r="1.5" fill="#FDFCF5"/>
<circle cx="19.5" cy="46.5" r="1.5" fill="#FDFCF5"/>
<circle cx="28.5" cy="46.5" r="1.5" fill="#FDFCF5"/>
<circle cx="37.5" cy="46.5" r="1.5" fill="#FDFCF5"/>
<circle cx="46.5" cy="46.5" r="1.5" fill="#FDFCF5"/>
<circle cx="55.5" cy="46.5" r="1.5" fill="#FDFCF5"/>
<circle cx="64.5" cy="46.5" r="1.5" fill="#FDFCF5"/>
<circle cx="73.5" cy="46.5" r="1.5" fill="#FDFCF5"/>
<circle cx="82.5" cy="46.5" r="1.5" fill="#FDFCF5"/>
<circle cx="91.5" cy="46.5" r="1.5" fill="#FDFCF5"/>
<circle cx="100.5" cy="46.5" r="1.5" fill="#FDFCF5"/>
<circle cx="109.5" cy="46.5" r="1.5" fill="#FDFCF5"/>
<circle cx="118.5" cy="46.5" r="1.5" fill="#FDFCF5"/>
<circle cx="127.5" cy="46.5" r="1.5" fill="#FDFCF5"/>
<circle cx="1.5" cy="55.5" r="1.5" fill="#FDFCF5"/>
<circle cx="10.5" cy="55.5" r="1.5" fill="#FDFCF5"/>
<circle cx="19.5" cy="55.5" r="1.5" fill="#FDFCF5"/>
<circle cx="28.5" cy="55.5" r="1.5" fill="#FDFCF5"/>
<circle cx="37.5" cy="55.5" r="1.5" fill="#FDFCF5"/>
<circle cx="46.5" cy="55.5" r="1.5" fill="#FDFCF5"/>
<circle cx="55.5" cy="55.5" r="1.5" fill="#FDFCF5"/>
<circle cx="64.5" cy="55.5" r="1.5" fill="#FDFCF5"/>
<circle cx="73.5" cy="55.5" r="1.5" fill="#FDFCF5"/>
<circle cx="82.5" cy="55.5" r="1.5" fill="#FDFCF5"/>
<circle cx="91.5" cy="55.5" r="1.5" fill="#FDFCF5"/>
<circle cx="100.5" cy="55.5" r="1.5" fill="#FDFCF5"/>
<circle cx="109.5" cy="55.5" r="1.5" fill="#FDFCF5"/>
<circle cx="118.5" cy="55.5" r="1.5" fill="#FDFCF5"/>
<circle cx="127.5" cy="55.5" r="1.5" fill="#FDFCF5"/>
<circle cx="1.5" cy="64.5" r="1.5" fill="#FDFCF5"/>
<circle cx="10.5" cy="64.5" r="1.5" fill="#FDFCF5"/>
<circle cx="19.5" cy="64.5" r="1.5" fill="#FDFCF5"/>
<circle cx="28.5" cy="64.5" r="1.5" fill="#FDFCF5"/>
<circle cx="37.5" cy="64.5" r="1.5" fill="#FDFCF5"/>
<circle cx="46.5" cy="64.5" r="1.5" fill="#FDFCF5"/>
<circle cx="55.5" cy="64.5" r="1.5" fill="#FDFCF5"/>
<circle cx="64.5" cy="64.5" r="1.5" fill="#FDFCF5"/>
<circle cx="73.5" cy="64.5" r="1.5" fill="#FDFCF5"/>
<circle cx="82.5" cy="64.5" r="1.5" fill="#FDFCF5"/>
<circle cx="91.5" cy="64.5" r="1.5" fill="#FDFCF5"/>
<circle cx="100.5" cy="64.5" r="1.5" fill="#FDFCF5"/>
<circle cx="109.5" cy="64.5" r="1.5" fill="#FDFCF5"/>
<circle cx="118.5" cy="64.5" r="1.5" fill="#FDFCF5"/>
<circle cx="127.5" cy="64.5" r="1.5" fill="#FDFCF5"/>
<circle cx="1.5" cy="73.5" r="1.5" fill="#FDFCF5"/>
<circle cx="10.5" cy="73.5" r="1.5" fill="#FDFCF5"/>
<circle cx="19.5" cy="73.5" r="1.5" fill="#FDFCF5"/>
<circle cx="28.5" cy="73.5" r="1.5" fill="#FDFCF5"/>
<circle cx="37.5" cy="73.5" r="1.5" fill="#FDFCF5"/>
<circle cx="46.5" cy="73.5" r="1.5" fill="#FDFCF5"/>
<circle cx="55.5" cy="73.5" r="1.5" fill="#FDFCF5"/>
<circle cx="64.5" cy="73.5" r="1.5" fill="#FDFCF5"/>
<circle cx="73.5" cy="73.5" r="1.5" fill="#FDFCF5"/>
<circle cx="82.5" cy="73.5" r="1.5" fill="#FDFCF5"/>
<circle cx="91.5" cy="73.5" r="1.5" fill="#FDFCF5"/>
<circle cx="100.5" cy="73.5" r="1.5" fill="#FDFCF5"/>
<circle cx="109.5" cy="73.5" r="1.5" fill="#FDFCF5"/>
<circle cx="118.5" cy="73.5" r="1.5" fill="#FDFCF5"/>
<circle cx="127.5" cy="73.5" r="1.5" fill="#FDFCF5"/>
<circle cx="1.5" cy="82.5" r="1.5" fill="#FDFCF5"/>
<circle cx="10.5" cy="82.5" r="1.5" fill="#FDFCF5"/>
<circle cx="19.5" cy="82.5" r="1.5" fill="#FDFCF5"/>
<circle cx="28.5" cy="82.5" r="1.5" fill="#FDFCF5"/>
<circle cx="37.5" cy="82.5" r="1.5" fill="#FDFCF5"/>
<circle cx="46.5" cy="82.5" r="1.5" fill="#FDFCF5"/>
<circle cx="55.5" cy="82.5" r="1.5" fill="#FDFCF5"/>
<circle cx="64.5" cy="82.5" r="1.5" fill="#FDFCF5"/>
<circle cx="73.5" cy="82.5" r="1.5" fill="#FDFCF5"/>
<circle cx="82.5" cy="82.5" r="1.5" fill="#FDFCF5"/>
<circle cx="91.5" cy="82.5" r="1.5" fill="#FDFCF5"/>
<circle cx="100.5" cy="82.5" r="1.5" fill="#FDFCF5"/>
<circle cx="109.5" cy="82.5" r="1.5" fill="#FDFCF5"/>
<circle cx="118.5" cy="82.5" r="1.5" fill="#FDFCF5"/>
<circle cx="127.5" cy="82.5" r="1.5" fill="#FDFCF5"/>
<circle cx="1.5" cy="91.5" r="1.5" fill="#FDFCF5"/>
<circle cx="10.5" cy="91.5" r="1.5" fill="#FDFCF5"/>
<circle cx="19.5" cy="91.5" r="1.5" fill="#FDFCF5"/>
<circle cx="28.5" cy="91.5" r="1.5" fill="#FDFCF5"/>
<circle cx="37.5" cy="91.5" r="1.5" fill="#FDFCF5"/>
<circle cx="46.5" cy="91.5" r="1.5" fill="#FDFCF5"/>
<circle cx="55.5" cy="91.5" r="1.5" fill="#FDFCF5"/>
<circle cx="64.5" cy="91.5" r="1.5" fill="#FDFCF5"/>
<circle cx="73.5" cy="91.5" r="1.5" fill="#FDFCF5"/>
<circle cx="82.5" cy="91.5" r="1.5" fill="#FDFCF5"/>
<circle cx="91.5" cy="91.5" r="1.5" fill="#FDFCF5"/>
<circle cx="100.5" cy="91.5" r="1.5" fill="#FDFCF5"/>
<circle cx="109.5" cy="91.5" r="1.5" fill="#FDFCF5"/>
<circle cx="118.5" cy="91.5" r="1.5" fill="#FDFCF5"/>
<circle cx="127.5" cy="91.5" r="1.5" fill="#FDFCF5"/>
<circle cx="1.5" cy="100.5" r="1.5" fill="#FDFCF5"/>
<circle cx="10.5" cy="100.5" r="1.5" fill="#FDFCF5"/>
<circle cx="19.5" cy="100.5" r="1.5" fill="#FDFCF5"/>
<circle cx="28.5" cy="100.5" r="1.5" fill="#FDFCF5"/>
<circle cx="37.5" cy="100.5" r="1.5" fill="#FDFCF5"/>
<circle cx="46.5" cy="100.5" r="1.5" fill="#FDFCF5"/>
<circle cx="55.5" cy="100.5" r="1.5" fill="#FDFCF5"/>
<circle cx="64.5" cy="100.5" r="1.5" fill="#FDFCF5"/>
<circle cx="73.5" cy="100.5" r="1.5" fill="#FDFCF5"/>
<circle cx="82.5" cy="100.5" r="1.5" fill="#FDFCF5"/>
<circle cx="91.5" cy="100.5" r="1.5" fill="#FDFCF5"/>
<circle cx="100.5" cy="100.5" r="1.5" fill="#FDFCF5"/>
<circle cx="109.5" cy="100.5" r="1.5" fill="#FDFCF5"/>
<circle cx="118.5" cy="100.5" r="1.5" fill="#FDFCF5"/>
<circle cx="127.5" cy="100.5" r="1.5" fill="#FDFCF5"/>
<circle cx="1.5" cy="109.5" r="1.5" fill="#FDFCF5"/>
<circle cx="10.5" cy="109.5" r="1.5" fill="#FDFCF5"/>
<circle cx="19.5" cy="109.5" r="1.5" fill="#FDFCF5"/>
<circle cx="28.5" cy="109.5" r="1.5" fill="#FDFCF5"/>
<circle cx="37.5" cy="109.5" r="1.5" fill="#FDFCF5"/>
<circle cx="46.5" cy="109.5" r="1.5" fill="#FDFCF5"/>
<circle cx="55.5" cy="109.5" r="1.5" fill="#FDFCF5"/>
<circle cx="64.5" cy="109.5" r="1.5" fill="#FDFCF5"/>
<circle cx="73.5" cy="109.5" r="1.5" fill="#FDFCF5"/>
<circle cx="82.5" cy="109.5" r="1.5" fill="#FDFCF5"/>
<circle cx="91.5" cy="109.5" r="1.5" fill="#FDFCF5"/>
<circle cx="100.5" cy="109.5" r="1.5" fill="#FDFCF5"/>
<circle cx="109.5" cy="109.5" r="1.5" fill="#FDFCF5"/>
<circle cx="118.5" cy="109.5" r="1.5" fill="#FDFCF5"/>
<circle cx="127.5" cy="109.5" r="1.5" fill="#FDFCF5"/>
<circle cx="1.5" cy="118.5" r="1.5" fill="#FDFCF5"/>
<circle cx="10.5" cy="118.5" r="1.5" fill="#FDFCF5"/>
<circle cx="19.5" cy="118.5" r="1.5" fill="#FDFCF5"/>
<circle cx="28.5" cy="118.5" r="1.5" fill="#FDFCF5"/>
<circle cx="37.5" cy="118.5" r="1.5" fill="#FDFCF5"/>
<circle cx="46.5" cy="118.5" r="1.5" fill="#FDFCF5"/>
<circle cx="55.5" cy="118.5" r="1.5" fill="#FDFCF5"/>
<circle cx="64.5" cy="118.5" r="1.5" fill="#FDFCF5"/>
<circle cx="73.5" cy="118.5" r="1.5" fill="#FDFCF5"/>
<circle cx="82.5" cy="118.5" r="1.5" fill="#FDFCF5"/>
<circle cx="91.5" cy="118.5" r="1.5" fill="#FDFCF5"/>
<circle cx="100.5" cy="118.5" r="1.5" fill="#FDFCF5"/>
<circle cx="109.5" cy="118.5" r="1.5" fill="#FDFCF5"/>
<circle cx="118.5" cy="118.5" r="1.5" fill="#FDFCF5"/>
<circle cx="127.5" cy="118.5" r="1.5" fill="#FDFCF5"/>
</g>
<defs>
<clipPath id="clip0_91_6976">
<rect width="128" height="118.154" fill="white"/>
</clipPath>
</defs>
</svg>
