<svg width="128" height="128" viewBox="0 0 128 128" fill="none" xmlns="http://www.w3.org/2000/svg">
<g clip-path="url(#clip0_35_66)">
<path fill-rule="evenodd" clip-rule="evenodd" d="M63.574 100.219C65.366 101.701 67.467 102.333 69.735 102.45C70.673 102.499 71.638 102.453 72.561 102.285C74.025 102.019 75.485 101.685 76.909 101.256C79.809 100.381 82.315 98.869 84.186 96.427C85.252 95.035 86.127 93.53 86.689 91.866C87.153 90.493 87.589 89.106 87.936 87.701C88.21 86.594 88.346 85.451 88.512 84.32C88.623 83.572 88.69 82.816 88.759 82.061C88.871 80.836 88.988 79.613 89.069 78.385C89.126 77.531 89.124 76.673 89.157 75.818C89.168 75.557 89.21 75.298 89.235 75.039C89.256 74.798 89.378 74.715 89.624 74.719C90.488 74.732 91.354 74.754 92.217 74.715C93.184 74.672 94.158 74.63 95.11 74.471C96.464 74.244 97.811 73.957 99.138 73.611C100.706 73.2 102.145 72.465 103.531 71.629C105.143 70.654 106.615 69.511 107.806 68.038C108.845 66.756 109.337 65.27 109.086 63.649C108.722 61.294 106.743 59.751 104.442 59.646C103.608 59.608 102.762 59.696 101.932 59.801C100.927 59.929 99.937 60.155 98.935 60.304C98.243 60.408 97.542 60.454 96.852 60.526L96.833 60.436C98.123 57.999 99.467 55.59 100.687 53.12C101.624 51.224 102.424 49.261 103.251 47.311C104.621 44.083 105.714 40.756 106.62 37.373C107.487 34.135 108.229 30.862 108.464 27.502C108.558 26.161 108.623 24.814 108.614 23.471C108.608 22.399 108.492 21.326 108.385 20.258C108.263 19.034 107.893 17.874 107.381 16.758C106.707 15.286 105.66 14.079 104.559 12.933C103.678 12.015 102.708 11.179 101.747 10.343C100.376 9.151 98.834 8.198 97.234 7.353C95.415 6.393 93.504 5.641 91.51 5.133C90.304 4.826 89.072 4.555 87.852 4.312C87.416 4.224 86.976 4 86.537 4H78.269C77.97 4 77.674 4.196 77.373 4.229C75.394 4.45 73.438 4.844 71.538 5.434C70.828 5.653 70.18 5.525 69.505 5.462C68.987 5.414 68.478 5.281 67.96 5.255C65.989 5.157 64.016 5.015 62.044 5.036C60.156 5.056 58.287 5.368 56.46 5.886C54.931 6.322 53.434 6.851 52.062 7.656C51.476 8 51.01 7.935 50.403 7.761C48.362 7.172 46.308 6.62 44.237 6.157C42.946 5.868 41.617 5.722 40.298 5.586C39.033 5.454 37.761 5.376 36.489 5.349C35.247 5.322 33.997 5.323 32.76 5.433C30.791 5.608 28.86 6.008 26.982 6.654C24.897 7.372 22.985 8.411 21.262 9.775C19.512 11.16 18.108 12.849 16.981 14.78C15.792 16.817 14.975 18.998 14.469 21.287C14.194 22.528 14.295 23.804 14.106 25.064C14.048 25.454 14.165 25.846 14.165 26.238V31.723C14.165 32.087 14.058 32.452 14.104 32.818C14.217 33.697 14.178 34.583 14.327 35.456C14.561 36.838 14.772 38.215 15.056 39.587C15.453 41.504 15.832 43.419 16.272 45.327C16.592 46.716 16.939 48.097 17.32 49.47C17.9 51.568 18.466 53.669 19.123 55.742C19.734 57.669 20.43 59.568 21.125 61.468C22.087 64.096 23.235 66.639 24.615 69.075C25.81 71.186 27.173 73.163 29.003 74.788C30.21 75.86 31.551 76.683 33.112 77.095C34.34 77.417 35.59 77.456 36.845 77.199C38.302 76.901 39.593 76.273 40.74 75.334C40.872 75.227 41.015 75.144 41.172 75.342C41.766 76.094 42.56 76.596 43.391 77.029C45.633 78.199 48.076 78.55 50.557 78.692C51.159 78.726 51.765 78.64 52.37 78.624C53.551 78.591 54.697 78.361 55.824 78.035C56.416 77.864 56.993 77.646 57.595 77.444C57.626 78.085 57.666 78.701 57.686 79.318L57.769 82.681C57.785 83.193 57.805 83.705 57.852 84.215C57.974 85.529 58.093 86.843 58.25 88.153C58.358 89.056 58.472 89.965 58.684 90.847C59.112 92.625 59.69 94.356 60.426 96.035C61.147 97.681 62.186 99.072 63.574 100.219ZM59.983 83.451C59.912 81.872 59.859 80.292 59.824 78.712C59.782 76.77 59.768 74.827 59.741 72.885L59.736 72.811C58.749 73.404 57.776 74.052 56.747 74.587C55.54 75.214 54.23 75.577 52.873 75.68C51.81 75.76 50.731 75.833 49.673 75.749C47.937 75.608 46.201 75.337 44.647 74.481C44.017 74.134 43.359 73.711 42.924 73.158C41.883 71.829 42.382 70.15 43.952 69.342C45.037 68.782 46.221 68.549 47.397 68.277C48.418 68.041 49.436 67.772 50.433 67.447C51.419 67.124 52.041 66.324 52.656 65.539L53.63 64.287L52.459 64.165C51.297 64.057 50.188 63.736 49.128 63.266C48.222 62.865 48.208 62.821 47.542 63.543C46.432 64.748 45.352 65.983 44.263 67.209C43.462 68.111 42.667 69.018 41.868 69.923C41.08 70.818 40.34 71.763 39.489 72.595C38.227 73.831 36.705 74.574 34.889 74.49C33.724 74.436 32.658 74.028 31.698 73.361C29.719 71.983 28.386 70.053 27.171 68.028C25.616 65.432 24.421 62.667 23.4 59.827C22.693 57.863 21.982 55.898 21.366 53.906C20.695 51.741 20.106 49.551 19.527 47.359C19.089 45.706 18.701 44.039 18.331 42.369C17.91 40.47 17.506 38.566 17.149 36.654C16.908 35.363 16.769 34.053 16.574 32.754C16.311 31.001 16.263 29.234 16.359 27.475C16.444 25.89 16.671 24.31 16.897 22.736C17.21 20.558 17.928 18.503 18.96 16.562C19.593 15.373 20.376 14.292 21.283 13.288C22.773 11.639 24.576 10.448 26.582 9.553C27.983 8.928 29.464 8.553 30.973 8.258C33.213 7.822 35.473 7.84 37.733 7.886C38.721 7.907 39.706 8.086 40.693 8.185C42.819 8.396 44.902 8.844 46.959 9.395C48.459 9.797 49.928 10.319 51.414 10.771C51.562 10.816 51.781 10.812 51.904 10.733C53.919 9.417 56.12 8.549 58.463 8.052C59.352 7.864 60.27 7.781 61.179 7.723C62.283 7.654 63.398 7.588 64.5 7.653C65.825 7.729 67.146 7.924 68.463 8.104C69.103 8.192 69.727 8.413 70.367 8.473C70.675 8.502 71 8.279 71.324 8.203C72.978 7.82 74.625 7.395 76.294 7.094C77.536 6.87 78.806 6.764 80.068 6.692C81.478 6.611 82.896 6.552 84.304 6.62C86.084 6.706 87.851 6.959 89.595 7.365C91.757 7.868 93.829 8.598 95.8 9.612C97.273 10.371 98.672 11.249 99.933 12.329C100.759 13.038 101.605 13.737 102.35 14.527C103.27 15.501 104.208 16.474 104.786 17.721C105.221 18.662 105.531 19.636 105.617 20.665C105.723 21.946 105.852 23.231 105.841 24.514C105.83 25.74 105.662 26.965 105.544 28.189C105.273 30.977 104.668 33.705 103.931 36.397C103.324 38.62 102.612 40.819 101.842 42.993C101.133 44.996 100.314 46.962 99.487 48.921C98.876 50.369 98.217 51.802 97.503 53.202C96.149 55.854 94.741 58.479 93.112 60.979C92.831 61.41 92.564 61.852 92.29 62.293C93.001 62.772 93.806 62.941 94.616 63.029C95.387 63.112 96.173 63.163 96.943 63.105C98.176 63.013 99.405 62.837 100.631 62.666C101.845 62.496 103.034 62.151 104.282 62.242C105.526 62.333 106.418 63.279 106.333 64.445C106.279 65.183 105.94 65.816 105.45 66.357C103.135 68.911 100.229 70.459 96.905 71.222C95.642 71.512 94.34 71.661 93.047 71.782C91.946 71.884 90.831 71.901 89.726 71.86C88.914 71.83 88.109 71.644 87.279 71.524C87.195 72.283 87.116 73.074 87.02 73.862L86.633 76.885C86.516 77.843 86.425 78.805 86.304 79.763C86.186 80.693 86.039 81.618 85.915 82.547C85.8 83.412 85.715 84.282 85.585 85.146C85.388 86.47 85.199 87.797 84.94 89.111C84.63 90.681 84.156 92.201 83.379 93.618C82.433 95.347 81.092 96.664 79.384 97.639C77.624 98.644 75.699 99.167 73.75 99.605C72.368 99.916 70.947 99.966 69.548 99.839C67.123 99.62 65.053 98.583 63.488 96.702C61.995 94.907 60.984 92.851 60.623 90.522C60.449 89.415 60.325 88.299 60.227 87.183C60.115 85.94 60.041 84.696 59.983 83.451ZM62.709 67.497C62.724 68.327 62.638 69.157 62.642 69.987C62.659 73.85 62.687 77.714 62.72 81.578C62.726 82.209 62.757 82.842 62.802 83.472C62.897 84.792 62.991 86.113 63.119 87.429C63.211 88.364 63.336 89.296 63.483 90.224C63.693 91.537 64.291 92.707 64.969 93.826C65.553 94.788 66.314 95.604 67.315 96.168C69.017 97.125 70.848 97.205 72.694 96.853C73.941 96.616 75.167 96.233 76.377 95.838C77.571 95.449 78.65 94.814 79.555 93.937C80.404 93.115 81.006 92.112 81.412 91.005C82.199 88.859 82.446 86.598 82.771 84.356C82.893 83.516 82.999 82.674 83.11 81.833C83.237 80.876 83.365 79.92 83.487 78.963C83.579 78.249 83.661 77.536 83.748 76.823C83.873 75.799 84.004 74.776 84.123 73.752C84.214 72.96 84.29 72.165 84.372 71.371C84.476 70.356 84.587 69.344 84.678 68.327C84.746 67.557 84.718 66.772 84.855 66.015C85.106 64.628 85.762 63.448 86.992 62.684C87.506 62.366 88.088 62.156 88.658 61.886L88.56 61.737C88.033 61.053 87.493 60.38 86.976 59.688C86.164 58.602 85.58 57.391 84.993 56.174C84.437 55.02 83.757 53.928 83.172 52.787C82.151 50.797 81.111 48.812 80.17 46.785C78.987 44.235 78.055 41.597 77.762 38.773C77.637 37.579 77.605 36.385 77.848 35.202C78.235 33.312 79.221 31.834 80.881 30.82C82.421 29.88 84.136 29.576 85.893 29.481C86.983 29.422 88.08 29.47 89.211 29.47L89.174 29.279C88.47 27.807 87.813 26.31 87.042 24.874C85.956 22.846 84.564 21.018 83.016 19.321C81.87 18.066 80.627 16.902 79.266 15.871C77.928 14.858 76.518 13.953 75.013 13.214C73.219 12.331 71.349 11.649 69.389 11.214C67.504 10.796 65.609 10.54 63.675 10.519C62.027 10.501 60.389 10.577 58.783 10.948C56.359 11.509 54.142 12.507 52.215 14.123C51.138 15.026 50.197 16.039 49.376 17.167C48.409 18.492 47.631 19.926 46.965 21.427C46.051 23.488 45.424 25.631 44.994 27.835C44.78 28.935 44.612 30.042 44.441 31.149C44.381 31.538 44.377 31.933 44.341 32.378L45.073 31.997L45.787 31.677C48.204 30.572 50.707 29.861 53.397 29.942C54.541 29.976 55.633 30.203 56.651 30.704C58.601 31.666 59.741 33.301 60.237 35.369C60.579 36.797 60.814 38.253 61.042 39.706C61.22 40.84 61.403 41.986 61.423 43.13C61.452 44.802 61.368 46.478 61.277 48.149C61.2 49.573 60.903 50.974 60.405 52.303C59.501 54.719 58.493 57.096 57.552 59.498C57.241 60.292 57.002 61.113 56.709 61.986L57.897 61.987C58.041 61.99 58.188 61.994 58.327 62.027C59.408 62.282 60.347 62.772 61.116 63.604C62.144 64.708 62.682 66 62.709 67.497ZM42.062 56.042C41.448 54.588 41.079 53.071 40.968 51.504C40.864 50.03 41.039 48.564 41.191 47.096C41.337 45.675 41.461 44.247 41.503 42.821C41.574 40.474 41.416 38.133 41.304 35.788C41.237 34.392 41.399 32.979 41.523 31.58C41.635 30.32 41.775 29.057 42.014 27.815C42.413 25.731 42.944 23.677 43.699 21.686C44.414 19.798 45.238 17.961 46.398 16.306C47.195 15.17 48.097 14.111 48.964 13.001L48.706 12.909C45.883 12.013 43.013 11.311 40.06 11.006C38.665 10.861 37.264 10.777 35.865 10.693C35.435 10.668 34.999 10.726 34.568 10.767C33.501 10.87 32.42 10.91 31.37 11.11C29.583 11.45 27.868 12.022 26.281 12.953C24.855 13.789 23.658 14.868 22.655 16.164C21.548 17.595 20.801 19.213 20.266 20.937C19.634 22.972 19.332 25.067 19.251 27.18C19.18 29.033 19.145 30.896 19.465 32.742C19.702 34.115 19.861 35.504 20.123 36.873C20.481 38.738 20.865 40.6 21.309 42.446C21.942 45.09 22.576 47.736 23.327 50.348C24.045 52.849 24.854 55.328 25.734 57.778C26.452 59.777 27.283 61.739 28.158 63.674C28.728 64.935 29.418 66.149 30.142 67.329C30.911 68.583 31.787 69.773 32.973 70.683C34.472 71.831 35.631 72.01 37.155 70.749C37.807 70.21 38.358 69.542 38.926 68.907C39.827 67.899 40.697 66.861 41.595 65.848C42.738 64.559 43.895 63.283 45.044 61.998C45.287 61.727 45.522 61.447 45.758 61.173L45.365 60.83C43.94 59.458 42.834 57.868 42.062 56.042ZM85.403 17.639C86.337 18.734 87.241 19.861 88.075 21.033C89.689 23.301 90.979 25.749 91.93 28.369C92.35 29.524 92.686 30.69 92.536 31.953C92.432 32.838 92.439 33.735 92.362 34.625C92.297 35.365 92.179 36.101 92.084 36.839C91.94 37.951 91.732 39.061 91.67 40.178C91.61 41.242 91.673 42.316 91.74 43.381C91.807 44.464 91.953 45.542 92.052 46.622C92.164 47.849 92.316 49.073 92.35 50.302C92.378 51.31 92.288 52.323 92.201 53.331C92.096 54.544 91.789 55.718 91.331 56.843C91.008 57.637 90.623 58.405 90.26 59.199L90.406 59.353L90.628 59.525L90.853 59.125C92.741 56.148 94.421 53.057 95.874 49.848C96.812 47.782 97.686 45.686 98.528 43.578C99.839 40.297 100.878 36.925 101.679 33.484C102.039 31.94 102.315 30.372 102.559 28.804C102.75 27.578 102.908 26.338 102.944 25.101C102.981 23.789 102.909 22.467 102.788 21.159C102.697 20.171 102.453 19.177 101.835 18.372C100.839 17.079 99.765 15.843 98.444 14.864C97.331 14.041 96.221 13.194 95.028 12.502C93.135 11.403 91.086 10.673 88.945 10.175C86.854 9.688 84.738 9.478 82.608 9.433C81.352 9.406 80.09 9.541 78.837 9.66C77.701 9.766 76.572 9.948 75.429 10.098C76.656 10.788 77.867 11.402 79.007 12.125C81.407 13.645 83.559 15.474 85.403 17.639ZM54.223 60.202C54.998 57.722 56.055 55.352 57.078 52.97C57.909 51.037 58.362 49.002 58.513 46.91C58.588 45.879 58.568 44.835 58.517 43.801C58.46 42.653 58.369 41.5 58.201 40.363C57.986 38.909 57.742 37.454 57.398 36.027C57.025 34.483 56.085 33.407 54.473 33.01C53.492 32.769 52.516 32.779 51.523 32.936C49.1 33.317 46.882 34.21 44.816 35.518C44.4 35.781 44.17 35.994 44.243 36.589C44.395 37.853 44.428 39.137 44.422 40.412C44.414 42.217 44.337 44.022 44.269 45.826C44.247 46.413 44.162 46.999 44.098 47.584C44.002 48.48 43.815 49.375 43.821 50.27C43.827 51.192 43.921 52.135 44.145 53.028C44.856 55.86 46.36 58.176 48.827 59.811C50.344 60.817 52.022 61.323 53.865 61.42C53.987 60.997 54.1 60.598 54.223 60.202ZM51.327 35.913C51.002 35.232 51.188 34.667 51.94 34.405C52.124 34.342 52.312 34.272 52.502 34.254C52.765 34.228 53.03 34.247 53.295 34.247C54.25 34.253 55.168 34.386 55.955 34.992C56.461 35.382 56.597 35.897 56.269 36.429C55.804 37.182 55.097 37.56 54.227 37.632C52.858 37.745 51.897 37.107 51.327 35.913ZM89.302 35.664L89.613 32.939C89.658 32.575 89.467 32.475 89.161 32.466C88.198 32.44 87.236 32.405 86.273 32.389C85.189 32.369 84.132 32.543 83.128 32.955C82.014 33.414 81.166 34.148 80.819 35.361C80.56 36.265 80.491 37.168 80.583 38.113C80.722 39.554 81.042 40.952 81.546 42.293C82.22 44.086 82.924 45.878 83.767 47.596C84.908 49.921 86.198 52.173 87.41 54.463C87.733 55.074 88.007 55.713 88.344 56.426C89.051 54.93 89.395 53.432 89.434 51.888C89.467 50.587 89.364 49.283 89.288 47.982C89.241 47.186 89.128 46.394 89.051 45.6C88.944 44.494 88.78 43.387 88.754 42.278C88.729 41.15 88.809 40.016 88.905 38.889C88.995 37.811 89.173 36.74 89.302 35.664ZM87.133 34.79C86.775 35.777 86.011 36.335 85.019 36.498C84.095 36.651 83.285 36.31 82.683 35.572C82.254 35.047 82.418 34.426 83.061 34.07C83.799 33.662 84.61 33.559 85.567 33.497C85.828 33.544 86.218 33.585 86.59 33.69C87.129 33.842 87.329 34.25 87.133 34.79ZM58.535 65.193C58.007 64.761 57.307 64.736 56.805 65.21C56.181 65.8 55.632 66.474 55.083 67.138C54.45 67.906 53.854 68.704 53.038 69.299C51.849 70.164 50.46 70.522 49.066 70.861C47.958 71.131 46.844 71.382 45.733 71.64L45.719 71.784C46.049 71.936 46.368 72.127 46.713 72.236C48.408 72.772 50.133 73.04 51.925 72.888C53.217 72.777 54.449 72.495 55.616 71.942C57.223 71.181 58.46 69.974 59.511 68.572C59.687 68.338 59.767 67.992 59.787 67.69C59.858 66.624 59.317 65.831 58.535 65.193ZM89.48 64.731C88.649 65.01 87.973 65.435 87.772 66.334C87.635 66.942 87.585 67.571 87.532 68.194C87.522 68.304 87.659 68.506 87.763 68.534C88.403 68.703 89.047 68.902 89.701 68.961C90.506 69.034 91.324 69.011 92.134 68.971C93.008 68.927 93.888 68.87 94.75 68.726C96.779 68.384 98.744 67.83 100.488 66.678C101.118 66.263 101.74 65.839 102.366 65.417L102.314 65.328C101.647 65.427 100.982 65.548 100.312 65.619C98.948 65.765 97.583 65.919 96.214 65.998C95.553 66.036 94.883 65.909 94.217 65.855C93.099 65.764 92.007 65.516 91.062 64.918C90.517 64.574 90.061 64.536 89.48 64.731Z" fill="#336791"/>
<path d="M3 103.184C4.093 103.002 5.522 102.846 7.343 102.846C9.578 102.846 11.217 103.366 12.257 104.302C13.219 105.134 13.791 106.408 13.791 107.969C13.791 109.555 13.322 110.803 12.438 111.713C11.242 112.987 9.292 113.637 7.082 113.637C6.406 113.637 5.782 113.611 5.263 113.481V120.502H3V103.184ZM5.263 111.634C5.757 111.764 6.381 111.816 7.135 111.816C9.864 111.816 11.529 110.49 11.529 108.072C11.529 105.758 9.891 104.64 7.395 104.64C6.407 104.64 5.653 104.718 5.263 104.822V111.634ZM27.493 114.104C27.493 118.758 24.268 120.787 21.226 120.787C17.82 120.787 15.194 118.291 15.194 114.312C15.194 110.1 17.95 107.63 21.434 107.63C25.049 107.629 27.493 110.256 27.493 114.104ZM17.509 114.234C17.509 116.99 19.095 119.07 21.331 119.07C23.515 119.07 25.152 117.016 25.152 114.182C25.152 112.05 24.087 109.346 21.382 109.346C18.677 109.346 17.509 111.842 17.509 114.234ZM30.066 118.16C30.742 118.602 31.938 119.07 33.082 119.07C34.746 119.07 35.526 118.238 35.526 117.198C35.526 116.106 34.877 115.508 33.186 114.884C30.924 114.078 29.858 112.83 29.858 111.322C29.858 109.294 31.496 107.63 34.2 107.63C35.474 107.63 36.593 107.994 37.295 108.41L36.723 110.074C36.229 109.762 35.319 109.346 34.149 109.346C32.797 109.346 32.043 110.126 32.043 111.062C32.043 112.102 32.798 112.57 34.436 113.194C36.62 114.026 37.738 115.118 37.738 116.99C37.738 119.2 36.022 120.76 33.032 120.76C31.654 120.76 30.38 120.422 29.496 119.902L30.066 118.16ZM43.431 104.301V107.915H46.706V109.657H43.431V116.443C43.431 118.003 43.872 118.887 45.147 118.887C45.745 118.887 46.187 118.809 46.473 118.731L46.577 120.447C46.136 120.629 45.433 120.759 44.55 120.759C43.484 120.759 42.625 120.421 42.079 119.797C41.43 119.121 41.195 118.003 41.195 116.521V109.657H39.245V107.915H41.195V104.899L43.431 104.301ZM59.967 107.916C59.914 108.826 59.863 109.84 59.863 111.374V118.68C59.863 121.566 59.291 123.334 58.069 124.427C56.847 125.571 55.079 125.935 53.493 125.935C51.985 125.935 50.321 125.571 49.306 124.895L49.878 123.153C50.71 123.673 52.01 124.141 53.57 124.141C55.91 124.141 57.626 122.919 57.626 119.747V118.343H57.574C56.872 119.513 55.52 120.449 53.57 120.449C50.45 120.449 48.214 117.797 48.214 114.312C48.214 110.048 50.996 107.63 53.882 107.63C56.067 107.63 57.263 108.774 57.809 109.814H57.861L57.965 107.916H59.967ZM57.601 112.882C57.601 112.492 57.575 112.154 57.471 111.842C57.055 110.516 55.937 109.424 54.273 109.424C52.088 109.424 50.529 111.27 50.529 114.182C50.529 116.652 51.777 118.706 54.247 118.706C55.651 118.706 56.925 117.822 57.419 116.366C57.549 115.976 57.602 115.534 57.602 115.144L57.601 112.882ZM63.502 111.842C63.502 110.36 63.476 109.086 63.398 107.916H65.401L65.478 110.386H65.582C66.154 108.696 67.532 107.63 69.066 107.63C69.326 107.63 69.507 107.656 69.715 107.708V109.866C69.482 109.814 69.247 109.788 68.936 109.788C67.324 109.788 66.179 111.01 65.868 112.726C65.816 113.038 65.764 113.402 65.764 113.792V120.5H63.502V111.842ZM73.019 114.624C73.071 117.718 75.046 118.992 77.334 118.992C78.973 118.992 79.96 118.706 80.818 118.342L81.208 119.98C80.402 120.344 79.024 120.76 77.022 120.76C73.148 120.76 70.834 118.212 70.834 114.416C70.834 110.62 73.07 107.629 76.736 107.629C80.844 107.629 81.936 111.243 81.936 113.557C81.936 114.025 81.884 114.389 81.858 114.623L73.019 114.624ZM79.727 112.986C79.752 111.53 79.128 109.268 76.555 109.268C74.241 109.268 73.227 111.4 73.044 112.986H79.727ZM84.536 117.744C85.55 118.368 87.032 118.888 88.592 118.888C90.906 118.888 92.258 117.666 92.258 115.898C92.258 114.26 91.322 113.324 88.956 112.414C86.096 111.4 84.328 109.918 84.328 107.448C84.328 104.718 86.59 102.69 89.996 102.69C91.79 102.69 93.09 103.106 93.87 103.548L93.246 105.394C92.674 105.082 91.504 104.562 89.918 104.562C87.526 104.562 86.616 105.992 86.616 107.188C86.616 108.826 87.681 109.632 90.1 110.568C93.064 111.713 94.572 113.142 94.572 115.716C94.572 118.42 92.57 120.76 88.436 120.76C86.746 120.76 84.9 120.266 83.963 119.642L84.536 117.744ZM112.122 123.074C109.756 122.45 107.442 121.748 105.414 121.046C105.05 120.916 104.686 120.786 104.348 120.786C100.188 120.63 96.626 117.562 96.626 111.92C96.626 106.304 100.058 102.69 104.79 102.69C109.548 102.69 112.643 106.382 112.643 111.556C112.643 116.054 110.563 118.94 107.651 119.954V120.058C109.393 120.5 111.291 120.916 112.773 121.176L112.122 123.074ZM110.25 111.66C110.25 108.15 108.431 104.535 104.712 104.535C100.89 104.535 99.018 108.071 99.044 111.868C99.018 115.586 101.072 118.94 104.608 118.94C108.223 118.94 110.25 115.664 110.25 111.66ZM115.579 102.976H117.842V118.602H125.33V120.5H115.579V102.976Z" fill="#336791"/>
<g clip-path="url(#clip1_35_66)">
<circle cx="1.49976" cy="3.5" r="1.5" fill="#FDFCF5"/>
<circle cx="10.4998" cy="3.5" r="1.5" fill="#FDFCF5"/>
<circle cx="19.4998" cy="3.5" r="1.5" fill="#FDFCF5"/>
<circle cx="28.4998" cy="3.5" r="1.5" fill="#FDFCF5"/>
<circle cx="37.4998" cy="3.5" r="1.5" fill="#FDFCF5"/>
<circle cx="46.4998" cy="3.5" r="1.5" fill="#FDFCF5"/>
<circle cx="55.4998" cy="3.5" r="1.5" fill="#FDFCF5"/>
<circle cx="64.4998" cy="3.5" r="1.5" fill="#FDFCF5"/>
<circle cx="73.4998" cy="3.5" r="1.5" fill="#FDFCF5"/>
<circle cx="82.4998" cy="3.5" r="1.5" fill="#FDFCF5"/>
<circle cx="91.4998" cy="3.5" r="1.5" fill="#FDFCF5"/>
<circle cx="100.5" cy="3.5" r="1.5" fill="#FDFCF5"/>
<circle cx="109.5" cy="3.5" r="1.5" fill="#FDFCF5"/>
<circle cx="118.5" cy="3.5" r="1.5" fill="#FDFCF5"/>
<circle cx="1.49976" cy="12.5" r="1.5" fill="#FDFCF5"/>
<circle cx="10.4998" cy="12.5" r="1.5" fill="#FDFCF5"/>
<circle cx="19.4998" cy="12.5" r="1.5" fill="#FDFCF5"/>
<circle cx="28.4998" cy="12.5" r="1.5" fill="#FDFCF5"/>
<circle cx="37.4998" cy="12.5" r="1.5" fill="#FDFCF5"/>
<circle cx="46.4998" cy="12.5" r="1.5" fill="#FDFCF5"/>
<circle cx="55.4998" cy="12.5" r="1.5" fill="#FDFCF5"/>
<circle cx="64.4998" cy="12.5" r="1.5" fill="#FDFCF5"/>
<circle cx="73.4998" cy="12.5" r="1.5" fill="#FDFCF5"/>
<circle cx="82.4998" cy="12.5" r="1.5" fill="#FDFCF5"/>
<circle cx="91.4998" cy="12.5" r="1.5" fill="#FDFCF5"/>
<circle cx="100.5" cy="12.5" r="1.5" fill="#FDFCF5"/>
<circle cx="109.5" cy="12.5" r="1.5" fill="#FDFCF5"/>
<circle cx="118.5" cy="12.5" r="1.5" fill="#FDFCF5"/>
<circle cx="1.49976" cy="21.5" r="1.5" fill="#FDFCF5"/>
<circle cx="10.4998" cy="21.5" r="1.5" fill="#FDFCF5"/>
<circle cx="19.4998" cy="21.5" r="1.5" fill="#FDFCF5"/>
<circle cx="28.4998" cy="21.5" r="1.5" fill="#FDFCF5"/>
<circle cx="37.4998" cy="21.5" r="1.5" fill="#FDFCF5"/>
<circle cx="46.4998" cy="21.5" r="1.5" fill="#FDFCF5"/>
<circle cx="55.4998" cy="21.5" r="1.5" fill="#FDFCF5"/>
<circle cx="64.4998" cy="21.5" r="1.5" fill="#FDFCF5"/>
<circle cx="73.4998" cy="21.5" r="1.5" fill="#FDFCF5"/>
<circle cx="82.4998" cy="21.5" r="1.5" fill="#FDFCF5"/>
<circle cx="91.4998" cy="21.5" r="1.5" fill="#FDFCF5"/>
<circle cx="100.5" cy="21.5" r="1.5" fill="#FDFCF5"/>
<circle cx="109.5" cy="21.5" r="1.5" fill="#FDFCF5"/>
<circle cx="118.5" cy="21.5" r="1.5" fill="#FDFCF5"/>
<circle cx="1.49976" cy="30.5" r="1.5" fill="#FDFCF5"/>
<circle cx="10.4998" cy="30.5" r="1.5" fill="#FDFCF5"/>
<circle cx="19.4998" cy="30.5" r="1.5" fill="#FDFCF5"/>
<circle cx="28.4998" cy="30.5" r="1.5" fill="#FDFCF5"/>
<circle cx="37.4998" cy="30.5" r="1.5" fill="#FDFCF5"/>
<circle cx="46.4998" cy="30.5" r="1.5" fill="#FDFCF5"/>
<circle cx="55.4998" cy="30.5" r="1.5" fill="#FDFCF5"/>
<circle cx="64.4998" cy="30.5" r="1.5" fill="#FDFCF5"/>
<circle cx="73.4998" cy="30.5" r="1.5" fill="#FDFCF5"/>
<circle cx="82.4998" cy="30.5" r="1.5" fill="#FDFCF5"/>
<circle cx="91.4998" cy="30.5" r="1.5" fill="#FDFCF5"/>
<circle cx="100.5" cy="30.5" r="1.5" fill="#FDFCF5"/>
<circle cx="109.5" cy="30.5" r="1.5" fill="#FDFCF5"/>
<circle cx="118.5" cy="30.5" r="1.5" fill="#FDFCF5"/>
<circle cx="1.49976" cy="39.5" r="1.5" fill="#FDFCF5"/>
<circle cx="10.4998" cy="39.5" r="1.5" fill="#FDFCF5"/>
<circle cx="19.4998" cy="39.5" r="1.5" fill="#FDFCF5"/>
<circle cx="28.4998" cy="39.5" r="1.5" fill="#FDFCF5"/>
<circle cx="37.4998" cy="39.5" r="1.5" fill="#FDFCF5"/>
<circle cx="46.4998" cy="39.5" r="1.5" fill="#FDFCF5"/>
<circle cx="55.4998" cy="39.5" r="1.5" fill="#FDFCF5"/>
<circle cx="64.4998" cy="39.5" r="1.5" fill="#FDFCF5"/>
<circle cx="73.4998" cy="39.5" r="1.5" fill="#FDFCF5"/>
<circle cx="82.4998" cy="39.5" r="1.5" fill="#FDFCF5"/>
<circle cx="91.4998" cy="39.5" r="1.5" fill="#FDFCF5"/>
<circle cx="100.5" cy="39.5" r="1.5" fill="#FDFCF5"/>
<circle cx="109.5" cy="39.5" r="1.5" fill="#FDFCF5"/>
<circle cx="118.5" cy="39.5" r="1.5" fill="#FDFCF5"/>
<circle cx="1.49976" cy="48.5" r="1.5" fill="#FDFCF5"/>
<circle cx="10.4998" cy="48.5" r="1.5" fill="#FDFCF5"/>
<circle cx="19.4998" cy="48.5" r="1.5" fill="#FDFCF5"/>
<circle cx="28.4998" cy="48.5" r="1.5" fill="#FDFCF5"/>
<circle cx="37.4998" cy="48.5" r="1.5" fill="#FDFCF5"/>
<circle cx="46.4998" cy="48.5" r="1.5" fill="#FDFCF5"/>
<circle cx="55.4998" cy="48.5" r="1.5" fill="#FDFCF5"/>
<circle cx="64.4998" cy="48.5" r="1.5" fill="#FDFCF5"/>
<circle cx="73.4998" cy="48.5" r="1.5" fill="#FDFCF5"/>
<circle cx="82.4998" cy="48.5" r="1.5" fill="#FDFCF5"/>
<circle cx="91.4998" cy="48.5" r="1.5" fill="#FDFCF5"/>
<circle cx="100.5" cy="48.5" r="1.5" fill="#FDFCF5"/>
<circle cx="109.5" cy="48.5" r="1.5" fill="#FDFCF5"/>
<circle cx="118.5" cy="48.5" r="1.5" fill="#FDFCF5"/>
<circle cx="1.49976" cy="57.5" r="1.5" fill="#FDFCF5"/>
<circle cx="10.4998" cy="57.5" r="1.5" fill="#FDFCF5"/>
<circle cx="19.4998" cy="57.5" r="1.5" fill="#FDFCF5"/>
<circle cx="28.4998" cy="57.5" r="1.5" fill="#FDFCF5"/>
<circle cx="37.4998" cy="57.5" r="1.5" fill="#FDFCF5"/>
<circle cx="46.4998" cy="57.5" r="1.5" fill="#FDFCF5"/>
<circle cx="55.4998" cy="57.5" r="1.5" fill="#FDFCF5"/>
<circle cx="64.4998" cy="57.5" r="1.5" fill="#FDFCF5"/>
<circle cx="73.4998" cy="57.5" r="1.5" fill="#FDFCF5"/>
<circle cx="82.4998" cy="57.5" r="1.5" fill="#FDFCF5"/>
<circle cx="91.4998" cy="57.5" r="1.5" fill="#FDFCF5"/>
<circle cx="100.5" cy="57.5" r="1.5" fill="#FDFCF5"/>
<circle cx="109.5" cy="57.5" r="1.5" fill="#FDFCF5"/>
<circle cx="118.5" cy="57.5" r="1.5" fill="#FDFCF5"/>
<circle cx="1.49976" cy="66.5" r="1.5" fill="#FDFCF5"/>
<circle cx="10.4998" cy="66.5" r="1.5" fill="#FDFCF5"/>
<circle cx="19.4998" cy="66.5" r="1.5" fill="#FDFCF5"/>
<circle cx="28.4998" cy="66.5" r="1.5" fill="#FDFCF5"/>
<circle cx="37.4998" cy="66.5" r="1.5" fill="#FDFCF5"/>
<circle cx="46.4998" cy="66.5" r="1.5" fill="#FDFCF5"/>
<circle cx="55.4998" cy="66.5" r="1.5" fill="#FDFCF5"/>
<circle cx="64.4998" cy="66.5" r="1.5" fill="#FDFCF5"/>
<circle cx="73.4998" cy="66.5" r="1.5" fill="#FDFCF5"/>
<circle cx="82.4998" cy="66.5" r="1.5" fill="#FDFCF5"/>
<circle cx="91.4998" cy="66.5" r="1.5" fill="#FDFCF5"/>
<circle cx="100.5" cy="66.5" r="1.5" fill="#FDFCF5"/>
<circle cx="109.5" cy="66.5" r="1.5" fill="#FDFCF5"/>
<circle cx="118.5" cy="66.5" r="1.5" fill="#FDFCF5"/>
<circle cx="1.49976" cy="75.5" r="1.5" fill="#FDFCF5"/>
<circle cx="10.4998" cy="75.5" r="1.5" fill="#FDFCF5"/>
<circle cx="19.4998" cy="75.5" r="1.5" fill="#FDFCF5"/>
<circle cx="28.4998" cy="75.5" r="1.5" fill="#FDFCF5"/>
<circle cx="37.4998" cy="75.5" r="1.5" fill="#FDFCF5"/>
<circle cx="46.4998" cy="75.5" r="1.5" fill="#FDFCF5"/>
<circle cx="55.4998" cy="75.5" r="1.5" fill="#FDFCF5"/>
<circle cx="64.4998" cy="75.5" r="1.5" fill="#FDFCF5"/>
<circle cx="73.4998" cy="75.5" r="1.5" fill="#FDFCF5"/>
<circle cx="82.4998" cy="75.5" r="1.5" fill="#FDFCF5"/>
<circle cx="91.4998" cy="75.5" r="1.5" fill="#FDFCF5"/>
<circle cx="100.5" cy="75.5" r="1.5" fill="#FDFCF5"/>
<circle cx="109.5" cy="75.5" r="1.5" fill="#FDFCF5"/>
<circle cx="118.5" cy="75.5" r="1.5" fill="#FDFCF5"/>
<circle cx="1.49976" cy="84.5" r="1.5" fill="#FDFCF5"/>
<circle cx="10.4998" cy="84.5" r="1.5" fill="#FDFCF5"/>
<circle cx="19.4998" cy="84.5" r="1.5" fill="#FDFCF5"/>
<circle cx="28.4998" cy="84.5" r="1.5" fill="#FDFCF5"/>
<circle cx="37.4998" cy="84.5" r="1.5" fill="#FDFCF5"/>
<circle cx="46.4998" cy="84.5" r="1.5" fill="#FDFCF5"/>
<circle cx="55.4998" cy="84.5" r="1.5" fill="#FDFCF5"/>
<circle cx="64.4998" cy="84.5" r="1.5" fill="#FDFCF5"/>
<circle cx="73.4998" cy="84.5" r="1.5" fill="#FDFCF5"/>
<circle cx="82.4998" cy="84.5" r="1.5" fill="#FDFCF5"/>
<circle cx="91.4998" cy="84.5" r="1.5" fill="#FDFCF5"/>
<circle cx="100.5" cy="84.5" r="1.5" fill="#FDFCF5"/>
<circle cx="109.5" cy="84.5" r="1.5" fill="#FDFCF5"/>
<circle cx="118.5" cy="84.5" r="1.5" fill="#FDFCF5"/>
<circle cx="1.49976" cy="93.5" r="1.5" fill="#FDFCF5"/>
<circle cx="10.4998" cy="93.5" r="1.5" fill="#FDFCF5"/>
<circle cx="19.4998" cy="93.5" r="1.5" fill="#FDFCF5"/>
<circle cx="28.4998" cy="93.5" r="1.5" fill="#FDFCF5"/>
<circle cx="37.4998" cy="93.5" r="1.5" fill="#FDFCF5"/>
<circle cx="46.4998" cy="93.5" r="1.5" fill="#FDFCF5"/>
<circle cx="55.4998" cy="93.5" r="1.5" fill="#FDFCF5"/>
<circle cx="64.4998" cy="93.5" r="1.5" fill="#FDFCF5"/>
<circle cx="73.4998" cy="93.5" r="1.5" fill="#FDFCF5"/>
<circle cx="82.4998" cy="93.5" r="1.5" fill="#FDFCF5"/>
<circle cx="91.4998" cy="93.5" r="1.5" fill="#FDFCF5"/>
<circle cx="100.5" cy="93.5" r="1.5" fill="#FDFCF5"/>
<circle cx="109.5" cy="93.5" r="1.5" fill="#FDFCF5"/>
<circle cx="118.5" cy="93.5" r="1.5" fill="#FDFCF5"/>
<circle cx="1.49976" cy="102.5" r="1.5" fill="#FDFCF5"/>
<circle cx="10.4998" cy="102.5" r="1.5" fill="#FDFCF5"/>
<circle cx="19.4998" cy="102.5" r="1.5" fill="#FDFCF5"/>
<circle cx="28.4998" cy="102.5" r="1.5" fill="#FDFCF5"/>
<circle cx="37.4998" cy="102.5" r="1.5" fill="#FDFCF5"/>
<circle cx="46.4998" cy="102.5" r="1.5" fill="#FDFCF5"/>
<circle cx="55.4998" cy="102.5" r="1.5" fill="#FDFCF5"/>
<circle cx="64.4998" cy="102.5" r="1.5" fill="#FDFCF5"/>
<circle cx="73.4998" cy="102.5" r="1.5" fill="#FDFCF5"/>
<circle cx="82.4998" cy="102.5" r="1.5" fill="#FDFCF5"/>
<circle cx="91.4998" cy="102.5" r="1.5" fill="#FDFCF5"/>
<circle cx="100.5" cy="102.5" r="1.5" fill="#FDFCF5"/>
<circle cx="109.5" cy="102.5" r="1.5" fill="#FDFCF5"/>
<circle cx="118.5" cy="102.5" r="1.5" fill="#FDFCF5"/>
<circle cx="1.49976" cy="111.5" r="1.5" fill="#FDFCF5"/>
<circle cx="10.4998" cy="111.5" r="1.5" fill="#FDFCF5"/>
<circle cx="19.4998" cy="111.5" r="1.5" fill="#FDFCF5"/>
<circle cx="28.4998" cy="111.5" r="1.5" fill="#FDFCF5"/>
<circle cx="37.4998" cy="111.5" r="1.5" fill="#FDFCF5"/>
<circle cx="46.4998" cy="111.5" r="1.5" fill="#FDFCF5"/>
<circle cx="55.4998" cy="111.5" r="1.5" fill="#FDFCF5"/>
<circle cx="64.4998" cy="111.5" r="1.5" fill="#FDFCF5"/>
<circle cx="73.4998" cy="111.5" r="1.5" fill="#FDFCF5"/>
<circle cx="82.4998" cy="111.5" r="1.5" fill="#FDFCF5"/>
<circle cx="91.4998" cy="111.5" r="1.5" fill="#FDFCF5"/>
<circle cx="100.5" cy="111.5" r="1.5" fill="#FDFCF5"/>
<circle cx="109.5" cy="111.5" r="1.5" fill="#FDFCF5"/>
<circle cx="118.5" cy="111.5" r="1.5" fill="#FDFCF5"/>
<circle cx="1.49976" cy="120.5" r="1.5" fill="#FDFCF5"/>
<circle cx="10.4998" cy="120.5" r="1.5" fill="#FDFCF5"/>
<circle cx="19.4998" cy="120.5" r="1.5" fill="#FDFCF5"/>
<circle cx="28.4998" cy="120.5" r="1.5" fill="#FDFCF5"/>
<circle cx="37.4998" cy="120.5" r="1.5" fill="#FDFCF5"/>
<circle cx="46.4998" cy="120.5" r="1.5" fill="#FDFCF5"/>
<circle cx="55.4998" cy="120.5" r="1.5" fill="#FDFCF5"/>
<circle cx="64.4998" cy="120.5" r="1.5" fill="#FDFCF5"/>
<circle cx="73.4998" cy="120.5" r="1.5" fill="#FDFCF5"/>
<circle cx="82.4998" cy="120.5" r="1.5" fill="#FDFCF5"/>
<circle cx="91.4998" cy="120.5" r="1.5" fill="#FDFCF5"/>
<circle cx="100.5" cy="120.5" r="1.5" fill="#FDFCF5"/>
<circle cx="109.5" cy="120.5" r="1.5" fill="#FDFCF5"/>
<circle cx="118.5" cy="120.5" r="1.5" fill="#FDFCF5"/>
</g>
</g>
<defs>
<clipPath id="clip0_35_66">
<rect width="128" height="128" fill="white"/>
</clipPath>
<clipPath id="clip1_35_66">
<rect width="128" height="126" fill="white" transform="translate(-0.000244141 2)"/>
</clipPath>
</defs>
</svg>
