<svg width="162" height="128" viewBox="0 0 162 128" fill="none" xmlns="http://www.w3.org/2000/svg">
<g clip-path="url(#clip0_35_123)">
<path d="M81.688 75.3C89.6494 75.3 96.1035 70.196 96.1035 63.9C96.1035 57.604 89.6494 52.5 81.688 52.5C73.7265 52.5 67.2725 57.604 67.2725 63.9C67.2725 70.196 73.7265 75.3 81.688 75.3Z" fill="#61DAFB"/>
<path d="M136.442 45.1C133.66 44.3 130.751 43.5 127.716 42.8C128.475 40.4 129.107 38 129.613 35.7C132.269 22.5 129.36 13.2 121.267 9.6C118.865 8.5 116.209 8 113.174 8C104.323 8 93.0686 13.2 81.6879 21.9C70.3073 13.2 59.0531 8 50.2014 8C47.1666 8 44.5111 8.5 42.1085 9.6C34.0156 13.3 31.1072 22.6 33.7627 35.7C34.2685 38 34.9007 40.4 35.6595 42.8C32.6246 43.5 29.7162 44.2 26.9343 45.1C11.1278 49.9 2.52905 56.5 2.52905 63.9C2.52905 71.3 11.2542 77.9 26.9343 82.7C29.7162 83.5 32.6246 84.3 35.6595 85C34.9007 87.4 34.2685 89.8 33.7627 92.1C31.1072 105.3 34.0156 114.6 42.1085 118.2C44.5111 119.3 47.1666 119.8 50.2014 119.8C59.1795 119.8 70.4337 114.6 81.6879 105.9C93.0686 114.6 104.323 119.8 113.174 119.8C116.209 119.8 118.865 119.3 121.267 118.2C129.36 114.5 132.269 105.2 129.613 92.1C129.107 89.8 128.475 87.4 127.716 85C130.751 84.3 133.66 83.6 136.442 82.7C152.248 77.9 160.847 71.3 160.847 63.9C160.847 56.5 152.248 49.9 136.442 45.1ZM117.727 14.6C122.911 17 124.682 24.4 122.532 34.9C122.153 37 121.52 39.2 120.762 41.5C114.186 40.3 107.231 39.5 99.897 39C95.5977 34.2 91.1718 29.9 86.746 26C96.1035 18.7 105.587 13.7 113.301 13.7C114.945 13.7 116.462 14 117.727 14.6ZM103.564 73.9C101.288 77.1 98.6325 80.3 95.8506 83.5C91.1718 83.8 86.4931 83.9 81.6879 83.9C76.7563 83.9 72.0776 83.8 67.5253 83.5C64.7434 80.3 62.2144 77.1 59.9382 73.9C57.5356 70.6 55.2595 67.2 53.2363 63.9C55.2595 60.6 57.5356 57.2 59.9382 53.9C62.2144 50.7 64.8698 47.5 67.6518 44.3C72.3305 44 77.0092 43.9 81.8144 43.9C86.746 43.9 91.4247 44 95.977 44.3C98.759 47.5 101.288 50.7 103.564 53.9C105.967 57.2 108.243 60.6 110.266 63.9C108.116 67.2 105.967 70.5 103.564 73.9ZM114.06 70.6C115.956 74.1 117.474 77.5 118.865 80.9C114.565 81.7 110.013 82.3 105.208 82.8C106.725 80.9 108.369 78.9 109.76 76.8C111.278 74.7 112.669 72.6 114.06 70.6ZM81.6879 97.7C78.6531 95.1 75.7447 92.3 72.9628 89.4C75.8712 89.5 78.7795 89.6 81.6879 89.6C84.5963 89.6 87.5047 89.5 90.4131 89.4C87.6312 92.3 84.7228 95.1 81.6879 97.7ZM58.1679 82.7C53.3627 82.2 48.8104 81.6 44.5111 80.8C45.9021 77.5 47.4195 74 49.3163 70.5C50.7072 72.5 52.0982 74.6 53.6156 76.6C55.133 78.8 56.6505 80.7 58.1679 82.7ZM49.3163 57.2C47.4195 53.7 45.9021 50.3 44.5111 46.9C48.8104 46.1 53.3627 45.5 58.1679 45C56.6505 46.9 55.0066 48.9 53.6156 51C52.0982 53.1 50.7072 55.2 49.3163 57.2ZM81.6879 30.1C84.7228 32.7 87.6312 35.5 90.4131 38.4C87.5047 38.3 84.5963 38.2 81.6879 38.2C78.7795 38.2 75.8712 38.3 72.9628 38.4C75.7447 35.5 78.6531 32.7 81.6879 30.1ZM109.76 51.1L105.208 45.1C110.013 45.6 114.565 46.2 118.865 47C117.474 50.3 115.956 53.8 114.06 57.3C112.669 55.2 111.278 53.1 109.76 51.1ZM40.844 34.9C38.6943 24.4 40.4646 17 45.6492 14.6C46.9137 14 48.4311 13.7 50.075 13.7C57.6621 13.7 67.146 18.6 76.6299 26C72.2041 29.8 67.7782 34.2 63.4789 39C56.1447 39.5 49.1898 40.4 42.6143 41.5C41.8556 39.2 41.3498 37 40.844 34.9ZM9.61036 63.9C9.61036 59.2 16.8181 54.2 29.4633 50.5C31.9923 49.7 34.7743 49 37.5562 48.4C39.5795 53.4 42.1085 58.7 45.1433 64C42.1085 69.3 39.453 74.5 37.5562 79.5C20.1059 75.5 9.61036 69.5 9.61036 63.9ZM45.6492 113.2C40.4646 110.8 38.6943 103.4 40.844 92.9C41.2233 90.8 41.8556 88.6 42.6143 86.3C49.1898 87.5 56.1447 88.3 63.4789 88.8C67.7782 93.6 72.2041 97.9 76.6299 101.8C67.2724 109.1 57.7885 114.1 50.075 114.1C48.4311 114.1 46.9137 113.8 45.6492 113.2ZM122.532 92.9C124.682 103.4 122.911 110.8 117.727 113.2C116.462 113.8 114.945 114.1 113.301 114.1C105.714 114.1 96.2299 109.2 86.746 101.8C91.1718 98 95.5977 93.6 99.897 88.8C107.231 88.3 114.186 87.4 120.762 86.3C121.52 88.6 122.026 90.8 122.532 92.9ZM133.913 77.3C131.384 78.1 128.602 78.8 125.82 79.4C123.796 74.4 121.267 69.1 118.233 63.8C121.267 58.5 123.923 53.3 125.82 48.3C143.27 52.3 153.766 58.3 153.766 63.9C153.766 68.6 146.431 73.6 133.913 77.3Z" fill="#61DAFB"/>
<g clip-path="url(#clip1_35_123)">
<circle cx="4.5" cy="9.5" r="1.5" fill="#FDFCF5"/>
<circle cx="13.5" cy="9.5" r="1.5" fill="#FDFCF5"/>
<circle cx="22.5" cy="9.5" r="1.5" fill="#FDFCF5"/>
<circle cx="31.5" cy="9.5" r="1.5" fill="#FDFCF5"/>
<circle cx="40.5" cy="9.5" r="1.5" fill="#FDFCF5"/>
<circle cx="49.5" cy="9.5" r="1.5" fill="#FDFCF5"/>
<circle cx="58.5" cy="9.5" r="1.5" fill="#FDFCF5"/>
<circle cx="67.5" cy="9.5" r="1.5" fill="#FDFCF5"/>
<circle cx="76.5" cy="9.5" r="1.5" fill="#FDFCF5"/>
<circle cx="85.5" cy="9.5" r="1.5" fill="#FDFCF5"/>
<circle cx="94.5" cy="9.5" r="1.5" fill="#FDFCF5"/>
<circle cx="103.5" cy="9.5" r="1.5" fill="#FDFCF5"/>
<circle cx="112.5" cy="9.5" r="1.5" fill="#FDFCF5"/>
<circle cx="121.5" cy="9.5" r="1.5" fill="#FDFCF5"/>
<circle cx="130.5" cy="9.5" r="1.5" fill="#FDFCF5"/>
<circle cx="139.5" cy="9.5" r="1.5" fill="#FDFCF5"/>
<circle cx="148.5" cy="9.5" r="1.5" fill="#FDFCF5"/>
<circle cx="157.5" cy="9.5" r="1.5" fill="#FDFCF5"/>
<circle cx="4.5" cy="18.5" r="1.5" fill="#FDFCF5"/>
<circle cx="13.5" cy="18.5" r="1.5" fill="#FDFCF5"/>
<circle cx="22.5" cy="18.5" r="1.5" fill="#FDFCF5"/>
<circle cx="31.5" cy="18.5" r="1.5" fill="#FDFCF5"/>
<circle cx="40.5" cy="18.5" r="1.5" fill="#FDFCF5"/>
<circle cx="49.5" cy="18.5" r="1.5" fill="#FDFCF5"/>
<circle cx="58.5" cy="18.5" r="1.5" fill="#FDFCF5"/>
<circle cx="67.5" cy="18.5" r="1.5" fill="#FDFCF5"/>
<circle cx="76.5" cy="18.5" r="1.5" fill="#FDFCF5"/>
<circle cx="85.5" cy="18.5" r="1.5" fill="#FDFCF5"/>
<circle cx="94.5" cy="18.5" r="1.5" fill="#FDFCF5"/>
<circle cx="103.5" cy="18.5" r="1.5" fill="#FDFCF5"/>
<circle cx="112.5" cy="18.5" r="1.5" fill="#FDFCF5"/>
<circle cx="121.5" cy="18.5" r="1.5" fill="#FDFCF5"/>
<circle cx="130.5" cy="18.5" r="1.5" fill="#FDFCF5"/>
<circle cx="139.5" cy="18.5" r="1.5" fill="#FDFCF5"/>
<circle cx="148.5" cy="18.5" r="1.5" fill="#FDFCF5"/>
<circle cx="157.5" cy="18.5" r="1.5" fill="#FDFCF5"/>
<circle cx="4.5" cy="27.5" r="1.5" fill="#FDFCF5"/>
<circle cx="13.5" cy="27.5" r="1.5" fill="#FDFCF5"/>
<circle cx="22.5" cy="27.5" r="1.5" fill="#FDFCF5"/>
<circle cx="31.5" cy="27.5" r="1.5" fill="#FDFCF5"/>
<circle cx="40.5" cy="27.5" r="1.5" fill="#FDFCF5"/>
<circle cx="49.5" cy="27.5" r="1.5" fill="#FDFCF5"/>
<circle cx="58.5" cy="27.5" r="1.5" fill="#FDFCF5"/>
<circle cx="67.5" cy="27.5" r="1.5" fill="#FDFCF5"/>
<circle cx="76.5" cy="27.5" r="1.5" fill="#FDFCF5"/>
<circle cx="85.5" cy="27.5" r="1.5" fill="#FDFCF5"/>
<circle cx="94.5" cy="27.5" r="1.5" fill="#FDFCF5"/>
<circle cx="103.5" cy="27.5" r="1.5" fill="#FDFCF5"/>
<circle cx="112.5" cy="27.5" r="1.5" fill="#FDFCF5"/>
<circle cx="121.5" cy="27.5" r="1.5" fill="#FDFCF5"/>
<circle cx="130.5" cy="27.5" r="1.5" fill="#FDFCF5"/>
<circle cx="139.5" cy="27.5" r="1.5" fill="#FDFCF5"/>
<circle cx="148.5" cy="27.5" r="1.5" fill="#FDFCF5"/>
<circle cx="157.5" cy="27.5" r="1.5" fill="#FDFCF5"/>
<circle cx="4.5" cy="36.5" r="1.5" fill="#FDFCF5"/>
<circle cx="13.5" cy="36.5" r="1.5" fill="#FDFCF5"/>
<circle cx="22.5" cy="36.5" r="1.5" fill="#FDFCF5"/>
<circle cx="31.5" cy="36.5" r="1.5" fill="#FDFCF5"/>
<circle cx="40.5" cy="36.5" r="1.5" fill="#FDFCF5"/>
<circle cx="49.5" cy="36.5" r="1.5" fill="#FDFCF5"/>
<circle cx="58.5" cy="36.5" r="1.5" fill="#FDFCF5"/>
<circle cx="67.5" cy="36.5" r="1.5" fill="#FDFCF5"/>
<circle cx="76.5" cy="36.5" r="1.5" fill="#FDFCF5"/>
<circle cx="85.5" cy="36.5" r="1.5" fill="#FDFCF5"/>
<circle cx="94.5" cy="36.5" r="1.5" fill="#FDFCF5"/>
<circle cx="103.5" cy="36.5" r="1.5" fill="#FDFCF5"/>
<circle cx="112.5" cy="36.5" r="1.5" fill="#FDFCF5"/>
<circle cx="121.5" cy="36.5" r="1.5" fill="#FDFCF5"/>
<circle cx="130.5" cy="36.5" r="1.5" fill="#FDFCF5"/>
<circle cx="139.5" cy="36.5" r="1.5" fill="#FDFCF5"/>
<circle cx="148.5" cy="36.5" r="1.5" fill="#FDFCF5"/>
<circle cx="157.5" cy="36.5" r="1.5" fill="#FDFCF5"/>
<circle cx="4.5" cy="45.5" r="1.5" fill="#FDFCF5"/>
<circle cx="13.5" cy="45.5" r="1.5" fill="#FDFCF5"/>
<circle cx="22.5" cy="45.5" r="1.5" fill="#FDFCF5"/>
<circle cx="31.5" cy="45.5" r="1.5" fill="#FDFCF5"/>
<circle cx="40.5" cy="45.5" r="1.5" fill="#FDFCF5"/>
<circle cx="49.5" cy="45.5" r="1.5" fill="#FDFCF5"/>
<circle cx="58.5" cy="45.5" r="1.5" fill="#FDFCF5"/>
<circle cx="67.5" cy="45.5" r="1.5" fill="#FDFCF5"/>
<circle cx="76.5" cy="45.5" r="1.5" fill="#FDFCF5"/>
<circle cx="85.5" cy="45.5" r="1.5" fill="#FDFCF5"/>
<circle cx="94.5" cy="45.5" r="1.5" fill="#FDFCF5"/>
<circle cx="103.5" cy="45.5" r="1.5" fill="#FDFCF5"/>
<circle cx="112.5" cy="45.5" r="1.5" fill="#FDFCF5"/>
<circle cx="121.5" cy="45.5" r="1.5" fill="#FDFCF5"/>
<circle cx="130.5" cy="45.5" r="1.5" fill="#FDFCF5"/>
<circle cx="139.5" cy="45.5" r="1.5" fill="#FDFCF5"/>
<circle cx="148.5" cy="45.5" r="1.5" fill="#FDFCF5"/>
<circle cx="157.5" cy="45.5" r="1.5" fill="#FDFCF5"/>
<circle cx="4.5" cy="54.5" r="1.5" fill="#FDFCF5"/>
<circle cx="13.5" cy="54.5" r="1.5" fill="#FDFCF5"/>
<circle cx="22.5" cy="54.5" r="1.5" fill="#FDFCF5"/>
<circle cx="31.5" cy="54.5" r="1.5" fill="#FDFCF5"/>
<circle cx="40.5" cy="54.5" r="1.5" fill="#FDFCF5"/>
<circle cx="49.5" cy="54.5" r="1.5" fill="#FDFCF5"/>
<circle cx="58.5" cy="54.5" r="1.5" fill="#FDFCF5"/>
<circle cx="67.5" cy="54.5" r="1.5" fill="#FDFCF5"/>
<circle cx="76.5" cy="54.5" r="1.5" fill="#FDFCF5"/>
<circle cx="85.5" cy="54.5" r="1.5" fill="#FDFCF5"/>
<circle cx="94.5" cy="54.5" r="1.5" fill="#FDFCF5"/>
<circle cx="103.5" cy="54.5" r="1.5" fill="#FDFCF5"/>
<circle cx="112.5" cy="54.5" r="1.5" fill="#FDFCF5"/>
<circle cx="121.5" cy="54.5" r="1.5" fill="#FDFCF5"/>
<circle cx="130.5" cy="54.5" r="1.5" fill="#FDFCF5"/>
<circle cx="139.5" cy="54.5" r="1.5" fill="#FDFCF5"/>
<circle cx="148.5" cy="54.5" r="1.5" fill="#FDFCF5"/>
<circle cx="157.5" cy="54.5" r="1.5" fill="#FDFCF5"/>
<circle cx="4.5" cy="63.5" r="1.5" fill="#FDFCF5"/>
<circle cx="13.5" cy="63.5" r="1.5" fill="#FDFCF5"/>
<circle cx="22.5" cy="63.5" r="1.5" fill="#FDFCF5"/>
<circle cx="31.5" cy="63.5" r="1.5" fill="#FDFCF5"/>
<circle cx="40.5" cy="63.5" r="1.5" fill="#FDFCF5"/>
<circle cx="49.5" cy="63.5" r="1.5" fill="#FDFCF5"/>
<circle cx="58.5" cy="63.5" r="1.5" fill="#FDFCF5"/>
<circle cx="67.5" cy="63.5" r="1.5" fill="#FDFCF5"/>
<circle cx="76.5" cy="63.5" r="1.5" fill="#FDFCF5"/>
<circle cx="85.5" cy="63.5" r="1.5" fill="#FDFCF5"/>
<circle cx="94.5" cy="63.5" r="1.5" fill="#FDFCF5"/>
<circle cx="103.5" cy="63.5" r="1.5" fill="#FDFCF5"/>
<circle cx="112.5" cy="63.5" r="1.5" fill="#FDFCF5"/>
<circle cx="121.5" cy="63.5" r="1.5" fill="#FDFCF5"/>
<circle cx="130.5" cy="63.5" r="1.5" fill="#FDFCF5"/>
<circle cx="139.5" cy="63.5" r="1.5" fill="#FDFCF5"/>
<circle cx="148.5" cy="63.5" r="1.5" fill="#FDFCF5"/>
<circle cx="157.5" cy="63.5" r="1.5" fill="#FDFCF5"/>
<circle cx="4.5" cy="72.5" r="1.5" fill="#FDFCF5"/>
<circle cx="13.5" cy="72.5" r="1.5" fill="#FDFCF5"/>
<circle cx="22.5" cy="72.5" r="1.5" fill="#FDFCF5"/>
<circle cx="31.5" cy="72.5" r="1.5" fill="#FDFCF5"/>
<circle cx="40.5" cy="72.5" r="1.5" fill="#FDFCF5"/>
<circle cx="49.5" cy="72.5" r="1.5" fill="#FDFCF5"/>
<circle cx="58.5" cy="72.5" r="1.5" fill="#FDFCF5"/>
<circle cx="67.5" cy="72.5" r="1.5" fill="#FDFCF5"/>
<circle cx="76.5" cy="72.5" r="1.5" fill="#FDFCF5"/>
<circle cx="85.5" cy="72.5" r="1.5" fill="#FDFCF5"/>
<circle cx="94.5" cy="72.5" r="1.5" fill="#FDFCF5"/>
<circle cx="103.5" cy="72.5" r="1.5" fill="#FDFCF5"/>
<circle cx="112.5" cy="72.5" r="1.5" fill="#FDFCF5"/>
<circle cx="121.5" cy="72.5" r="1.5" fill="#FDFCF5"/>
<circle cx="130.5" cy="72.5" r="1.5" fill="#FDFCF5"/>
<circle cx="139.5" cy="72.5" r="1.5" fill="#FDFCF5"/>
<circle cx="148.5" cy="72.5" r="1.5" fill="#FDFCF5"/>
<circle cx="157.5" cy="72.5" r="1.5" fill="#FDFCF5"/>
<circle cx="4.5" cy="81.5" r="1.5" fill="#FDFCF5"/>
<circle cx="13.5" cy="81.5" r="1.5" fill="#FDFCF5"/>
<circle cx="22.5" cy="81.5" r="1.5" fill="#FDFCF5"/>
<circle cx="31.5" cy="81.5" r="1.5" fill="#FDFCF5"/>
<circle cx="40.5" cy="81.5" r="1.5" fill="#FDFCF5"/>
<circle cx="49.5" cy="81.5" r="1.5" fill="#FDFCF5"/>
<circle cx="58.5" cy="81.5" r="1.5" fill="#FDFCF5"/>
<circle cx="67.5" cy="81.5" r="1.5" fill="#FDFCF5"/>
<circle cx="76.5" cy="81.5" r="1.5" fill="#FDFCF5"/>
<circle cx="85.5" cy="81.5" r="1.5" fill="#FDFCF5"/>
<circle cx="94.5" cy="81.5" r="1.5" fill="#FDFCF5"/>
<circle cx="103.5" cy="81.5" r="1.5" fill="#FDFCF5"/>
<circle cx="112.5" cy="81.5" r="1.5" fill="#FDFCF5"/>
<circle cx="121.5" cy="81.5" r="1.5" fill="#FDFCF5"/>
<circle cx="130.5" cy="81.5" r="1.5" fill="#FDFCF5"/>
<circle cx="139.5" cy="81.5" r="1.5" fill="#FDFCF5"/>
<circle cx="148.5" cy="81.5" r="1.5" fill="#FDFCF5"/>
<circle cx="157.5" cy="81.5" r="1.5" fill="#FDFCF5"/>
<circle cx="4.5" cy="90.5" r="1.5" fill="#FDFCF5"/>
<circle cx="13.5" cy="90.5" r="1.5" fill="#FDFCF5"/>
<circle cx="22.5" cy="90.5" r="1.5" fill="#FDFCF5"/>
<circle cx="31.5" cy="90.5" r="1.5" fill="#FDFCF5"/>
<circle cx="40.5" cy="90.5" r="1.5" fill="#FDFCF5"/>
<circle cx="49.5" cy="90.5" r="1.5" fill="#FDFCF5"/>
<circle cx="58.5" cy="90.5" r="1.5" fill="#FDFCF5"/>
<circle cx="67.5" cy="90.5" r="1.5" fill="#FDFCF5"/>
<circle cx="76.5" cy="90.5" r="1.5" fill="#FDFCF5"/>
<circle cx="85.5" cy="90.5" r="1.5" fill="#FDFCF5"/>
<circle cx="94.5" cy="90.5" r="1.5" fill="#FDFCF5"/>
<circle cx="103.5" cy="90.5" r="1.5" fill="#FDFCF5"/>
<circle cx="112.5" cy="90.5" r="1.5" fill="#FDFCF5"/>
<circle cx="121.5" cy="90.5" r="1.5" fill="#FDFCF5"/>
<circle cx="130.5" cy="90.5" r="1.5" fill="#FDFCF5"/>
<circle cx="139.5" cy="90.5" r="1.5" fill="#FDFCF5"/>
<circle cx="148.5" cy="90.5" r="1.5" fill="#FDFCF5"/>
<circle cx="157.5" cy="90.5" r="1.5" fill="#FDFCF5"/>
<circle cx="4.5" cy="99.5" r="1.5" fill="#FDFCF5"/>
<circle cx="13.5" cy="99.5" r="1.5" fill="#FDFCF5"/>
<circle cx="22.5" cy="99.5" r="1.5" fill="#FDFCF5"/>
<circle cx="31.5" cy="99.5" r="1.5" fill="#FDFCF5"/>
<circle cx="40.5" cy="99.5" r="1.5" fill="#FDFCF5"/>
<circle cx="49.5" cy="99.5" r="1.5" fill="#FDFCF5"/>
<circle cx="58.5" cy="99.5" r="1.5" fill="#FDFCF5"/>
<circle cx="67.5" cy="99.5" r="1.5" fill="#FDFCF5"/>
<circle cx="76.5" cy="99.5" r="1.5" fill="#FDFCF5"/>
<circle cx="85.5" cy="99.5" r="1.5" fill="#FDFCF5"/>
<circle cx="94.5" cy="99.5" r="1.5" fill="#FDFCF5"/>
<circle cx="103.5" cy="99.5" r="1.5" fill="#FDFCF5"/>
<circle cx="112.5" cy="99.5" r="1.5" fill="#FDFCF5"/>
<circle cx="121.5" cy="99.5" r="1.5" fill="#FDFCF5"/>
<circle cx="130.5" cy="99.5" r="1.5" fill="#FDFCF5"/>
<circle cx="139.5" cy="99.5" r="1.5" fill="#FDFCF5"/>
<circle cx="148.5" cy="99.5" r="1.5" fill="#FDFCF5"/>
<circle cx="157.5" cy="99.5" r="1.5" fill="#FDFCF5"/>
<circle cx="4.5" cy="108.5" r="1.5" fill="#FDFCF5"/>
<circle cx="13.5" cy="108.5" r="1.5" fill="#FDFCF5"/>
<circle cx="22.5" cy="108.5" r="1.5" fill="#FDFCF5"/>
<circle cx="31.5" cy="108.5" r="1.5" fill="#FDFCF5"/>
<circle cx="40.5" cy="108.5" r="1.5" fill="#FDFCF5"/>
<circle cx="49.5" cy="108.5" r="1.5" fill="#FDFCF5"/>
<circle cx="58.5" cy="108.5" r="1.5" fill="#FDFCF5"/>
<circle cx="67.5" cy="108.5" r="1.5" fill="#FDFCF5"/>
<circle cx="76.5" cy="108.5" r="1.5" fill="#FDFCF5"/>
<circle cx="85.5" cy="108.5" r="1.5" fill="#FDFCF5"/>
<circle cx="94.5" cy="108.5" r="1.5" fill="#FDFCF5"/>
<circle cx="103.5" cy="108.5" r="1.5" fill="#FDFCF5"/>
<circle cx="112.5" cy="108.5" r="1.5" fill="#FDFCF5"/>
<circle cx="121.5" cy="108.5" r="1.5" fill="#FDFCF5"/>
<circle cx="130.5" cy="108.5" r="1.5" fill="#FDFCF5"/>
<circle cx="139.5" cy="108.5" r="1.5" fill="#FDFCF5"/>
<circle cx="148.5" cy="108.5" r="1.5" fill="#FDFCF5"/>
<circle cx="157.5" cy="108.5" r="1.5" fill="#FDFCF5"/>
<circle cx="4.5" cy="117.5" r="1.5" fill="#FDFCF5"/>
<circle cx="13.5" cy="117.5" r="1.5" fill="#FDFCF5"/>
<circle cx="22.5" cy="117.5" r="1.5" fill="#FDFCF5"/>
<circle cx="31.5" cy="117.5" r="1.5" fill="#FDFCF5"/>
<circle cx="40.5" cy="117.5" r="1.5" fill="#FDFCF5"/>
<circle cx="49.5" cy="117.5" r="1.5" fill="#FDFCF5"/>
<circle cx="58.5" cy="117.5" r="1.5" fill="#FDFCF5"/>
<circle cx="67.5" cy="117.5" r="1.5" fill="#FDFCF5"/>
<circle cx="76.5" cy="117.5" r="1.5" fill="#FDFCF5"/>
<circle cx="85.5" cy="117.5" r="1.5" fill="#FDFCF5"/>
<circle cx="94.5" cy="117.5" r="1.5" fill="#FDFCF5"/>
<circle cx="103.5" cy="117.5" r="1.5" fill="#FDFCF5"/>
<circle cx="112.5" cy="117.5" r="1.5" fill="#FDFCF5"/>
<circle cx="121.5" cy="117.5" r="1.5" fill="#FDFCF5"/>
<circle cx="130.5" cy="117.5" r="1.5" fill="#FDFCF5"/>
<circle cx="139.5" cy="117.5" r="1.5" fill="#FDFCF5"/>
<circle cx="148.5" cy="117.5" r="1.5" fill="#FDFCF5"/>
<circle cx="157.5" cy="117.5" r="1.5" fill="#FDFCF5"/>
</g>
</g>
<defs>
<clipPath id="clip0_35_123">
<rect width="161.858" height="128" fill="white"/>
</clipPath>
<clipPath id="clip1_35_123">
<rect width="160" height="117" fill="white" transform="translate(3 8)"/>
</clipPath>
</defs>
</svg>
