<svg width="128" height="128" viewBox="0 0 128 128" fill="none" xmlns="http://www.w3.org/2000/svg">
<g clip-path="url(#clip0_83_891)">
<path d="M39.033 75.2938C45.4419 75.2938 50.6374 70.0983 50.6374 63.6894C50.6374 57.2804 45.4419 52.085 39.033 52.085C32.624 52.085 27.4286 57.2804 27.4286 63.6894C27.4286 70.0983 32.624 75.2938 39.033 75.2938ZM11.6044 98.5025C18.0133 98.5025 23.2088 93.3071 23.2088 86.8981C23.2088 80.4892 18.0133 75.2938 11.6044 75.2938C5.19547 75.2938 0 80.4892 0 86.8981C0 93.3071 5.19547 98.5025 11.6044 98.5025ZM116.396 98.5025C122.805 98.5025 128 93.3071 128 86.8981C128 80.4892 122.805 75.2938 116.396 75.2938C109.987 75.2938 104.791 80.4892 104.791 86.8981C104.791 93.3071 109.987 98.5025 116.396 98.5025Z" fill="black"/>
<path d="M78.2827 64.1784C77.9117 60.3014 77.7228 57.0745 74.7527 54.8066C70.9913 51.9343 66.7306 53.798 61.4822 51.9036C56.3252 50.6561 52.5 46.0773 52.5 40.6197C52.5 34.2023 57.7889 29 64.3132 29C69.1453 29 73.2998 31.8537 75.1298 35.9413C77.9305 41.2611 76.1102 46.675 79.6291 49.4021C83.7957 52.6311 89.4131 50.2665 95.6811 53.3259C97.6951 54.2513 99.3998 55.7192 100.601 57.5385C101.802 59.3577 102.5 61.5283 102.5 63.8592C102.5 69.3167 98.6748 73.8955 93.5178 75.1431C88.2694 77.0374 84.0087 75.1738 80.2473 78.046C76.0175 81.2759 78.2819 86.6793 74.8347 92.3872C72.8781 96.1458 68.9011 98.7183 64.3132 98.7183C57.7889 98.7183 52.5 93.516 52.5 87.0986C52.5 82.4368 55.2909 78.4163 59.3189 76.5653C65.5869 73.5059 71.2043 75.8705 75.3709 72.6415C77.7746 70.7787 78.2827 67.9051 78.2827 64.1784Z" fill="#D0021B"/>
<g clip-path="url(#clip1_83_891)">
<circle cx="1.5" cy="30.5" r="1.5" fill="#FDFCF5"/>
<circle cx="10.5" cy="30.5" r="1.5" fill="#FDFCF5"/>
<circle cx="19.5" cy="30.5" r="1.5" fill="#FDFCF5"/>
<circle cx="28.5" cy="30.5" r="1.5" fill="#FDFCF5"/>
<circle cx="37.5" cy="30.5" r="1.5" fill="#FDFCF5"/>
<circle cx="46.5" cy="30.5" r="1.5" fill="#FDFCF5"/>
<circle cx="55.5" cy="30.5" r="1.5" fill="#FDFCF5"/>
<circle cx="64.5" cy="30.5" r="1.5" fill="#FDFCF5"/>
<circle cx="73.5" cy="30.5" r="1.5" fill="#FDFCF5"/>
<circle cx="82.5" cy="30.5" r="1.5" fill="#FDFCF5"/>
<circle cx="91.5" cy="30.5" r="1.5" fill="#FDFCF5"/>
<circle cx="100.5" cy="30.5" r="1.5" fill="#FDFCF5"/>
<circle cx="109.5" cy="30.5" r="1.5" fill="#FDFCF5"/>
<circle cx="118.5" cy="30.5" r="1.5" fill="#FDFCF5"/>
<circle cx="127.5" cy="30.5" r="1.5" fill="#FDFCF5"/>
<circle cx="1.5" cy="39.5" r="1.5" fill="#FDFCF5"/>
<circle cx="10.5" cy="39.5" r="1.5" fill="#FDFCF5"/>
<circle cx="19.5" cy="39.5" r="1.5" fill="#FDFCF5"/>
<circle cx="28.5" cy="39.5" r="1.5" fill="#FDFCF5"/>
<circle cx="37.5" cy="39.5" r="1.5" fill="#FDFCF5"/>
<circle cx="46.5" cy="39.5" r="1.5" fill="#FDFCF5"/>
<circle cx="55.5" cy="39.5" r="1.5" fill="#FDFCF5"/>
<circle cx="64.5" cy="39.5" r="1.5" fill="#FDFCF5"/>
<circle cx="73.5" cy="39.5" r="1.5" fill="#FDFCF5"/>
<circle cx="82.5" cy="39.5" r="1.5" fill="#FDFCF5"/>
<circle cx="91.5" cy="39.5" r="1.5" fill="#FDFCF5"/>
<circle cx="100.5" cy="39.5" r="1.5" fill="#FDFCF5"/>
<circle cx="109.5" cy="39.5" r="1.5" fill="#FDFCF5"/>
<circle cx="118.5" cy="39.5" r="1.5" fill="#FDFCF5"/>
<circle cx="127.5" cy="39.5" r="1.5" fill="#FDFCF5"/>
<circle cx="1.5" cy="48.5" r="1.5" fill="#FDFCF5"/>
<circle cx="10.5" cy="48.5" r="1.5" fill="#FDFCF5"/>
<circle cx="19.5" cy="48.5" r="1.5" fill="#FDFCF5"/>
<circle cx="28.5" cy="48.5" r="1.5" fill="#FDFCF5"/>
<circle cx="37.5" cy="48.5" r="1.5" fill="#FDFCF5"/>
<circle cx="46.5" cy="48.5" r="1.5" fill="#FDFCF5"/>
<circle cx="55.5" cy="48.5" r="1.5" fill="#FDFCF5"/>
<circle cx="64.5" cy="48.5" r="1.5" fill="#FDFCF5"/>
<circle cx="73.5" cy="48.5" r="1.5" fill="#FDFCF5"/>
<circle cx="82.5" cy="48.5" r="1.5" fill="#FDFCF5"/>
<circle cx="91.5" cy="48.5" r="1.5" fill="#FDFCF5"/>
<circle cx="100.5" cy="48.5" r="1.5" fill="#FDFCF5"/>
<circle cx="109.5" cy="48.5" r="1.5" fill="#FDFCF5"/>
<circle cx="118.5" cy="48.5" r="1.5" fill="#FDFCF5"/>
<circle cx="127.5" cy="48.5" r="1.5" fill="#FDFCF5"/>
<circle cx="1.5" cy="57.5" r="1.5" fill="#FDFCF5"/>
<circle cx="10.5" cy="57.5" r="1.5" fill="#FDFCF5"/>
<circle cx="19.5" cy="57.5" r="1.5" fill="#FDFCF5"/>
<circle cx="28.5" cy="57.5" r="1.5" fill="#FDFCF5"/>
<circle cx="37.5" cy="57.5" r="1.5" fill="#FDFCF5"/>
<circle cx="46.5" cy="57.5" r="1.5" fill="#FDFCF5"/>
<circle cx="55.5" cy="57.5" r="1.5" fill="#FDFCF5"/>
<circle cx="64.5" cy="57.5" r="1.5" fill="#FDFCF5"/>
<circle cx="73.5" cy="57.5" r="1.5" fill="#FDFCF5"/>
<circle cx="82.5" cy="57.5" r="1.5" fill="#FDFCF5"/>
<circle cx="91.5" cy="57.5" r="1.5" fill="#FDFCF5"/>
<circle cx="100.5" cy="57.5" r="1.5" fill="#FDFCF5"/>
<circle cx="109.5" cy="57.5" r="1.5" fill="#FDFCF5"/>
<circle cx="118.5" cy="57.5" r="1.5" fill="#FDFCF5"/>
<circle cx="127.5" cy="57.5" r="1.5" fill="#FDFCF5"/>
<circle cx="1.5" cy="66.5" r="1.5" fill="#FDFCF5"/>
<circle cx="10.5" cy="66.5" r="1.5" fill="#FDFCF5"/>
<circle cx="19.5" cy="66.5" r="1.5" fill="#FDFCF5"/>
<circle cx="28.5" cy="66.5" r="1.5" fill="#FDFCF5"/>
<circle cx="37.5" cy="66.5" r="1.5" fill="#FDFCF5"/>
<circle cx="46.5" cy="66.5" r="1.5" fill="#FDFCF5"/>
<circle cx="55.5" cy="66.5" r="1.5" fill="#FDFCF5"/>
<circle cx="64.5" cy="66.5" r="1.5" fill="#FDFCF5"/>
<circle cx="73.5" cy="66.5" r="1.5" fill="#FDFCF5"/>
<circle cx="82.5" cy="66.5" r="1.5" fill="#FDFCF5"/>
<circle cx="91.5" cy="66.5" r="1.5" fill="#FDFCF5"/>
<circle cx="100.5" cy="66.5" r="1.5" fill="#FDFCF5"/>
<circle cx="109.5" cy="66.5" r="1.5" fill="#FDFCF5"/>
<circle cx="118.5" cy="66.5" r="1.5" fill="#FDFCF5"/>
<circle cx="127.5" cy="66.5" r="1.5" fill="#FDFCF5"/>
<circle cx="1.5" cy="75.5" r="1.5" fill="#FDFCF5"/>
<circle cx="10.5" cy="75.5" r="1.5" fill="#FDFCF5"/>
<circle cx="19.5" cy="75.5" r="1.5" fill="#FDFCF5"/>
<circle cx="28.5" cy="75.5" r="1.5" fill="#FDFCF5"/>
<circle cx="37.5" cy="75.5" r="1.5" fill="#FDFCF5"/>
<circle cx="46.5" cy="75.5" r="1.5" fill="#FDFCF5"/>
<circle cx="55.5" cy="75.5" r="1.5" fill="#FDFCF5"/>
<circle cx="64.5" cy="75.5" r="1.5" fill="#FDFCF5"/>
<circle cx="73.5" cy="75.5" r="1.5" fill="#FDFCF5"/>
<circle cx="82.5" cy="75.5" r="1.5" fill="#FDFCF5"/>
<circle cx="91.5" cy="75.5" r="1.5" fill="#FDFCF5"/>
<circle cx="100.5" cy="75.5" r="1.5" fill="#FDFCF5"/>
<circle cx="109.5" cy="75.5" r="1.5" fill="#FDFCF5"/>
<circle cx="118.5" cy="75.5" r="1.5" fill="#FDFCF5"/>
<circle cx="127.5" cy="75.5" r="1.5" fill="#FDFCF5"/>
<circle cx="1.5" cy="84.5" r="1.5" fill="#FDFCF5"/>
<circle cx="10.5" cy="84.5" r="1.5" fill="#FDFCF5"/>
<circle cx="19.5" cy="84.5" r="1.5" fill="#FDFCF5"/>
<circle cx="28.5" cy="84.5" r="1.5" fill="#FDFCF5"/>
<circle cx="37.5" cy="84.5" r="1.5" fill="#FDFCF5"/>
<circle cx="46.5" cy="84.5" r="1.5" fill="#FDFCF5"/>
<circle cx="55.5" cy="84.5" r="1.5" fill="#FDFCF5"/>
<circle cx="64.5" cy="84.5" r="1.5" fill="#FDFCF5"/>
<circle cx="73.5" cy="84.5" r="1.5" fill="#FDFCF5"/>
<circle cx="82.5" cy="84.5" r="1.5" fill="#FDFCF5"/>
<circle cx="91.5" cy="84.5" r="1.5" fill="#FDFCF5"/>
<circle cx="100.5" cy="84.5" r="1.5" fill="#FDFCF5"/>
<circle cx="109.5" cy="84.5" r="1.5" fill="#FDFCF5"/>
<circle cx="118.5" cy="84.5" r="1.5" fill="#FDFCF5"/>
<circle cx="127.5" cy="84.5" r="1.5" fill="#FDFCF5"/>
<circle cx="1.5" cy="93.5" r="1.5" fill="#FDFCF5"/>
<circle cx="10.5" cy="93.5" r="1.5" fill="#FDFCF5"/>
<circle cx="19.5" cy="93.5" r="1.5" fill="#FDFCF5"/>
<circle cx="28.5" cy="93.5" r="1.5" fill="#FDFCF5"/>
<circle cx="37.5" cy="93.5" r="1.5" fill="#FDFCF5"/>
<circle cx="46.5" cy="93.5" r="1.5" fill="#FDFCF5"/>
<circle cx="55.5" cy="93.5" r="1.5" fill="#FDFCF5"/>
<circle cx="64.5" cy="93.5" r="1.5" fill="#FDFCF5"/>
<circle cx="73.5" cy="93.5" r="1.5" fill="#FDFCF5"/>
<circle cx="82.5" cy="93.5" r="1.5" fill="#FDFCF5"/>
<circle cx="91.5" cy="93.5" r="1.5" fill="#FDFCF5"/>
<circle cx="100.5" cy="93.5" r="1.5" fill="#FDFCF5"/>
<circle cx="109.5" cy="93.5" r="1.5" fill="#FDFCF5"/>
<circle cx="118.5" cy="93.5" r="1.5" fill="#FDFCF5"/>
<circle cx="127.5" cy="93.5" r="1.5" fill="#FDFCF5"/>
<circle cx="1.5" cy="102.5" r="1.5" fill="#FDFCF5"/>
<circle cx="10.5" cy="102.5" r="1.5" fill="#FDFCF5"/>
<circle cx="19.5" cy="102.5" r="1.5" fill="#FDFCF5"/>
<circle cx="28.5" cy="102.5" r="1.5" fill="#FDFCF5"/>
<circle cx="37.5" cy="102.5" r="1.5" fill="#FDFCF5"/>
<circle cx="46.5" cy="102.5" r="1.5" fill="#FDFCF5"/>
<circle cx="55.5" cy="102.5" r="1.5" fill="#FDFCF5"/>
<circle cx="64.5" cy="102.5" r="1.5" fill="#FDFCF5"/>
<circle cx="73.5" cy="102.5" r="1.5" fill="#FDFCF5"/>
<circle cx="82.5" cy="102.5" r="1.5" fill="#FDFCF5"/>
<circle cx="91.5" cy="102.5" r="1.5" fill="#FDFCF5"/>
<circle cx="100.5" cy="102.5" r="1.5" fill="#FDFCF5"/>
<circle cx="109.5" cy="102.5" r="1.5" fill="#FDFCF5"/>
<circle cx="118.5" cy="102.5" r="1.5" fill="#FDFCF5"/>
<circle cx="127.5" cy="102.5" r="1.5" fill="#FDFCF5"/>
</g>
</g>
<defs>
<clipPath id="clip0_83_891">
<rect width="128" height="128" fill="white"/>
</clipPath>
<clipPath id="clip1_83_891">
<rect width="135" height="80" fill="white" transform="translate(0 29)"/>
</clipPath>
</defs>
</svg>
