<svg width="136" height="122" viewBox="0 0 136 122" fill="none" xmlns="http://www.w3.org/2000/svg">
<path d="M88.6873 84.87C79.6873 103.27 63.9273 115.65 43.0773 119.72C39.8804 120.503 36.5986 120.886 33.3073 120.86C21.3073 120.86 10.3073 115.86 4.96725 107.67C-2.20275 96.76 -4.64275 73.63 18.9973 56.52C19.4773 59.13 20.4573 62.71 21.1073 64.83C16.4666 68.2777 12.668 72.7327 9.99725 77.86C5.59725 86.5 6.08725 95.13 11.2973 103.11C14.8973 108.49 20.5973 111.76 27.9273 112.76C37.0826 113.919 46.3706 112.17 54.4772 107.76C67.1872 101.08 75.6572 93.1 81.1973 82.19C79.6307 80.5712 78.7035 78.4397 78.5872 76.19C78.5035 73.7759 79.381 71.4271 81.027 69.6592C82.6731 67.8913 84.9533 66.8486 87.3673 66.76H87.7073C90.0552 66.7482 92.3178 67.6395 94.027 69.2495C95.7361 70.8594 96.7609 73.0648 96.8894 75.4093C97.0179 77.7537 96.2401 80.0579 94.7171 81.8449C93.1941 83.632 91.0424 84.7652 88.7073 85.01L88.6873 84.87ZM117.357 64.67C129.567 78.51 129.897 94.8 125.177 104.25C120.777 112.88 109.177 121.52 93.5773 121.52C86.2949 121.371 79.1309 119.649 72.5773 116.47C74.8673 114.84 78.1173 112.23 79.9073 110.6C84.9611 112.789 90.3999 113.952 95.9073 114.02C106.007 114.02 113.657 109.3 118.217 100.67C121.147 94.97 121.317 88.29 118.547 81.45C115.148 72.8439 109.1 65.5419 101.277 60.6C91.0139 53.6814 78.9147 49.9932 66.5373 50.01H63.6073C62.924 51.5883 61.8125 52.9437 60.3986 53.9228C58.9848 54.9019 57.325 55.4656 55.6073 55.55H55.2972C52.9214 55.5208 50.6506 54.5666 48.967 52.8899C47.2834 51.2133 46.3197 48.9464 46.2807 46.5708C46.2416 44.1951 47.1303 41.8977 48.7578 40.1667C50.3854 38.4356 52.6237 37.4073 54.9972 37.3H55.3273C56.9813 37.3012 58.603 37.7583 60.0143 38.6209C61.4256 39.4836 62.5719 40.7185 63.3273 42.19H65.9373C86.7373 42.19 104.997 50.17 117.357 64.67ZM34.6073 87.67C34.436 86.0094 34.8383 84.3402 35.7472 82.94C26.6273 67.14 21.7473 47.11 29.2373 26.26C34.6073 10.59 48.1273 0 62.7873 0C78.4273 0 94.7173 13.69 96.6673 40.07C94.2272 39.26 90.6673 38.07 88.5273 37.63C87.9973 29 80.7072 7.5 63.4372 7.82C57.2472 7.99 48.1272 10.92 43.4372 16.94C37.6359 24.1262 34.261 32.966 33.7972 42.19C32.698 54.8378 35.6654 67.5061 42.2673 78.35C42.6317 78.2168 43.0202 78.1623 43.4072 78.19H43.7272C46.146 78.1462 48.4831 79.0651 50.2244 80.7445C51.9657 82.4239 52.9685 84.7262 53.0122 87.145C53.056 89.5638 52.1371 91.9009 50.4577 93.6421C48.7783 95.3834 46.476 96.3862 44.0573 96.43H43.7272C41.3676 96.4216 39.1021 95.5029 37.4031 93.8654C35.7041 92.2278 34.7026 89.9978 34.6073 87.64V87.67Z" fill="#764ABC"/>
<g clip-path="url(#clip0_100_259)">
<circle cx="1.5" cy="1.5" r="1.5" fill="#FDFCF5"/>
<circle cx="10.5" cy="1.5" r="1.5" fill="#FDFCF5"/>
<circle cx="19.5" cy="1.5" r="1.5" fill="#FDFCF5"/>
<circle cx="28.5" cy="1.5" r="1.5" fill="#FDFCF5"/>
<circle cx="37.5" cy="1.5" r="1.5" fill="#FDFCF5"/>
<circle cx="46.5" cy="1.5" r="1.5" fill="#FDFCF5"/>
<circle cx="55.5" cy="1.5" r="1.5" fill="#FDFCF5"/>
<circle cx="64.5" cy="1.5" r="1.5" fill="#FDFCF5"/>
<circle cx="73.5" cy="1.5" r="1.5" fill="#FDFCF5"/>
<circle cx="82.5" cy="1.5" r="1.5" fill="#FDFCF5"/>
<circle cx="91.5" cy="1.5" r="1.5" fill="#FDFCF5"/>
<circle cx="100.5" cy="1.5" r="1.5" fill="#FDFCF5"/>
<circle cx="109.5" cy="1.5" r="1.5" fill="#FDFCF5"/>
<circle cx="118.5" cy="1.5" r="1.5" fill="#FDFCF5"/>
<circle cx="127.5" cy="1.5" r="1.5" fill="#FDFCF5"/>
<circle cx="1.5" cy="10.5" r="1.5" fill="#FDFCF5"/>
<circle cx="10.5" cy="10.5" r="1.5" fill="#FDFCF5"/>
<circle cx="19.5" cy="10.5" r="1.5" fill="#FDFCF5"/>
<circle cx="28.5" cy="10.5" r="1.5" fill="#FDFCF5"/>
<circle cx="37.5" cy="10.5" r="1.5" fill="#FDFCF5"/>
<circle cx="46.5" cy="10.5" r="1.5" fill="#FDFCF5"/>
<circle cx="55.5" cy="10.5" r="1.5" fill="#FDFCF5"/>
<circle cx="64.5" cy="10.5" r="1.5" fill="#FDFCF5"/>
<circle cx="73.5" cy="10.5" r="1.5" fill="#FDFCF5"/>
<circle cx="82.5" cy="10.5" r="1.5" fill="#FDFCF5"/>
<circle cx="91.5" cy="10.5" r="1.5" fill="#FDFCF5"/>
<circle cx="100.5" cy="10.5" r="1.5" fill="#FDFCF5"/>
<circle cx="109.5" cy="10.5" r="1.5" fill="#FDFCF5"/>
<circle cx="118.5" cy="10.5" r="1.5" fill="#FDFCF5"/>
<circle cx="127.5" cy="10.5" r="1.5" fill="#FDFCF5"/>
<circle cx="1.5" cy="19.5" r="1.5" fill="#FDFCF5"/>
<circle cx="10.5" cy="19.5" r="1.5" fill="#FDFCF5"/>
<circle cx="19.5" cy="19.5" r="1.5" fill="#FDFCF5"/>
<circle cx="28.5" cy="19.5" r="1.5" fill="#FDFCF5"/>
<circle cx="37.5" cy="19.5" r="1.5" fill="#FDFCF5"/>
<circle cx="46.5" cy="19.5" r="1.5" fill="#FDFCF5"/>
<circle cx="55.5" cy="19.5" r="1.5" fill="#FDFCF5"/>
<circle cx="64.5" cy="19.5" r="1.5" fill="#FDFCF5"/>
<circle cx="73.5" cy="19.5" r="1.5" fill="#FDFCF5"/>
<circle cx="82.5" cy="19.5" r="1.5" fill="#FDFCF5"/>
<circle cx="91.5" cy="19.5" r="1.5" fill="#FDFCF5"/>
<circle cx="100.5" cy="19.5" r="1.5" fill="#FDFCF5"/>
<circle cx="109.5" cy="19.5" r="1.5" fill="#FDFCF5"/>
<circle cx="118.5" cy="19.5" r="1.5" fill="#FDFCF5"/>
<circle cx="127.5" cy="19.5" r="1.5" fill="#FDFCF5"/>
<circle cx="1.5" cy="28.5" r="1.5" fill="#FDFCF5"/>
<circle cx="10.5" cy="28.5" r="1.5" fill="#FDFCF5"/>
<circle cx="19.5" cy="28.5" r="1.5" fill="#FDFCF5"/>
<circle cx="28.5" cy="28.5" r="1.5" fill="#FDFCF5"/>
<circle cx="37.5" cy="28.5" r="1.5" fill="#FDFCF5"/>
<circle cx="46.5" cy="28.5" r="1.5" fill="#FDFCF5"/>
<circle cx="55.5" cy="28.5" r="1.5" fill="#FDFCF5"/>
<circle cx="64.5" cy="28.5" r="1.5" fill="#FDFCF5"/>
<circle cx="73.5" cy="28.5" r="1.5" fill="#FDFCF5"/>
<circle cx="82.5" cy="28.5" r="1.5" fill="#FDFCF5"/>
<circle cx="91.5" cy="28.5" r="1.5" fill="#FDFCF5"/>
<circle cx="100.5" cy="28.5" r="1.5" fill="#FDFCF5"/>
<circle cx="109.5" cy="28.5" r="1.5" fill="#FDFCF5"/>
<circle cx="118.5" cy="28.5" r="1.5" fill="#FDFCF5"/>
<circle cx="127.5" cy="28.5" r="1.5" fill="#FDFCF5"/>
<circle cx="1.5" cy="37.5" r="1.5" fill="#FDFCF5"/>
<circle cx="10.5" cy="37.5" r="1.5" fill="#FDFCF5"/>
<circle cx="19.5" cy="37.5" r="1.5" fill="#FDFCF5"/>
<circle cx="28.5" cy="37.5" r="1.5" fill="#FDFCF5"/>
<circle cx="37.5" cy="37.5" r="1.5" fill="#FDFCF5"/>
<circle cx="46.5" cy="37.5" r="1.5" fill="#FDFCF5"/>
<circle cx="55.5" cy="37.5" r="1.5" fill="#FDFCF5"/>
<circle cx="64.5" cy="37.5" r="1.5" fill="#FDFCF5"/>
<circle cx="73.5" cy="37.5" r="1.5" fill="#FDFCF5"/>
<circle cx="82.5" cy="37.5" r="1.5" fill="#FDFCF5"/>
<circle cx="91.5" cy="37.5" r="1.5" fill="#FDFCF5"/>
<circle cx="100.5" cy="37.5" r="1.5" fill="#FDFCF5"/>
<circle cx="109.5" cy="37.5" r="1.5" fill="#FDFCF5"/>
<circle cx="118.5" cy="37.5" r="1.5" fill="#FDFCF5"/>
<circle cx="127.5" cy="37.5" r="1.5" fill="#FDFCF5"/>
<circle cx="1.5" cy="46.5" r="1.5" fill="#FDFCF5"/>
<circle cx="10.5" cy="46.5" r="1.5" fill="#FDFCF5"/>
<circle cx="19.5" cy="46.5" r="1.5" fill="#FDFCF5"/>
<circle cx="28.5" cy="46.5" r="1.5" fill="#FDFCF5"/>
<circle cx="37.5" cy="46.5" r="1.5" fill="#FDFCF5"/>
<circle cx="46.5" cy="46.5" r="1.5" fill="#FDFCF5"/>
<circle cx="55.5" cy="46.5" r="1.5" fill="#FDFCF5"/>
<circle cx="64.5" cy="46.5" r="1.5" fill="#FDFCF5"/>
<circle cx="73.5" cy="46.5" r="1.5" fill="#FDFCF5"/>
<circle cx="82.5" cy="46.5" r="1.5" fill="#FDFCF5"/>
<circle cx="91.5" cy="46.5" r="1.5" fill="#FDFCF5"/>
<circle cx="100.5" cy="46.5" r="1.5" fill="#FDFCF5"/>
<circle cx="109.5" cy="46.5" r="1.5" fill="#FDFCF5"/>
<circle cx="118.5" cy="46.5" r="1.5" fill="#FDFCF5"/>
<circle cx="127.5" cy="46.5" r="1.5" fill="#FDFCF5"/>
<circle cx="1.5" cy="55.5" r="1.5" fill="#FDFCF5"/>
<circle cx="10.5" cy="55.5" r="1.5" fill="#FDFCF5"/>
<circle cx="19.5" cy="55.5" r="1.5" fill="#FDFCF5"/>
<circle cx="28.5" cy="55.5" r="1.5" fill="#FDFCF5"/>
<circle cx="37.5" cy="55.5" r="1.5" fill="#FDFCF5"/>
<circle cx="46.5" cy="55.5" r="1.5" fill="#FDFCF5"/>
<circle cx="55.5" cy="55.5" r="1.5" fill="#FDFCF5"/>
<circle cx="64.5" cy="55.5" r="1.5" fill="#FDFCF5"/>
<circle cx="73.5" cy="55.5" r="1.5" fill="#FDFCF5"/>
<circle cx="82.5" cy="55.5" r="1.5" fill="#FDFCF5"/>
<circle cx="91.5" cy="55.5" r="1.5" fill="#FDFCF5"/>
<circle cx="100.5" cy="55.5" r="1.5" fill="#FDFCF5"/>
<circle cx="109.5" cy="55.5" r="1.5" fill="#FDFCF5"/>
<circle cx="118.5" cy="55.5" r="1.5" fill="#FDFCF5"/>
<circle cx="127.5" cy="55.5" r="1.5" fill="#FDFCF5"/>
<circle cx="1.5" cy="64.5" r="1.5" fill="#FDFCF5"/>
<circle cx="10.5" cy="64.5" r="1.5" fill="#FDFCF5"/>
<circle cx="19.5" cy="64.5" r="1.5" fill="#FDFCF5"/>
<circle cx="28.5" cy="64.5" r="1.5" fill="#FDFCF5"/>
<circle cx="37.5" cy="64.5" r="1.5" fill="#FDFCF5"/>
<circle cx="46.5" cy="64.5" r="1.5" fill="#FDFCF5"/>
<circle cx="55.5" cy="64.5" r="1.5" fill="#FDFCF5"/>
<circle cx="64.5" cy="64.5" r="1.5" fill="#FDFCF5"/>
<circle cx="73.5" cy="64.5" r="1.5" fill="#FDFCF5"/>
<circle cx="82.5" cy="64.5" r="1.5" fill="#FDFCF5"/>
<circle cx="91.5" cy="64.5" r="1.5" fill="#FDFCF5"/>
<circle cx="100.5" cy="64.5" r="1.5" fill="#FDFCF5"/>
<circle cx="109.5" cy="64.5" r="1.5" fill="#FDFCF5"/>
<circle cx="118.5" cy="64.5" r="1.5" fill="#FDFCF5"/>
<circle cx="127.5" cy="64.5" r="1.5" fill="#FDFCF5"/>
<circle cx="1.5" cy="73.5" r="1.5" fill="#FDFCF5"/>
<circle cx="10.5" cy="73.5" r="1.5" fill="#FDFCF5"/>
<circle cx="19.5" cy="73.5" r="1.5" fill="#FDFCF5"/>
<circle cx="28.5" cy="73.5" r="1.5" fill="#FDFCF5"/>
<circle cx="37.5" cy="73.5" r="1.5" fill="#FDFCF5"/>
<circle cx="46.5" cy="73.5" r="1.5" fill="#FDFCF5"/>
<circle cx="55.5" cy="73.5" r="1.5" fill="#FDFCF5"/>
<circle cx="64.5" cy="73.5" r="1.5" fill="#FDFCF5"/>
<circle cx="73.5" cy="73.5" r="1.5" fill="#FDFCF5"/>
<circle cx="82.5" cy="73.5" r="1.5" fill="#FDFCF5"/>
<circle cx="91.5" cy="73.5" r="1.5" fill="#FDFCF5"/>
<circle cx="100.5" cy="73.5" r="1.5" fill="#FDFCF5"/>
<circle cx="109.5" cy="73.5" r="1.5" fill="#FDFCF5"/>
<circle cx="118.5" cy="73.5" r="1.5" fill="#FDFCF5"/>
<circle cx="127.5" cy="73.5" r="1.5" fill="#FDFCF5"/>
<circle cx="1.5" cy="82.5" r="1.5" fill="#FDFCF5"/>
<circle cx="10.5" cy="82.5" r="1.5" fill="#FDFCF5"/>
<circle cx="19.5" cy="82.5" r="1.5" fill="#FDFCF5"/>
<circle cx="28.5" cy="82.5" r="1.5" fill="#FDFCF5"/>
<circle cx="37.5" cy="82.5" r="1.5" fill="#FDFCF5"/>
<circle cx="46.5" cy="82.5" r="1.5" fill="#FDFCF5"/>
<circle cx="55.5" cy="82.5" r="1.5" fill="#FDFCF5"/>
<circle cx="64.5" cy="82.5" r="1.5" fill="#FDFCF5"/>
<circle cx="73.5" cy="82.5" r="1.5" fill="#FDFCF5"/>
<circle cx="82.5" cy="82.5" r="1.5" fill="#FDFCF5"/>
<circle cx="91.5" cy="82.5" r="1.5" fill="#FDFCF5"/>
<circle cx="100.5" cy="82.5" r="1.5" fill="#FDFCF5"/>
<circle cx="109.5" cy="82.5" r="1.5" fill="#FDFCF5"/>
<circle cx="118.5" cy="82.5" r="1.5" fill="#FDFCF5"/>
<circle cx="127.5" cy="82.5" r="1.5" fill="#FDFCF5"/>
<circle cx="1.5" cy="91.5" r="1.5" fill="#FDFCF5"/>
<circle cx="10.5" cy="91.5" r="1.5" fill="#FDFCF5"/>
<circle cx="19.5" cy="91.5" r="1.5" fill="#FDFCF5"/>
<circle cx="28.5" cy="91.5" r="1.5" fill="#FDFCF5"/>
<circle cx="37.5" cy="91.5" r="1.5" fill="#FDFCF5"/>
<circle cx="46.5" cy="91.5" r="1.5" fill="#FDFCF5"/>
<circle cx="55.5" cy="91.5" r="1.5" fill="#FDFCF5"/>
<circle cx="64.5" cy="91.5" r="1.5" fill="#FDFCF5"/>
<circle cx="73.5" cy="91.5" r="1.5" fill="#FDFCF5"/>
<circle cx="82.5" cy="91.5" r="1.5" fill="#FDFCF5"/>
<circle cx="91.5" cy="91.5" r="1.5" fill="#FDFCF5"/>
<circle cx="100.5" cy="91.5" r="1.5" fill="#FDFCF5"/>
<circle cx="109.5" cy="91.5" r="1.5" fill="#FDFCF5"/>
<circle cx="118.5" cy="91.5" r="1.5" fill="#FDFCF5"/>
<circle cx="127.5" cy="91.5" r="1.5" fill="#FDFCF5"/>
<circle cx="1.5" cy="100.5" r="1.5" fill="#FDFCF5"/>
<circle cx="10.5" cy="100.5" r="1.5" fill="#FDFCF5"/>
<circle cx="19.5" cy="100.5" r="1.5" fill="#FDFCF5"/>
<circle cx="28.5" cy="100.5" r="1.5" fill="#FDFCF5"/>
<circle cx="37.5" cy="100.5" r="1.5" fill="#FDFCF5"/>
<circle cx="46.5" cy="100.5" r="1.5" fill="#FDFCF5"/>
<circle cx="55.5" cy="100.5" r="1.5" fill="#FDFCF5"/>
<circle cx="64.5" cy="100.5" r="1.5" fill="#FDFCF5"/>
<circle cx="73.5" cy="100.5" r="1.5" fill="#FDFCF5"/>
<circle cx="82.5" cy="100.5" r="1.5" fill="#FDFCF5"/>
<circle cx="91.5" cy="100.5" r="1.5" fill="#FDFCF5"/>
<circle cx="100.5" cy="100.5" r="1.5" fill="#FDFCF5"/>
<circle cx="109.5" cy="100.5" r="1.5" fill="#FDFCF5"/>
<circle cx="118.5" cy="100.5" r="1.5" fill="#FDFCF5"/>
<circle cx="127.5" cy="100.5" r="1.5" fill="#FDFCF5"/>
<circle cx="1.5" cy="109.5" r="1.5" fill="#FDFCF5"/>
<circle cx="10.5" cy="109.5" r="1.5" fill="#FDFCF5"/>
<circle cx="19.5" cy="109.5" r="1.5" fill="#FDFCF5"/>
<circle cx="28.5" cy="109.5" r="1.5" fill="#FDFCF5"/>
<circle cx="37.5" cy="109.5" r="1.5" fill="#FDFCF5"/>
<circle cx="46.5" cy="109.5" r="1.5" fill="#FDFCF5"/>
<circle cx="55.5" cy="109.5" r="1.5" fill="#FDFCF5"/>
<circle cx="64.5" cy="109.5" r="1.5" fill="#FDFCF5"/>
<circle cx="73.5" cy="109.5" r="1.5" fill="#FDFCF5"/>
<circle cx="82.5" cy="109.5" r="1.5" fill="#FDFCF5"/>
<circle cx="91.5" cy="109.5" r="1.5" fill="#FDFCF5"/>
<circle cx="100.5" cy="109.5" r="1.5" fill="#FDFCF5"/>
<circle cx="109.5" cy="109.5" r="1.5" fill="#FDFCF5"/>
<circle cx="118.5" cy="109.5" r="1.5" fill="#FDFCF5"/>
<circle cx="127.5" cy="109.5" r="1.5" fill="#FDFCF5"/>
<circle cx="1.5" cy="118.5" r="1.5" fill="#FDFCF5"/>
<circle cx="10.5" cy="118.5" r="1.5" fill="#FDFCF5"/>
<circle cx="19.5" cy="118.5" r="1.5" fill="#FDFCF5"/>
<circle cx="28.5" cy="118.5" r="1.5" fill="#FDFCF5"/>
<circle cx="37.5" cy="118.5" r="1.5" fill="#FDFCF5"/>
<circle cx="46.5" cy="118.5" r="1.5" fill="#FDFCF5"/>
<circle cx="55.5" cy="118.5" r="1.5" fill="#FDFCF5"/>
<circle cx="64.5" cy="118.5" r="1.5" fill="#FDFCF5"/>
<circle cx="73.5" cy="118.5" r="1.5" fill="#FDFCF5"/>
<circle cx="82.5" cy="118.5" r="1.5" fill="#FDFCF5"/>
<circle cx="91.5" cy="118.5" r="1.5" fill="#FDFCF5"/>
<circle cx="100.5" cy="118.5" r="1.5" fill="#FDFCF5"/>
<circle cx="109.5" cy="118.5" r="1.5" fill="#FDFCF5"/>
<circle cx="118.5" cy="118.5" r="1.5" fill="#FDFCF5"/>
<circle cx="127.5" cy="118.5" r="1.5" fill="#FDFCF5"/>
</g>
<defs>
<clipPath id="clip0_100_259">
<rect width="136" height="122" fill="white"/>
</clipPath>
</defs>
</svg>
