<svg width="130" height="134" viewBox="0 0 130 134" fill="none" xmlns="http://www.w3.org/2000/svg">
<path d="M127.577 18.9693L67.4486 126.488C66.2069 128.708 63.0179 128.721 61.7574 126.512L0.437438 18.9793C-0.93516 16.5718 1.12282 13.6559 3.85063 14.1432L64.0436 24.9026C64.4276 24.9712 64.8207 24.9706 65.2044 24.9007L124.138 14.1588C126.857 13.6633 128.925 16.5572 127.577 18.9693Z" fill="url(#paint0_linear_100_2645)"/>
<path d="M92.7162 0.031589L48.2197 8.75033C47.8641 8.81992 47.5417 9.00573 47.3033 9.27856C47.0648 9.55138 46.9238 9.89573 46.9025 10.2574L44.1655 56.4856C44.1015 57.5746 45.1012 58.4196 46.1636 58.1744L58.5522 55.3157C59.7116 55.0481 60.7589 56.0693 60.5205 57.2346L56.8401 75.2582C56.5921 76.4707 57.7309 77.5083 58.9155 77.1487L66.5672 74.8235C67.7536 74.4635 68.8933 75.5039 68.6426 76.7177L62.7935 105.028C62.4275 106.799 64.7829 107.765 65.7652 106.246L66.4213 105.233L102.679 32.8728C103.287 31.6613 102.24 30.28 100.909 30.5367L88.1573 32.9977C86.9586 33.2288 85.9392 32.1129 86.2773 30.9402L94.6003 2.0882C94.9388 0.913254 93.9158 -0.203583 92.7162 0.031589Z" fill="url(#paint1_linear_100_2645)"/>
<g clip-path="url(#clip0_100_2645)">
<circle cx="1.5" cy="1.5" r="1.5" fill="#FDFCF5"/>
<circle cx="10.5" cy="1.5" r="1.5" fill="#FDFCF5"/>
<circle cx="19.5" cy="1.5" r="1.5" fill="#FDFCF5"/>
<circle cx="28.5" cy="1.5" r="1.5" fill="#FDFCF5"/>
<circle cx="37.5" cy="1.5" r="1.5" fill="#FDFCF5"/>
<circle cx="46.5" cy="1.5" r="1.5" fill="#FDFCF5"/>
<circle cx="55.5" cy="1.5" r="1.5" fill="#FDFCF5"/>
<circle cx="64.5" cy="1.5" r="1.5" fill="#FDFCF5"/>
<circle cx="73.5" cy="1.5" r="1.5" fill="#FDFCF5"/>
<circle cx="82.5" cy="1.5" r="1.5" fill="#FDFCF5"/>
<circle cx="91.5" cy="1.5" r="1.5" fill="#FDFCF5"/>
<circle cx="100.5" cy="1.5" r="1.5" fill="#FDFCF5"/>
<circle cx="109.5" cy="1.5" r="1.5" fill="#FDFCF5"/>
<circle cx="118.5" cy="1.5" r="1.5" fill="#FDFCF5"/>
<circle cx="127.5" cy="1.5" r="1.5" fill="#FDFCF5"/>
<circle cx="1.5" cy="10.5" r="1.5" fill="#FDFCF5"/>
<circle cx="10.5" cy="10.5" r="1.5" fill="#FDFCF5"/>
<circle cx="19.5" cy="10.5" r="1.5" fill="#FDFCF5"/>
<circle cx="28.5" cy="10.5" r="1.5" fill="#FDFCF5"/>
<circle cx="37.5" cy="10.5" r="1.5" fill="#FDFCF5"/>
<circle cx="46.5" cy="10.5" r="1.5" fill="#FDFCF5"/>
<circle cx="55.5" cy="10.5" r="1.5" fill="#FDFCF5"/>
<circle cx="64.5" cy="10.5" r="1.5" fill="#FDFCF5"/>
<circle cx="73.5" cy="10.5" r="1.5" fill="#FDFCF5"/>
<circle cx="82.5" cy="10.5" r="1.5" fill="#FDFCF5"/>
<circle cx="91.5" cy="10.5" r="1.5" fill="#FDFCF5"/>
<circle cx="100.5" cy="10.5" r="1.5" fill="#FDFCF5"/>
<circle cx="109.5" cy="10.5" r="1.5" fill="#FDFCF5"/>
<circle cx="118.5" cy="10.5" r="1.5" fill="#FDFCF5"/>
<circle cx="127.5" cy="10.5" r="1.5" fill="#FDFCF5"/>
<circle cx="1.5" cy="19.5" r="1.5" fill="#FDFCF5"/>
<circle cx="10.5" cy="19.5" r="1.5" fill="#FDFCF5"/>
<circle cx="19.5" cy="19.5" r="1.5" fill="#FDFCF5"/>
<circle cx="28.5" cy="19.5" r="1.5" fill="#FDFCF5"/>
<circle cx="37.5" cy="19.5" r="1.5" fill="#FDFCF5"/>
<circle cx="46.5" cy="19.5" r="1.5" fill="#FDFCF5"/>
<circle cx="55.5" cy="19.5" r="1.5" fill="#FDFCF5"/>
<circle cx="64.5" cy="19.5" r="1.5" fill="#FDFCF5"/>
<circle cx="73.5" cy="19.5" r="1.5" fill="#FDFCF5"/>
<circle cx="82.5" cy="19.5" r="1.5" fill="#FDFCF5"/>
<circle cx="91.5" cy="19.5" r="1.5" fill="#FDFCF5"/>
<circle cx="100.5" cy="19.5" r="1.5" fill="#FDFCF5"/>
<circle cx="109.5" cy="19.5" r="1.5" fill="#FDFCF5"/>
<circle cx="118.5" cy="19.5" r="1.5" fill="#FDFCF5"/>
<circle cx="127.5" cy="19.5" r="1.5" fill="#FDFCF5"/>
<circle cx="1.5" cy="28.5" r="1.5" fill="#FDFCF5"/>
<circle cx="10.5" cy="28.5" r="1.5" fill="#FDFCF5"/>
<circle cx="19.5" cy="28.5" r="1.5" fill="#FDFCF5"/>
<circle cx="28.5" cy="28.5" r="1.5" fill="#FDFCF5"/>
<circle cx="37.5" cy="28.5" r="1.5" fill="#FDFCF5"/>
<circle cx="46.5" cy="28.5" r="1.5" fill="#FDFCF5"/>
<circle cx="55.5" cy="28.5" r="1.5" fill="#FDFCF5"/>
<circle cx="64.5" cy="28.5" r="1.5" fill="#FDFCF5"/>
<circle cx="73.5" cy="28.5" r="1.5" fill="#FDFCF5"/>
<circle cx="82.5" cy="28.5" r="1.5" fill="#FDFCF5"/>
<circle cx="91.5" cy="28.5" r="1.5" fill="#FDFCF5"/>
<circle cx="100.5" cy="28.5" r="1.5" fill="#FDFCF5"/>
<circle cx="109.5" cy="28.5" r="1.5" fill="#FDFCF5"/>
<circle cx="118.5" cy="28.5" r="1.5" fill="#FDFCF5"/>
<circle cx="127.5" cy="28.5" r="1.5" fill="#FDFCF5"/>
<circle cx="1.5" cy="37.5" r="1.5" fill="#FDFCF5"/>
<circle cx="10.5" cy="37.5" r="1.5" fill="#FDFCF5"/>
<circle cx="19.5" cy="37.5" r="1.5" fill="#FDFCF5"/>
<circle cx="28.5" cy="37.5" r="1.5" fill="#FDFCF5"/>
<circle cx="37.5" cy="37.5" r="1.5" fill="#FDFCF5"/>
<circle cx="46.5" cy="37.5" r="1.5" fill="#FDFCF5"/>
<circle cx="55.5" cy="37.5" r="1.5" fill="#FDFCF5"/>
<circle cx="64.5" cy="37.5" r="1.5" fill="#FDFCF5"/>
<circle cx="73.5" cy="37.5" r="1.5" fill="#FDFCF5"/>
<circle cx="82.5" cy="37.5" r="1.5" fill="#FDFCF5"/>
<circle cx="91.5" cy="37.5" r="1.5" fill="#FDFCF5"/>
<circle cx="100.5" cy="37.5" r="1.5" fill="#FDFCF5"/>
<circle cx="109.5" cy="37.5" r="1.5" fill="#FDFCF5"/>
<circle cx="118.5" cy="37.5" r="1.5" fill="#FDFCF5"/>
<circle cx="127.5" cy="37.5" r="1.5" fill="#FDFCF5"/>
<circle cx="1.5" cy="46.5" r="1.5" fill="#FDFCF5"/>
<circle cx="10.5" cy="46.5" r="1.5" fill="#FDFCF5"/>
<circle cx="19.5" cy="46.5" r="1.5" fill="#FDFCF5"/>
<circle cx="28.5" cy="46.5" r="1.5" fill="#FDFCF5"/>
<circle cx="37.5" cy="46.5" r="1.5" fill="#FDFCF5"/>
<circle cx="46.5" cy="46.5" r="1.5" fill="#FDFCF5"/>
<circle cx="55.5" cy="46.5" r="1.5" fill="#FDFCF5"/>
<circle cx="64.5" cy="46.5" r="1.5" fill="#FDFCF5"/>
<circle cx="73.5" cy="46.5" r="1.5" fill="#FDFCF5"/>
<circle cx="82.5" cy="46.5" r="1.5" fill="#FDFCF5"/>
<circle cx="91.5" cy="46.5" r="1.5" fill="#FDFCF5"/>
<circle cx="100.5" cy="46.5" r="1.5" fill="#FDFCF5"/>
<circle cx="109.5" cy="46.5" r="1.5" fill="#FDFCF5"/>
<circle cx="118.5" cy="46.5" r="1.5" fill="#FDFCF5"/>
<circle cx="127.5" cy="46.5" r="1.5" fill="#FDFCF5"/>
<circle cx="1.5" cy="55.5" r="1.5" fill="#FDFCF5"/>
<circle cx="10.5" cy="55.5" r="1.5" fill="#FDFCF5"/>
<circle cx="19.5" cy="55.5" r="1.5" fill="#FDFCF5"/>
<circle cx="28.5" cy="55.5" r="1.5" fill="#FDFCF5"/>
<circle cx="37.5" cy="55.5" r="1.5" fill="#FDFCF5"/>
<circle cx="46.5" cy="55.5" r="1.5" fill="#FDFCF5"/>
<circle cx="55.5" cy="55.5" r="1.5" fill="#FDFCF5"/>
<circle cx="64.5" cy="55.5" r="1.5" fill="#FDFCF5"/>
<circle cx="73.5" cy="55.5" r="1.5" fill="#FDFCF5"/>
<circle cx="82.5" cy="55.5" r="1.5" fill="#FDFCF5"/>
<circle cx="91.5" cy="55.5" r="1.5" fill="#FDFCF5"/>
<circle cx="100.5" cy="55.5" r="1.5" fill="#FDFCF5"/>
<circle cx="109.5" cy="55.5" r="1.5" fill="#FDFCF5"/>
<circle cx="118.5" cy="55.5" r="1.5" fill="#FDFCF5"/>
<circle cx="127.5" cy="55.5" r="1.5" fill="#FDFCF5"/>
<circle cx="1.5" cy="64.5" r="1.5" fill="#FDFCF5"/>
<circle cx="10.5" cy="64.5" r="1.5" fill="#FDFCF5"/>
<circle cx="19.5" cy="64.5" r="1.5" fill="#FDFCF5"/>
<circle cx="28.5" cy="64.5" r="1.5" fill="#FDFCF5"/>
<circle cx="37.5" cy="64.5" r="1.5" fill="#FDFCF5"/>
<circle cx="46.5" cy="64.5" r="1.5" fill="#FDFCF5"/>
<circle cx="55.5" cy="64.5" r="1.5" fill="#FDFCF5"/>
<circle cx="64.5" cy="64.5" r="1.5" fill="#FDFCF5"/>
<circle cx="73.5" cy="64.5" r="1.5" fill="#FDFCF5"/>
<circle cx="82.5" cy="64.5" r="1.5" fill="#FDFCF5"/>
<circle cx="91.5" cy="64.5" r="1.5" fill="#FDFCF5"/>
<circle cx="100.5" cy="64.5" r="1.5" fill="#FDFCF5"/>
<circle cx="109.5" cy="64.5" r="1.5" fill="#FDFCF5"/>
<circle cx="118.5" cy="64.5" r="1.5" fill="#FDFCF5"/>
<circle cx="127.5" cy="64.5" r="1.5" fill="#FDFCF5"/>
<circle cx="1.5" cy="73.5" r="1.5" fill="#FDFCF5"/>
<circle cx="10.5" cy="73.5" r="1.5" fill="#FDFCF5"/>
<circle cx="19.5" cy="73.5" r="1.5" fill="#FDFCF5"/>
<circle cx="28.5" cy="73.5" r="1.5" fill="#FDFCF5"/>
<circle cx="37.5" cy="73.5" r="1.5" fill="#FDFCF5"/>
<circle cx="46.5" cy="73.5" r="1.5" fill="#FDFCF5"/>
<circle cx="55.5" cy="73.5" r="1.5" fill="#FDFCF5"/>
<circle cx="64.5" cy="73.5" r="1.5" fill="#FDFCF5"/>
<circle cx="73.5" cy="73.5" r="1.5" fill="#FDFCF5"/>
<circle cx="82.5" cy="73.5" r="1.5" fill="#FDFCF5"/>
<circle cx="91.5" cy="73.5" r="1.5" fill="#FDFCF5"/>
<circle cx="100.5" cy="73.5" r="1.5" fill="#FDFCF5"/>
<circle cx="109.5" cy="73.5" r="1.5" fill="#FDFCF5"/>
<circle cx="118.5" cy="73.5" r="1.5" fill="#FDFCF5"/>
<circle cx="127.5" cy="73.5" r="1.5" fill="#FDFCF5"/>
<circle cx="1.5" cy="82.5" r="1.5" fill="#FDFCF5"/>
<circle cx="10.5" cy="82.5" r="1.5" fill="#FDFCF5"/>
<circle cx="19.5" cy="82.5" r="1.5" fill="#FDFCF5"/>
<circle cx="28.5" cy="82.5" r="1.5" fill="#FDFCF5"/>
<circle cx="37.5" cy="82.5" r="1.5" fill="#FDFCF5"/>
<circle cx="46.5" cy="82.5" r="1.5" fill="#FDFCF5"/>
<circle cx="55.5" cy="82.5" r="1.5" fill="#FDFCF5"/>
<circle cx="64.5" cy="82.5" r="1.5" fill="#FDFCF5"/>
<circle cx="73.5" cy="82.5" r="1.5" fill="#FDFCF5"/>
<circle cx="82.5" cy="82.5" r="1.5" fill="#FDFCF5"/>
<circle cx="91.5" cy="82.5" r="1.5" fill="#FDFCF5"/>
<circle cx="100.5" cy="82.5" r="1.5" fill="#FDFCF5"/>
<circle cx="109.5" cy="82.5" r="1.5" fill="#FDFCF5"/>
<circle cx="118.5" cy="82.5" r="1.5" fill="#FDFCF5"/>
<circle cx="127.5" cy="82.5" r="1.5" fill="#FDFCF5"/>
<circle cx="1.5" cy="91.5" r="1.5" fill="#FDFCF5"/>
<circle cx="10.5" cy="91.5" r="1.5" fill="#FDFCF5"/>
<circle cx="19.5" cy="91.5" r="1.5" fill="#FDFCF5"/>
<circle cx="28.5" cy="91.5" r="1.5" fill="#FDFCF5"/>
<circle cx="37.5" cy="91.5" r="1.5" fill="#FDFCF5"/>
<circle cx="46.5" cy="91.5" r="1.5" fill="#FDFCF5"/>
<circle cx="55.5" cy="91.5" r="1.5" fill="#FDFCF5"/>
<circle cx="64.5" cy="91.5" r="1.5" fill="#FDFCF5"/>
<circle cx="73.5" cy="91.5" r="1.5" fill="#FDFCF5"/>
<circle cx="82.5" cy="91.5" r="1.5" fill="#FDFCF5"/>
<circle cx="91.5" cy="91.5" r="1.5" fill="#FDFCF5"/>
<circle cx="100.5" cy="91.5" r="1.5" fill="#FDFCF5"/>
<circle cx="109.5" cy="91.5" r="1.5" fill="#FDFCF5"/>
<circle cx="118.5" cy="91.5" r="1.5" fill="#FDFCF5"/>
<circle cx="127.5" cy="91.5" r="1.5" fill="#FDFCF5"/>
<circle cx="1.5" cy="100.5" r="1.5" fill="#FDFCF5"/>
<circle cx="10.5" cy="100.5" r="1.5" fill="#FDFCF5"/>
<circle cx="19.5" cy="100.5" r="1.5" fill="#FDFCF5"/>
<circle cx="28.5" cy="100.5" r="1.5" fill="#FDFCF5"/>
<circle cx="37.5" cy="100.5" r="1.5" fill="#FDFCF5"/>
<circle cx="46.5" cy="100.5" r="1.5" fill="#FDFCF5"/>
<circle cx="55.5" cy="100.5" r="1.5" fill="#FDFCF5"/>
<circle cx="64.5" cy="100.5" r="1.5" fill="#FDFCF5"/>
<circle cx="73.5" cy="100.5" r="1.5" fill="#FDFCF5"/>
<circle cx="82.5" cy="100.5" r="1.5" fill="#FDFCF5"/>
<circle cx="91.5" cy="100.5" r="1.5" fill="#FDFCF5"/>
<circle cx="100.5" cy="100.5" r="1.5" fill="#FDFCF5"/>
<circle cx="109.5" cy="100.5" r="1.5" fill="#FDFCF5"/>
<circle cx="118.5" cy="100.5" r="1.5" fill="#FDFCF5"/>
<circle cx="127.5" cy="100.5" r="1.5" fill="#FDFCF5"/>
<circle cx="1.5" cy="109.5" r="1.5" fill="#FDFCF5"/>
<circle cx="10.5" cy="109.5" r="1.5" fill="#FDFCF5"/>
<circle cx="19.5" cy="109.5" r="1.5" fill="#FDFCF5"/>
<circle cx="28.5" cy="109.5" r="1.5" fill="#FDFCF5"/>
<circle cx="37.5" cy="109.5" r="1.5" fill="#FDFCF5"/>
<circle cx="46.5" cy="109.5" r="1.5" fill="#FDFCF5"/>
<circle cx="55.5" cy="109.5" r="1.5" fill="#FDFCF5"/>
<circle cx="64.5" cy="109.5" r="1.5" fill="#FDFCF5"/>
<circle cx="73.5" cy="109.5" r="1.5" fill="#FDFCF5"/>
<circle cx="82.5" cy="109.5" r="1.5" fill="#FDFCF5"/>
<circle cx="91.5" cy="109.5" r="1.5" fill="#FDFCF5"/>
<circle cx="100.5" cy="109.5" r="1.5" fill="#FDFCF5"/>
<circle cx="109.5" cy="109.5" r="1.5" fill="#FDFCF5"/>
<circle cx="118.5" cy="109.5" r="1.5" fill="#FDFCF5"/>
<circle cx="127.5" cy="109.5" r="1.5" fill="#FDFCF5"/>
<circle cx="1.5" cy="118.5" r="1.5" fill="#FDFCF5"/>
<circle cx="10.5" cy="118.5" r="1.5" fill="#FDFCF5"/>
<circle cx="19.5" cy="118.5" r="1.5" fill="#FDFCF5"/>
<circle cx="28.5" cy="118.5" r="1.5" fill="#FDFCF5"/>
<circle cx="37.5" cy="118.5" r="1.5" fill="#FDFCF5"/>
<circle cx="46.5" cy="118.5" r="1.5" fill="#FDFCF5"/>
<circle cx="55.5" cy="118.5" r="1.5" fill="#FDFCF5"/>
<circle cx="64.5" cy="118.5" r="1.5" fill="#FDFCF5"/>
<circle cx="73.5" cy="118.5" r="1.5" fill="#FDFCF5"/>
<circle cx="82.5" cy="118.5" r="1.5" fill="#FDFCF5"/>
<circle cx="91.5" cy="118.5" r="1.5" fill="#FDFCF5"/>
<circle cx="100.5" cy="118.5" r="1.5" fill="#FDFCF5"/>
<circle cx="109.5" cy="118.5" r="1.5" fill="#FDFCF5"/>
<circle cx="118.5" cy="118.5" r="1.5" fill="#FDFCF5"/>
<circle cx="127.5" cy="118.5" r="1.5" fill="#FDFCF5"/>
<circle cx="1.5" cy="127.5" r="1.5" fill="#FDFCF5"/>
<circle cx="10.5" cy="127.5" r="1.5" fill="#FDFCF5"/>
<circle cx="19.5" cy="127.5" r="1.5" fill="#FDFCF5"/>
<circle cx="28.5" cy="127.5" r="1.5" fill="#FDFCF5"/>
<circle cx="37.5" cy="127.5" r="1.5" fill="#FDFCF5"/>
<circle cx="46.5" cy="127.5" r="1.5" fill="#FDFCF5"/>
<circle cx="55.5" cy="127.5" r="1.5" fill="#FDFCF5"/>
<circle cx="64.5" cy="127.5" r="1.5" fill="#FDFCF5"/>
<circle cx="73.5" cy="127.5" r="1.5" fill="#FDFCF5"/>
<circle cx="82.5" cy="127.5" r="1.5" fill="#FDFCF5"/>
<circle cx="91.5" cy="127.5" r="1.5" fill="#FDFCF5"/>
<circle cx="100.5" cy="127.5" r="1.5" fill="#FDFCF5"/>
<circle cx="109.5" cy="127.5" r="1.5" fill="#FDFCF5"/>
<circle cx="118.5" cy="127.5" r="1.5" fill="#FDFCF5"/>
<circle cx="127.5" cy="127.5" r="1.5" fill="#FDFCF5"/>
</g>
<defs>
<linearGradient id="paint0_linear_100_2645" x1="-1.05991" y1="10.3002" x2="73.7703" y2="111.926" gradientUnits="userSpaceOnUse">
<stop stop-color="#41D1FF"/>
<stop offset="1" stop-color="#BD34FE"/>
</linearGradient>
<linearGradient id="paint1_linear_100_2645" x1="60.5853" y1="2.39839" x2="74.1218" y2="95.2568" gradientUnits="userSpaceOnUse">
<stop stop-color="#FFEA83"/>
<stop offset="0.0833" stop-color="#FFDD35"/>
<stop offset="1" stop-color="#FFA800"/>
</linearGradient>
<clipPath id="clip0_100_2645">
<rect width="130" height="134" fill="white"/>
</clipPath>
</defs>
</svg>
