<svg width="128" height="128" viewBox="0 0 128 128" fill="none" xmlns="http://www.w3.org/2000/svg">
<g clip-path="url(#clip0_91_5012)">
<mask id="mask0_91_5012" style="mask-type:luminance" maskUnits="userSpaceOnUse" x="0" y="0" width="128" height="128">
<path d="M0 0H128V128H0V0Z" fill="white"/>
</mask>
<g mask="url(#mask0_91_5012)">
<path d="M30.5855 20.4973H98.3638L118.225 41.2325L62.0292 104.174L9.76685 41.2325L30.5855 20.4973Z" fill="#18253F"/>
<path d="M75.6518 89.3071H49.0863L37.0879 74.6186L71.0888 74.6174L71.09 72.5338H90.5255L75.6518 89.3071Z" fill="#274D82"/>
<path d="M112.522 35.3203L39.2208 77.6407L29.6587 65.6784L86.4063 32.9141L85.364 31.1081L100.479 22.3815L112.522 35.3203Z" fill="#274D82"/>
<path d="M73.2485 20.5179L18.2084 52.2952L9.64844 41.6094L46.4997 20.3333L73.2485 20.5179Z" fill="#274D82"/>
<g filter="url(#filter0_d_91_5012)">
<path d="M101.013 14.2694H28.0069L1.33325 40.8058L61.8913 113.73L66.7223 108.309L126.667 41.0549L101.013 14.2694ZM98.3463 20.5173L118.161 41.2073L62.059 104.152L9.78817 41.2073L30.585 20.5173H98.3463Z" fill="black"/>
</g>
<path d="M101.013 14.2694H28.0069L1.33325 40.8058L61.8913 113.73L66.7223 108.309L126.667 41.0549L101.013 14.2694ZM98.3463 20.5173L118.161 41.2073L62.059 104.152L9.78817 41.2073L30.585 20.5173H98.3463Z" fill="#3068B7"/>
</g>
<g clip-path="url(#clip1_91_5012)">
<circle cx="4.5" cy="18.5" r="1.5" fill="#FDFCF5"/>
<circle cx="13.5" cy="18.5" r="1.5" fill="#FDFCF5"/>
<circle cx="22.5" cy="18.5" r="1.5" fill="#FDFCF5"/>
<circle cx="31.5" cy="18.5" r="1.5" fill="#FDFCF5"/>
<circle cx="40.5" cy="18.5" r="1.5" fill="#FDFCF5"/>
<circle cx="49.5" cy="18.5" r="1.5" fill="#FDFCF5"/>
<circle cx="58.5" cy="18.5" r="1.5" fill="#FDFCF5"/>
<circle cx="67.5" cy="18.5" r="1.5" fill="#FDFCF5"/>
<circle cx="76.5" cy="18.5" r="1.5" fill="#FDFCF5"/>
<circle cx="85.5" cy="18.5" r="1.5" fill="#FDFCF5"/>
<circle cx="94.5" cy="18.5" r="1.5" fill="#FDFCF5"/>
<circle cx="103.5" cy="18.5" r="1.5" fill="#FDFCF5"/>
<circle cx="112.5" cy="18.5" r="1.5" fill="#FDFCF5"/>
<circle cx="121.5" cy="18.5" r="1.5" fill="#FDFCF5"/>
<circle cx="4.5" cy="27.5" r="1.5" fill="#FDFCF5"/>
<circle cx="13.5" cy="27.5" r="1.5" fill="#FDFCF5"/>
<circle cx="22.5" cy="27.5" r="1.5" fill="#FDFCF5"/>
<circle cx="31.5" cy="27.5" r="1.5" fill="#FDFCF5"/>
<circle cx="40.5" cy="27.5" r="1.5" fill="#FDFCF5"/>
<circle cx="49.5" cy="27.5" r="1.5" fill="#FDFCF5"/>
<circle cx="58.5" cy="27.5" r="1.5" fill="#FDFCF5"/>
<circle cx="67.5" cy="27.5" r="1.5" fill="#FDFCF5"/>
<circle cx="76.5" cy="27.5" r="1.5" fill="#FDFCF5"/>
<circle cx="85.5" cy="27.5" r="1.5" fill="#FDFCF5"/>
<circle cx="94.5" cy="27.5" r="1.5" fill="#FDFCF5"/>
<circle cx="103.5" cy="27.5" r="1.5" fill="#FDFCF5"/>
<circle cx="112.5" cy="27.5" r="1.5" fill="#FDFCF5"/>
<circle cx="121.5" cy="27.5" r="1.5" fill="#FDFCF5"/>
<circle cx="4.5" cy="36.5" r="1.5" fill="#FDFCF5"/>
<circle cx="13.5" cy="36.5" r="1.5" fill="#FDFCF5"/>
<circle cx="22.5" cy="36.5" r="1.5" fill="#FDFCF5"/>
<circle cx="31.5" cy="36.5" r="1.5" fill="#FDFCF5"/>
<circle cx="40.5" cy="36.5" r="1.5" fill="#FDFCF5"/>
<circle cx="49.5" cy="36.5" r="1.5" fill="#FDFCF5"/>
<circle cx="58.5" cy="36.5" r="1.5" fill="#FDFCF5"/>
<circle cx="67.5" cy="36.5" r="1.5" fill="#FDFCF5"/>
<circle cx="76.5" cy="36.5" r="1.5" fill="#FDFCF5"/>
<circle cx="85.5" cy="36.5" r="1.5" fill="#FDFCF5"/>
<circle cx="94.5" cy="36.5" r="1.5" fill="#FDFCF5"/>
<circle cx="103.5" cy="36.5" r="1.5" fill="#FDFCF5"/>
<circle cx="112.5" cy="36.5" r="1.5" fill="#FDFCF5"/>
<circle cx="121.5" cy="36.5" r="1.5" fill="#FDFCF5"/>
<circle cx="4.5" cy="45.5" r="1.5" fill="#FDFCF5"/>
<circle cx="13.5" cy="45.5" r="1.5" fill="#FDFCF5"/>
<circle cx="22.5" cy="45.5" r="1.5" fill="#FDFCF5"/>
<circle cx="31.5" cy="45.5" r="1.5" fill="#FDFCF5"/>
<circle cx="40.5" cy="45.5" r="1.5" fill="#FDFCF5"/>
<circle cx="49.5" cy="45.5" r="1.5" fill="#FDFCF5"/>
<circle cx="58.5" cy="45.5" r="1.5" fill="#FDFCF5"/>
<circle cx="67.5" cy="45.5" r="1.5" fill="#FDFCF5"/>
<circle cx="76.5" cy="45.5" r="1.5" fill="#FDFCF5"/>
<circle cx="85.5" cy="45.5" r="1.5" fill="#FDFCF5"/>
<circle cx="94.5" cy="45.5" r="1.5" fill="#FDFCF5"/>
<circle cx="103.5" cy="45.5" r="1.5" fill="#FDFCF5"/>
<circle cx="112.5" cy="45.5" r="1.5" fill="#FDFCF5"/>
<circle cx="121.5" cy="45.5" r="1.5" fill="#FDFCF5"/>
<circle cx="4.5" cy="54.5" r="1.5" fill="#FDFCF5"/>
<circle cx="13.5" cy="54.5" r="1.5" fill="#FDFCF5"/>
<circle cx="22.5" cy="54.5" r="1.5" fill="#FDFCF5"/>
<circle cx="31.5" cy="54.5" r="1.5" fill="#FDFCF5"/>
<circle cx="40.5" cy="54.5" r="1.5" fill="#FDFCF5"/>
<circle cx="49.5" cy="54.5" r="1.5" fill="#FDFCF5"/>
<circle cx="58.5" cy="54.5" r="1.5" fill="#FDFCF5"/>
<circle cx="67.5" cy="54.5" r="1.5" fill="#FDFCF5"/>
<circle cx="76.5" cy="54.5" r="1.5" fill="#FDFCF5"/>
<circle cx="85.5" cy="54.5" r="1.5" fill="#FDFCF5"/>
<circle cx="94.5" cy="54.5" r="1.5" fill="#FDFCF5"/>
<circle cx="103.5" cy="54.5" r="1.5" fill="#FDFCF5"/>
<circle cx="112.5" cy="54.5" r="1.5" fill="#FDFCF5"/>
<circle cx="121.5" cy="54.5" r="1.5" fill="#FDFCF5"/>
<circle cx="4.5" cy="63.5" r="1.5" fill="#FDFCF5"/>
<circle cx="13.5" cy="63.5" r="1.5" fill="#FDFCF5"/>
<circle cx="22.5" cy="63.5" r="1.5" fill="#FDFCF5"/>
<circle cx="31.5" cy="63.5" r="1.5" fill="#FDFCF5"/>
<circle cx="40.5" cy="63.5" r="1.5" fill="#FDFCF5"/>
<circle cx="49.5" cy="63.5" r="1.5" fill="#FDFCF5"/>
<circle cx="58.5" cy="63.5" r="1.5" fill="#FDFCF5"/>
<circle cx="67.5" cy="63.5" r="1.5" fill="#FDFCF5"/>
<circle cx="76.5" cy="63.5" r="1.5" fill="#FDFCF5"/>
<circle cx="85.5" cy="63.5" r="1.5" fill="#FDFCF5"/>
<circle cx="94.5" cy="63.5" r="1.5" fill="#FDFCF5"/>
<circle cx="103.5" cy="63.5" r="1.5" fill="#FDFCF5"/>
<circle cx="112.5" cy="63.5" r="1.5" fill="#FDFCF5"/>
<circle cx="121.5" cy="63.5" r="1.5" fill="#FDFCF5"/>
<circle cx="4.5" cy="72.5" r="1.5" fill="#FDFCF5"/>
<circle cx="13.5" cy="72.5" r="1.5" fill="#FDFCF5"/>
<circle cx="22.5" cy="72.5" r="1.5" fill="#FDFCF5"/>
<circle cx="31.5" cy="72.5" r="1.5" fill="#FDFCF5"/>
<circle cx="40.5" cy="72.5" r="1.5" fill="#FDFCF5"/>
<circle cx="49.5" cy="72.5" r="1.5" fill="#FDFCF5"/>
<circle cx="58.5" cy="72.5" r="1.5" fill="#FDFCF5"/>
<circle cx="67.5" cy="72.5" r="1.5" fill="#FDFCF5"/>
<circle cx="76.5" cy="72.5" r="1.5" fill="#FDFCF5"/>
<circle cx="85.5" cy="72.5" r="1.5" fill="#FDFCF5"/>
<circle cx="94.5" cy="72.5" r="1.5" fill="#FDFCF5"/>
<circle cx="103.5" cy="72.5" r="1.5" fill="#FDFCF5"/>
<circle cx="112.5" cy="72.5" r="1.5" fill="#FDFCF5"/>
<circle cx="121.5" cy="72.5" r="1.5" fill="#FDFCF5"/>
<circle cx="4.5" cy="81.5" r="1.5" fill="#FDFCF5"/>
<circle cx="13.5" cy="81.5" r="1.5" fill="#FDFCF5"/>
<circle cx="22.5" cy="81.5" r="1.5" fill="#FDFCF5"/>
<circle cx="31.5" cy="81.5" r="1.5" fill="#FDFCF5"/>
<circle cx="40.5" cy="81.5" r="1.5" fill="#FDFCF5"/>
<circle cx="49.5" cy="81.5" r="1.5" fill="#FDFCF5"/>
<circle cx="58.5" cy="81.5" r="1.5" fill="#FDFCF5"/>
<circle cx="67.5" cy="81.5" r="1.5" fill="#FDFCF5"/>
<circle cx="76.5" cy="81.5" r="1.5" fill="#FDFCF5"/>
<circle cx="85.5" cy="81.5" r="1.5" fill="#FDFCF5"/>
<circle cx="94.5" cy="81.5" r="1.5" fill="#FDFCF5"/>
<circle cx="103.5" cy="81.5" r="1.5" fill="#FDFCF5"/>
<circle cx="112.5" cy="81.5" r="1.5" fill="#FDFCF5"/>
<circle cx="121.5" cy="81.5" r="1.5" fill="#FDFCF5"/>
<circle cx="4.5" cy="90.5" r="1.5" fill="#FDFCF5"/>
<circle cx="13.5" cy="90.5" r="1.5" fill="#FDFCF5"/>
<circle cx="22.5" cy="90.5" r="1.5" fill="#FDFCF5"/>
<circle cx="31.5" cy="90.5" r="1.5" fill="#FDFCF5"/>
<circle cx="40.5" cy="90.5" r="1.5" fill="#FDFCF5"/>
<circle cx="49.5" cy="90.5" r="1.5" fill="#FDFCF5"/>
<circle cx="58.5" cy="90.5" r="1.5" fill="#FDFCF5"/>
<circle cx="67.5" cy="90.5" r="1.5" fill="#FDFCF5"/>
<circle cx="76.5" cy="90.5" r="1.5" fill="#FDFCF5"/>
<circle cx="85.5" cy="90.5" r="1.5" fill="#FDFCF5"/>
<circle cx="94.5" cy="90.5" r="1.5" fill="#FDFCF5"/>
<circle cx="103.5" cy="90.5" r="1.5" fill="#FDFCF5"/>
<circle cx="112.5" cy="90.5" r="1.5" fill="#FDFCF5"/>
<circle cx="121.5" cy="90.5" r="1.5" fill="#FDFCF5"/>
<circle cx="4.5" cy="99.5" r="1.5" fill="#FDFCF5"/>
<circle cx="13.5" cy="99.5" r="1.5" fill="#FDFCF5"/>
<circle cx="22.5" cy="99.5" r="1.5" fill="#FDFCF5"/>
<circle cx="31.5" cy="99.5" r="1.5" fill="#FDFCF5"/>
<circle cx="40.5" cy="99.5" r="1.5" fill="#FDFCF5"/>
<circle cx="49.5" cy="99.5" r="1.5" fill="#FDFCF5"/>
<circle cx="58.5" cy="99.5" r="1.5" fill="#FDFCF5"/>
<circle cx="67.5" cy="99.5" r="1.5" fill="#FDFCF5"/>
<circle cx="76.5" cy="99.5" r="1.5" fill="#FDFCF5"/>
<circle cx="85.5" cy="99.5" r="1.5" fill="#FDFCF5"/>
<circle cx="94.5" cy="99.5" r="1.5" fill="#FDFCF5"/>
<circle cx="103.5" cy="99.5" r="1.5" fill="#FDFCF5"/>
<circle cx="112.5" cy="99.5" r="1.5" fill="#FDFCF5"/>
<circle cx="121.5" cy="99.5" r="1.5" fill="#FDFCF5"/>
<circle cx="4.5" cy="108.5" r="1.5" fill="#FDFCF5"/>
<circle cx="13.5" cy="108.5" r="1.5" fill="#FDFCF5"/>
<circle cx="22.5" cy="108.5" r="1.5" fill="#FDFCF5"/>
<circle cx="31.5" cy="108.5" r="1.5" fill="#FDFCF5"/>
<circle cx="40.5" cy="108.5" r="1.5" fill="#FDFCF5"/>
<circle cx="49.5" cy="108.5" r="1.5" fill="#FDFCF5"/>
<circle cx="58.5" cy="108.5" r="1.5" fill="#FDFCF5"/>
<circle cx="67.5" cy="108.5" r="1.5" fill="#FDFCF5"/>
<circle cx="76.5" cy="108.5" r="1.5" fill="#FDFCF5"/>
<circle cx="85.5" cy="108.5" r="1.5" fill="#FDFCF5"/>
<circle cx="94.5" cy="108.5" r="1.5" fill="#FDFCF5"/>
<circle cx="103.5" cy="108.5" r="1.5" fill="#FDFCF5"/>
<circle cx="112.5" cy="108.5" r="1.5" fill="#FDFCF5"/>
<circle cx="121.5" cy="108.5" r="1.5" fill="#FDFCF5"/>
</g>
</g>
<defs>
<filter id="filter0_d_91_5012" x="0.583252" y="13.5194" width="127.333" height="101.46" filterUnits="userSpaceOnUse" color-interpolation-filters="sRGB">
<feFlood flood-opacity="0" result="BackgroundImageFix"/>
<feColorMatrix in="SourceAlpha" type="matrix" values="0 0 0 0 0 0 0 0 0 0 0 0 0 0 0 0 0 0 127 0" result="hardAlpha"/>
<feOffset dx="0.25" dy="0.25"/>
<feGaussianBlur stdDeviation="0.5"/>
<feColorMatrix type="matrix" values="0 0 0 0 0 0 0 0 0 0 0 0 0 0 0 0 0 0 0.36 0"/>
<feBlend mode="normal" in2="BackgroundImageFix" result="effect1_dropShadow_91_5012"/>
<feBlend mode="normal" in="SourceGraphic" in2="effect1_dropShadow_91_5012" result="shape"/>
</filter>
<clipPath id="clip0_91_5012">
<rect width="128" height="128" fill="white"/>
</clipPath>
<clipPath id="clip1_91_5012">
<rect width="125" height="99" fill="white" transform="translate(3 17)"/>
</clipPath>
</defs>
</svg>
