<svg width="129" height="105" viewBox="0 0 129 105" fill="none" xmlns="http://www.w3.org/2000/svg">
<path d="M66.7496 65.5061L6.58977 27.2214C3.4796 25.1646 1.3016 21.9686 0.524767 18.3217C-0.252065 14.6747 0.434416 10.8686 2.43639 7.72282C4.43836 4.57707 7.59567 2.34335 11.2284 1.50269C14.8612 0.662023 18.6788 1.28165 21.8592 3.22815L65.9954 31.3136L105.624 3.57328C108.715 1.47815 112.507 0.68328 116.18 1.36034C119.853 2.0374 123.112 4.13206 125.254 7.19189C127.395 10.2517 128.247 14.0311 127.626 17.7139C127.004 21.3966 124.959 24.687 121.932 26.8744L66.7496 65.5061Z" fill="#EA4435"/>
<path d="M118.519 100.559H99.5556L99.5556 15.2255C99.5556 11.4536 101.054 7.83608 103.721 5.16891C106.388 2.50173 110.006 1.00333 113.778 1.00333C117.55 1.00333 121.167 2.50173 123.834 5.16891C126.502 7.83608 128 11.4536 128 15.2255L128 91.0771C128 93.5918 127.001 96.0034 125.223 97.7815C123.445 99.5597 121.033 100.559 118.519 100.559Z" fill="#00AC47"/>
<path d="M127.792 13.1629C127.75 12.8784 127.754 12.5878 127.694 12.3038C127.603 11.8686 127.434 11.4666 127.304 11.0466C127.178 10.5658 127.027 10.0922 126.85 9.62769C126.755 9.40251 126.609 9.20482 126.502 8.9858C126.207 8.35386 125.865 7.74459 125.481 7.16299C125.291 6.88756 125.054 6.65289 124.844 6.39215C124.485 5.91826 124.096 5.46718 123.68 5.04152C123.365 4.73479 123.006 4.47832 122.663 4.20193C122.299 3.8896 121.919 3.59578 121.525 3.32158C121.149 3.07601 120.738 2.88685 120.34 2.67731C119.921 2.45877 119.511 2.22078 119.074 2.04632C118.653 1.87661 118.204 1.76852 117.763 1.6391C117.323 1.50967 116.885 1.35465 116.432 1.27074C115.872 1.18074 115.307 1.12375 114.74 1.10008C114.38 1.07495 114.024 1.0119 113.662 1.01474C112.992 1.03429 112.323 1.10162 111.662 1.21622C111.395 1.25604 111.127 1.25273 110.862 1.30772C109.967 1.58105 109.075 1.86234 108.185 2.15157C107.941 2.25586 107.727 2.41089 107.491 2.52846C105.083 3.65181 103.053 5.44838 101.645 7.70103C100.236 9.95368 99.5108 12.566 99.5554 15.2222V42.5383L121.932 26.8735C124.129 25.3988 125.852 23.3189 126.892 20.8854C127.932 18.4519 128.245 15.7701 127.792 13.1629Z" fill="#FFBA00"/>
<path d="M14.2222 1C17.9941 1 21.6116 2.4984 24.2788 5.16558C26.946 7.83276 28.4444 11.4502 28.4444 15.2222V100.555H9.48145C6.96682 100.555 4.55517 99.5563 2.77705 97.7782C0.998936 96.0001 0 93.5885 0 91.0738V15.2222C0 11.4502 1.4984 7.83276 4.16558 5.16558C6.83276 2.4984 10.4502 1 14.2222 1Z" fill="#4285F4"/>
<path d="M0.208074 13.1629C0.249792 12.8784 0.246474 12.5878 0.305733 12.3039C0.396755 11.8687 0.565999 11.4666 0.695894 11.0466C0.821817 10.566 0.973422 10.0925 1.15006 9.62819C1.24487 9.40301 1.39088 9.20532 1.49897 8.9863C1.79375 8.35409 2.13508 7.74466 2.52013 7.16301C2.70976 6.88758 2.94679 6.65291 3.15633 6.39217C3.51576 5.91829 3.9043 5.46721 4.31971 5.04154C4.63496 4.73481 4.99431 4.47834 5.33754 4.20195C5.70171 3.8895 6.08145 3.59567 6.47531 3.3216C6.85125 3.07603 7.26275 2.88688 7.6605 2.67734C8.07153 2.44484 8.49399 2.23314 8.92627 2.04303C9.3482 1.87331 9.79762 1.76522 10.2376 1.6358C10.6775 1.50638 11.116 1.35136 11.5683 1.26744C12.1286 1.17746 12.6937 1.12048 13.2607 1.09678C13.621 1.07165 13.977 1.0086 14.3383 1.01145C15.0089 1.03097 15.6773 1.0983 16.3384 1.21293C16.6053 1.25275 16.8741 1.24943 17.1396 1.30442C17.5985 1.42135 18.051 1.56186 18.4954 1.7254C18.9423 1.84418 19.383 1.98532 19.8157 2.14827C20.0594 2.25257 20.2732 2.40759 20.5102 2.52516C21.1248 2.81387 21.7176 3.14659 22.2842 3.52071C24.1835 4.82484 25.7369 6.57166 26.8101 8.61035C27.8833 10.649 28.4442 12.9183 28.4443 15.2222V42.5383L6.06809 26.8745C3.87112 25.3994 2.14853 23.3194 1.10858 20.886C0.0686278 18.4527 -0.244146 15.7702 0.208074 13.1629Z" fill="#C52528"/>
<g clip-path="url(#clip0_103_3033)">
<circle cx="1.5" cy="1.5" r="1.5" fill="#F4F2E9"/>
<circle cx="10.5" cy="1.5" r="1.5" fill="#F4F2E9"/>
<circle cx="19.5" cy="1.5" r="1.5" fill="#F4F2E9"/>
<circle cx="28.5" cy="1.5" r="1.5" fill="#F4F2E9"/>
<circle cx="37.5" cy="1.5" r="1.5" fill="#F4F2E9"/>
<circle cx="46.5" cy="1.5" r="1.5" fill="#F4F2E9"/>
<circle cx="55.5" cy="1.5" r="1.5" fill="#F4F2E9"/>
<circle cx="64.5" cy="1.5" r="1.5" fill="#F4F2E9"/>
<circle cx="73.5" cy="1.5" r="1.5" fill="#F4F2E9"/>
<circle cx="82.5" cy="1.5" r="1.5" fill="#F4F2E9"/>
<circle cx="91.5" cy="1.5" r="1.5" fill="#F4F2E9"/>
<circle cx="100.5" cy="1.5" r="1.5" fill="#F4F2E9"/>
<circle cx="109.5" cy="1.5" r="1.5" fill="#F4F2E9"/>
<circle cx="118.5" cy="1.5" r="1.5" fill="#F4F2E9"/>
<circle cx="127.5" cy="1.5" r="1.5" fill="#F4F2E9"/>
<circle cx="1.5" cy="10.5" r="1.5" fill="#F4F2E9"/>
<circle cx="10.5" cy="10.5" r="1.5" fill="#F4F2E9"/>
<circle cx="19.5" cy="10.5" r="1.5" fill="#F4F2E9"/>
<circle cx="28.5" cy="10.5" r="1.5" fill="#F4F2E9"/>
<circle cx="37.5" cy="10.5" r="1.5" fill="#F4F2E9"/>
<circle cx="46.5" cy="10.5" r="1.5" fill="#F4F2E9"/>
<circle cx="55.5" cy="10.5" r="1.5" fill="#F4F2E9"/>
<circle cx="64.5" cy="10.5" r="1.5" fill="#F4F2E9"/>
<circle cx="73.5" cy="10.5" r="1.5" fill="#F4F2E9"/>
<circle cx="82.5" cy="10.5" r="1.5" fill="#F4F2E9"/>
<circle cx="91.5" cy="10.5" r="1.5" fill="#F4F2E9"/>
<circle cx="100.5" cy="10.5" r="1.5" fill="#F4F2E9"/>
<circle cx="109.5" cy="10.5" r="1.5" fill="#F4F2E9"/>
<circle cx="118.5" cy="10.5" r="1.5" fill="#F4F2E9"/>
<circle cx="127.5" cy="10.5" r="1.5" fill="#F4F2E9"/>
<circle cx="1.5" cy="19.5" r="1.5" fill="#F4F2E9"/>
<circle cx="10.5" cy="19.5" r="1.5" fill="#F4F2E9"/>
<circle cx="19.5" cy="19.5" r="1.5" fill="#F4F2E9"/>
<circle cx="28.5" cy="19.5" r="1.5" fill="#F4F2E9"/>
<circle cx="37.5" cy="19.5" r="1.5" fill="#F4F2E9"/>
<circle cx="46.5" cy="19.5" r="1.5" fill="#F4F2E9"/>
<circle cx="55.5" cy="19.5" r="1.5" fill="#F4F2E9"/>
<circle cx="64.5" cy="19.5" r="1.5" fill="#F4F2E9"/>
<circle cx="73.5" cy="19.5" r="1.5" fill="#F4F2E9"/>
<circle cx="82.5" cy="19.5" r="1.5" fill="#F4F2E9"/>
<circle cx="91.5" cy="19.5" r="1.5" fill="#F4F2E9"/>
<circle cx="100.5" cy="19.5" r="1.5" fill="#F4F2E9"/>
<circle cx="109.5" cy="19.5" r="1.5" fill="#F4F2E9"/>
<circle cx="118.5" cy="19.5" r="1.5" fill="#F4F2E9"/>
<circle cx="127.5" cy="19.5" r="1.5" fill="#F4F2E9"/>
<circle cx="1.5" cy="28.5" r="1.5" fill="#F4F2E9"/>
<circle cx="10.5" cy="28.5" r="1.5" fill="#F4F2E9"/>
<circle cx="19.5" cy="28.5" r="1.5" fill="#F4F2E9"/>
<circle cx="28.5" cy="28.5" r="1.5" fill="#F4F2E9"/>
<circle cx="37.5" cy="28.5" r="1.5" fill="#F4F2E9"/>
<circle cx="46.5" cy="28.5" r="1.5" fill="#F4F2E9"/>
<circle cx="55.5" cy="28.5" r="1.5" fill="#F4F2E9"/>
<circle cx="64.5" cy="28.5" r="1.5" fill="#F4F2E9"/>
<circle cx="73.5" cy="28.5" r="1.5" fill="#F4F2E9"/>
<circle cx="82.5" cy="28.5" r="1.5" fill="#F4F2E9"/>
<circle cx="91.5" cy="28.5" r="1.5" fill="#F4F2E9"/>
<circle cx="100.5" cy="28.5" r="1.5" fill="#F4F2E9"/>
<circle cx="109.5" cy="28.5" r="1.5" fill="#F4F2E9"/>
<circle cx="118.5" cy="28.5" r="1.5" fill="#F4F2E9"/>
<circle cx="127.5" cy="28.5" r="1.5" fill="#F4F2E9"/>
<circle cx="1.5" cy="37.5" r="1.5" fill="#F4F2E9"/>
<circle cx="10.5" cy="37.5" r="1.5" fill="#F4F2E9"/>
<circle cx="19.5" cy="37.5" r="1.5" fill="#F4F2E9"/>
<circle cx="28.5" cy="37.5" r="1.5" fill="#F4F2E9"/>
<circle cx="37.5" cy="37.5" r="1.5" fill="#F4F2E9"/>
<circle cx="46.5" cy="37.5" r="1.5" fill="#F4F2E9"/>
<circle cx="55.5" cy="37.5" r="1.5" fill="#F4F2E9"/>
<circle cx="64.5" cy="37.5" r="1.5" fill="#F4F2E9"/>
<circle cx="73.5" cy="37.5" r="1.5" fill="#F4F2E9"/>
<circle cx="82.5" cy="37.5" r="1.5" fill="#F4F2E9"/>
<circle cx="91.5" cy="37.5" r="1.5" fill="#F4F2E9"/>
<circle cx="100.5" cy="37.5" r="1.5" fill="#F4F2E9"/>
<circle cx="109.5" cy="37.5" r="1.5" fill="#F4F2E9"/>
<circle cx="118.5" cy="37.5" r="1.5" fill="#F4F2E9"/>
<circle cx="127.5" cy="37.5" r="1.5" fill="#F4F2E9"/>
<circle cx="1.5" cy="46.5" r="1.5" fill="#F4F2E9"/>
<circle cx="10.5" cy="46.5" r="1.5" fill="#F4F2E9"/>
<circle cx="19.5" cy="46.5" r="1.5" fill="#F4F2E9"/>
<circle cx="28.5" cy="46.5" r="1.5" fill="#F4F2E9"/>
<circle cx="37.5" cy="46.5" r="1.5" fill="#F4F2E9"/>
<circle cx="46.5" cy="46.5" r="1.5" fill="#F4F2E9"/>
<circle cx="55.5" cy="46.5" r="1.5" fill="#F4F2E9"/>
<circle cx="64.5" cy="46.5" r="1.5" fill="#F4F2E9"/>
<circle cx="73.5" cy="46.5" r="1.5" fill="#F4F2E9"/>
<circle cx="82.5" cy="46.5" r="1.5" fill="#F4F2E9"/>
<circle cx="91.5" cy="46.5" r="1.5" fill="#F4F2E9"/>
<circle cx="100.5" cy="46.5" r="1.5" fill="#F4F2E9"/>
<circle cx="109.5" cy="46.5" r="1.5" fill="#F4F2E9"/>
<circle cx="118.5" cy="46.5" r="1.5" fill="#F4F2E9"/>
<circle cx="127.5" cy="46.5" r="1.5" fill="#F4F2E9"/>
<circle cx="1.5" cy="55.5" r="1.5" fill="#F4F2E9"/>
<circle cx="10.5" cy="55.5" r="1.5" fill="#F4F2E9"/>
<circle cx="19.5" cy="55.5" r="1.5" fill="#F4F2E9"/>
<circle cx="28.5" cy="55.5" r="1.5" fill="#F4F2E9"/>
<circle cx="37.5" cy="55.5" r="1.5" fill="#F4F2E9"/>
<circle cx="46.5" cy="55.5" r="1.5" fill="#F4F2E9"/>
<circle cx="55.5" cy="55.5" r="1.5" fill="#F4F2E9"/>
<circle cx="64.5" cy="55.5" r="1.5" fill="#F4F2E9"/>
<circle cx="73.5" cy="55.5" r="1.5" fill="#F4F2E9"/>
<circle cx="82.5" cy="55.5" r="1.5" fill="#F4F2E9"/>
<circle cx="91.5" cy="55.5" r="1.5" fill="#F4F2E9"/>
<circle cx="100.5" cy="55.5" r="1.5" fill="#F4F2E9"/>
<circle cx="109.5" cy="55.5" r="1.5" fill="#F4F2E9"/>
<circle cx="118.5" cy="55.5" r="1.5" fill="#F4F2E9"/>
<circle cx="127.5" cy="55.5" r="1.5" fill="#F4F2E9"/>
<circle cx="1.5" cy="64.5" r="1.5" fill="#F4F2E9"/>
<circle cx="10.5" cy="64.5" r="1.5" fill="#F4F2E9"/>
<circle cx="19.5" cy="64.5" r="1.5" fill="#F4F2E9"/>
<circle cx="28.5" cy="64.5" r="1.5" fill="#F4F2E9"/>
<circle cx="37.5" cy="64.5" r="1.5" fill="#F4F2E9"/>
<circle cx="46.5" cy="64.5" r="1.5" fill="#F4F2E9"/>
<circle cx="55.5" cy="64.5" r="1.5" fill="#F4F2E9"/>
<circle cx="64.5" cy="64.5" r="1.5" fill="#F4F2E9"/>
<circle cx="73.5" cy="64.5" r="1.5" fill="#F4F2E9"/>
<circle cx="82.5" cy="64.5" r="1.5" fill="#F4F2E9"/>
<circle cx="91.5" cy="64.5" r="1.5" fill="#F4F2E9"/>
<circle cx="100.5" cy="64.5" r="1.5" fill="#F4F2E9"/>
<circle cx="109.5" cy="64.5" r="1.5" fill="#F4F2E9"/>
<circle cx="118.5" cy="64.5" r="1.5" fill="#F4F2E9"/>
<circle cx="127.5" cy="64.5" r="1.5" fill="#F4F2E9"/>
<circle cx="1.5" cy="73.5" r="1.5" fill="#F4F2E9"/>
<circle cx="10.5" cy="73.5" r="1.5" fill="#F4F2E9"/>
<circle cx="19.5" cy="73.5" r="1.5" fill="#F4F2E9"/>
<circle cx="28.5" cy="73.5" r="1.5" fill="#F4F2E9"/>
<circle cx="37.5" cy="73.5" r="1.5" fill="#F4F2E9"/>
<circle cx="46.5" cy="73.5" r="1.5" fill="#F4F2E9"/>
<circle cx="55.5" cy="73.5" r="1.5" fill="#F4F2E9"/>
<circle cx="64.5" cy="73.5" r="1.5" fill="#F4F2E9"/>
<circle cx="73.5" cy="73.5" r="1.5" fill="#F4F2E9"/>
<circle cx="82.5" cy="73.5" r="1.5" fill="#F4F2E9"/>
<circle cx="91.5" cy="73.5" r="1.5" fill="#F4F2E9"/>
<circle cx="100.5" cy="73.5" r="1.5" fill="#F4F2E9"/>
<circle cx="109.5" cy="73.5" r="1.5" fill="#F4F2E9"/>
<circle cx="118.5" cy="73.5" r="1.5" fill="#F4F2E9"/>
<circle cx="127.5" cy="73.5" r="1.5" fill="#F4F2E9"/>
<circle cx="1.5" cy="82.5" r="1.5" fill="#F4F2E9"/>
<circle cx="10.5" cy="82.5" r="1.5" fill="#F4F2E9"/>
<circle cx="19.5" cy="82.5" r="1.5" fill="#F4F2E9"/>
<circle cx="28.5" cy="82.5" r="1.5" fill="#F4F2E9"/>
<circle cx="37.5" cy="82.5" r="1.5" fill="#F4F2E9"/>
<circle cx="46.5" cy="82.5" r="1.5" fill="#F4F2E9"/>
<circle cx="55.5" cy="82.5" r="1.5" fill="#F4F2E9"/>
<circle cx="64.5" cy="82.5" r="1.5" fill="#F4F2E9"/>
<circle cx="73.5" cy="82.5" r="1.5" fill="#F4F2E9"/>
<circle cx="82.5" cy="82.5" r="1.5" fill="#F4F2E9"/>
<circle cx="91.5" cy="82.5" r="1.5" fill="#F4F2E9"/>
<circle cx="100.5" cy="82.5" r="1.5" fill="#F4F2E9"/>
<circle cx="109.5" cy="82.5" r="1.5" fill="#F4F2E9"/>
<circle cx="118.5" cy="82.5" r="1.5" fill="#F4F2E9"/>
<circle cx="127.5" cy="82.5" r="1.5" fill="#F4F2E9"/>
<circle cx="1.5" cy="91.5" r="1.5" fill="#F4F2E9"/>
<circle cx="10.5" cy="91.5" r="1.5" fill="#F4F2E9"/>
<circle cx="19.5" cy="91.5" r="1.5" fill="#F4F2E9"/>
<circle cx="28.5" cy="91.5" r="1.5" fill="#F4F2E9"/>
<circle cx="37.5" cy="91.5" r="1.5" fill="#F4F2E9"/>
<circle cx="46.5" cy="91.5" r="1.5" fill="#F4F2E9"/>
<circle cx="55.5" cy="91.5" r="1.5" fill="#F4F2E9"/>
<circle cx="64.5" cy="91.5" r="1.5" fill="#F4F2E9"/>
<circle cx="73.5" cy="91.5" r="1.5" fill="#F4F2E9"/>
<circle cx="82.5" cy="91.5" r="1.5" fill="#F4F2E9"/>
<circle cx="91.5" cy="91.5" r="1.5" fill="#F4F2E9"/>
<circle cx="100.5" cy="91.5" r="1.5" fill="#F4F2E9"/>
<circle cx="109.5" cy="91.5" r="1.5" fill="#F4F2E9"/>
<circle cx="118.5" cy="91.5" r="1.5" fill="#F4F2E9"/>
<circle cx="127.5" cy="91.5" r="1.5" fill="#F4F2E9"/>
<circle cx="1.5" cy="100.5" r="1.5" fill="#F4F2E9"/>
<circle cx="10.5" cy="100.5" r="1.5" fill="#F4F2E9"/>
<circle cx="19.5" cy="100.5" r="1.5" fill="#F4F2E9"/>
<circle cx="28.5" cy="100.5" r="1.5" fill="#F4F2E9"/>
<circle cx="37.5" cy="100.5" r="1.5" fill="#F4F2E9"/>
<circle cx="46.5" cy="100.5" r="1.5" fill="#F4F2E9"/>
<circle cx="55.5" cy="100.5" r="1.5" fill="#F4F2E9"/>
<circle cx="64.5" cy="100.5" r="1.5" fill="#F4F2E9"/>
<circle cx="73.5" cy="100.5" r="1.5" fill="#F4F2E9"/>
<circle cx="82.5" cy="100.5" r="1.5" fill="#F4F2E9"/>
<circle cx="91.5" cy="100.5" r="1.5" fill="#F4F2E9"/>
<circle cx="100.5" cy="100.5" r="1.5" fill="#F4F2E9"/>
<circle cx="109.5" cy="100.5" r="1.5" fill="#F4F2E9"/>
<circle cx="118.5" cy="100.5" r="1.5" fill="#F4F2E9"/>
<circle cx="127.5" cy="100.5" r="1.5" fill="#F4F2E9"/>
</g>
<defs>
<clipPath id="clip0_103_3033">
<rect width="129" height="105" fill="white"/>
</clipPath>
</defs>
</svg>
