<svg width="128" height="128" viewBox="0 0 128 128" fill="none" xmlns="http://www.w3.org/2000/svg">
<g clip-path="url(#clip0_35_44)">
<path d="M119.414 36.8747C113.691 27.069 105.928 19.3058 96.1232 13.5834C86.3169 7.86063 75.6114 5 63.999 5C52.388 5 41.679 7.86151 31.8747 13.5834C22.069 19.3055 14.3064 27.069 8.58336 36.8747C2.86122 46.6801 0 57.3877 0 68.9972C0 82.9429 4.06869 95.4831 12.2081 106.621C20.3467 117.76 30.8605 125.468 43.7486 129.745C45.2489 130.024 46.3594 129.828 47.0815 129.163C47.8039 128.497 48.1646 127.663 48.1646 126.664C48.1646 126.497 48.1503 124.998 48.1226 122.164C48.094 119.33 48.0806 116.858 48.0806 114.749L46.1639 115.08C44.9418 115.304 43.4001 115.399 41.5389 115.372C39.6785 115.346 37.7472 115.151 35.7476 114.789C33.7471 114.429 31.8864 113.596 30.1641 112.291C28.4426 110.985 27.2205 109.276 26.4981 107.166L25.6649 105.249C25.1094 103.972 24.235 102.554 23.0403 100.999C21.8457 99.4435 20.6377 98.3887 19.4156 97.8333L18.8321 97.4156C18.4434 97.138 18.0826 96.8033 17.749 96.4148C17.4157 96.0263 17.1661 95.6375 16.9995 95.2482C16.8325 94.8585 16.9709 94.5389 17.416 94.2882C17.8611 94.0375 18.6655 93.9158 19.8327 93.9158L21.4987 94.1647C22.6098 94.3874 23.9843 95.0526 25.6237 96.1644C27.2623 97.2752 28.6093 98.7194 29.665 100.496C30.9433 102.775 32.4836 104.511 34.2899 105.705C36.0949 106.9 37.9147 107.496 39.7477 107.496C41.5806 107.496 43.1637 107.357 44.4976 107.081C45.83 106.803 47.0801 106.385 48.2472 105.83C48.7472 102.107 50.1085 99.2459 52.3299 97.2463C49.1637 96.9136 46.3171 96.4124 43.7886 95.7461C41.2616 95.0789 38.6502 93.996 35.9562 92.4946C33.2608 90.9953 31.0248 89.1335 29.2476 86.9123C27.4701 84.69 26.0113 81.7724 24.8733 78.1623C23.7347 74.5507 23.1653 70.3845 23.1653 65.6626C23.1653 58.9393 25.3601 53.2181 29.749 48.4956C27.6931 43.4409 27.8872 37.7746 30.3319 31.497C31.943 30.9964 34.3323 31.3721 37.4985 32.6216C40.6653 33.8716 42.9839 34.9425 44.4567 35.8304C45.9295 36.718 47.1095 37.4701 47.9986 38.0801C53.1662 36.6363 58.4989 35.9142 63.9984 35.9142C69.4978 35.9142 74.8318 36.6363 79.9997 38.0801L83.1662 36.0811C85.3316 34.7473 87.8887 33.5249 90.8313 32.4137C93.7757 31.3032 96.0272 30.9973 97.5835 31.4979C100.082 37.7757 100.305 43.4418 98.2486 48.4965C102.637 53.2189 104.833 58.9417 104.833 65.6635C104.833 70.3854 104.261 74.5647 103.125 78.204C101.986 81.844 100.515 84.7586 98.7101 86.9541C96.9031 89.1492 94.6528 90.9965 91.9588 92.4955C89.2643 93.9957 86.652 95.0786 84.125 95.7458C81.5968 96.413 78.7502 96.9145 75.5839 97.2478C78.4717 99.7468 79.9159 103.691 79.9159 109.08V126.661C79.9159 127.66 80.2632 128.494 80.9585 129.16C81.6528 129.826 82.7494 130.021 84.2496 129.743C97.1395 125.466 107.653 117.758 115.792 106.619C123.929 95.4808 127.999 82.9405 127.999 68.9949C127.996 57.3869 125.134 46.6801 119.414 36.8747Z" fill="black"/>
<g clip-path="url(#clip1_35_44)">
<circle cx="1.5" cy="1.5" r="1.5" fill="#FFDE00"/>
<circle cx="10.5" cy="1.5" r="1.5" fill="#FFDE00"/>
<circle cx="19.5" cy="1.5" r="1.5" fill="#FFDE00"/>
<circle cx="28.5" cy="1.5" r="1.5" fill="#FFDE00"/>
<circle cx="37.5" cy="1.5" r="1.5" fill="#FFDE00"/>
<circle cx="46.5" cy="1.5" r="1.5" fill="#FFDE00"/>
<circle cx="55.5" cy="1.5" r="1.5" fill="#FFDE00"/>
<circle cx="64.5" cy="1.5" r="1.5" fill="#FFDE00"/>
<circle cx="73.5" cy="1.5" r="1.5" fill="#FFDE00"/>
<circle cx="82.5" cy="1.5" r="1.5" fill="#FFDE00"/>
<circle cx="91.5" cy="1.5" r="1.5" fill="#FFDE00"/>
<circle cx="100.5" cy="1.5" r="1.5" fill="#FFDE00"/>
<circle cx="109.5" cy="1.5" r="1.5" fill="#FFDE00"/>
<circle cx="118.5" cy="1.5" r="1.5" fill="#FFDE00"/>
<circle cx="127.5" cy="1.5" r="1.5" fill="#FFDE00"/>
<circle cx="1.5" cy="10.5" r="1.5" fill="#FFDE00"/>
<circle cx="10.5" cy="10.5" r="1.5" fill="#FFDE00"/>
<circle cx="19.5" cy="10.5" r="1.5" fill="#FFDE00"/>
<circle cx="28.5" cy="10.5" r="1.5" fill="#FFDE00"/>
<circle cx="37.5" cy="10.5" r="1.5" fill="#FFDE00"/>
<circle cx="46.5" cy="10.5" r="1.5" fill="#FFDE00"/>
<circle cx="55.5" cy="10.5" r="1.5" fill="#FFDE00"/>
<circle cx="64.5" cy="10.5" r="1.5" fill="#FFDE00"/>
<circle cx="73.5" cy="10.5" r="1.5" fill="#FFDE00"/>
<circle cx="82.5" cy="10.5" r="1.5" fill="#FFDE00"/>
<circle cx="91.5" cy="10.5" r="1.5" fill="#FFDE00"/>
<circle cx="100.5" cy="10.5" r="1.5" fill="#FFDE00"/>
<circle cx="109.5" cy="10.5" r="1.5" fill="#FFDE00"/>
<circle cx="118.5" cy="10.5" r="1.5" fill="#FFDE00"/>
<circle cx="127.5" cy="10.5" r="1.5" fill="#FFDE00"/>
<circle cx="1.5" cy="19.5" r="1.5" fill="#FFDE00"/>
<circle cx="10.5" cy="19.5" r="1.5" fill="#FFDE00"/>
<circle cx="19.5" cy="19.5" r="1.5" fill="#FFDE00"/>
<circle cx="28.5" cy="19.5" r="1.5" fill="#FFDE00"/>
<circle cx="37.5" cy="19.5" r="1.5" fill="#FFDE00"/>
<circle cx="46.5" cy="19.5" r="1.5" fill="#FFDE00"/>
<circle cx="55.5" cy="19.5" r="1.5" fill="#FFDE00"/>
<circle cx="64.5" cy="19.5" r="1.5" fill="#FFDE00"/>
<circle cx="73.5" cy="19.5" r="1.5" fill="#FFDE00"/>
<circle cx="82.5" cy="19.5" r="1.5" fill="#FFDE00"/>
<circle cx="91.5" cy="19.5" r="1.5" fill="#FFDE00"/>
<circle cx="100.5" cy="19.5" r="1.5" fill="#FFDE00"/>
<circle cx="109.5" cy="19.5" r="1.5" fill="#FFDE00"/>
<circle cx="118.5" cy="19.5" r="1.5" fill="#FFDE00"/>
<circle cx="127.5" cy="19.5" r="1.5" fill="#FFDE00"/>
<circle cx="1.5" cy="28.5" r="1.5" fill="#FFDE00"/>
<circle cx="10.5" cy="28.5" r="1.5" fill="#FFDE00"/>
<circle cx="19.5" cy="28.5" r="1.5" fill="#FFDE00"/>
<circle cx="28.5" cy="28.5" r="1.5" fill="#FFDE00"/>
<circle cx="37.5" cy="28.5" r="1.5" fill="#FFDE00"/>
<circle cx="46.5" cy="28.5" r="1.5" fill="#FFDE00"/>
<circle cx="55.5" cy="28.5" r="1.5" fill="#FFDE00"/>
<circle cx="64.5" cy="28.5" r="1.5" fill="#FFDE00"/>
<circle cx="73.5" cy="28.5" r="1.5" fill="#FFDE00"/>
<circle cx="82.5" cy="28.5" r="1.5" fill="#FFDE00"/>
<circle cx="91.5" cy="28.5" r="1.5" fill="#FFDE00"/>
<circle cx="100.5" cy="28.5" r="1.5" fill="#FFDE00"/>
<circle cx="109.5" cy="28.5" r="1.5" fill="#FFDE00"/>
<circle cx="118.5" cy="28.5" r="1.5" fill="#FFDE00"/>
<circle cx="127.5" cy="28.5" r="1.5" fill="#FFDE00"/>
<circle cx="1.5" cy="37.5" r="1.5" fill="#FFDE00"/>
<circle cx="10.5" cy="37.5" r="1.5" fill="#FFDE00"/>
<circle cx="19.5" cy="37.5" r="1.5" fill="#FFDE00"/>
<circle cx="28.5" cy="37.5" r="1.5" fill="#FFDE00"/>
<circle cx="37.5" cy="37.5" r="1.5" fill="#FFDE00"/>
<circle cx="46.5" cy="37.5" r="1.5" fill="#FFDE00"/>
<circle cx="55.5" cy="37.5" r="1.5" fill="#FFDE00"/>
<circle cx="64.5" cy="37.5" r="1.5" fill="#FFDE00"/>
<circle cx="73.5" cy="37.5" r="1.5" fill="#FFDE00"/>
<circle cx="82.5" cy="37.5" r="1.5" fill="#FFDE00"/>
<circle cx="91.5" cy="37.5" r="1.5" fill="#FFDE00"/>
<circle cx="100.5" cy="37.5" r="1.5" fill="#FFDE00"/>
<circle cx="109.5" cy="37.5" r="1.5" fill="#FFDE00"/>
<circle cx="118.5" cy="37.5" r="1.5" fill="#FFDE00"/>
<circle cx="127.5" cy="37.5" r="1.5" fill="#FFDE00"/>
<circle cx="1.5" cy="46.5" r="1.5" fill="#FFDE00"/>
<circle cx="10.5" cy="46.5" r="1.5" fill="#FFDE00"/>
<circle cx="19.5" cy="46.5" r="1.5" fill="#FFDE00"/>
<circle cx="28.5" cy="46.5" r="1.5" fill="#FFDE00"/>
<circle cx="37.5" cy="46.5" r="1.5" fill="#FFDE00"/>
<circle cx="46.5" cy="46.5" r="1.5" fill="#FFDE00"/>
<circle cx="55.5" cy="46.5" r="1.5" fill="#FFDE00"/>
<circle cx="64.5" cy="46.5" r="1.5" fill="#FFDE00"/>
<circle cx="73.5" cy="46.5" r="1.5" fill="#FFDE00"/>
<circle cx="82.5" cy="46.5" r="1.5" fill="#FFDE00"/>
<circle cx="91.5" cy="46.5" r="1.5" fill="#FFDE00"/>
<circle cx="100.5" cy="46.5" r="1.5" fill="#FFDE00"/>
<circle cx="109.5" cy="46.5" r="1.5" fill="#FFDE00"/>
<circle cx="118.5" cy="46.5" r="1.5" fill="#FFDE00"/>
<circle cx="127.5" cy="46.5" r="1.5" fill="#FFDE00"/>
<circle cx="1.5" cy="55.5" r="1.5" fill="#FFDE00"/>
<circle cx="10.5" cy="55.5" r="1.5" fill="#FFDE00"/>
<circle cx="19.5" cy="55.5" r="1.5" fill="#FFDE00"/>
<circle cx="28.5" cy="55.5" r="1.5" fill="#FFDE00"/>
<circle cx="37.5" cy="55.5" r="1.5" fill="#FFDE00"/>
<circle cx="46.5" cy="55.5" r="1.5" fill="#FFDE00"/>
<circle cx="55.5" cy="55.5" r="1.5" fill="#FFDE00"/>
<circle cx="64.5" cy="55.5" r="1.5" fill="#FFDE00"/>
<circle cx="73.5" cy="55.5" r="1.5" fill="#FFDE00"/>
<circle cx="82.5" cy="55.5" r="1.5" fill="#FFDE00"/>
<circle cx="91.5" cy="55.5" r="1.5" fill="#FFDE00"/>
<circle cx="100.5" cy="55.5" r="1.5" fill="#FFDE00"/>
<circle cx="109.5" cy="55.5" r="1.5" fill="#FFDE00"/>
<circle cx="118.5" cy="55.5" r="1.5" fill="#FFDE00"/>
<circle cx="127.5" cy="55.5" r="1.5" fill="#FFDE00"/>
<circle cx="1.5" cy="64.5" r="1.5" fill="#FFDE00"/>
<circle cx="10.5" cy="64.5" r="1.5" fill="#FFDE00"/>
<circle cx="19.5" cy="64.5" r="1.5" fill="#FFDE00"/>
<circle cx="28.5" cy="64.5" r="1.5" fill="#FFDE00"/>
<circle cx="37.5" cy="64.5" r="1.5" fill="#FFDE00"/>
<circle cx="46.5" cy="64.5" r="1.5" fill="#FFDE00"/>
<circle cx="55.5" cy="64.5" r="1.5" fill="#FFDE00"/>
<circle cx="64.5" cy="64.5" r="1.5" fill="#FFDE00"/>
<circle cx="73.5" cy="64.5" r="1.5" fill="#FFDE00"/>
<circle cx="82.5" cy="64.5" r="1.5" fill="#FFDE00"/>
<circle cx="91.5" cy="64.5" r="1.5" fill="#FFDE00"/>
<circle cx="100.5" cy="64.5" r="1.5" fill="#FFDE00"/>
<circle cx="109.5" cy="64.5" r="1.5" fill="#FFDE00"/>
<circle cx="118.5" cy="64.5" r="1.5" fill="#FFDE00"/>
<circle cx="127.5" cy="64.5" r="1.5" fill="#FFDE00"/>
<circle cx="1.5" cy="73.5" r="1.5" fill="#FFDE00"/>
<circle cx="10.5" cy="73.5" r="1.5" fill="#FFDE00"/>
<circle cx="19.5" cy="73.5" r="1.5" fill="#FFDE00"/>
<circle cx="28.5" cy="73.5" r="1.5" fill="#FFDE00"/>
<circle cx="37.5" cy="73.5" r="1.5" fill="#FFDE00"/>
<circle cx="46.5" cy="73.5" r="1.5" fill="#FFDE00"/>
<circle cx="55.5" cy="73.5" r="1.5" fill="#FFDE00"/>
<circle cx="64.5" cy="73.5" r="1.5" fill="#FFDE00"/>
<circle cx="73.5" cy="73.5" r="1.5" fill="#FFDE00"/>
<circle cx="82.5" cy="73.5" r="1.5" fill="#FFDE00"/>
<circle cx="91.5" cy="73.5" r="1.5" fill="#FFDE00"/>
<circle cx="100.5" cy="73.5" r="1.5" fill="#FFDE00"/>
<circle cx="109.5" cy="73.5" r="1.5" fill="#FFDE00"/>
<circle cx="118.5" cy="73.5" r="1.5" fill="#FFDE00"/>
<circle cx="127.5" cy="73.5" r="1.5" fill="#FFDE00"/>
<circle cx="1.5" cy="82.5" r="1.5" fill="#FFDE00"/>
<circle cx="10.5" cy="82.5" r="1.5" fill="#FFDE00"/>
<circle cx="19.5" cy="82.5" r="1.5" fill="#FFDE00"/>
<circle cx="28.5" cy="82.5" r="1.5" fill="#FFDE00"/>
<circle cx="37.5" cy="82.5" r="1.5" fill="#FFDE00"/>
<circle cx="46.5" cy="82.5" r="1.5" fill="#FFDE00"/>
<circle cx="55.5" cy="82.5" r="1.5" fill="#FFDE00"/>
<circle cx="64.5" cy="82.5" r="1.5" fill="#FFDE00"/>
<circle cx="73.5" cy="82.5" r="1.5" fill="#FFDE00"/>
<circle cx="82.5" cy="82.5" r="1.5" fill="#FFDE00"/>
<circle cx="91.5" cy="82.5" r="1.5" fill="#FFDE00"/>
<circle cx="100.5" cy="82.5" r="1.5" fill="#FFDE00"/>
<circle cx="109.5" cy="82.5" r="1.5" fill="#FFDE00"/>
<circle cx="118.5" cy="82.5" r="1.5" fill="#FFDE00"/>
<circle cx="127.5" cy="82.5" r="1.5" fill="#FFDE00"/>
<circle cx="1.5" cy="91.5" r="1.5" fill="#FFDE00"/>
<circle cx="10.5" cy="91.5" r="1.5" fill="#FFDE00"/>
<circle cx="19.5" cy="91.5" r="1.5" fill="#FFDE00"/>
<circle cx="28.5" cy="91.5" r="1.5" fill="#FFDE00"/>
<circle cx="37.5" cy="91.5" r="1.5" fill="#FFDE00"/>
<circle cx="46.5" cy="91.5" r="1.5" fill="#FFDE00"/>
<circle cx="55.5" cy="91.5" r="1.5" fill="#FFDE00"/>
<circle cx="64.5" cy="91.5" r="1.5" fill="#FFDE00"/>
<circle cx="73.5" cy="91.5" r="1.5" fill="#FFDE00"/>
<circle cx="82.5" cy="91.5" r="1.5" fill="#FFDE00"/>
<circle cx="91.5" cy="91.5" r="1.5" fill="#FFDE00"/>
<circle cx="100.5" cy="91.5" r="1.5" fill="#FFDE00"/>
<circle cx="109.5" cy="91.5" r="1.5" fill="#FFDE00"/>
<circle cx="118.5" cy="91.5" r="1.5" fill="#FFDE00"/>
<circle cx="127.5" cy="91.5" r="1.5" fill="#FFDE00"/>
<circle cx="1.5" cy="100.5" r="1.5" fill="#FFDE00"/>
<circle cx="10.5" cy="100.5" r="1.5" fill="#FFDE00"/>
<circle cx="19.5" cy="100.5" r="1.5" fill="#FFDE00"/>
<circle cx="28.5" cy="100.5" r="1.5" fill="#FFDE00"/>
<circle cx="37.5" cy="100.5" r="1.5" fill="#FFDE00"/>
<circle cx="46.5" cy="100.5" r="1.5" fill="#FFDE00"/>
<circle cx="55.5" cy="100.5" r="1.5" fill="#FFDE00"/>
<circle cx="64.5" cy="100.5" r="1.5" fill="#FFDE00"/>
<circle cx="73.5" cy="100.5" r="1.5" fill="#FFDE00"/>
<circle cx="82.5" cy="100.5" r="1.5" fill="#FFDE00"/>
<circle cx="91.5" cy="100.5" r="1.5" fill="#FFDE00"/>
<circle cx="100.5" cy="100.5" r="1.5" fill="#FFDE00"/>
<circle cx="109.5" cy="100.5" r="1.5" fill="#FFDE00"/>
<circle cx="118.5" cy="100.5" r="1.5" fill="#FFDE00"/>
<circle cx="127.5" cy="100.5" r="1.5" fill="#FFDE00"/>
<circle cx="1.5" cy="109.5" r="1.5" fill="#FFDE00"/>
<circle cx="10.5" cy="109.5" r="1.5" fill="#FFDE00"/>
<circle cx="19.5" cy="109.5" r="1.5" fill="#FFDE00"/>
<circle cx="28.5" cy="109.5" r="1.5" fill="#FFDE00"/>
<circle cx="37.5" cy="109.5" r="1.5" fill="#FFDE00"/>
<circle cx="46.5" cy="109.5" r="1.5" fill="#FFDE00"/>
<circle cx="55.5" cy="109.5" r="1.5" fill="#FFDE00"/>
<circle cx="64.5" cy="109.5" r="1.5" fill="#FFDE00"/>
<circle cx="73.5" cy="109.5" r="1.5" fill="#FFDE00"/>
<circle cx="82.5" cy="109.5" r="1.5" fill="#FFDE00"/>
<circle cx="91.5" cy="109.5" r="1.5" fill="#FFDE00"/>
<circle cx="100.5" cy="109.5" r="1.5" fill="#FFDE00"/>
<circle cx="109.5" cy="109.5" r="1.5" fill="#FFDE00"/>
<circle cx="118.5" cy="109.5" r="1.5" fill="#FFDE00"/>
<circle cx="127.5" cy="109.5" r="1.5" fill="#FFDE00"/>
<circle cx="1.5" cy="118.5" r="1.5" fill="#FFDE00"/>
<circle cx="10.5" cy="118.5" r="1.5" fill="#FFDE00"/>
<circle cx="19.5" cy="118.5" r="1.5" fill="#FFDE00"/>
<circle cx="28.5" cy="118.5" r="1.5" fill="#FFDE00"/>
<circle cx="37.5" cy="118.5" r="1.5" fill="#FFDE00"/>
<circle cx="46.5" cy="118.5" r="1.5" fill="#FFDE00"/>
<circle cx="55.5" cy="118.5" r="1.5" fill="#FFDE00"/>
<circle cx="64.5" cy="118.5" r="1.5" fill="#FFDE00"/>
<circle cx="73.5" cy="118.5" r="1.5" fill="#FFDE00"/>
<circle cx="82.5" cy="118.5" r="1.5" fill="#FFDE00"/>
<circle cx="91.5" cy="118.5" r="1.5" fill="#FFDE00"/>
<circle cx="100.5" cy="118.5" r="1.5" fill="#FFDE00"/>
<circle cx="109.5" cy="118.5" r="1.5" fill="#FFDE00"/>
<circle cx="118.5" cy="118.5" r="1.5" fill="#FFDE00"/>
<circle cx="127.5" cy="118.5" r="1.5" fill="#FFDE00"/>
<circle cx="1.5" cy="127.5" r="1.5" fill="#FFDE00"/>
<circle cx="10.5" cy="127.5" r="1.5" fill="#FFDE00"/>
<circle cx="19.5" cy="127.5" r="1.5" fill="#FFDE00"/>
<circle cx="28.5" cy="127.5" r="1.5" fill="#FFDE00"/>
<circle cx="37.5" cy="127.5" r="1.5" fill="#FFDE00"/>
<circle cx="46.5" cy="127.5" r="1.5" fill="#FFDE00"/>
<circle cx="55.5" cy="127.5" r="1.5" fill="#FFDE00"/>
<circle cx="64.5" cy="127.5" r="1.5" fill="#FFDE00"/>
<circle cx="73.5" cy="127.5" r="1.5" fill="#FFDE00"/>
<circle cx="82.5" cy="127.5" r="1.5" fill="#FFDE00"/>
<circle cx="91.5" cy="127.5" r="1.5" fill="#FFDE00"/>
<circle cx="100.5" cy="127.5" r="1.5" fill="#FFDE00"/>
<circle cx="109.5" cy="127.5" r="1.5" fill="#FFDE00"/>
<circle cx="118.5" cy="127.5" r="1.5" fill="#FFDE00"/>
<circle cx="127.5" cy="127.5" r="1.5" fill="#FFDE00"/>
</g>
</g>
<defs>
<clipPath id="clip0_35_44">
<rect width="128" height="128" fill="white"/>
</clipPath>
<clipPath id="clip1_35_44">
<rect width="140" height="134" fill="white" transform="translate(-9)"/>
</clipPath>
</defs>
</svg>
