<svg width="132" height="130" viewBox="0 0 132 130" fill="none" xmlns="http://www.w3.org/2000/svg">
<path d="M64 128C51.342 128 38.9683 124.246 28.4435 117.214C17.9188 110.182 9.71574 100.186 4.87174 88.4917C0.0277299 76.7972 -1.23968 63.929 1.22977 51.5142C3.69922 39.0994 9.79463 27.6957 18.7452 18.7452C27.6957 9.79463 39.0994 3.69922 51.5142 1.22977C63.929 -1.23968 76.7972 0.0277299 88.4917 4.87174C100.186 9.71574 110.182 17.9188 117.214 28.4435C124.246 38.9683 128 51.342 128 64C127.98 80.9676 121.23 97.2346 109.233 109.233C97.2346 121.23 80.9676 127.98 64 128ZM64 8.45557C53.0143 8.45557 42.2754 11.7132 33.1412 17.8165C24.0069 23.9198 16.8877 32.5946 12.6836 42.7441C8.47961 52.8935 7.37964 64.0616 9.52284 74.8362C11.666 85.6107 16.9561 95.5078 24.7242 103.276C32.4922 111.044 42.3892 116.334 53.1638 118.477C63.9384 120.62 75.1065 119.52 85.2559 115.316C95.4053 111.112 104.08 103.993 110.183 94.8588C116.287 85.7246 119.544 74.9856 119.544 64C119.527 49.2742 113.669 35.1566 103.256 24.7439C92.8433 14.3312 78.7258 8.47347 64 8.45557Z" fill="#7A5FFF"/>
<path d="M64.0002 128C47.5203 128 38.6335 95.0233 38.6335 64C38.6335 32.9766 47.5203 0 64.0002 0C80.48 0 89.3668 32.9766 89.3668 64C89.3668 95.0233 80.48 128 64.0002 128ZM64.0002 8.45554C57.1089 8.45554 47.0891 30.0933 47.0891 64C47.0891 79.499 49.203 94.0087 53.008 104.857C56.1619 113.778 60.4657 119.544 64.0002 119.544C70.8914 119.544 80.9112 97.9067 80.9112 64C80.9112 48.501 78.7973 33.9913 74.9924 23.1428C71.8046 14.2222 67.5007 8.45554 64.0002 8.45554Z" fill="#7A5FFF"/>
<path d="M123.772 68.2278H4.22777C3.10649 68.2278 2.03114 67.7823 1.23828 66.9895C0.445424 66.1966 0 65.1213 0 64C0 62.8787 0.445424 61.8034 1.23828 61.0105C2.03114 60.2176 3.10649 59.7722 4.22777 59.7722H123.772C124.893 59.7722 125.969 60.2176 126.762 61.0105C127.554 61.8034 128 62.8787 128 64C128 65.1213 127.554 66.1966 126.762 66.9895C125.969 67.7823 124.893 68.2278 123.772 68.2278Z" fill="#7A5FFF"/>
<path d="M117.313 41.1701H10.7305C9.60918 41.1701 8.53383 40.7247 7.74097 39.9319C6.94811 39.139 6.50269 38.0636 6.50269 36.9424C6.50269 35.8211 6.94811 34.7457 7.74097 33.9529C8.53383 33.16 9.60918 32.7146 10.7305 32.7146H117.355C118.476 32.7146 119.551 33.16 120.344 33.9529C121.137 34.7457 121.583 35.8211 121.583 36.9424C121.583 38.0636 121.137 39.139 120.344 39.9319C119.551 40.7247 118.476 41.1701 117.355 41.1701H117.313Z" fill="#7A5FFF"/>
<path d="M117.313 95.2856H10.7305C9.60918 95.2856 8.53383 94.8402 7.74097 94.0473C6.94811 93.2545 6.50269 92.1791 6.50269 91.0578C6.50269 89.9366 6.94811 88.8612 7.74097 88.0684C8.53383 87.2755 9.60918 86.8301 10.7305 86.8301H117.355C118.476 86.8301 119.551 87.2755 120.344 88.0684C121.137 88.8612 121.583 89.9366 121.583 91.0578C121.583 92.1791 121.137 93.2545 120.344 94.0473C119.551 94.8402 118.476 95.2856 117.355 95.2856H117.313Z" fill="#7A5FFF"/>
<g clip-path="url(#clip0_103_2872)">
<circle cx="1.5" cy="1.5" r="1.5" fill="#FFDE00"/>
<circle cx="10.5" cy="1.5" r="1.5" fill="#FFDE00"/>
<circle cx="19.5" cy="1.5" r="1.5" fill="#FFDE00"/>
<circle cx="28.5" cy="1.5" r="1.5" fill="#FFDE00"/>
<circle cx="37.5" cy="1.5" r="1.5" fill="#FFDE00"/>
<circle cx="46.5" cy="1.5" r="1.5" fill="#FFDE00"/>
<circle cx="55.5" cy="1.5" r="1.5" fill="#FFDE00"/>
<circle cx="64.5" cy="1.5" r="1.5" fill="#FFDE00"/>
<circle cx="73.5" cy="1.5" r="1.5" fill="#FFDE00"/>
<circle cx="82.5" cy="1.5" r="1.5" fill="#FFDE00"/>
<circle cx="91.5" cy="1.5" r="1.5" fill="#FFDE00"/>
<circle cx="100.5" cy="1.5" r="1.5" fill="#FFDE00"/>
<circle cx="109.5" cy="1.5" r="1.5" fill="#FFDE00"/>
<circle cx="118.5" cy="1.5" r="1.5" fill="#FFDE00"/>
<circle cx="127.5" cy="1.5" r="1.5" fill="#FFDE00"/>
<circle cx="1.5" cy="10.5" r="1.5" fill="#FFDE00"/>
<circle cx="10.5" cy="10.5" r="1.5" fill="#FFDE00"/>
<circle cx="19.5" cy="10.5" r="1.5" fill="#FFDE00"/>
<circle cx="28.5" cy="10.5" r="1.5" fill="#FFDE00"/>
<circle cx="37.5" cy="10.5" r="1.5" fill="#FFDE00"/>
<circle cx="46.5" cy="10.5" r="1.5" fill="#FFDE00"/>
<circle cx="55.5" cy="10.5" r="1.5" fill="#FFDE00"/>
<circle cx="64.5" cy="10.5" r="1.5" fill="#FFDE00"/>
<circle cx="73.5" cy="10.5" r="1.5" fill="#FFDE00"/>
<circle cx="82.5" cy="10.5" r="1.5" fill="#FFDE00"/>
<circle cx="91.5" cy="10.5" r="1.5" fill="#FFDE00"/>
<circle cx="100.5" cy="10.5" r="1.5" fill="#FFDE00"/>
<circle cx="109.5" cy="10.5" r="1.5" fill="#FFDE00"/>
<circle cx="118.5" cy="10.5" r="1.5" fill="#FFDE00"/>
<circle cx="127.5" cy="10.5" r="1.5" fill="#FFDE00"/>
<circle cx="1.5" cy="19.5" r="1.5" fill="#FFDE00"/>
<circle cx="10.5" cy="19.5" r="1.5" fill="#FFDE00"/>
<circle cx="19.5" cy="19.5" r="1.5" fill="#FFDE00"/>
<circle cx="28.5" cy="19.5" r="1.5" fill="#FFDE00"/>
<circle cx="37.5" cy="19.5" r="1.5" fill="#FFDE00"/>
<circle cx="46.5" cy="19.5" r="1.5" fill="#FFDE00"/>
<circle cx="55.5" cy="19.5" r="1.5" fill="#FFDE00"/>
<circle cx="64.5" cy="19.5" r="1.5" fill="#FFDE00"/>
<circle cx="73.5" cy="19.5" r="1.5" fill="#FFDE00"/>
<circle cx="82.5" cy="19.5" r="1.5" fill="#FFDE00"/>
<circle cx="91.5" cy="19.5" r="1.5" fill="#FFDE00"/>
<circle cx="100.5" cy="19.5" r="1.5" fill="#FFDE00"/>
<circle cx="109.5" cy="19.5" r="1.5" fill="#FFDE00"/>
<circle cx="118.5" cy="19.5" r="1.5" fill="#FFDE00"/>
<circle cx="127.5" cy="19.5" r="1.5" fill="#FFDE00"/>
<circle cx="1.5" cy="28.5" r="1.5" fill="#FFDE00"/>
<circle cx="10.5" cy="28.5" r="1.5" fill="#FFDE00"/>
<circle cx="19.5" cy="28.5" r="1.5" fill="#FFDE00"/>
<circle cx="28.5" cy="28.5" r="1.5" fill="#FFDE00"/>
<circle cx="37.5" cy="28.5" r="1.5" fill="#FFDE00"/>
<circle cx="46.5" cy="28.5" r="1.5" fill="#FFDE00"/>
<circle cx="55.5" cy="28.5" r="1.5" fill="#FFDE00"/>
<circle cx="64.5" cy="28.5" r="1.5" fill="#FFDE00"/>
<circle cx="73.5" cy="28.5" r="1.5" fill="#FFDE00"/>
<circle cx="82.5" cy="28.5" r="1.5" fill="#FFDE00"/>
<circle cx="91.5" cy="28.5" r="1.5" fill="#FFDE00"/>
<circle cx="100.5" cy="28.5" r="1.5" fill="#FFDE00"/>
<circle cx="109.5" cy="28.5" r="1.5" fill="#FFDE00"/>
<circle cx="118.5" cy="28.5" r="1.5" fill="#FFDE00"/>
<circle cx="127.5" cy="28.5" r="1.5" fill="#FFDE00"/>
<circle cx="1.5" cy="37.5" r="1.5" fill="#FFDE00"/>
<circle cx="10.5" cy="37.5" r="1.5" fill="#FFDE00"/>
<circle cx="19.5" cy="37.5" r="1.5" fill="#FFDE00"/>
<circle cx="28.5" cy="37.5" r="1.5" fill="#FFDE00"/>
<circle cx="37.5" cy="37.5" r="1.5" fill="#FFDE00"/>
<circle cx="46.5" cy="37.5" r="1.5" fill="#FFDE00"/>
<circle cx="55.5" cy="37.5" r="1.5" fill="#FFDE00"/>
<circle cx="64.5" cy="37.5" r="1.5" fill="#FFDE00"/>
<circle cx="73.5" cy="37.5" r="1.5" fill="#FFDE00"/>
<circle cx="82.5" cy="37.5" r="1.5" fill="#FFDE00"/>
<circle cx="91.5" cy="37.5" r="1.5" fill="#FFDE00"/>
<circle cx="100.5" cy="37.5" r="1.5" fill="#FFDE00"/>
<circle cx="109.5" cy="37.5" r="1.5" fill="#FFDE00"/>
<circle cx="118.5" cy="37.5" r="1.5" fill="#FFDE00"/>
<circle cx="127.5" cy="37.5" r="1.5" fill="#FFDE00"/>
<circle cx="1.5" cy="46.5" r="1.5" fill="#FFDE00"/>
<circle cx="10.5" cy="46.5" r="1.5" fill="#FFDE00"/>
<circle cx="19.5" cy="46.5" r="1.5" fill="#FFDE00"/>
<circle cx="28.5" cy="46.5" r="1.5" fill="#FFDE00"/>
<circle cx="37.5" cy="46.5" r="1.5" fill="#FFDE00"/>
<circle cx="46.5" cy="46.5" r="1.5" fill="#FFDE00"/>
<circle cx="55.5" cy="46.5" r="1.5" fill="#FFDE00"/>
<circle cx="64.5" cy="46.5" r="1.5" fill="#FFDE00"/>
<circle cx="73.5" cy="46.5" r="1.5" fill="#FFDE00"/>
<circle cx="82.5" cy="46.5" r="1.5" fill="#FFDE00"/>
<circle cx="91.5" cy="46.5" r="1.5" fill="#FFDE00"/>
<circle cx="100.5" cy="46.5" r="1.5" fill="#FFDE00"/>
<circle cx="109.5" cy="46.5" r="1.5" fill="#FFDE00"/>
<circle cx="118.5" cy="46.5" r="1.5" fill="#FFDE00"/>
<circle cx="127.5" cy="46.5" r="1.5" fill="#FFDE00"/>
<circle cx="1.5" cy="55.5" r="1.5" fill="#FFDE00"/>
<circle cx="10.5" cy="55.5" r="1.5" fill="#FFDE00"/>
<circle cx="19.5" cy="55.5" r="1.5" fill="#FFDE00"/>
<circle cx="28.5" cy="55.5" r="1.5" fill="#FFDE00"/>
<circle cx="37.5" cy="55.5" r="1.5" fill="#FFDE00"/>
<circle cx="46.5" cy="55.5" r="1.5" fill="#FFDE00"/>
<circle cx="55.5" cy="55.5" r="1.5" fill="#FFDE00"/>
<circle cx="64.5" cy="55.5" r="1.5" fill="#FFDE00"/>
<circle cx="73.5" cy="55.5" r="1.5" fill="#FFDE00"/>
<circle cx="82.5" cy="55.5" r="1.5" fill="#FFDE00"/>
<circle cx="91.5" cy="55.5" r="1.5" fill="#FFDE00"/>
<circle cx="100.5" cy="55.5" r="1.5" fill="#FFDE00"/>
<circle cx="109.5" cy="55.5" r="1.5" fill="#FFDE00"/>
<circle cx="118.5" cy="55.5" r="1.5" fill="#FFDE00"/>
<circle cx="127.5" cy="55.5" r="1.5" fill="#FFDE00"/>
<circle cx="1.5" cy="64.5" r="1.5" fill="#FFDE00"/>
<circle cx="10.5" cy="64.5" r="1.5" fill="#FFDE00"/>
<circle cx="19.5" cy="64.5" r="1.5" fill="#FFDE00"/>
<circle cx="28.5" cy="64.5" r="1.5" fill="#FFDE00"/>
<circle cx="37.5" cy="64.5" r="1.5" fill="#FFDE00"/>
<circle cx="46.5" cy="64.5" r="1.5" fill="#FFDE00"/>
<circle cx="55.5" cy="64.5" r="1.5" fill="#FFDE00"/>
<circle cx="64.5" cy="64.5" r="1.5" fill="#FFDE00"/>
<circle cx="73.5" cy="64.5" r="1.5" fill="#FFDE00"/>
<circle cx="82.5" cy="64.5" r="1.5" fill="#FFDE00"/>
<circle cx="91.5" cy="64.5" r="1.5" fill="#FFDE00"/>
<circle cx="100.5" cy="64.5" r="1.5" fill="#FFDE00"/>
<circle cx="109.5" cy="64.5" r="1.5" fill="#FFDE00"/>
<circle cx="118.5" cy="64.5" r="1.5" fill="#FFDE00"/>
<circle cx="127.5" cy="64.5" r="1.5" fill="#FFDE00"/>
<circle cx="1.5" cy="73.5" r="1.5" fill="#FFDE00"/>
<circle cx="10.5" cy="73.5" r="1.5" fill="#FFDE00"/>
<circle cx="19.5" cy="73.5" r="1.5" fill="#FFDE00"/>
<circle cx="28.5" cy="73.5" r="1.5" fill="#FFDE00"/>
<circle cx="37.5" cy="73.5" r="1.5" fill="#FFDE00"/>
<circle cx="46.5" cy="73.5" r="1.5" fill="#FFDE00"/>
<circle cx="55.5" cy="73.5" r="1.5" fill="#FFDE00"/>
<circle cx="64.5" cy="73.5" r="1.5" fill="#FFDE00"/>
<circle cx="73.5" cy="73.5" r="1.5" fill="#FFDE00"/>
<circle cx="82.5" cy="73.5" r="1.5" fill="#FFDE00"/>
<circle cx="91.5" cy="73.5" r="1.5" fill="#FFDE00"/>
<circle cx="100.5" cy="73.5" r="1.5" fill="#FFDE00"/>
<circle cx="109.5" cy="73.5" r="1.5" fill="#FFDE00"/>
<circle cx="118.5" cy="73.5" r="1.5" fill="#FFDE00"/>
<circle cx="127.5" cy="73.5" r="1.5" fill="#FFDE00"/>
<circle cx="1.5" cy="82.5" r="1.5" fill="#FFDE00"/>
<circle cx="10.5" cy="82.5" r="1.5" fill="#FFDE00"/>
<circle cx="19.5" cy="82.5" r="1.5" fill="#FFDE00"/>
<circle cx="28.5" cy="82.5" r="1.5" fill="#FFDE00"/>
<circle cx="37.5" cy="82.5" r="1.5" fill="#FFDE00"/>
<circle cx="46.5" cy="82.5" r="1.5" fill="#FFDE00"/>
<circle cx="55.5" cy="82.5" r="1.5" fill="#FFDE00"/>
<circle cx="64.5" cy="82.5" r="1.5" fill="#FFDE00"/>
<circle cx="73.5" cy="82.5" r="1.5" fill="#FFDE00"/>
<circle cx="82.5" cy="82.5" r="1.5" fill="#FFDE00"/>
<circle cx="91.5" cy="82.5" r="1.5" fill="#FFDE00"/>
<circle cx="100.5" cy="82.5" r="1.5" fill="#FFDE00"/>
<circle cx="109.5" cy="82.5" r="1.5" fill="#FFDE00"/>
<circle cx="118.5" cy="82.5" r="1.5" fill="#FFDE00"/>
<circle cx="127.5" cy="82.5" r="1.5" fill="#FFDE00"/>
<circle cx="1.5" cy="91.5" r="1.5" fill="#FFDE00"/>
<circle cx="10.5" cy="91.5" r="1.5" fill="#FFDE00"/>
<circle cx="19.5" cy="91.5" r="1.5" fill="#FFDE00"/>
<circle cx="28.5" cy="91.5" r="1.5" fill="#FFDE00"/>
<circle cx="37.5" cy="91.5" r="1.5" fill="#FFDE00"/>
<circle cx="46.5" cy="91.5" r="1.5" fill="#FFDE00"/>
<circle cx="55.5" cy="91.5" r="1.5" fill="#FFDE00"/>
<circle cx="64.5" cy="91.5" r="1.5" fill="#FFDE00"/>
<circle cx="73.5" cy="91.5" r="1.5" fill="#FFDE00"/>
<circle cx="82.5" cy="91.5" r="1.5" fill="#FFDE00"/>
<circle cx="91.5" cy="91.5" r="1.5" fill="#FFDE00"/>
<circle cx="100.5" cy="91.5" r="1.5" fill="#FFDE00"/>
<circle cx="109.5" cy="91.5" r="1.5" fill="#FFDE00"/>
<circle cx="118.5" cy="91.5" r="1.5" fill="#FFDE00"/>
<circle cx="127.5" cy="91.5" r="1.5" fill="#FFDE00"/>
<circle cx="1.5" cy="100.5" r="1.5" fill="#FFDE00"/>
<circle cx="10.5" cy="100.5" r="1.5" fill="#FFDE00"/>
<circle cx="19.5" cy="100.5" r="1.5" fill="#FFDE00"/>
<circle cx="28.5" cy="100.5" r="1.5" fill="#FFDE00"/>
<circle cx="37.5" cy="100.5" r="1.5" fill="#FFDE00"/>
<circle cx="46.5" cy="100.5" r="1.5" fill="#FFDE00"/>
<circle cx="55.5" cy="100.5" r="1.5" fill="#FFDE00"/>
<circle cx="64.5" cy="100.5" r="1.5" fill="#FFDE00"/>
<circle cx="73.5" cy="100.5" r="1.5" fill="#FFDE00"/>
<circle cx="82.5" cy="100.5" r="1.5" fill="#FFDE00"/>
<circle cx="91.5" cy="100.5" r="1.5" fill="#FFDE00"/>
<circle cx="100.5" cy="100.5" r="1.5" fill="#FFDE00"/>
<circle cx="109.5" cy="100.5" r="1.5" fill="#FFDE00"/>
<circle cx="118.5" cy="100.5" r="1.5" fill="#FFDE00"/>
<circle cx="127.5" cy="100.5" r="1.5" fill="#FFDE00"/>
<circle cx="1.5" cy="109.5" r="1.5" fill="#FFDE00"/>
<circle cx="10.5" cy="109.5" r="1.5" fill="#FFDE00"/>
<circle cx="19.5" cy="109.5" r="1.5" fill="#FFDE00"/>
<circle cx="28.5" cy="109.5" r="1.5" fill="#FFDE00"/>
<circle cx="37.5" cy="109.5" r="1.5" fill="#FFDE00"/>
<circle cx="46.5" cy="109.5" r="1.5" fill="#FFDE00"/>
<circle cx="55.5" cy="109.5" r="1.5" fill="#FFDE00"/>
<circle cx="64.5" cy="109.5" r="1.5" fill="#FFDE00"/>
<circle cx="73.5" cy="109.5" r="1.5" fill="#FFDE00"/>
<circle cx="82.5" cy="109.5" r="1.5" fill="#FFDE00"/>
<circle cx="91.5" cy="109.5" r="1.5" fill="#FFDE00"/>
<circle cx="100.5" cy="109.5" r="1.5" fill="#FFDE00"/>
<circle cx="109.5" cy="109.5" r="1.5" fill="#FFDE00"/>
<circle cx="118.5" cy="109.5" r="1.5" fill="#FFDE00"/>
<circle cx="127.5" cy="109.5" r="1.5" fill="#FFDE00"/>
<circle cx="1.5" cy="118.5" r="1.5" fill="#FFDE00"/>
<circle cx="10.5" cy="118.5" r="1.5" fill="#FFDE00"/>
<circle cx="19.5" cy="118.5" r="1.5" fill="#FFDE00"/>
<circle cx="28.5" cy="118.5" r="1.5" fill="#FFDE00"/>
<circle cx="37.5" cy="118.5" r="1.5" fill="#FFDE00"/>
<circle cx="46.5" cy="118.5" r="1.5" fill="#FFDE00"/>
<circle cx="55.5" cy="118.5" r="1.5" fill="#FFDE00"/>
<circle cx="64.5" cy="118.5" r="1.5" fill="#FFDE00"/>
<circle cx="73.5" cy="118.5" r="1.5" fill="#FFDE00"/>
<circle cx="82.5" cy="118.5" r="1.5" fill="#FFDE00"/>
<circle cx="91.5" cy="118.5" r="1.5" fill="#FFDE00"/>
<circle cx="100.5" cy="118.5" r="1.5" fill="#FFDE00"/>
<circle cx="109.5" cy="118.5" r="1.5" fill="#FFDE00"/>
<circle cx="118.5" cy="118.5" r="1.5" fill="#FFDE00"/>
<circle cx="127.5" cy="118.5" r="1.5" fill="#FFDE00"/>
<circle cx="1.5" cy="127.5" r="1.5" fill="#FFDE00"/>
<circle cx="10.5" cy="127.5" r="1.5" fill="#FFDE00"/>
<circle cx="19.5" cy="127.5" r="1.5" fill="#FFDE00"/>
<circle cx="28.5" cy="127.5" r="1.5" fill="#FFDE00"/>
<circle cx="37.5" cy="127.5" r="1.5" fill="#FFDE00"/>
<circle cx="46.5" cy="127.5" r="1.5" fill="#FFDE00"/>
<circle cx="55.5" cy="127.5" r="1.5" fill="#FFDE00"/>
<circle cx="64.5" cy="127.5" r="1.5" fill="#FFDE00"/>
<circle cx="73.5" cy="127.5" r="1.5" fill="#FFDE00"/>
<circle cx="82.5" cy="127.5" r="1.5" fill="#FFDE00"/>
<circle cx="91.5" cy="127.5" r="1.5" fill="#FFDE00"/>
<circle cx="100.5" cy="127.5" r="1.5" fill="#FFDE00"/>
<circle cx="109.5" cy="127.5" r="1.5" fill="#FFDE00"/>
<circle cx="118.5" cy="127.5" r="1.5" fill="#FFDE00"/>
<circle cx="127.5" cy="127.5" r="1.5" fill="#FFDE00"/>
</g>
<defs>
<clipPath id="clip0_103_2872">
<rect width="132" height="130" fill="white"/>
</clipPath>
</defs>
</svg>
