<svg width="992" height="387" viewBox="0 0 992 387" fill="none" xmlns="http://www.w3.org/2000/svg">
<path d="M0 386.875V0H230.22C238.375 0.000274658 249.408 4.18442 258.464 8.41699C262.978 10.5267 266.978 12.6367 269.849 14.2197C271.284 15.011 272.437 15.6707 273.23 16.1318C273.627 16.3623 273.934 16.5438 274.142 16.667C274.245 16.7284 274.324 16.776 274.377 16.8076C274.386 16.8128 274.394 16.8179 274.401 16.8223L394.048 137.996L394.419 138.373L394.774 137.98L478.311 45.4648L575.915 105.854L576.276 106.078L576.556 105.758L629.306 45.1738C632.955 41.9012 636.005 39.5961 638.582 38.3359C641.161 37.075 643.177 36.9017 644.836 37.7373C646.523 38.5876 647.986 40.5495 649.273 43.9141C650.555 47.2652 651.629 51.9161 652.603 58.0039C654.55 70.182 656.014 84.9107 656.992 96.6006C657.481 102.444 657.849 107.526 658.094 111.146C658.216 112.956 658.308 114.401 658.369 115.394C658.4 115.889 658.422 116.273 658.438 116.531C658.445 116.66 658.451 116.759 658.455 116.825L658.46 116.918C658.46 116.92 658.461 116.922 658.461 116.923V116.924L658.959 116.896L658.461 116.925L658.463 116.965L658.472 117.004C661.261 129.651 665.055 137.491 671.163 142.323C677.263 147.149 685.581 148.902 697.216 149.611L697.231 149.612H992V386.875H0Z" fill="#FFDE00"/>
</svg>
