<svg width="945" height="368" viewBox="0 0 945 368" fill="none" xmlns="http://www.w3.org/2000/svg">
<path d="M944.97 367.929H663.957L663.942 367.928C652.863 367.252 644.935 365.583 639.12 360.983C633.297 356.377 629.683 348.904 627.026 336.86L627.018 336.821L627.015 336.781L627.515 336.753L627.015 336.78V336.775C627.014 336.772 627.014 336.765 627.014 336.758C627.013 336.742 627.012 336.718 627.01 336.687C627.006 336.624 627 336.53 626.993 336.407C626.979 336.161 626.957 335.795 626.928 335.323C626.869 334.379 626.782 333.003 626.665 331.279C626.432 327.832 626.083 322.993 625.617 317.429C624.686 306.298 623.291 292.274 621.437 280.679C620.51 274.882 619.487 270.455 618.268 267.267C617.042 264.064 615.652 262.203 614.054 261.397C612.484 260.607 610.572 260.769 608.12 261.968C605.671 263.166 602.769 265.357 599.297 268.471L549.062 326.162L548.784 326.482L548.423 326.259L455.497 268.765L375.963 356.846L375.608 357.238L375.236 356.861L261.308 241.48C261.301 241.476 261.293 241.472 261.285 241.467C261.235 241.437 261.16 241.391 261.062 241.333C260.864 241.216 260.572 241.044 260.194 240.824C259.439 240.385 258.341 239.757 256.975 239.004C254.241 237.497 250.433 235.487 246.135 233.479C237.511 229.448 227.009 225.466 219.249 225.466H0V0H944.97V367.929Z" fill="#F4F2E9"/>
</svg>
