<svg width="992" height="212" viewBox="0 0 992 212" fill="none" xmlns="http://www.w3.org/2000/svg">
<path d="M991.812 211.909H696.882L696.869 211.908C685.247 211.307 676.947 209.823 670.856 205.735C664.742 201.631 660.937 194.963 658.144 184.218L658.132 184.173L658.129 184.126L658.628 184.093L658.129 184.125V184.124C658.129 184.123 658.128 184.121 658.128 184.12L658.123 184.042C658.119 183.986 658.113 183.902 658.105 183.793C658.09 183.574 658.068 183.248 658.037 182.828C657.976 181.987 657.884 180.762 657.762 179.228C657.517 176.158 657.15 171.85 656.661 166.896C655.684 156.986 654.22 144.503 652.275 134.183C651.303 129.024 650.233 125.092 648.957 122.264C647.68 119.431 646.229 117.775 644.539 117.053C642.857 116.334 640.815 116.489 638.232 117.561C635.653 118.631 632.604 120.587 628.958 123.36L576.236 174.728L575.977 174.981L575.655 174.812L478.061 123.586L394.547 202.051L394.22 202.358L393.879 202.065L274.295 99.3203C274.287 99.3163 274.278 99.3115 274.269 99.3066C274.216 99.2798 274.137 99.2396 274.033 99.1875C273.826 99.083 273.519 98.9297 273.123 98.7344C272.33 98.3433 271.177 97.7834 269.742 97.1123C266.872 95.7698 262.874 93.9798 258.361 92.1904C249.312 88.6024 238.273 85.0498 230.104 85.0498H0V0H991.812V211.909Z" fill="#F4F2E9"/>
</svg>
